<?xml version="1.0" encoding="UTF-8"?><svg id="Layer_1" xmlns="http://www.w3.org/2000/svg" viewBox="0 0 1336.1 599.42"><defs><style>.cls-1{fill:#fff;}</style></defs><path class="cls-1" d="M154.83,436.81l-4.08.34-2.72-.68h-6.12l-4.42-4.42-6.12.34-3.74-3.4v-1.02l-2.04-.34-6.8-5.44-2.72-3.74-5.1-2.72-3.06-5.78-5.78-5.44-2.72-6.12-2.38-2.04-1.36-3.4-1.7-1.36-4.42-8.84-1.7-8.49.34-2.38-2.72-3.06,4.08-2.72-1.36-1.36,1.7-2.38,3.06-2.38,4.76-1.02,3.06-2.38,4.08-1.7,3.4-4.08,3.74-2.04,3.4-3.4,6.12,1.02,2.72-.34,4.76,10.88,5.1,4.76,1.02-2.72,3.4-2.04-1.02-1.36,1.02-5.44-3.74-1.7-3.74-3.4-5.44-1.36-4.42-4.76-3.06-.34-3.74-4.42-9.17-5.78-.68-4.08-3.06.34-4.76-5.1-9.18-8.5-.68-2.72-3.06-4.08.68-3.74-1.7-5.78-.34-5.1-1.36-1.02,1.02-1.02-2.38-13.93,1.36-3.4-.34-12.91,2.38-1.02-2.04-3.06,3.06-3.74-2.04-3.4,2.38-2.72.68-2.38-.68-4.76,1.02-1.02-.34-3.06,2.38-.34v-4.76l5.1-2.38-3.4-1.02.34-3.06,1.7-1.36-.68-2.72,2.04-4.08,4.42.68v-5.44l3.4-3.06h2.04l1.36-3.06,6.46-1.36,6.12-3.06h5.78l5.44-1.02v2.38l2.72-.34,1.7-3.06h8.16l3.06-1.02,2.38,2.04,4.76-.34,2.38,1.7-1.36,1.7-6.46,2.04-1.7-.34-6.12,2.38-1.7-1.7-3.74,1.7-1.02-2.72-3.4,2.04-1.36-1.7-1.36,3.74-3.4-3.4-1.7,4.08-4.42,2.04h-5.1v1.36l-1.02,1.02-1.02-1.02v-1.36l-2.04,2.04v3.4l-4.08,2.38.68,3.4-2.72,4.08-1.36,7.14-4.76,2.38v7.48l-2.04,9.51.34,11.55.68,1.7-.34,4.08-2.04,4.76,1.36,5.44.34,8.16,1.7,5.78-1.36,3.4,7.14,14.95,2.04,2.04,2.72.34,2.38,3.4,6.46,4.76,4.76,2.04,6.8.34,2.04,4.76,3.4-1.7,9.51-.34,2.38-2.38,3.06-.68,1.7-2.04,2.38-1.02,3.06,1.36-1.02-3.74,2.38-1.36,1.02,7.48,1.7,2.72-.34,7.14.68,1.7-1.36,4.42v16.31l-5.1,6.8-2.38,2.04-1.7,4.08h-1.7l-4.08,4.42-4.08.68-4.42-1.7-3.06-.34-3.06-2.38v-.68l-10.19-7.82-9.86,6.12-5.1,5.1.34,11.21,4.76,5.78,2.04,4.76,2.38,3.06,3.4,2.04,7.14,9.18,3.4-.68,5.44,4.42,3.4-.34,5.78.68,5.44-3.06h3.74l4.08-1.02,4.76-3.4.68-3.06,2.72,1.36.68-1.36,3.4-1.02.34-3.4,3.06-6.46,3.74.34,1.7-6.8-.34-1.36,2.04-7.48,3.4-4.08-1.02-2.38,2.38-2.38v-3.74l3.06-4.42-1.36-2.72,3.06-8.16-2.04-1.02,2.04-2.04,1.36-2.72h1.02v1.36l2.72,2.38-2.72,5.78h-2.04l1.02,4.76,5.1-3.4,2.38,2.38-.34,3.4,8.84,3.74,1.36-1.7,3.06-1.7,3.74,2.38-2.38-5.1-.34-3.4-4.42-1.36-3.4-2.38,2.38-2.72v-1.7l-2.38,2.04v-3.06l2.04-4.76-2.04-8.49-.68-.34,1.02-10.87,3.06-3.74v-2.04l-1.02-1.02v-4.42l-1.02-1.02v-7.82l-2.04-1.02-2.04,1.7-3.4.68-.34,1.36h2.38v2.04l1.7.68-2.72,1.7,1.02.68.68,6.46-.68,6.46-2.38,5.44,1.02,1.7-3.06,1.36,4.08-14.95-4.42-1.36-2.38,7.82-2.04.34-.68-2.72,1.36-2.04-1.02-4.08-1.02-1.36h7.82v-2.04l-1.7-1.02v-.68l-2.04-.68-.68-3.74-2.38-1.02,4.08-2.72-.68-4.42-2.04-2.04,2.38-1.7.34-2.72,3.74-1.7-5.78-1.02.68-5.78,4.08,3.74h1.02l-.68-3.4-2.72-.34v-3.4l2.38-.34v-2.04h-3.4l1.36-9.18,2.04-4.08v-5.1l-2.38.34-3.4-4.08v-3.74l4.08,1.36.34-1.36-2.04-2.04,1.02-.68.68-6.8-4.76-3.06v-3.4l-7.82-3.74-.34-5.1,3.06-1.7-4.76-1.7v-4.42l1.36-1.02-5.44-3.4.68-1.7-5.1-1.36v-2.38h-5.1l-13.25-2.04.68-1.02,3.74-1.02,2.38-2.04h3.06l2.38-1.7,5.1,3.4v1.36l3.06-.68,3.74.68,1.7,5.44,1.7.34,1.02,3.74,2.72-2.38,1.7,5.78-.68,2.38,2.72.34,4.08,4.42,5.1,2.04,3.4,4.08,4.42,3.4,1.36,4.08,2.38.34,10.54,10.54,4.08,8.5,2.38,1.36.34,4.42,5.78,8.5v5.1l1.02.34v7.14l1.02,1.36.68,4.42-1.02,4.08.68,10.53-1.02.34,2.04,4.42-1.7,17.67v5.78l-3.06,2.04,1.02,1.7-.34,3.06-2.04,3.74,3.74,4.42-5.44,5.44h2.04l.34,4.76,2.04,1.36-3.06,5.44v2.38l-3.4,7.82,2.38,4.08-1.02,2.04-1.02,6.46-1.36,1.7v4.08l-1.36,2.38,1.36,1.7-2.04,1.7v4.76l-3.06,3.74.34,1.7-2.38,2.72,1.02.34-1.7,2.72-4.08,4.08,2.04,2.72-3.06,3.74-3.74,2.38-10.87,11.89-3.4,1.36-11.89,2.72h-9.18l-4.08,1.02h-6.46l-3.06-4.08ZM89.58,236.32l1.36-1.7h-1.36v1.7ZM93.32,384.82l2.72-3.74-4.42.68,1.7,3.06ZM104.53,205.73h1.02v-1.02l-1.02,1.02ZM141.92,297.14l.34-.68-5.1-2.38h-2.04l-4.42-1.7-9.18-10.53v-10.19l.68.34,1.36-3.4,1.36-1.02-1.36-1.7v-4.08l1.7-1.7-3.06-4.08,1.02-2.72v-3.06l2.38-.68,1.7-1.7.34-3.74,2.04-2.04-1.36-3.74,2.04.68,4.42-1.7h4.42l7.48,2.04,5.44,6.46,2.72,15.63,2.04,2.38-.68,14.27-1.02,2.04,2.04,4.08-1.02,2.38-1.02,10.87-1.7,3.06v2.04l-8.84,1.36-2.72-2.04v-4.76ZM133.42,200.29h1.02v-1.36h-1.02v1.36ZM142.6,286.27l2.38-3.06.34-2.72-4.76-1.7-2.04,2.04v2.72l4.08,2.72ZM149.05,429.68l2.72,1.7,5.44-.34-1.7-3.06-8.84-2.04-1.7-1.02-5.44-1.02-.34,2.04,4.08,1.7,3.74.34,2.04,1.7ZM143.96,332.15h1.02v-1.02l-1.02,1.02ZM170.8,412.01h1.02l-1.02-1.02v1.02ZM172.84,433.42l3.4-3.4,3.06-1.36-2.72.34-1.7-.68-4.08.68v2.38l2.04,2.04ZM176.92,383.12v-.68h-1.02l1.02.68ZM180.32,367.83h1.02l-1.02-1.7v1.7ZM186.09,394.34l2.72-4.42h5.1l.34-.68h-4.08l.34-8.5,5.78-1.02.34-3.4h-3.74v-2.38l1.36-1.02-.34-2.04-1.7-2.04,2.72-3.06v-3.74l-2.04-.34.68,3.4-5.44,4.42-2.72,7.14v12.57l2.72-.68-2.38,2.04.34,3.74ZM188.81,406.91l.34-1.02-1.7-2.72.34,2.72,1.02,1.02ZM190.17,395.01h2.04l-2.38-1.7.34,1.7ZM192.21,386.18l1.7-3.06-1.02-.68-1.02.68.34,3.06ZM202.74,410.31l-.34-4.42h-4.76l-3.4,1.02-.34-3.4-2.04.68,2.04,5.1,5.1-1.36.34,2.72,3.4-.34ZM200.03,290.35l2.72-2.38,1.02-6.8-3.06-2.72,2.72-1.36-.34-3.06-1.36-2.04-.68-4.42-3.4-2.04,4.76-.34-.34-2.38,2.72-.34-1.36,4.76,8.84.68-2.38-2.38-2.38-.34-.68-7.48.68-1.02-5.1,1.02.34-.68-1.36-2.38,1.7-4.08-3.4-2.38-1.7,3.4-1.7,1.7v4.42l.68,1.7-.34,8.5-1.36,2.04.34,4.76,2.72,2.72v2.72l1.02,2.38-2.72,3.4,2.38,1.36,1.02,3.06ZM197.65,371.91l3.06,2.04.68-2.04h2.04l1.36,1.02,2.38-.34-.34-2.38-1.7-2.72,1.7-6.46-1.36-1.02-2.38,3.06-1.36-.34-3.06,1.02,2.04,4.08-2.04,3.74-2.04-3.06-.34,2.38,1.36,1.02ZM199.01,247.19h2.04l.34-7.48h-2.38l-1.7-1.36-.68,4.08,2.38,4.76ZM211.58,390.94l2.04-1.02-2.72-1.02.68-1.36,3.74,1.36v-3.4l2.04-2.04-1.7-2.04v-2.72l-4.08-4.08-2.04.68-2.04,2.04-1.7-2.72-1.02,1.7-.34,2.72h-2.04l-1.02,2.38,1.02,1.02.34,2.04,2.72.34,2.72,5.78,3.4.34ZM209.2,400.11l.34-3.74-.68-2.72-2.72-2.38-1.7,1.7,2.38,6.8,2.38.34ZM219.06,349.48l-.34-4.76,2.72-4.42-2.72.68,1.36-6.46-.68-3.4,3.4-4.08h-3.4l1.02-1.02-2.04-1.36,5.78-8.5-2.38-1.02-1.36-3.06,1.36-1.02-.34-1.7-2.72-2.72,1.7-7.82-.34-12.23,3.06-2.04-1.7-2.38-2.38-6.8-4.42,2.04-1.36-3.74h-1.7l-1.36,3.4-2.72,1.7,1.7.34,2.72,5.44-1.36,1.36-3.06-.34-.68,1.02.68,2.04,4.76,1.02-.34,2.38h-1.02l-1.02,3.06,1.02,8.16h1.02l-.34,6.8,2.38,8.5-3.06,9.51,1.36.68-.34,3.4-1.36,2.38,2.72,1.02,1.7,2.72-3.4,4.76h1.7v1.02l2.38,1.7-2.72,3.06,6.12.68ZM209.2,404.53v-1.02h-1.7l1.7,1.02ZM215.32,354.58h2.38v-1.7l-2.38-.34v2.04ZM217.7,296.47h-1.7v-1.36l1.7,1.36ZM217.7,363.07h.68l-.68-3.06-1.7.68,1.7,2.38ZM217.7,368.51h.68l1.02-4.08-2.04,2.04.34,2.04ZM217.7,357.63l1.7-1.7-1.7,1.02v.68Z"/><path class="cls-1" d="M302.99,448.71l-3.74-1.7-1.02.68-3.4-1.36-2.72-2.38-1.7,2.72-5.1-3.06-1.02-3.74-4.42-1.36v-1.7l-6.46-5.78-3.74,1.02-3.4-7.82-2.72-.68-2.72-4.08-4.76-4.42-2.04-3.4-2.38-.34-5.78-10.87-2.04-7.14-2.38-3.4-1.36-8.5-2.04-3.4,1.02-4.76-1.7-3.06,1.36-10.54,3.4-2.38-1.7-2.38,2.38-2.72-2.38-2.04-1.7-5.1,1.7-1.02v-5.78l-1.36-5.78,1.02-2.38-4.76-5.44,2.72-1.02-.68-1.36.68-1.02-.34-1.7-2.38.68-1.36-6.46,1.7-1.7-2.04-1.36,1.7-1.7-2.04-2.38-.34-4.08,2.38-2.72-2.04-3.06,1.7-3.4-2.04-.34,2.38-2.04v-4.08l-1.7-1.36.34-5.78-1.02-1.02,1.36-.68-1.36-3.74,6.46,1.02,1.7-4.08h-2.38l-2.38,3.06.68-4.08-1.7-1.02,1.02-1.36,3.4-.34-3.4-3.74.34-2.04-2.38,2.04-.34-10.87,2.38-2.04v3.4l3.4,1.36-1.7,2.38,2.38,1.7,4.42.68,1.02,7.48-.68.34-1.36,4.08,3.74,2.38-8.5,3.06-2.72,4.42,1.02,1.02,2.04-.68,4.42.34.34,4.42h-4.76l4.42,3.06-2.38,5.44-3.06.68-1.02,3.74,3.74-2.72,1.36,1.7v8.84l2.72-1.7,1.36,1.36-.68,2.04,1.02,3.06-1.7,2.72-.34,2.72h1.7l1.36,3.06,2.04,7.82-1.36,4.76.34,2.72-1.02,4.76,2.72,1.7-1.7,2.38.68,6.46,1.36,3.06-.34,12.23,2.72,2.38,1.02,5.78-1.02,3.4,1.7,3.74v4.08l5.78,11.21,14.27,13.59,5.78,3.06,12.57,2.04,11.89-2.38,13.59-6.12,1.02-3.06,7.48-12.23-.34-3.06,1.7-2.38,3.74-24.47v-10.87l1.02-15.29,1.02-2.04-.34-14.61,3.06-4.08-2.38-.68,6.12-6.46-.68-2.72.34-2.38-1.02-3.4.68-1.02.34-6.46-3.74-3.74-1.02-13.93,6.12-.34,2.04,4.42,1.7-2.72-1.02-.68,2.38-1.02.68,4.42,3.74,1.7-4.42,3.06,1.7,1.02v3.4l-2.04,1.36.34,2.04,1.02,1.02-1.02,1.02,1.02,1.7v2.72l-1.36.34-2.04,3.06,3.4,4.08.68,8.84,2.72,1.7,5.1.34,4.42-3.74v-.68h-2.38l1.7-3.06-1.36-1.02.68-3.06,2.72-1.7-1.36-3.06-2.04-2.04-2.38-5.1,2.38-3.74h2.04l.68-1.02-1.02-1.02.68-2.04,2.72,4.42.68,7.82,2.72-2.04-1.02,2.72-3.06.68,5.44.68.68-3.06.34,4.08,2.04-.34-.68-1.7,1.36-18.69-.68-1.36v-5.44l-2.04-3.74,2.72-3.74,7.82,2.04v3.74l-1.36,1.02,2.04,5.44-1.02,7.14,1.36,5.1-.34,2.72,2.04,2.04,1.02,2.38-1.02,3.74.34,3.4,1.36,3.4.34,3.4-1.02,4.42.34,2.72-1.36,1.36,1.36,1.02v7.14l-1.36,4.42,2.38.34-1.02,5.78v5.78l-2.38,2.04,1.02.68-2.04,5.78h1.7l.68,2.72-1.36,3.4.34,1.02-1.7,4.42,1.02,5.1-1.7,6.8.68,3.06-2.04,2.38v5.44l-2.38,3.06-.34,4.08-2.72,6.8-.68,5.1-2.38,2.04-.34,6.12-2.38,1.36v1.36l3.06,1.02-3.06,2.72,1.02,2.04-6.8,10.87-1.7.34-1.02,3.06-1.7.34-5.1,4.76h-3.06l-.34-2.04-1.7.68-1.7,3.74h-7.48l-3.4,1.36-7.48,1.7-16.99.34-3.06-1.7-4.08,2.72ZM238.09,291.71l1.36-2.04-1.36-2.04-.68,1.7.68,2.38ZM238.09,317.19v-1.02h-.68l.68,1.02ZM237.75,314.14l1.7-3.06-1.36.34-.34,2.72ZM239.45,220.34v-2.72l5.44-1.7v2.04l1.7,1.02,1.36-1.02,1.36.34-1.36,2.38-2.38.68-.68,2.72-1.7,1.7-1.02-2.72-2.72-2.72ZM240.46,364.43h1.02l1.02-1.36h-1.02l-1.02,1.36ZM242.84,323.65l1.02-2.38,1.02-.68-3.4,1.7,1.36,1.36ZM356.35,269.96l-1.02-4.08.34-3.06-2.04-.68-6.46.68v2.04h-2.72l-3.74-5.1,2.38-2.04-4.76-4.76,5.78-8.16h-1.02l-2.38,2.04-1.7-.68,1.7-7.14-3.4-.34-1.7,2.04v-9.17l-2.04-4.08,2.38-4.42-3.4-.34-5.1-8.5,4.76-5.1-3.4-1.7-2.72-6.46h-1.36l-1.36,1.36-2.04-.34-.68-2.72.68-5.1-1.7-.34-3.06,2.38-2.04-1.7-3.74,1.7-1.7-3.4-5.78-1.36-1.36,1.02h-11.21l-1.02-1.36-2.72.68-1.36-2.72-2.38,3.06-3.06-.68-5.1,2.72-7.14-.34.68,3.74-2.72,2.38h-1.7l-1.36,1.02.68,1.36-2.04,3.4-2.04-4.76h-4.42l.34.68h1.7l1.02,5.78-4.76,2.38,1.02,2.04-1.36.68-4.76-5.44-1.7,1.36h-1.7l-1.02-1.02,2.04-2.38,2.04,1.02,2.04-4.76,2.38-1.36,1.02-5.44,5.1,4.76,4.42-.68,2.72-2.38-.34-2.72-5.78.68.68-2.72,2.38-2.04,4.42-1.7,2.38-2.72,3.4-1.02,1.02.68h8.5l1.36,3.4,2.38-4.76,4.76-.34v2.04l.68.34,3.4-1.7,2.38.68,2.38-2.38,3.4,4.08,3.74-.34.68-.68h2.72v.68l1.02-.34,2.38,5.78,7.48-.34,3.06,4.08,4.76,1.02,1.36,1.36,12.91,4.08,4.08,4.42,1.02,2.72,1.02-.34.34-2.72,7.48,4.42-.34,2.38,8.16,5.78,1.36,5.1,3.74,2.04-.34,3.4,3.06,1.36.34,4.08,3.06,4.42-3.4.68-.68-2.04-1.7,1.7,2.38,2.72h2.04l1.36,1.02-2.38,1.02-1.02,1.36,3.74,1.36-.34,3.06,3.06,4.42,1.36,4.08-3.4,2.38-4.42-2.38-2.72.34-.34-7.14-1.36-1.02-.68-4.08-2.72-8.16-8.84-11.55-6.12-5.78,2.38-1.36-.68-2.04h-1.36l-1.02,2.38-3.06-5.1-3.06,1.36,2.38,10.19-.68,4.08,1.36.34-.34,2.72-1.36.68,2.04,3.74.68,3.74-1.02,1.36,1.7,7.14-.68,6.8-3.06-.34-.68,1.36,4.76,1.7v1.36l2.38-.68,4.08.34,1.7,2.04.68-4.42h2.04l-.34.68,2.38,1.02,2.38,9.85-2.04.68-1.02,5.44h-1.36v-1.7l-2.72-3.74ZM247.94,384.14h2.04l.34-1.7-2.38-2.38-1.02.34,1.02,3.74ZM252.36,207.43h1.36l1.36-3.06-1.7-2.38h-1.02v5.44ZM272.75,193.5l1.7-1.02v-.68l-4.42.68,2.72,1.02ZM276.49,376.32l-2.04-6.12-2.04-2.38,1.36-8.16-1.7-6.46,1.36-6.12-1.02-8.5,1.02-4.08-2.04-14.95,1.02-24.13-.34-5.44,1.02-2.04v-9.18l1.36-16.31-.68-3.74.34-6.8,1.7-2.38,2.04-7.14v-4.76l1.36-2.38-.34-2.72,10.87-8.16.68-1.7,8.5.34,2.72,2.04,4.08,6.46-.34,1.7,2.72,7.82,2.38,2.38-.68,2.04.34,6.12,1.36,5.44-1.02,8.84,1.02,2.72-.68,1.36v12.23l1.02,1.7-1.36,2.38.68,6.12-1.02,3.06.68,3.74-.68,1.02v8.84l-1.36,6.12-.34,8.5-.68,1.02,1.02,3.4-.68,9.85-1.36,2.72-.34,5.44-2.04,7.14v7.82l-2.04,2.04v5.78l-1.36,9.85-5.44,1.36-3.06-.68-1.02,2.04-3.06,1.02-7.14-1.02-4.42-3.06-.34-2.04ZM288.38,275.4l3.06-.34v-2.72l-1.7.34v2.04l-1.36.68ZM290.76,437.49h2.04l1.36-3.06,5.1.68,5.44-2.72-2.38-2.38-4.08-1.36-5.78-.68-3.74,4.08,2.72,1.36-.34,1.36-.34,2.72ZM289.74,243.45l2.72-1.02v-1.7h-2.38l-.34,2.72ZM298.57,444.97l3.06-.68-1.7-1.02-1.7,1.02.34.68ZM302.99,278.45l1.36-2.04h-.68l-.68,2.04ZM310.13,190.1h.68l-.68-1.02h-1.7l1.7,1.02ZM339.01,234.96l1.02-2.04h-2.72l1.7,2.04ZM339.69,278.79l1.02-2.38-2.04.34,1.02,2.04ZM340.03,430.7l.34,2.72h3.74l6.12-3.06-1.7-3.74v-2.72l-3.06.34v2.04l-6.8-.34,1.36,4.76ZM340.71,284.91l1.02-1.7h-2.04v.68l1.02,1.02ZM340.71,313.8l1.02-1.7-2.04.68,1.02,1.02ZM347.17,402.49l2.04-.34,3.06-2.72-2.72-.68-.34-7.82-1.36-1.36.68-1.7v-6.8l-1.36-2.04-1.7.68.34,2.72h-1.02v-.68l-3.06,3.74-1.36,3.06,2.72,1.36.68,3.74,3.4,6.12v2.72ZM340.71,205.05h1.02v-.68l-1.02.68ZM341.73,379.04h2.38l-1.02-2.04-1.36,1.02v1.02ZM343.09,239.03l1.02-.68-1.02-1.02v1.7ZM350.23,361.03l2.72,1.7.34-1.7-1.02-1.02.68-4.08-.34-3.4.68-1.36-.68-8.16.68-2.38-1.36-4.42-3.4,4.42v3.4l-2.72,2.04.68,9.85,1.7,2.72-.34,1.36,2.38,1.02ZM348.87,336.56l3.4-1.7-1.02-3.74-3.74.68,1.36,4.76ZM348.19,325.69h1.02v-1.02l-1.02,1.02ZM350.23,321.27l1.36-.68-2.38-1.02,1.02,1.7ZM349.21,414.38l1.02-1.36h-1.02v1.36ZM361.1,292.73h.68v-1.02l-.68,1.02ZM366.2,373.95l1.36-1.02-.34-9.17,1.02-2.72-4.42-2.72-.34-3.06-1.7-.34v6.12l3.4,6.12-.68,1.02.68,4.76,1.02,1.02ZM366.2,231.56v-1.02l-1.7-.34,1.7,1.36ZM365.18,228.84h1.02v-1.36h-1.02v1.36ZM366.2,237.33h1.36l-1.36-1.02v1.02ZM369.6,312.1h.68v-2.38l-1.7.34,1.02,2.04ZM369.94,247.19l2.38-.68-2.72-.68.34,1.36Z"/><path class="cls-1" d="M409.7,291.37l-6.46-4.08-6.8-9.52-7.48-5.78-6.46-7.82-4.76-2.04.34-3.06-3.74-2.04v-5.1l6.12-2.04,1.7-3.06,2.72-2.72,1.36-5.78v-3.4l-8.5-1.02-2.04-1.7h-1.36v-7.14l-2.38-9.18,5.1-12.23-.34-3.74-1.02-1.7,2.72-1.7-.68-1.7,4.08-3.4,3.06-.68,3.74.68,2.04,2.04,7.48.34,5.1,2.72h2.38l1.36,2.38,3.74-.68,4.42-3.06-.68,1.36h4.76v1.7l2.38-.34-.68,4.42,2.72-5.44,3.4-.34-.34,2.38h-1.36l1.7,3.4,8.16,8.5,9.51,8.5,4.08,6.8.34,14.95-2.04,3.06,1.7,3.06.34,3.74-1.02,2.38-.34,8.49-5.44,11.89-.34,2.72-5.78,4.76-2.04,5.1-4.42,1.02-10.54,5.44-2.38-1.02-5.78,1.02-1.36-1.36ZM397.46,263.16l2.38-.68,9.51-11.55,3.74-7.14,1.7-7.48,2.72-6.46,1.02-.34.68-5.1-.68-3.06v-19.37l-4.42.68.34-2.72-2.38-1.02-2.38,2.04-3.4-1.02-2.04,1.02-13.25.34-2.04-2.38-2.38.34v10.19l-2.38,2.38v3.74l-1.7,2.38,1.7,3.06-.68,2.72,3.4,2.04,3.06.68,6.8-.34,2.72,7.14-3.06,6.46-3.4,8.84-5.78,7.48,5.44,5.44,4.76,1.7ZM405.96,272.34l2.72-.34-.34-5.1-2.72,3.4.34,2.04ZM422.95,282.87l3.74-3.06.68.68,2.38-5.1,2.38-2.04.68-2.04,1.7-1.36,1.36-3.06h1.7l-1.02-3.06.68-3.4-1.02,1.36v2.04l-1.7,3.06-5.1,1.02-4.08,6.12-2.72,6.8.34,2.04ZM437.22,258.4l-.68-3.06-.34,2.38,1.02.68Z"/><path class="cls-1" d="M503.15,435.79l-5.44-5.44-.34-1.7-6.12-.34-3.74-2.04-3.74.34-6.46-3.74-.68-1.7-5.1-3.74-7.14-3.06-10.19-13.93-3.06-6.12-4.76-17.33,2.04-15.63-.34-4.76,3.4-3.74,2.72-.68,2.72.34,4.08-.68,8.84-3.06,9.18-1.36-.34-3.06-5.44-6.46-5.1-7.82-1.7-.34-3.74-4.76,1.02-.68-1.02-2.38h-2.38v-1.02l1.7-1.02-4.08-1.02v-2.38l-2.38,1.02-1.7-3.06-2.04-10.53-3.74-4.76,1.02-4.42-1.02-1.36,1.36-4.42,1.02-7.82,2.04-6.12,4.08-6.46,8.49-8.16-.34-2.38,5.44-5.78,12.57-7.82h2.72l12.23-5.44,7.82-2.72,8.84,3.06,3.74,2.72h3.4l1.7,2.72,3.74,1.02,4.08,2.72-.34,1.02h3.06l6.46,4.08,11.89,5.44,4.42,4.08v2.04l2.38-.34,5.78,2.38,1.02,3.74,1.36.68,1.7,3.4,2.72,15.63,2.72,1.36v1.02l1.7,1.36v1.02l1.02.34-.34,12.23-2.04,2.38.34,2.38,2.38-1.02-.68,4.08-1.36.34,2.04,4.08-2.04,3.4-2.04,5.78-5.44,1.36-4.76,2.72-4.08-.68,8.16,10.19,1.7,4.42,3.4,1.36,2.04,4.08-1.7-.34-2.38-2.72-2.38,5.78,9.18,1.7-.34,3.06,5.1,7.48.68,3.74-.68,5.1,3.06,13.93-4.08,9.51-4.08,3.74-2.04,7.14-4.42,4.42-2.38,5.44-4.08,1.02-.68,2.38-3.4.68-9.18,7.82-10.19,2.04-1.36,1.36-3.4.34-7.48,2.04-3.74-.34h-16.99l-1.02-1.02-3.06-1.36ZM455.24,300.54v-1.02h-1.02l1.02,1.02ZM489.56,409.63l4.76,2.04h3.74l2.72,1.02,2.72-1.36,18.35-1.7,1.02-1.36,5.78-2.72,6.46-4.76,3.06-3.4,1.7-4.76,2.72-3.74v-6.12l4.42-10.87v-5.1l1.02-1.02-1.02-1.36,1.02-2.38v-2.72l2.38-1.36-3.4-2.04-1.36-4.42-2.04-1.02-3.06-4.76-8.5-8.16-3.06-7.14-2.72-.34-3.4-4.08-7.14-3.06.34-2.04-6.46-2.04-4.08-4.08.34-2.72-9.52-1.7-1.36-3.4-.34-7.48-4.42-.68,1.36-2.38-1.36-1.02v-5.78l3.74-6.12,2.72-1.02,4.42-3.4,9.51,1.02,5.78,4.42,2.04,3.4-2.04,6.12.68,6.46,1.36,1.02,2.04-2.72,5.44-.34,11.21-3.4,2.38-2.72-3.74-4.08-1.02-6.8.34-3.74-2.72-10.53-3.4-6.46-6.8-4.08h-2.38l-2.72-3.06-.34-3.06-4.42-.68-3.74-1.7-6.12-.68-4.76-2.38-3.74,1.7h-4.42l-2.38,2.38-8.16,3.06-6.12,3.74-2.04,5.78-6.46,7.14h-2.04l-2.72,5.44-.34,4.42-1.02,1.02-.68,8.16,2.38,12.57,2.04,2.38v5.1l-1.36,1.36,3.74,1.02,3.06,5.78,9.18,8.84.68,2.38,5.44,2.04,2.38,3.4v1.02l5.78,5.44,2.04,5.1,2.04.68,1.02,2.38,4.42,3.74,4.08,4.76,1.02,5.1v6.12l-1.36,2.38.34,3.4-5.44,3.4-6.46,2.04h-4.42v-.68h-2.04l-2.72-3.06-2.72-1.36-3.74-4.08-2.38-7.48v-4.42l-1.7,1.02-4.42-.68-11.55,3.74-1.36,12.91.68,3.4,6.12,12.23,2.72,3.06,6.12,8.5,3.74,2.72,11.21,5.44h3.4ZM492.62,362.73l-.68-3.06-3.06-1.7-1.36-4.08-1.36-.34-1.36,2.38,1.36,5.44h3.06l1.02,1.02h1.36l1.02.34ZM492.62,367.83l1.02-1.36-2.04-.68v1.02l1.02,1.02ZM505.53,303.94l.68-1.02h-.68v1.02ZM517.42,425.26h3.06l-1.36-1.02h-2.04l.34,1.02ZM552.77,426.96l4.08-6.12,3.4.34,1.02-2.38,2.38-2.04,3.4-6.8,1.7-1.36,3.74-6.8v-6.12l-3.74,3.06-3.74,1.7-.68,4.42-2.72,1.02-1.02,1.36-3.74.34-.34-3.4-2.04,8.16-3.06,4.42-4.42,2.04.34,3.06-1.36,2.72,5.1.68,1.7,1.7ZM551.07,297.14v-.68l-2.72.34,2.72.34ZM551.07,362.39h1.02v-1.02l-1.02,1.02ZM553.11,306.32h1.36l-1.36-1.36v1.36ZM553.11,347.44h1.36l-1.36-1.02v1.02ZM556.16,365.11l7.82-5.78-4.76-3.06.34-3.4-.68-1.02-1.7,1.02.68,6.12-4.76,4.08,3.06,2.04ZM553.11,366.81h1.36l-1.36-1.02v1.02ZM557.18,303.94h1.7v-1.02h-1.7v1.02ZM558.88,310.4l.68.34v-2.72l-.68,1.02v1.36ZM567.38,310.4l.68.34v-2.72l-.68-1.02v3.4ZM572.14,361.03l2.04-1.02-1.36-2.72-1.02,2.04.34,1.7Z"/><path class="cls-1" d="M713.17,459.24l-5.1-1.7v-2.04l-1.7-.68-.68-2.38-3.06-1.02-3.06-3.74-2.38-.68.68-1.02-5.1-3.06,1.02-4.76-2.38-2.04-.34-2.38-2.38-2.72.34-1.7-2.38-2.72,2.04-.68-1.7-3.74-8.5-6.46-1.36-5.1-2.04-2.72.34-2.38-1.7-3.06-1.36-7.48.34-3.4-3.74-1.36,2.38-1.36-4.08-3.06,3.06-7.82-2.72-6.12.68-4.76-1.7.34-2.04-1.02,3.4-3.06-.34-1.7,2.72-6.8-1.36-3.4-2.04,2.04-1.36-2.38,1.02-1.02-1.7-1.7,4.76-3.4-7.82-1.36,2.38-2.38v-8.84l2.72-4.42-1.02-2.38-.68-5.78.68-3.74,1.7-3.4-2.04.68.34-2.38-1.02-7.48.68-12.91,2.72-1.36-2.72-2.38,2.04-2.04,2.04-9.52-1.36-1.36,1.36-2.72-1.36-4.42,1.36-4.08,2.04.34v-3.74h-3.74l.34-5.1,2.38-3.4v-2.04l2.38-2.04-1.02-7.48,4.76-4.08v-4.42l1.7-5.78,2.04-1.7,5.1-8.49,5.44-5.44v-2.04l1.36.34,3.06-3.4h1.36l5.44-3.06,2.04-2.38,6.46-2.38,8.16-1.02,2.72-1.36,5.78-.68,5.78.34,6.12,2.04,7.48,6.46h3.4l4.76-2.72v3.74l1.7,4.08,3.74,3.4,1.7,4.76,3.74,5.78,6.8,7.48,1.36,10.19,8.5,8.16,2.38,4.42,5.78,12.91,4.42,14.27,1.36,13.93,1.36,2.04-1.36,6.46-14.61,7.82-3.06-.68-6.46,1.36-4.76,3.74-11.21-.68-4.76-10.87-1.7-.68-4.08-4.42-2.72-.34-1.36,2.72h-2.04v1.02l2.38,1.36v3.74l-1.36,2.72,1.7,2.72-1.36,6.46-1.7,2.04,1.02,2.38.68,10.87-1.7,2.72,1.36,2.38,7.48,2.38,1.02,1.36,5.78,2.72,17.67,3.06,7.48,2.72,2.04,9.85,3.06,3.06,1.36,3.4,2.04,1.7,3.06,4.42,2.38,8.16h-1.7l-.68,4.76,1.7,2.38,4.08,2.38,3.06,3.74-1.36,1.02-.68,1.7.68,3.4-1.7,1.7-1.02,3.06-1.36,1.36-1.02,2.72-1.02,8.16-1.7,1.02-2.38,3.06,1.7,1.02-2.72,5.78-2.38,2.04-2.38,4.08-1.7,5.78-3.4,2.04-2.04,2.38-.34,3.4-5.78,3.4-1.36,3.06-7.48,5.1-5.44,1.36-4.08,2.72-6.12-.34-4.42,1.7-14.27-.34-11.55-2.38-2.04-2.38ZM668.31,350.16h1.36l1.02-3.4-2.72.68.34,2.72ZM670.69,269.62l2.38.34-1.36-5.1-1.02,4.76ZM716.9,417.1l3.06,1.36,3.4-1.7,6.8-.34,2.72-1.02,9.18-.34,12.91-8.16,1.36-2.72,2.72.34.68-1.02,3.06.34-.34-2.72,1.02-.68v-2.72l-1.02-.68,2.04-5.44,1.7-1.36,2.72-4.42,2.04,4.42-.34,2.72,4.42,1.36-4.42,2.38,5.1,6.46-4.42-.68v2.72l-2.72,1.36-1.02,1.36h-1.36l.34-3.4-1.7-1.36-4.08,2.38-.68,4.08,1.02,1.36-1.02,3.06,4.08-1.36,2.38-3.4,4.42-.68-1.36-1.02,5.44.34-.68.68.68,3.4.68-.34,2.72,5.1,8.16-4.76-.68-2.04-3.74,2.04-.68-1.02-2.72,2.04-1.36-6.12-1.7-2.04,1.36-1.7v-3.06l1.36-.34.34-2.72-4.08-7.82,2.38-4.08v-2.38l-2.72,2.38-2.04.34-2.72-2.38,1.36-1.36v-2.04l-2.38-2.04,2.72-1.02.68-4.08-1.02-3.4.34-3.06-1.02-3.74,3.06-2.38-2.38-2.38-7.48-2.38-3.4.34-4.42-1.7-4.76-.34-4.42-2.38-5.44.68-.34,3.4-2.04,3.06-1.36,8.5-2.72,4.76-1.7,5.1h-1.36l-3.74,4.08v1.36l-4.08,2.72-4.76-.68-5.1.68-6.46-5.1-4.08-7.82,1.02-4.08-1.02-4.42.68-13.93-1.36-3.74.34-3.06-1.36-4.08,3.06-1.36-.68-13.93,2.38-2.72-1.7-2.38,1.02-.68-2.04-1.7,1.02-7.48v-27.53l-.68-2.38,1.02-3.74,1.36-11.55-.68-4.76,2.72-8.84,2.38-1.02v-2.04l6.46-8.16,3.74.68.68-.68,1.7.34,4.08-1.02,7.48,4.42,3.06,3.4,3.74,7.14,2.72,2.38v3.74l1.36,5.1v2.72l1.02,2.72,10.53-1.7,4.76-1.7,3.06-4.08-4.42-4.42,2.04-1.36-1.7-4.08v-9.52l-1.02-3.4-1.02-.68v-2.04l-1.02-1.36.68-1.7-5.78-8.5-.34-4.08-3.4-3.06-1.02-2.38-1.7-.68-4.08-4.08-1.36-2.72-2.72-2.72-3.74-.68-1.02-1.36-6.46-2.04-5.78.68-3.4,1.36-7.82,1.36-12.91,8.5-4.42,5.1-7.82,11.21-4.42,13.93-2.04,3.4.34,3.74-2.04,12.23-.68,16.31,1.02,1.36-1.36,7.82-1.36,2.38.68,6.8-2.04,7.48,1.02,4.42-1.02,1.02,1.02,5.1-.34,10.19.68,13.93-2.38,4.76.68,14.61,4.42,13.93-.34,3.06,2.72,2.04,2.72,11.89,6.46,13.93,3.74,3.06,3.74,1.36,2.04,2.72,10.87,5.78h3.06l4.76.68ZM675.11,243.45l.68-1.02-.68-3.4-.34.34.34,4.08ZM708.07,317.19l.68-8.84h-1.36l-.68,7.82,1.36,1.02ZM713.17,326.71l2.72-.68-2.72-3.74-1.02,1.36,1.02,3.06ZM712.49,250.93l.68-1.02-.68-.68v1.7ZM713.17,426.62l2.04-.68h-1.02l-1.02.68ZM717.92,369.19l2.04-1.36-2.38-4.08-2.72.68.34,2.38,2.72,2.38ZM716.56,261.46l2.04-2.04.68-8.5,5.1-2.72-3.4-3.4h-1.7v2.38l-1.7,2.04.68,1.7-.68,4.76-2.38,5.1,1.36.68ZM722,361.03l1.7-3.4h-2.04l.34,3.4ZM725.74,265.54l2.04-2.72,1.02-3.4-1.02-4.08-3.4-1.02-1.7,3.4,1.02,4.08,2.04,3.74ZM722.68,426.28l2.38.34,1.36-1.02-3.74.34v.34ZM727.78,244.81v-1.36h-.68l.68,1.36ZM730.16,333.17l.68.34,2.72-5.44v-9.18l1.02-1.02-1.36-8.16h-3.06l-.68,7.14,1.36,4.42-2.72,5.1,2.72,2.04-.68,4.76ZM731.52,295.11l-.68,2.04,2.38-.68.34-3.06-1.02-2.38-1.02,4.08ZM743.07,294.77h1.02l-1.02-1.36v1.36ZM747.83,451.77l2.72,1.02h5.44l7.14-7.48-4.08-.34-2.38-1.36-6.12,3.4-4.76.68-.34,3.06,2.38,1.02ZM753.61,275.06l2.38-.68,3.06.34,5.1-2.38,3.74.34v-3.74l-2.72.34-8.49,4.08-2.72.34-.34,1.36ZM762.44,416.42l1.02-1.36h-1.02v1.36ZM765.84,306.32l2.04-1.7,3.4-1.36-2.72-1.7-4.08.34v2.38l1.36,2.04ZM769.58,440.55l6.8-4.08-.34-4.42h2.04l-1.36-5.1-3.74-1.02,3.06-4.76-1.02-3.74-5.1,2.04,2.38,5.78-3.74,2.38v12.91h1.02ZM769.58,416.42l2.72-1.36-1.36-4.42-2.04,1.02.68,4.76ZM773.66,397.73h-1.02l1.02-.68v.68ZM776.03,376.66v2.38l8.84-.34-.68-1.36-3.06-2.04-1.7-4.08-3.74,2.38.34,3.06ZM779.43,266.22h2.04l-1.02-1.02-1.02,1.02ZM779.77,420.84h2.72l2.04-2.38-2.72-1.36-2.38,2.04.34,1.7ZM783.51,390.26h1.02v-1.02l-1.02,1.02Z"/><path class="cls-1" d="M916.04,451.43l-6.46-.34-3.4-3.06,1.7-1.7-3.74,2.04-3.4-1.7-6.46-5.1-3.74-1.02-4.42-2.72-3.06,3.4-2.38.68-.68,1.02h-2.38l-1.7-2.04-6.8,4.08-2.04-2.04-7.82.68-.34-.68h-3.74l-10.87-6.8-8.84-3.74-3.06-4.42-6.46-5.78-.68-2.38-4.76-3.06-6.12-6.12-1.7-5.1-3.4-3.4v-2.04l-5.1-11.55v-3.06l-2.38-4.76-.34-3.74,1.02-12.57.68-1.02-.68-14.95,2.38-1.36,2.72-8.16,2.38-4.76,6.46-6.12-8.16-14.61-2.72.34-2.72,6.12-3.06-3.74-2.72-13.25,3.74-12.57,4.08-6.46v-3.4l4.42-7.14h1.7l1.7-5.1,1.7-2.38,4.42-3.06,4.42-6.12,6.12-1.36,3.74-4.76h2.72l10.87-2.04.68,1.02,2.04-2.04,2.72.34,4.42-1.7,1.02-1.7,1.7,1.02h2.38l-1.7,2.72,7.14-1.7,6.46,2.04,3.74,2.04,6.8,1.36,1.7,1.7,3.4,1.02,4.08,3.4h3.06l2.72,5.1,4.42,4.76-.34,3.06,2.04,2.38,1.36,3.4,6.46,3.06-.34,6.8,3.74,1.7,1.7,2.38-1.02,2.72h1.02l3.06,3.4-.68.68,2.38,1.36,2.04,8.84-.68,7.48,1.7,1.7-.34,3.06,1.02,4.42v12.91l1.02,1.7-1.36,5.78.68,17.33-4.76,19.37,1.7,4.08-.34,3.4,4.08-.34,2.38,3.4-.34,1.7,4.76,3.4,3.74-.68v3.74l1.02,1.02-1.36,1.36h-2.38l-2.04-2.38h-2.38l-3.74,4.08,2.72,3.74,4.08,1.36v1.36l-1.02,1.36v2.38l-3.4-.68-3.06,3.74v5.1l1.36,2.38-1.7,1.7,1.7,2.04,1.02,3.74,1.7.34v-3.06l3.06-2.38.34-3.06,2.04-3.74.34-8.16,2.72-.68,1.36,5.44-1.36,1.02,1.36.68-2.04,5.44v3.06l-1.7,6.8-1.7,3.74.34,2.38-3.4,4.08-1.7,5.44-1.7.68-3.4,4.76-2.04-1.7-3.74-1.36-3.4-.68ZM839.92,414.04l10.53,1.02,3.74-.68,4.42-2.72,3.74-1.02,3.4-6.46,3.4-1.36h3.74l2.04-1.02,3.74,4.76,5.44,3.4,5.1,1.7,6.46,3.4,2.38-.68,3.74,1.02-.34-5.44,3.06-5.44,3.06.68.68-4.08,4.08-9.17-1.7-1.02-1.02-5.1-14.95-8.16h-3.06l1.02-6.46-1.02-14.27.34-11.55-1.02-6.12,2.04-4.08-1.02-3.74.68-5.78.68-.34,1.7,1.7-.68-1.02-1.02-9.17,2.38.34-2.38-7.14,1.7-2.04-.34-15.29-2.04-6.8.68-2.04-.34-8.84-3.06-3.74-1.02-3.06-8.16-12.57h-2.38l-11.55-6.12-18.35,4.08-12.91,4.08-3.06,3.74-10.87,10.53-8.49,12.57v4.76l-4.08,8.5-1.7.34v6.8l11.55-1.02,5.44.68,4.42,2.72,9.52-1.02,4.76-9.51,1.7-1.36.68-3.06,10.19-1.7,2.38-2.04,4.08,2.38,4.08,1.02,2.04,5.44-2.04,11.55-4.42,3.74-8.84,5.1-4.76,5.1-14.95,6.46-7.48,1.7-2.04,2.38-2.38,1.36-5.78,10.19-1.7,1.7-.34,4.08-1.02,1.36-1.02,6.12.68,1.7-.68,5.78,1.02.68-1.02,6.12v6.46l1.36,5.78,1.36,2.04,2.38,8.84,2.38,1.7,1.02,2.72,5.44,7.82,3.4,1.02,5.78,4.76,5.44.34ZM867.45,437.49l7.14-.34,1.7-2.04,1.02,1.36.34-1.7-4.08-5.78-2.38,3.4v2.04l-4.08-.34-3.4.68-7.82-3.74,1.02-1.7-6.12-5.78-7.14-.34-5.44-1.7,2.38,4.08,5.1,1.36,5.1,2.72,5.1,4.42,4.42,1.02,1.36,1.36,2.38-.34,3.4,1.36ZM842.98,383.8v-1.7l-2.04-1.02-1.7-4.42.68-4.08-.68-3.74,4.08-6.12,3.06-6.46,7.82-4.08,1.7.34,2.72-2.38,6.12-.34v3.4l2.38,2.04,1.02,12.57-2.04,2.72-1.36,10.53-3.4,3.06-1.02,2.04-2.72,2.04-4.76.34-6.8-1.36-3.06-3.4ZM852.16,380.74h2.38l2.38-6.46-5.1-5.44v-3.06l-1.02-1.02-.68,1.02.34,4.08-3.4,1.7v3.06l2.38,4.76,2.72,1.36ZM852.83,298.5l4.76-.68.34-2.04-5.44,1.36.34,1.36ZM868.47,426.28l4.76.34,3.06-2.38,1.02,1.7h3.74l-.34-7.14-1.02-2.38-1.02.68v5.44h-1.36l-1.02-1.02-3.4,4.08-4.42.68ZM868.81,419.14h2.38v-1.02l-2.38,1.02ZM892.6,425.94v-1.02h-1.02l1.02,1.02ZM907.21,314.14l.68,6.46,2.38-2.38-2.38-3.4,1.36-1.02.68-2.38,2.04,1.36.34-3.06-.34-11.89,2.04-4.76-3.4-3.06-6.46-9.85-3.06,3.4,1.36,5.78,2.72,3.4h1.36l4.42,2.72-1.7,1.36v3.4l-1.7,10.19-.34,3.74ZM903.47,431.04l6.12-2.38,1.36-3.74,3.06-1.36-.34-6.12,1.02-8.49,1.7-3.74-2.72.34-3.06,4.42-2.72,8.5-.68-.34-3.4,9.85-.34,3.06ZM907.21,325.35l1.36,2.04,1.02-5.1-.68-1.02-2.72,1.02,1.02,3.06ZM911.96,442.59l9.18,2.38,3.06-2.04.34-3.4-.68-1.7-4.42,2.04-3.4-.34v-1.02l-1.7-.68-3.74.68-.68,2.72,2.04,1.36ZM911.96,434.43v-1.02h-1.7l1.7,1.02ZM916.04,341.66l2.04-2.38-.34-1.36-2.72.34v2.04l1.02,1.36ZM917.06,450.41h1.02l-1.02-1.02v1.02ZM928.96,437.49h.68v-1.02l-.68,1.02Z"/><path class="cls-1" d="M1031.24,438.51l-6.12-4.76-3.4-.34-4.08,4.42-7.48.34-6.8-1.02-6.8.68-3.4-.68-3.06.68-5.44-.68-1.36-1.36-5.1-.68-3.06-2.72-3.74-5.44-4.08-3.74-5.44-7.14-2.38-1.36-7.14-7.82-4.76-2.72-.34-6.8.68-2.72h-1.7l-.34-5.1h-3.06l.34-3.4h2.04v-2.04l-1.02-1.02,1.02-2.38,3.06-2.04,3.06-.68v4.76l-1.02.68.68,4.76,1.02,1.36-1.7,4.08,1.36,1.7-1.36,3.06,8.16,1.36,2.38,3.74,4.08-.68,8.16.34,9.52-2.04,2.72,1.02,2.04-1.02,2.38,1.02v1.7l-8.5.34-.68,1.02,3.4,1.7.68,3.06h3.74l1.02,5.44,1.36-1.7-.68-4.42-2.72-2.38,5.1-2.72,4.08,3.4,4.08,6.12h2.72l-2.72-8.16-3.06-2.38.68-3.74-3.06-3.74,2.04-2.38h4.08l-6.46-6.12-.68-3.06-1.7-2.72-2.72-1.36,1.02-6.46-2.38-4.42,2.04-3.4-.68-4.42-2.38-1.7,1.7-5.78h1.7l-.34,1.7,5.78,1.7,1.02-1.02-2.38-2.38v-1.7l1.36.68,1.02-.34v-2.72l-1.02-1.02,1.7-3.06.68-5.1-2.72-9.85,1.02-6.12,2.04-4.08-2.04-4.42,1.36-2.38-1.02-9.52,1.36-5.44,5.78,1.36.68-3.74-.34-11.55,1.02-1.02-2.38-1.36v-1.7l5.1,1.7h3.06l.34,3.4h1.7l4.76,9.52-4.08,2.38,2.04.34,2.38-1.36.68,14.95v10.87l-1.7,4.08.34,3.74-1.7,2.72.34,11.89-.68,3.4.34,6.8-1.02,7.48-2.04,5.44-1.02.34-2.04-2.72.34-1.02h-2.72l-2.72,2.04-2.38,9.18,1.36,5.44,2.72-1.36,1.02-1.7h1.36l-.34,1.36,3.06,1.02-.68-2.38.68-5.1-1.7-.34-2.38,2.04-2.38-5.1,2.72-1.7,5.78,2.38,2.04,6.8-3.06,11.21,2.38,4.76v4.42l-1.36,1.02,2.04,4.08-.34,8.16,9.18,2.04,1.36-.68h8.5l2.38.68,12.23-3.74,4.08-4.42,5.44.34.34-3.06h2.04l.68-3.4-.68-1.36.34-3.74-2.38-2.72,2.04-2.38v-12.23l.68-1.7-.34-4.42-2.04-3.4,1.36-4.76-1.36-3.74-4.42-3.4,3.74-2.04,2.72-6.8-4.76-5.44,5.1-.68-2.38-4.08,2.04-3.74-5.78-1.36,3.74-2.38-2.72-1.02.34-1.02,2.04-.68,2.72-9.86v-2.04l1.36.34,1.7,1.7,4.08.34-1.36-10.87-1.36-.68,2.72-2.04-2.04-5.78h-5.44l.68-6.8-4.42-3.06-2.38-6.12-2.38-2.38.34-4.42h1.36l1.7,2.38,2.72.34,1.36-2.72,1.02,2.04.34,8.5-1.36,2.04,3.74,1.7,2.04,6.12h2.04l3.06-4.76,3.74-1.36-.34-3.4.68-3.06-5.1-2.04-4.08-3.4-4.76-5.44-2.72,2.38-.68-5.1-2.72-2.72-3.74-.34-2.38.68-2.72-3.4,2.38-1.02,3.4-5.44,6.46,5.44,4.76,2.04,7.82,10.19,3.4,1.7,1.36,2.04,2.72,1.02,5.78,9.85,1.36.68,3.06,3.74.34,5.1,1.36,2.38v1.7l-1.7,1.7,1.36,5.44.68-.34.34,4.76-1.36,3.4,4.08,1.02-.68,5.1-.34,11.89-1.36,3.4-.68,6.46.68,9.85-1.36,8.16.34,4.42-.68,2.72,1.36,3.4-2.04,6.12,1.02,4.42-1.36,5.1.68,4.08-2.04,6.8,2.04,3.06-3.06.34,3.06,1.7v36.02l-1.7.68-22.77,1.36-6.46,2.38-17.33-1.36-3.74-2.04-3.06-.68-3.4-2.72ZM947.31,364.43v-2.04l-1.02-1.02,1.02-3.74,4.08,3.06.68,2.04v4.76l-5.44,2.72-1.7-4.76,2.38-1.02ZM947.31,353.9l3.06-5.1-3.06-1.02,1.02-3.74,4.08,1.02v7.14l1.02.34-.68,5.1-3.4-3.74h-2.04ZM949.68,338.26l-.68-3.4.68-4.42-2.04-1.36,1.36-2.04,3.4-2.72-3.06-1.36,5.1-3.74-2.38,14.27,1.7,1.7-1.36.68-.34,6.12-2.72-1.7.34-2.04ZM950.7,296.12l3.4-.34-2.72-1.36h-1.7l1.02-5.78,3.06,1.7,2.04-.34,1.02,3.06-1.02,4.42.34,1.7-6.46,3.4.34-2.04.68-4.42ZM970.41,250.25h-10.53l-3.74,1.7-1.36-5.1,2.72-.68,10.87,1.36.68,1.02,7.14-.34,3.74,1.02,2.38,1.7-1.02,1.02h-3.4l-1.02-1.36-3.06,1.7-2.04-1.36-1.36-.68ZM968.71,411.33l3.06.34.34-2.72-2.04-2.72h-2.72l-.68,3.74,2.04,1.36ZM979.25,416.76h1.02v-1.02h-1.02v1.02ZM994.2,430.36l4.08-.68-.34-1.36-4.76-2.04-2.38,2.38,3.4,1.7ZM1002.36,329.09l2.04,7.82,4.08-3.74,2.38-7.14v-10.53l-5.1.34-.68-.68-3.06-.34-1.7,4.76,1.7,4.76v3.06l.34,1.7ZM1002.36,421.18l1.02.34v-3.06l2.38-.34v-1.36l-4.08-.34-1.02,3.4,1.7,1.36ZM1001.68,310.4l3.06-1.7v-4.42l-1.36-.34-1.7,2.04v4.42ZM1004.74,341.32l1.02-1.02v-2.04h-.68l-.34,3.06ZM1006.78,387.2l1.02-1.02v-2.04l-1.02-1.36-1.36,1.7,1.36,2.72ZM1007.8,362.39h1.36v-1.02h-1.36v1.02ZM1009.15,309.72l1.02-.34v-2.04l-1.02,1.36v1.02ZM1039.4,250.25l-9.18-4.42h-4.76l2.38-2.72h6.8l1.36,3.74,3.4-1.36.68,1.7,4.76,3.74.34,1.02h-3.06l-1.36-2.04-1.36.34ZM1040.76,419.48v-3.74l-8.49-.34-.68,2.72h7.14l2.04,1.36ZM1060.13,329.77h1.7l-.68-1.36-1.02,1.36ZM1065.91,435.45l7.48-.68,1.7,1.36,3.06-1.02v-3.06l-9.52-2.38-.68,3.74-4.42,1.7,2.38.34ZM1070.66,300.2l1.36-1.36h-1.36v1.36ZM1072.02,295.78h.68v-1.36h-.68v1.36ZM1081.88,332.49l1.02-6.46,1.7-3.4-1.36-1.36-.68-4.08.68-4.76-1.02-5.1,3.06-1.7,1.36-2.72-3.4,2.38-2.72.68.68-4.76-2.38-3.74-.68-4.08-2.04.34-1.02,2.04,1.7,8.16-.34,6.12-2.04,3.4,3.06,5.44-.34,8.84,2.04-1.02,2.04.34-5.1,2.72h4.42l1.36,2.72ZM1074.74,369.19l-.34,2.04,2.38.68,3.4-.68.34-3.06-3.06-4.76-1.7-.68-1.02,6.46ZM1077.12,376.66l2.38-.34-.34-2.04h-2.38l-2.04,1.36,2.38,1.02ZM1079.5,381.08l-.34-2.38-3.74-.34,4.08,2.72ZM1081.2,345.06l2.04-5.78-.68-3.06h-6.46v3.06l2.38-.34-2.38,2.04,2.04,2.04v4.42l-1.36.68,4.42,5.78v-8.84ZM1086.64,403.17l-2.04.34v2.04h1.02l1.02-2.38ZM1084.6,424.24h1.02l1.36-1.7-2.38,1.7ZM1085.62,311.42l1.02-1.02h-1.02v1.02ZM1085.62,435.11h1.02v-1.36h-1.02v1.36ZM1086.64,426.62l1.02-1.36h-1.02v1.36Z"/><path class="cls-1" d="M1149.5,435.79l-5.44-5.44-.34-1.7-6.12-.34-3.74-2.04-3.74.34-6.46-3.74-.68-1.7-5.1-3.74-7.14-3.06-10.19-13.93-3.06-6.12-4.76-17.33,2.04-15.63-.34-4.76,3.4-3.74,2.72-.68,2.72.34,4.08-.68,8.84-3.06,9.18-1.36-.34-3.06-5.44-6.46-5.1-7.82-1.7-.34-3.74-4.76,1.02-.68-1.02-2.38h-2.38v-1.02l1.7-1.02-4.08-1.02v-2.38l-2.38,1.02-1.7-3.06-2.04-10.53-3.74-4.76,1.02-4.42-1.02-1.36,1.36-4.42,1.02-7.82,2.04-6.12,4.08-6.46,8.5-8.16-.34-2.38,5.44-5.78,12.57-7.82h2.72l12.23-5.44,7.82-2.72,8.84,3.06,3.74,2.72h3.4l1.7,2.72,3.74,1.02,4.08,2.72-.34,1.02h3.06l6.46,4.08,11.89,5.44,4.42,4.08v2.04l2.38-.34,5.78,2.38,1.02,3.74,1.36.68,1.7,3.4,2.72,15.63,2.72,1.36v1.02l1.7,1.36v1.02l1.02.34-.34,12.23-2.04,2.38.34,2.38,2.38-1.02-.68,4.08-1.36.34,2.04,4.08-2.04,3.4-2.04,5.78-5.44,1.36-4.76,2.72-4.08-.68,8.16,10.19,1.7,4.42,3.4,1.36,2.04,4.08-1.7-.34-2.38-2.72-2.38,5.78,9.18,1.7-.34,3.06,5.1,7.48.68,3.74-.68,5.1,3.06,13.93-4.08,9.51-4.08,3.74-2.04,7.14-4.42,4.42-2.38,5.44-4.08,1.02-.68,2.38-3.4.68-9.18,7.82-10.19,2.04-1.36,1.36-3.4.34-7.48,2.04-3.74-.34h-16.99l-1.02-1.02-3.06-1.36ZM1101.59,300.54v-1.02h-1.02l1.02,1.02ZM1135.91,409.63l4.76,2.04h3.74l2.72,1.02,2.72-1.36,18.35-1.7,1.02-1.36,5.78-2.72,6.46-4.76,3.06-3.4,1.7-4.76,2.72-3.74v-6.12l4.42-10.87v-5.1l1.02-1.02-1.02-1.36,1.02-2.38v-2.72l2.38-1.36-3.4-2.04-1.36-4.42-2.04-1.02-3.06-4.76-8.49-8.16-3.06-7.14-2.72-.34-3.4-4.08-7.14-3.06.34-2.04-6.46-2.04-4.08-4.08.34-2.72-9.52-1.7-1.36-3.4-.34-7.48-4.42-.68,1.36-2.38-1.36-1.02v-5.78l3.74-6.12,2.72-1.02,4.42-3.4,9.51,1.02,5.78,4.42,2.04,3.4-2.04,6.12.68,6.46,1.36,1.02,2.04-2.72,5.44-.34,11.21-3.4,2.38-2.72-3.74-4.08-1.02-6.8.34-3.74-2.72-10.53-3.4-6.46-6.8-4.08h-2.38l-2.72-3.06-.34-3.06-4.42-.68-3.74-1.7-6.12-.68-4.76-2.38-3.74,1.7h-4.42l-2.38,2.38-8.16,3.06-6.12,3.74-2.04,5.78-6.46,7.14h-2.04l-2.72,5.44-.34,4.42-1.02,1.02-.68,8.16,2.38,12.57,2.04,2.38v5.1l-1.36,1.36,3.74,1.02,3.06,5.78,9.18,8.84.68,2.38,5.44,2.04,2.38,3.4v1.02l5.78,5.44,2.04,5.1,2.04.68,1.02,2.38,4.42,3.74,4.08,4.76,1.02,5.1v6.12l-1.36,2.38.34,3.4-5.44,3.4-6.46,2.04h-4.42v-.68h-2.04l-2.72-3.06-2.72-1.36-3.74-4.08-2.38-7.48v-4.42l-1.7,1.02-4.42-.68-11.55,3.74-1.36,12.91.68,3.4,6.12,12.23,2.72,3.06,6.12,8.5,3.74,2.72,11.21,5.44h3.4ZM1138.97,362.73l-.68-3.06-3.06-1.7-1.36-4.08-1.36-.34-1.36,2.38,1.36,5.44h3.06l1.02,1.02h1.36l1.02.34ZM1138.97,367.83l1.02-1.36-2.04-.68v1.02l1.02,1.02ZM1151.88,303.94l.68-1.02h-.68v1.02ZM1163.78,425.26h3.06l-1.36-1.02h-2.04l.34,1.02ZM1199.12,426.96l4.08-6.12,3.4.34,1.02-2.38,2.38-2.04,3.4-6.8,1.7-1.36,3.74-6.8v-6.12l-3.74,3.06-3.74,1.7-.68,4.42-2.72,1.02-1.02,1.36-3.74.34-.34-3.4-2.04,8.16-3.06,4.42-4.42,2.04.34,3.06-1.36,2.72,5.1.68,1.7,1.7ZM1197.42,297.14v-.68l-2.72.34,2.72.34ZM1197.42,362.39h1.02v-1.02l-1.02,1.02ZM1199.46,306.32h1.36l-1.36-1.36v1.36ZM1199.46,347.44h1.36l-1.36-1.02v1.02ZM1202.52,365.11l7.82-5.78-4.76-3.06.34-3.4-.68-1.02-1.7,1.02.68,6.12-4.76,4.08,3.06,2.04ZM1199.46,366.81h1.36l-1.36-1.02v1.02ZM1203.54,303.94h1.7v-1.02h-1.7v1.02ZM1205.24,310.4l.68.34v-2.72l-.68,1.02v1.36ZM1213.73,310.4l.68.34v-2.72l-.68-1.02v3.4ZM1218.49,361.03l2.04-1.02-1.36-2.72-1.02,2.04.34,1.7Z"/></svg>