<?xml version="1.0" encoding="UTF-8"?><svg id="Layer_1" xmlns="http://www.w3.org/2000/svg" viewBox="0 0 1336.1 599.42"><defs><style>.cls-1{fill:#fff;}</style></defs><path class="cls-1" d="M231.81,297.69l-4.32,1.69-3.33-.56-2.33.28-2.99-.85-1.66.28-2-1.13-5.65,1.13-2.99-.28-3.99.85-2.66-3.66v-2.25l-1,.56-2.66-5.63-3.33-1.41v-2.25l-2.66-1.69-3.33-6.48-4.32-1.69-3.66-2.54-1-3.94,2-3.38-1-5.35,1-1.69v-2.25l1.33-3.38-1.33-3.94,1-1.97-1.33-4.79.33-2.25-.67-1.97,1-4.51-.33-5.63-1.33-4.23,1.33-3.94-1.33-3.1,2-1.13,1.66-2.25-2.99-1.13-.33-12.68.66-1.41-1-7.61-1-.85,1.33-9.58-2-2.25,1.66-2.54-1.99-1.13-1.66-2.25,1.66-1.13-1-4.23.33-3.38,2.99.28-2-1.97v-1.69l-1.33-.85.33-1.97-.66-.56-.66-5.92-6.65-.85-1-3.94-4.66-2.25-3.99-5.07-6.98-5.63-1-2.25-4.32-4.23,1-3.1-.33-3.38,1-4.23-1.33-4.23v-12.96l.66-3.1,1.99-2.82,2.66.28,2.66-1.69,8.31-.28,1.99,1.97,3.33-1.97,2.66-.28,1.99,1.97h2.33l1.33-1.41,1,1.13,2.33-1.13,2.99-.28,2.33-1.41,14.63.85,3.32-1.69,3.66-.28-.33-1.41,2.33-.85,6.32.56.66.56h11.31l4.32-2.54,3.33.28,5.32,1.69,3.33-2.82,5.32,2.54-1,1.69,1.66,2.25,4.99,1.69-1,1.13,3.66,4.23,1.33,3.38,1.66.28,1.66-1.97,9.31,8.45v2.82l1.99-1.13,1,1.41,5.32,3.38v3.38l-2.33,1.69.33,1.97,1,.28,1-2.25,2,.56-.66,3.94-3.99,1.13,2.33.28-1,1.41,1.33,2.54-6.98,2.82,1.66,1.69h1v-1.69l3.33,2.25-3.99,1.41,1.99,7.61h1l2.33,1.69-1,1.97-3.66-.28-.33,2.54-2.99,2.25-4.32-.85-6.65.28-.33,1.41-4.66,3.66h-1.33l-1,1.41,1.33,1.13-1.33,7.89h-1.99l-3.33,3.1,2.66,3.1v3.1l-1.66,3.66,1,1.13h2.33v5.07l1,1.13-1.99.85v1.69l1.99.56-3.66.28-9.31-1.97.33-2.54-3.33-1.13-2.66,1.97-2.33-1.41v-1.13l-3.66.28-.33-2.82,1.33-.28-.33-1.69h-1.33l-.66-2.25-.66.28-.67,5.92.67,1.69-2.99,3.38,2.33,4.51v4.51l-2.66,1.69,2.99,5.63,2.99-2.82v4.51l2.33-.28-.33.85-2.99,1.69-2.33-.56.33,7.61h2.66l1.33-4.51,3.66-1.13-2,2.54,3.99,3.1-2.99.85,2.66,1.97v1.69h1v.85l-2.33,1.69h1.66l1.66,1.13-3.33,2.82,3.33-.28.33,4.23,2.66-.56,2.33,2.82,1.99-2.25,3.66.85,1-1.97-5.65-.28-.33-.85,1.33-1.69-1.33-1.13,1.99-2.82,2.66-2.25-2.33-.28v-2.82l-1.99-1.13-2.33.85-3.66.28,1-1.97.33-3.1h-1.66v-.85l1.33-.85-1.33-3.94-1.66.28-2.66-1.97.66-1.97,4.32-3.1-5.65-4.23-.33-2.54,2.99-1.13.33-3.1,4.99,1.69-4.66,3.94,2.99,1.41,1.66,3.38,2.33-1.41,2.66.28.33-3.66h-1.99v-1.97l1-1.41,4.32,2.25v2.54l2.99,1.41v3.66l-2.33-2.82-1,.56v2.25h-.66l2.66,3.38h-2.66l.33,5.92,3.66,12.96-2.99,1.69,1,1.97,2.66-.28-.67,4.51-6.32,4.23.33,3.66-2.33,1.41-1.33-.56.33-2.25-1.66-.85.66-2.54-2.99-.85.33-1.13-2.99,1.13-.33,3.1,3.33,1.69,2.66,3.1-2,2.54,1.33-.28,2.66,1.97,4.66-3.66,4.32,6.2-2.99,3.1-1.66.56,1.66,1.97h2.33l-1,14.65-2.66,3.38,4.66,1.97-.66,2.25.66,7.33-3.33-1.41v.85l2.99,3.66.33,5.35h-4.32v1.69l1,1.41,2.33-2.25,1.66,1.41-1.66,1.41-1.66,3.38-6.98,3.38h-2.33l-2.66-1.13-4.66.56-2-2.54ZM151.01,107.52l.66-.85h-.66v.85ZM230.48,281.91l2.66.85v-2.25l-1.66-3.38h1.66v.85l2.66,2.25,2-.56-2.33-3.38v-7.61l3.33-2.25,4.66-1.13-.66-3.1-2-1.69-1.33,1.69h-2v-1.97l2.33-1.97,2.99.28,1-1.13-1-7.61-1-1.13-3.66.56-1.66,1.13-1-.28.66-8.73-2.99-3.1.66-2.54-.66-3.66,2.33-.85-.33-1.13-3.33.56-.33-3.1,1-1.41h-2.99v-3.38l-2.33,1.69-1.66,2.54h-8.31v-5.63l3.66-4.23-1-1.97-1.66-.28-.66-7.61,1.66-.56-.33-2.82-1.33-1.97,1-3.1-2.66-2.82,3.33-.85-2.66-5.35v-1.69l1.33-1.69.66-3.38,4.66-2.25h-2l-1.99-1.41,1.66-1.41v-1.69l-4.32.28v-1.41l4.99-1.97-1-1.97-3.99-1.69,1.99-5.07-3.33-1.97-.33-6.48-2-5.07,1.66-1.97,1.33-4.23-2.33-1.97-.66-3.1,1-4.23-2.66-8.17,3.99-1.41,1.66-3.94,4.99.56,3.33-.28.33,3.66,2.66-3.1,4.99.28,6.65-.56,4.32-2.82,1.66-3.38,3.66-4.79-2.33,1.13-4.32.56,2.33-2.54,1.99-3.94-1.33-1.13v-1.13l5.32.28-.67-3.66-5.65-.85-1-1.69.33-1.69,2.99-.28v1.97l4.66-.85,1.99-1.69-4.99.28v-2.82l-5.99.85-1-.56h-4.66l-5.32.85-4.32-.28-.66.85-6.32-1.41h-3.33l-7.65,1.41-6.32-.85-3.33,1.97h-9.31l-1.66-1.69-1.33,1.69-10.97.85-4.99-.85-5.32,1.41h-6.98l-6.98,3.66,2,3.1.33,5.07,1.33,2.54-3.33.56v3.38l2.66,2.82,2.33-3.1,4.66,2.25,8.31.56,1.99,1.97,6.32,1.13,1.66-.28,2.33,3.1,1.33,3.66-1.66,1.13,1.33,1.69-1.66,1.13,2.66,1.41-.66,3.1-1,1.13v1.69l1.66.28v3.1l-1.99,1.69,1.33,3.1-1.33,4.23.66,2.82,2,1.41-2.33.85v2.54l2.66,2.25-2.33,3.1,2.66,2.82.33,7.04,1,1.13v4.23l-1,.85,1.33.85-3.66,1.97,1.33,3.38,1.66-2.25,1,1.97-.66,2.54,2.99,5.63-2,.56-.33,2.82-1.66-.28-1.99,1.97,4.66,2.82,1.33,3.94-.33,1.41,1.66,1.69-2.66,1.97,1.33.28v2.82l1.33,1.97.33,2.82-.66,4.79-.66-.28.66,5.92-.66,1.69-2.66,1.41v1.69l1,.56-.33.56,1.66,2.25h-2.33l2.33,2.54v2.54l1.66,1.41v3.66l-3.99.56-1.66,4.23,3.99.85v1.41l-2.99,1.13-.66,1.69,5.32,5.63,2.99-.85,6.65.56,4.66-.85,5.99.85.66,2.25h2.33l.33-1.69,2.33-3.38,3.66-1.69-4.66-5.63.33-4.79,1.66-3.38-.67-2.54.33-7.89,2.66-2.25-1.66-3.1.33-.85,3.66-.85.66,2.82,3.33,2.54-1.33,1.69,1,3.38h-2.66l-1,.85,3.33.56-2.33,2.82v.85l2.33-.85,2.33,1.97-.33,8.73,2.66-2.82,1.33.28v1.69l1.33,3.1-3.99.85-.66-1.41-4.99,1.13v1.41l1,1.13-1,.85-.33,1.69,2.66-.28,2.33,2.54-1.33,1.69v1.41l-1,.85v2.82l-1.66.56,2.66,1.41-.67.85-.33,7.33,3.33,1.69ZM158.32,119.92l1-1.13-.66-.85-.33,1.97ZM167.63,130.62l2.99-2.82h-2.66l-.33,2.82ZM184.26,217.96v-.85h-1l1,.85ZM197.89,266.42l1-.56h-1v.56ZM202.22,276.28l1-.85-1.33-.85.33,1.69ZM209.2,286.98l1.33-.85h-1.33v.85ZM219.84,187.81h1l-1-.85v.85ZM223.17,280.5l1.99-.28-.33-2.25h-4.99v1.69l3.33.28v.56ZM224.83,173.73v-1.69h-1v.85l1,.85ZM223.83,265.85h1.99l-1-.85-1,.85ZM224.5,219.37l2.66-3.1-2.33-.28-.33,3.38ZM226.16,222.47l1.33-2.25,3.99-.85v-1.13l-2.99-1.69.66,2.25-4.66,2.25,1.66,1.41ZM227.49,163.3l2.99-1.97-1.33-3.1-.66-4.23-1.33-2.25-2.33,3.94.33,7.61h2.33ZM231.81,224.16l2.66-1.41-2.33-1.69-2.33.28,1.66.85.33,1.97ZM236.47,203.87l1-.85v-1.13l-1,.28v1.69ZM237.47,275.43l1.33-1.13h-1.33v1.13ZM239.46,201.06h3.33l-.33-1.69-2.66.28-.33,1.41ZM241.13,166.97l1.66-1.13-1.66-.56,3.66-2.54-3.99-2.25-1,2.54v2.82l1.33,1.13ZM240.46,206.69h1l-.33-3.1-1.33.56.67,2.54ZM243.79,174.29l.33-3.94-2.33-.28-.66,2.25,2.66,1.97ZM241.46,246.98h8.31v-2.82l-5.99,1.69-2.33,1.13ZM241.79,85.83l2-.28-1-1.13-1,1.41ZM243.45,204.72l1.66-1.41-1.66-1.69v3.1ZM244.78,186.12h1v-1.13l-1,1.13ZM244.78,212.32h1v-.56h-1v.56ZM248.77,163.87h1v-.85h-1v.85ZM253.43,116.53l4.32-.56-.33-4.79-3.33-.56-.33-1.97,1-2.82-5.32-.28,1.66,5.07,2.66,1.41.67,1.97-4.32,1.41,3.33,1.13ZM253.76,128.09l-2.99,2.54,4.66-.28v-3.38l-1.66,1.13ZM264.4,142.74h3.33l.66-4.23-4.66.85.66,3.38ZM276.04,115.41h1v-.85h-1v.85Z"/><path class="cls-1" d="M387.78,309.52l-3.33.56-4.66-1.13-7.98-.56-2.99-1.69-5.32-.28-8.65-6.76v-1.97h-6.65l1,3.66-.67,5.07,1,1.13-4.66,2.25-2.33,1.97-2.33-1.97-4.99-.28-4.32-2.82-3.33.85-7.98-1.13-10.31-3.38-7.32-4.51-3.33-6.2-2.66-1.97-1.33-2.82-3.33-3.38-2.66-4.23-1.66,2.82-1.99-1.69-.33-1.97-2.66-2.54,1.33-5.35,2.66-3.66h-2.99l1-6.48,1.33-2.25v3.38l8.98-2.54-1.33,3.66v2.82l-1.99,1.41,5.65,1.69,8.31,1.41,6.32.28,6.32-.85-.66-1.69,1.33-3.66-1.99-6.76v-6.48l-1.66-3.66.33-2.82-1-2.25,1.33-6.76.33-6.2.66-.85-.66-3.94,1-1.97-.33-2.54,2.33-9.86,1-.85-.67-2.82,1-2.82-.66-3.38,2.33-2.54,1.66-3.1-.66-2.54,1.66-9.3,2.99-7.04.33-2.82,3.66-3.94,2.66.28,4.32,1.97,2.33,2.25,2.99.28,1.66,2.25,4.66,3.94,7.32,12.11-2,1.69,2.33,1.97-.33,4.51-2.33,6.2,1.33,1.41-1,4.79v6.48l-1.66,6.76-.66-.28v5.07l-1.66,4.23,1.66,3.38v9.02l-1,.56-.66,2.82-1,.56,1.66,1.13.33,1.97-1,1.13,1,3.1v5.07l-2.33,1.97,1.66,5.92,3.99,1.69,3.66-.56v.28l3.99-.28,2.33-1.69,6.32,1.41,3.33-.56,1.99-2.54,2,2.82,1.66-12.96-1-3.1,1.33-5.35-.33-1.69,1.33-4.23,1-10.42-2.33-5.63,1.99-1.97-.66-5.07,1-5.35-1.33-4.79.66-4.23,1.99-1.69-1.99-3.66,1.33-10.71-.33-7.89,1.33-1.41-1-2.54.33-6.76-.66-2.54,1.33-5.92-2.33-2.82.33-5.35-2.33-3.38-6.32-4.51-3.33-3.66v-4.23l-3.33.28-2.99-2.25-2.33-.85-2.33-1.97-8.65,2.82-1-1.13-2.33,1.69-4.32-.85-1.33,2.25-6.65,1.97,2,.28v1.41l-2.66.85-1.33,1.41-6.98-1.97-1.99-4.51v-7.33l.66-.28-1.33-4.23.67-5.63,2.33-.85-1-.28,1-4.79-.33-2.25.66-17.47,1.33-1.41-2-2.25-2.33-.28-3.33-1.69h-6.32l-3.66,1.97-7.32,1.97-2.66-.28-3.99.56-3.99,9.58-2.66,2.82,3.99-.85,2.66,1.41.66,7.04-1.33,4.51,1.33,3.94v2.54l-1.99-.56-1,1.97,2,3.38-2,1.13,2,3.1-2,4.79,2,1.41-3.66,1.69,3.99.56-1.33,3.66v8.45l-2.33,2.25,3.33,7.04.33,3.38-5.99.28.33,10.99,1.66.56-1.99,2.25h3.66l-3.33,2.54-1,2.82,1,2.54-5.65-2.25.66-6.48,2.33-2.54-2.33-2.82v-1.69l2.33-1.97v-1.41l2.66-3.66,3.66-1.13-3.66-1.13,2-1.13h-5.99v-1.97l-.66-.56-.33-3.1-1.66-2.82,2-2.54h2.99l-.66-1.41-2.66-.85.66-1.13,3.99-.28,1.99-3.38-1.66,1.41-5.32.28-.66-3.1,1-10.99,1-1.69-.33-.85,1.33-1.69.33-3.66-1.33-.56v-3.1l-1-.85.66-1.13-1-2.54,2.99-5.07-1.66-1.69v-.85l-1.66-1.41,1.66-.85-.66-3.1,1.33-3.66-2.66-1.97,1.66-3.66-3.99-1.41,2-1.13,4.66-.56-2.33-.56-.33-2.25,2.33-1.41,1.33-1.97,5.32-.56,10.31,1.13,4.66-2.54,1.66,1.13,3.33.85,1.66-.56.33-1.69,6.65,1.41,1.99,1.13,3.66.56v1.69l4.66,2.25,7.65,7.61.33,2.54-3.99-1.41-.33,3.1.66,4.23,1.66,1.41,3.66-2.82v-2.54l-1-.85,2.33-1.97,1.66-.56-1,4.23,3.66-.56.66,3.66,3.33,2.82-.33,3.94-1.66,1.41.33.85-1.33,3.94,2.33-.28-.66,7.33-2.99,1.97,7.32,2.25,4.99-.28,4.66,5.63,1.66-2.54,1.66,1.13-1.33,1.69,3.99.28,2.33,3.66,1.99,1.69-.33,1.97h4.32l7.65,3.1,2,1.97-.33,2.25,3.33.85v2.54h-1v1.41h4.66l2.33,4.79,3.33,2.82.33,3.38,2.99,3.94-.33,1.69,2.33,2.54-1,1.97v4.79l2.33,1.69v4.79l-3.66,3.38,1-1.41-.66-3.94-1.33-1.69-.66-8.17h-6.65l-1-5.35h.33l-1.66-5.07,1-3.1-1-4.23h-1.66l-1-.85h-1.99v1.41l-2,2.82-.33,1.97,2.33,2.82-1.66,2.25.33,4.79,1.33,1.41-3.66,6.48h1.33l1,1.13-1.33,1.41,1.33,1.13,2.33-.28v-1.97l5.65.56.66,3.38,2.33,6.2h-1.66l1.33,3.66-1.33,3.66,1,1.41-1.66.85-1.66,3.1-2.66-3.1v-1.41l-1.66-1.69-2.66,3.94.33,2.82-1.66,4.23,1.66-.28-2.99,7.33h2.66l2.66-1.13,2.33,1.69-1.66,1.41,1,1.69-5.99,5.35.33,1.13-1.33,1.69,1,.85,1.66-.28,1.33,1.69h1.99l-1-1.41.33-2.54-1.33-3.1h1l1.99,3.94,6.32,1.69,1.33,3.38-.33,3.66,1,.85,1.99-4.79.33-3.1,2.33.56,1-3.66v.28l2-3.66h1.33l-.66,5.92-1.33,3.66.67,1.97-2,2.54,1.66,1.41-2.33,6.48,1,1.13-.33,2.82-2.66,1.13,2,.56.33,1.97,2.33,1.13-1.33,5.07-2.33,3.1v5.35l-1,2.54,2.99-2.25,1.33,2.82-1,1.41,1.66-.56-.66,12.4,1.33,3.38-1,3.94.66,3.1-2.99,2.25,1,.85,2.66.28-2.99,3.66,1.33,2.54v2.54l1.33.28-.66,2.54-10.31-.56-3.99.56-2.33-.56-3.99.56-1.66-1.69ZM289.01,240.5l-2.66.56-1.66-1.97,3.99-1.13-1.33-2.82,1-1.97-1.33-1.41.67-5.63h-2.66l3.66-4.51-2.66-1.13-.33-5.92,2-3.38,1.33-5.35,1.66,1.41,2.66-2.54.33-1.97-4.99.56,1-1.97,3.66-1.13,1.33-2.25-.66.56-2.33-3.66-5.99,2.54,1.33-2.54,8.98-4.79,2.66,2.54-.66,4.23-.33,8.73-1.33,7.61.66,4.79-2.33,2.25-4.32,2.25,3.33.85v1.41l1.66,3.1.33,9.02-2.66,9.02-3.99-.28-2.99.85.33-3.94,2.66-1.97ZM290.68,138.51l2.33.28v-.85l-1.66-.56-.66,1.13ZM290.68,156.54l2.66-.85-2.66-.85v1.69ZM291.34,162.74v-.85h-.66l.66.85ZM291.34,235.15l1.66-.85h-1.66v.85ZM293.67,122.73h1v-.85l-1,.85ZM301.98,285.58h1.33l-2-2.82.66,2.82ZM307.3,290.65l-1-1.41v.85l1,.56ZM311.29,296.56l2.33-.28-.66-1.41-5.32-4.51,1.33,3.38,2.33,2.82ZM314.29,282.76l1.33-1.69h-1l-.33,1.69ZM327.59,232.89l.33-6.76-.67.28-1.66,7.04,2-.56ZM326.26,236.84h.66v-.85l-.66.85ZM327.59,258.81l1.99-2.25-.33-6.48h-2.66v7.04l1,1.69ZM329.92,216.55l-1.66,2.54h2.66l1.66-1.97-1.33-2.25-1.33,1.69ZM337.56,181.05l1.99-.85h-1l-1,.85ZM337.56,285.01v5.07h1.99v-5.63l1.33-4.23-.67-3.66-2.66-.28,1.33,2.82-.66,2.82-.66,3.1ZM343.55,206.97h3.33v-1.69l-3.33,1.69ZM346.87,211.2l1-.56h-1v.56ZM352.53,295.15l.33-1.69-.66.85.33.85ZM364.17,288.39l1,1.41,2-1.97-2-1.41.33-2.82-1.33-.28-2.33,2.25,2.33,2.82ZM364.5,293.46l-2-2.82-.33,1.69,2.33,1.13ZM364.83,281.91l2-.85h-1.33l-.67.85ZM370.15,291.49l.66-.85-3.66-2.54,2.99,3.38ZM374.14,283.6l2.99-1.41h-1.99l-1,1.41ZM382.79,292.9l2.33-1.69-7.32-2.82-2.66-2.82.66,1.13-.66,3.38,4.99,1.69,2.66,1.13ZM375.14,296l3.33.56.33-2.25-2.66-.28-1,1.97ZM400.41,304.17l2-.56-1-3.38,1.99-5.92-1.33-.28-1.66,1.97-5.32-5.35-3.32,1.97v-1.69l1.99-4.23-1-4.23-3.33-.56-.66-1.97-6.32,4.51-.66,2.54,3.66-.28v1.97l2.33,3.66-1.99,2.54,3.33,1.69-2.99,1.41,2,1.41,2.66,5.07,2.33-2.25-.33-3.66-1.33-2.25,2.33-2.25,2.99,3.1-.33,2.54.66,1.69-.66,2.54,3.99.28ZM393.43,264.16l1.66,1.97,1.66.28v-12.96l3.99.28-.67,3.66.33,5.92h2.99l-.33-2.25.66-7.33-4.99-2.54-2,.85-.66-1.97,1.66-2.25-3.99-4.79.66-2.25-.66-4.79-1.66.56-1.99,2.82-3.66,6.76,3.33,1.41-2.99,1.41,2.99,2.25-2.66,3.1,1.33,3.94-.67.56.33,3.38,2.99.56,2.33,1.41ZM386.78,159.92h1v-1.41h-1v1.41ZM386.78,204.15l1-.85h-1v.85ZM390.77,193.73l.33-1.13-2.66-.85.33,1.41,2,.56ZM394.76,200.77l2.33-2.25-4.32-.85-1-1.69-2.66.28,2.33,4.51h3.33ZM392.1,279.1l-.33-1.69h-.67l1,1.69ZM393.76,191.76h1.33l-1.33-.85h-1.99l1.99.85ZM395.09,269.52h1v-.56h-1v.56ZM397.75,307.55h1.33v-1.97l-1.33,1.13v.85ZM399.42,269.52l2.66-.56h-2l-.66.56ZM400.08,166.12h1l-1-1.41v1.41ZM400.08,283.6h2l.66-5.07-2.66,3.66v1.41ZM401.08,248.39l1.33.28-.33-2.25h-1v1.97Z"/><path class="cls-1" d="M469.92,303.61l-2.66-.28-7.98-5.07-6.32-5.63-1.33.85-4.66-5.92v-5.92l-2.66-.28-4.32-4.23.67-1.69-2.99,1.13-3.66-6.48-2.66-2.54-6.65-11.55-1-6.2-1.99-3.94.33-13.52-1-2.54,1-1.97-.66-1.69.66-2.54-1.66-4.23-.66-4.79,2-5.92-.67-1.41.33-1.97-1-1.41v-4.79l1.33-1.13h1v.85l2,.85,1-1.13v-3.38l-1,.28.33-2.82-3.33-.28-.67-5.92-2.33-.28,2.99-3.38v-7.04l1-.85.67,1.41,5.65.28,3.33,3.66.66,4.51,1.33,1.41-2.66,1.97,2,.85-1.33,5.63,1.66,3.1v3.1l-.67.85,1,6.48-2.99,3.66,1.99,2.54-.33,1.97h-1.66l-.33,2.82-1,.56v2.25h1l.66.85-.66,1.97.33,8.45,2.66,5.63,1.66,1.13.66,5.63-.66,6.76,4.32,1.41v3.38l1,2.54,2,.56,3.33,2.54,10.64,6.48,5.65.56,13.3,3.66,2-1.13,1,.28,2.33-1.41,9.64-.56,2.66-1.13h2.99l3.99-3.66,9.31-10.14-1-3.1,4.32-6.48-.66-2.54,2.99-4.23,1-3.66-1.33-1.69h-6.32l-1.33.85h-3.66l-6.32-2.25-5.65-1.13v2.25l-2,1.41.67,1.69-.67,1.41v3.38h-3.99l.33,2.54-2.99,1.69-12.3,1.97-3.66-2.82-2.66-.28-2.99-1.69-2-6.76-2.33-5.92,1-10.42,2.33-1.41-2.33-2.82v-4.51l4.99-1.13,1-.85h8.31l1,1.13-1,5.92-1.33,2.54.33,3.1-1,6.48,2,1.13,2.33-3.38,2.33-1.69.66-1.69,1-.28v-2.54l-1.33-1.13,2.33-.56,2.99.28,1.99-4.51-4.99,2.25h-2v-2.25l-3.99-1.69,7.32-1.41,6.98.85,3.33-2.54h2.99l1.66,2.54,3.66-2.82,2.33-.28.33-1.97h3.99l4.66-7.61v-5.63l-1.66-4.51.33-9.3,2.66-5.63,1.66,1.13,1.33-1.13-1.99-3.38.66-3.66-1-4.23-2.33-1.13v2.25h-2.66l.66-4.51-.66-5.35-4.32-3.66v-6.2l1.33-3.66-2.99-1.41-1-2.25,8.31,2.82,3.99,3.38v.85h2.33l1,3.38,2.66.85,11.97,5.35v1.97l4.99,1.13,1.99,3.38v1.69l3.99.28v3.38l4.66,1.69v2.82l2.99,3.38,1.99,4.51-.33,3.38-1.66,1.69,4.99,3.1,2.33,8.73-1.33,6.2-1.66,1.13,2.66,1.97v2.82l-1,2.25,2.33,3.94v1.97h-1.33l1.33,2.82-1.33.56v1.69l1.33-.28.33,5.07-6.65,4.51-6.98,1.41-2.33-.85-10.64,3.1,3.66,2.54,2,.56-1.33,6.48,1.99-.28-.33-1.69,2.99-1.41,2.99,3.94,5.65,4.23,1.33,1.97,1.66,8.73-2.66,3.38-.33,2.54-1.99,3.66-.33,3.1-3.66-.28.66,5.92-5.99,3.38,1.66.85-2.66,4.51-7.32,7.89-2.99.56-2.33,1.69-5.99,7.33-3.33.85-1-.28-2.99,1.41-8.31,1.97-2.66-2.25-.33-2.82-2.66,3.66-1.66.85-4.99-.56-2.66,1.41-5.99.85-2-.85-4.32-.28-2.66-1.13-3.66-.28.33-1.41ZM427.35,172.88l-4.66.28v-1.69l.67-.56-.33-3.38,2.99-3.94-1.33-1.97,1-1.13,3.66.28v-1.97l-4.66-3.1,2.99-3.38,2.66-5.35,3.66-2.25v1.13l1.66-1.13.66-3.1,9.98-4.79,4.99-1.69,2.66-.28,8.65-3.94,1.66,2.82,5.32,1.13-2.66,1.13-2.33-.28-1.33,3.94-.66-.28-8.98,5.35h-5.99l-2-.85-.66,3.66-2.99,4.51-2.33.28-2.33,4.23-1.33.28v3.1l-.66.56-.33,3.38-4.99-1.41v1.69l3.66.28,1,4.79-3.66,2.54v2.25l1,1.13.33,1.97-4.66-2.25-.33-1.97ZM423.36,202.18h1.33l-1.33-.56v.56ZM425.69,171.47l1.99-.28,2-3.66-1.66-1.97-1.33,5.07-1,.85ZM426.69,155.41l1-.85h-1v.85ZM429.02,195.98l1.99-.85h-1l-1,.85ZM434,152.88h1v-1.13l-1,1.13ZM439.32,143.86l2-.85h-2v.85ZM457.61,279.38l-.33-1.69-4.66-1.13,4.99,2.82ZM463.6,285.86l-2.33-2.25-2.33-3.38h-.66v1.69l2.33,3.66,2.99.28ZM460.61,186.97l-.66-8.17,3.33.28-1-1.41,1-1.97,3.99-1.97,1-1.41,2.33,1.69h1v.85l-1.66,1.41,1.66,3.94,3.33,3.1,2.99-1.69,3.33.56,2.99,2.25-2.99,4.23.66,3.1-8.31-1.41-10.97.28-2.66-2.54.66-1.13ZM467.26,290.08l4.32,2.54,2.33-1.41-1.33-1.41-4.66-1.41-1.66-1.97h-1.99l.66,1.69,2.33,1.97ZM467.26,280.5l2-.85-2.66-.28.66,1.13ZM468.26,226.97v-5.92h-1.33l.33,5.07,1,.85ZM470.58,134l3.33-1.69v-1.97l8.31,1.13,1.66-.85v.85l1.99,1.13,1.33-1.97,1,.85-1.33,1.41,1.66,2.54-2,1.97-5.32-1.41v-2.54l-6.32,2.54.66.85-1,1.13-1.99-.28v-1.41l-2-2.25ZM477.9,296.28l-2.33-1.97.33,2.25,2-.28ZM483.89,173.16l-4.32-4.51,3.99-1.97-.33-1.69,1-.28,1.33,1.41,1.33-2.82,3.33.85.33,1.97h1l-.66,4.79-3.66,1.69.66,5.92-3.99-1.69v-3.66ZM483.22,225.28h1l5.65-3.94-.33-1.97,1.66-1.13.66-2.54-2.33-1.97,1.33-2.54-3.33,2.25-.66,3.66-3.66,2.82,2.99,1.13v1.69l-2.33-.85-.33.56-.33,2.82ZM486.21,169.78h3.33v-1.97l-3.33-.56v2.54ZM497.85,286.42h1.99v-3.38l-.66-.56,3.33-3.66-.33-3.94h-3.66l-5.99,3.94,2.66,2.25.33,3.38,2.33,1.97ZM518.47,226.97h2.99l2.33-.85h4.99l2.33-.85,12.97-1.13-.33-2.25-3.33.28-2,1.41-2.99-.28-1-1.69-3.66.28.33-2.25-2.33.28-1,1.13-3.99,1.97-6.32.28-3.99-3.1h-2.33l-1.66,4.51,4.32,1.69,4.66.56ZM515.48,272.33h2.66l2.66-3.1-1.66-2.54.66-2.25-.33-1.97h-1.33l-1,1.69-4.32,2.54,2.33,2.54.33,3.1ZM518.8,294.31h2.99l1-4.79-.33-8.45-2-1.69h-1.66l-1.33.85,1.99,2.82v1.41l-3.33-1.13-1.33.85,2.66,4.51-.67,2.25,2.66-.28,1,.85-1.66,1.13v1.69ZM521.79,262.47l1-.28v-2.25l5.65-1.41.33-2.54,2.33-3.1-4.32-4.79-6.98,11.55,1.99,2.25v.56ZM524.79,161.05l2.33-.28-.66-1.97-1.66,2.25ZM526.12,187.81l2-4.23-2-1.13-1.33.56,1.33,4.79ZM527.12,181.05l.66-.85-.66-1.13-1,1.13,1,.85ZM531.44,172.04l2.66,2.82,4.66-.28-8.65-10.42-1.99-.56,1.99,6.2,1.33,2.25ZM528.78,175.7h1.33v-.85h-1.33v.85ZM533.43,262.47h1l-1-.56v.56ZM539.75,183.87l2-4.51-3.99,4.51h1.99ZM538.76,205l.66,7.89,8.65.28-.33-5.35.66-1.13-3.99-2.54-1.33-7.33,1.33-3.38-2-1.97.33-5.92-1,.28-2.33,3.1v2.82l.33-.56.67,10.42-1.33,1.41-.33,1.97ZM542.75,180.21h1v-1.69l-1,.56v1.13ZM550.06,217.68h1l-1-1.41v1.41Z"/><path class="cls-1" d="M745.6,305.58l-2.33-1.41-3.33.85-1.66,1.13-1.66-.85-2.99.28-2.66-1.13-1.66,2.25-3.99-1.13-1.33-1.13-5.32-.56-2.33-1.69h-3.99l-1.33-1.69-.33-2.82h-2v2.82l1,.56v2.54l-9.31,2.25-1.66-1.13-6.65.85h-5.99l-2-.85-2.99.85-5.65-.56-1-.85-2.66,1.13-4.99-1.97h-2.99l-1.66-1.13h-2.33l-4.99-3.1v-1.97l-1.33-3.1-1.33-6.76h-2l-.33-2.54-4.32-2.82.33-4.51,2.33-1.41v-1.41h-4.99l.66-.56v-1.69l-1.99.28-1.66-3.1-3.66-3.66v-5.35l2.66-1.97-1.66-1.41,3.66-3.94-1.33-1.13.66-1.13-1-4.23,2-6.48-.33-1.97,1-6.48,1.66-5.07h2.66l2.99-1.41-1.33-2.54h-1l.33,1.69-3.66-.28,1-3.66,1.33-1.97v-3.38l3.99-3.94,1.33-5.92-1.33-2.82,2-1.97v-8.73h2l1.33,1.13h1v.85l-1,.56,3.33.85-.33,3.38-1,2.25-.67-.28-.33-2.25-2-.56-.66,2.82.33,4.23,1.66,3.1,4.66,1.41-.66,1.41h-1.33l-1.66,7.32-1.33-1.13v-1.13h-2.66l.33,2.54-3.33-.56,1.66,2.54h1.66l.33-1.69,4.99.56v1.13l-1.99,1.69h1.99v.56l-4.66,1.41-.66-1.69-2.66,1.13,2.66,1.41-3.33,3.94,2.99,2.25,2.66.85-1,1.97-6.65-1.69-.33,2.25-2,2.82,2.99.85-2.99,7.04.33,4.23-2.66,1.41,1.66,1.41v4.23l-1.33,4.23,3.66,1.13,3.66,3.38,2.33.85,14.3,1.69,1.66-.28,3.99.85,2.66-3.1.66-5.07,1-.85.66-3.38-.33-2.54,1.66-4.23v-2.25l3.33-2.82,6.98-.56,6.98.56,9.31,4.51,3.99,3.94,2,3.38v6.76l1.99,1.41,1.33,3.1,1.99.56,8.65-.56,2.99-1.41-.33-5.07,1.33-.28-1-2.82.66-6.2-.66-.85.66-15.78-1.66-1.97,1.66-3.38,1.66-.28-1-7.04-.67-.85-1-7.89.66-4.23.33-10.42h4.32l-3.66-1.69v-7.61l1.33-.85,5.99,1.13-.67-4.23-3.32-.56,1.99-1.13,2.33.28.66-.85h7.98l.33-1.97-.66-1.41-1,1.13-4.32.28v-.85h3.33l-1-6.48-3.66.28-1.66,1.97,2.33,1.13-2.33,3.1-3.33,1.69-3.33-1.69,1.33-.56,2.99-5.35v-4.51l-5.65-.28-1.33-1.69,1-.85,6.98,1.41-2-3.1-6.98.28,1.33-1.69-.33-1.97,1-1.13-1-1.13.66-2.25-3.66-2.25-3.33-6.48-.33-5.35,2.33-.28-.33-2.54-2.33-3.1,1.33-1.41,1.33,1.97,1.99-.56v-3.94l3.33,1.13,1.66,5.35,3.33-3.38v-1.97l-1.66.85.67-7.89,1.66-1.97h-4.99l-.67-.56.67-3.66,2.33.85,5.99-1.41,7.65.85,2.33,3.1-.66,1.69,1.33,5.35-1.99-.85h-3.33l1,1.41-.33,3.66h5.65l-.33,2.82,5.32.28.66,1.97-.66,4.79,1.66,4.79-2.33,1.41.33.85,2.66,1.41-1.99,2.54-.66,2.25-2.66,1.97,4.66,4.51,2,.85.66,1.13-1.33,1.41-.66,3.66h2v1.41l-1,.85v5.35l-2.66-1.13-2.33,1.97h1.66v1.13l2,1.13-1.33,1.69-.66,2.82,1.33,2.25-2.99.85v3.66h3.33l.66,1.69,2.33-1.69v-3.1l2.33-1.97,1.99,2.82-1.99,1.69-.33,3.94-2.33.28-.33,9.02,3.99-3.1,1-1.97.66,3.1,3.99-.28-2.99,3.66,4.99,5.92-.66,2.25-2.66,3.66.33,3.38-1.66.85,2.99,2.54,2.66,3.66-.33,1.13,1.66,6.2-1.66,1.97,2,.56.33,2.82-7.32.28v2.25l6.98-.28,1.99,4.23-.33,1.97,2.66,8.45.67,8.45-1,1.69,1.99,2.54v4.23l-1.33,1.13,2.66,1.97-1,1.69-.33,3.38-1,1.69,1.66-.85,1.66.85-1.66.85v5.07l2.33,1.41-2.99,3.38.33,4.23h-2.33v-.85l-3.66,3.1,1.33,1.13v1.41h-2.99l-1,1.41-1-.85-5.99-.85h-16.63l-1.99-1.13ZM644.51,232.61l2.66-1.13-2.33.28-.33.85ZM669.78,129.78l-.33-4.23-2.33-.28.33-1.41-1.33-3.38,5.65,1.97.33,8.45-2.33,1.69h-1.66l-.33,3.94-2,.28v-3.38l.67-1.13,3.33-2.54ZM672.11,117.66l6.32.28-.33,1.97-1.66-.56-8.65.28,4.32-1.97ZM670.78,107.24l-.33-1.69,1.66-2.82v-3.94h1.99l3.33,3.1-1.33,2.54.66,2.82-5.99,2.25-2.33-1.13,2.33-1.13ZM685.74,216.55l-3.66-2.82-.33-3.94,1.99-6.76-.33-8.45,2.99-7.33,1.33-1.41h-1.33l-.66-1.41.66-3.1,2.33-1.13.33-3.1,7.65-5.63,2.33,1.69h1l4.66,3.66.33,4.23-1.99.85,3.33,4.79v7.04l.66.56,1.66,13.8-1.33.85-1.66,8.45-6.32.28-1,.56-7.98-1.69h-4.66ZM685.74,297.13l2-.28v-1.69l-2,.28v1.69ZM692.06,205.56l2,1.13,1-1.41-2.99-1.13-.33-2.54-2,1.69,2.33,2.25ZM693.72,268.67l.33-6.2h-1.66l-1.66,3.66v2.54h2.99ZM693.06,192.88h1v-1.13h-1v1.13ZM694.06,190.07l1,.28-.33-2.25h-.66v1.97ZM694.06,208.66h.66v-.85l-.66.85ZM729.64,112.59l-1.66,1.41-2.66-1.41h-3.33l-.66-5.35.33-3.66-1.33-1.97-2.33.85v-.85l1.99-1.13-1.99-2.25-1.33-3.38.33-3.1,1.99.28,1.33,1.69,1.33.56,3.33,3.66-.66,1.97,5.32,1.13v2.54l-1.99,2.54-2-1.41-1.66,7.04,2.33-1.13,3.33.28.67-2.25-1.66-.85.33-.85,4.66,1.13.66,1.69,2.66,2.54,1,1.97-2.66.56-1.33,3.1,3.33-1.41,1.33,1.13-1.66,1.69h-6.65v-5.07l-.67-1.69ZM723.65,293.46l2.66,3.66,2,.56,6.32-.56,1,.56,3.99-.56-1.66-4.23-2.33,1.41-4.99-.85-5.99-2.54h-3.32l-.33,1.69,2.66.85ZM721.32,98.22h.66v-.85l-.66.85ZM726.31,152.88l3.33-1.13-1-1.41-2,.56-.33,1.97ZM730.3,281.07h1.33v-4.23l-1.33-1.69-3.33,3.38,3.33,2.54ZM739.28,163.87l3.66.28,7.32-3.1,2-2.25-2-.28-2.33,1.41-4.32-.28,4.66-4.23.66-4.51-1.66,1.69-2-3.38,1.66-1.41.33-2.54-3.33,1.41v-.85l1.33-.85h-2.33l-1.99,5.07,1.66,1.41.66,3.1h-5.32l1.33-1.13.33-3.38,1-1.41-3.33.28.66-2.82-3.66-3.1,2.66-2.54-2.99,1.13h-2.99l2.33,3.66-.66,3.38,1,.85-1,.85h-2.33l1,.85,5.65,1.69-1.66.85-2.66-.28,1,2.25,4.66.85-2.66,1.69-2.66.28,1.66,4.23,1-.28,1.33-3.1,1,1.41,3.66-.85.33,1.97-3.33.85.67,1.13ZM733.63,195.98l3.32.28,1.66-1.97h-2.99l-1.99,1.69ZM735.62,290.08h3.33l-1.33-1.41-2,1.41ZM739.61,139.64v-.56l-2.66-1.13v1.69h2.66ZM739.95,254.58l1.99.28v-1.41l-1.33-.85,2.33-2.54-.66-.85,5.32-3.94-8.65,2.25,1,2.54-2,1.13,2,3.38ZM740.61,190.35l3.33,1.69v-1.13l-1.33-1.13,2.66-.85v-4.23h-1.33l-2,2.82h-1v-.85h-1v2.54l-1.33.85,2,.28ZM738.95,144.14l1.66,2.54,1.33-3.38,3.33-.28,1-1.13-5.65-1.69-1.66,1.13v2.82ZM742.94,156.54l2.33.85-5.32-.85h2.99ZM745.93,242.47l2.33.28,1-2.54-1.99-1.41-.33-2.82h-3.99l-.33.56,1.66.85-2.33,1.97-1,2.54,4.99.56ZM743.94,231.76h5.32l-.66-1.41-4.66-2.25-2.33,1.69,2.33,1.97ZM741.61,277.41l4.32.56-2.99-3.94-1,.56-.33,2.82ZM741.94,124.7h1l1-1.97h-1l-1,1.97ZM741.94,256.28h2v-.85l-2,.85ZM742.94,202.75v2.25l2.99.28-.33-4.79-1.66-1.69-1.33,1.41.33,2.54ZM743.27,196.83l2.99.28.33-.56-3.66-.28.33.56ZM745.27,288.11l1.33,1.97,2.66-2.54-2.33-3.1-1-3.38-1.66-1.69-1.33,4.23,2.33,4.51ZM746.6,168.94l2.99-2.82-4.32-1.97-1.99,1.97,1.99.85,1.33,1.97ZM743.94,222.19l1.33.56,1.33-7.04h-2.66v6.48ZM745.27,228.1h1l.66-3.38-1.66,3.38ZM749.26,146.68l1.33.28.66-1.97,1.66-1.69-2-2.54-1.66,1.69-2.99,1.41,2.66.85.33,1.97ZM747.93,174.57l2.33-1.69-1.99-1.13-1.66.85,1.33,1.97ZM748.59,250.08v-1.13l-1.66-1.13v1.41l1.66.85ZM749.26,183.02l1.66-.28.33-1.69h-1.66l-.33,1.97ZM753.25,197.96l1.33-1.97-5.32-1.97,1,2.82,2.99,1.13ZM751.25,153.72v-.85h-1l1,.85ZM753.58,215.71v-.85h-1l1,.85ZM755.24,214.01l1.66-1.13v-.85l-1.66-.28v2.25ZM756.91,242.19l1-.85h-2.66l1.66.85ZM756.91,248.39l1-.28-.66-1.69-.33,1.97ZM765.22,279.38l.66-1.13-1-2.25,1-1.41-.33-1.13,1.99-1.41-2.33-3.38,1.33-2.25-1.99-.85-1.33-5.35,2.33-2.54-4.66-4.79-2.33,1.97v2.82l2.33,4.51-.66,4.23,1.66,2.54,1.66,5.07v3.38l1.66,1.97ZM763.89,252.61l2.99,1.13-3.66-4.51-2.33.85,2.99,2.54ZM762.89,211.2h.66l-.66-1.97v1.97ZM765.55,298.54l2.66-1.97.33-1.13-2-3.66,1.33-3.66-4.99,4.51v4.79l2.66,1.13ZM763.56,231.76h1.66l-1.66-.85v.85ZM767.22,236.84h2v-2.25l-2.33,1.41.33.85ZM769.21,249.23l1-1.41-2.33.56,1.33.85ZM774.2,260.22v-1.13l-2-1.69-2.99-.28.33,1.13,4.66,1.97Z"/><path class="cls-1" d="M807.45,293.46l-1.66-1.41-4.99-6.48-2.66-1.41-2.99-3.94-5.32-4.79-9.98-5.07-2-14.09,1.33-3.66.67-10.71-1-3.94h4.66l2.99-.85-6.32-2.54,1.66-2.54v-13.8l3.99-5.92-.66-4.79.66-2.82,1.33-.85-1-2.54,1.99-3.38-1.33-1.41,1-8.73-1-2.25,4.66-2.82-1.33-2.54-.33-4.51,2.33-12.96,1.33-1.97v-8.45l.66-3.1-1-5.92,1.66-1.97v-2.82l1.33-1.97-1.33-1.13.33-3.38,13.63.28,2,.56,2.33-.28,6.98,1.41,2-1.41,3.33.56,9.98-.56,1.33,3.1,2.33-1.97,5.65-1.41,2.33,1.69,4.66-1.69,1.33.85,3.33-1.97,11.31-.28,2,1.69,1,5.07,2.66,5.63,2.99,2.54,2.99-.28,1.33,2.25-.33,1.13,2.33.56,3.33,2.54-.33,2.82,2.33,3.66,4.32,1.13,1,1.41-2.99.28,2.66,5.63,1.33-1.13h1.33v1.69l-1.99,1.97-.33,5.35h-1.99l-2.33,1.69.33.56,3.33-.28,1.66,1.97v6.2l-1,2.82h-1.99l-1.33.85,1.66.85-.33,1.69,1,.56-.66,2.25,2.66,1.13-2.33,5.07-2-.85-1,3.38-4.32-1.41-3.66-.28-5.32.85-1.66-.85-2.99,1.97-3.99-2.25-1.99,4.51-3.33-.56-3.99,3.1-2.66,1.13-1.66,1.97,2.33-1.41,2.99.28,1.66-2.54h2.33l-1.33,1.41-.66,2.25-7.32,1.97,1.66,1.41v1.41l1.66,1.97-2,2.54-1.33.28-.66,8.73-2,1.13,2,2.54,3.33,2.25-2.99,1.13-.33,1.69,2.99.28,2,5.07-2.99,3.66-3.99.56v2.82l-1.33,1.13,1.99,3.94-3.66,1.13-4.32.28.66-.56.67-3.38-2.33-.56,2.66-4.51-1.66-.85.33-2.82-2.66-.85-1-5.07h-.66v14.65l-2.66,1.41,1.66,1.69v.85l2.33,1.97-2.66,4.79,1,2.82,3.99,3.94,3.99-3.38-2.66.28-.66-1.41,3.99-.85-2.99-1.13v-2.82l-1.66-1.41,3.32-1.41,4.99,1.13-1.99.85-.33,1.69-1.66,1.13,2,.85,3.33-.28v3.1l6.65,3.1-4.66,4.51-3.66,1.69,4.32,4.51-2,.85-1.33,4.23h3.66v1.41l2.33,1.41-1.33,1.41,4.32-.85-.33,3.1-5.32,4.23-2.66-.56-6.98.85h-7.32l-2.33,1.41-7.65-.56-1.66.85h-8.65l-4.32-1.13h-3.33l-2.99-3.66ZM791.16,236.27l-.33-4.23-4.99-4.79.33-4.23-2.99.28,2,3.38v2.25l2,1.69-.33,2.82,2,.28.33,2.54h2ZM789.49,259.66l-.66-2.25,1-3.38-2.33-3.1,3.66-3.94v-1.69l-3.99,3.1-1.33,2.54,1,6.48h-1.33l.33,1.97h2l1.66.28ZM791.16,225.85v-3.66h-2l.33,1.41,1.66,2.25ZM789.16,243.32l1.33-3.1-.33-1.97-1,.85v4.23ZM790.16,211.76h1.33l-.33-1.97-1,1.13v.85ZM802.13,267.54l1.66,1.13,2.66.28,3.66,1.97,1.66-1.13,7.98.28,4.66-1.69-1-3.1,1-3.38v-4.51l2.33-.56,1.33-2.82-3.66-1.41.33-9.58,1-2.25-.33-1.41,1.33-3.94-1-.56-1.33-5.63.33-10.99,1.33-2.25-.33-3.1.67-.56v-4.79l1.33-2.54v-6.76l.66-.56-1-1.13,2.33-3.66-1.33-.85.33-3.94,1.33-1.69,2-7.89,7.65-7.04,1.66.28,8.31-3.38,2.99-.28,2.66-2.82,1.99-5.35-.33-3.94,1-6.2-1.33-1.97,1-3.66-1-5.63h-12.3l-1.33.85-8.65,8.17-11.31.28-2-1.13-.33-2.82-2-5.35-8.31-.28-3.33,10.14,1,3.1-7.65,1.97.33,1.13,4.66-.28.33,1.69-2.66.56-.66,1.41,2.99-.85v3.66l-5.32-.28-1.66-1.41-2.66-.56.66,5.92,2-.56,5.99,1.13v1.69l-1,.85-1-.85-1.33.85,3.32,2.82-1.99,11.55.33,6.2-1,1.41v2.82l-2,3.38-3.66-.85v1.13l3.33.28v13.52l-1,1.13.33,1.41-1,2.82v5.92l-1.66,9.02.66,2.82-2.33,9.58.66,1.69-1.33.85.67,6.2-.67,6.2,1,2.82-1,3.66,2.99,2.54,5.32,1.13ZM797.48,168.09h1v-1.41l-1,.85v.56ZM797.48,176.54l2,.28v-2.25l-2-.28v2.25ZM804.13,161.61l-4.32,1.97,1.66-1.97h2.66ZM800.47,140.76l1.33-.85h-1.33v.85ZM824.41,290.37h1.33v-1.13h-1.33v1.13ZM827.74,252.33l.66-1.97-1.33.28.66,1.69ZM842.37,223.59l1.66-1.41,2.66-.85-1.66-1.13,1.66-2.54,2.66-.56-2-1.69.66-4.51-1-2.82-.67,1.69-1.66,1.41-2-4.51-2.66.56v15.21l2.33,1.13ZM844.7,290.08l1.99-.85h-1.66l-.33.85ZM847.36,282.19h1l-1.66-.85.66.85ZM849.35,241.91h1.33l-.33-.85-2-.28,1,1.13ZM852.68,271.49h.66v-.56h-1.66l1,.56ZM855.01,177.67l4.32,1.13,1.66-.85,1.33.85,1.33-.85-.33-1.97-6.32-1.97-4.32,2.54.66,1.41,1.66-.28ZM858,183.59h1v-1.41h-1v1.41ZM876.29,199.65l-.33-3.94,2-.56,3.99-2.82.66-1.13,2.66-.28,1-3.1h2.66l-.33-.56-3.99.85-2.99-1.13-2.66,1.13h-5.99l-5.65-4.51h-1l.66,1.13-3.99,3.1,1,2.82,1,.56.66,2.54,3.99,3.66,4.99.85,1.66,1.41ZM874.96,166.97l3.99.56,1.33-.85-3.66-.85-1.33-1.41,3.66.56,3.99-1.13-1.33-.85v-1.13h-2.66l-.33-1.13-1.99-1.13-2.33-3.66-1.99,5.35.33,2.54-1,4.23,3.33-1.13ZM885.93,171.75h1.33l-2.33-.85,1,.85ZM888.26,194.01v-1.97h-1l1,1.97ZM888.92,168.09l1-.56v-.85h-1v1.41ZM890.26,183.31l1-2.25-1.33-1.13-.33,1.41.66,1.97Z"/><path class="cls-1" d="M944.12,295.44l-5.65-3.1-11.64-4.23-1.33-1.69-9.31-4.79-2.33-4.23-9.98-8.73-2.66-3.38-1-3.38-2.66-4.51.67-1.13-2.33-2.82-1.99-10.14-.66-7.04.66-1.69-2.33-5.63v-23.67l1-2.54-1-3.38-.33-9.86-2.33-3.1-.66-4.51-3.33-2.82-3.33-5.63-4.99-5.92v-1.97l1.33-1.13,3.33-14.37.33-8.17,1.66-3.38v-1.41l2.66-.56,3.33-1.97,5.32-1.13,4.66-1.97-1.66-2.82.67-2.54v-13.52l.66-1.97-.66-3.38,1,.56,4.99-1.97,4.99.28,2-1.69h5.32l.66.85h5.32l1.33,1.41,2.66-1.41,6.32.56,4.99-.28,3.66,2.25h4.99l3.66,3.66v2.82l2.66.56v1.69l1,1.13v1.69l4.32,3.1-.66,3.94,1,1.97,2.33.28,1,2.25.33-1.97,1.33-.56-1.33-.85v-1.13l-1.33-1.41,2.99-1.41h2.33l1,3.1,3.33,3.1v1.13l1.33.85-1.33.85,3.33,4.23,2.33.28,9.98,5.63,3.33.56,3.33,3.38h2l6.32,5.35h3.33v7.61l-2.33,3.38-1,5.07-.33,10.71-1.66,3.38-6.65,2.82-6.65.56-2.33,1.13-1.66-.28-6.32,1.13-1.33,2.25v1.97l-1.33,3.1v5.07l1,3.66-4.66,1.69.33,1.97,1.99,2.54.66,11.27-.66,2.82,1.33,1.13-1,3.38.33,2.25-3.33,7.33,1.33,3.38,4.32,6.48,2.66,1.41,5.32,8.17h1.99l1-1.97,2.33,6.48,4.32,1.69,4.32,3.38-.33,8.73-1.66,2.82.33,2.82-2,.85v1.41l-1.66,1.97,3.33,1.97-1.66.85-4.32,4.79-2.99.28-2.33,3.1-4.32.28-1.66,1.13-5.65,1.69-12.3-.56-8.31-2.54-4.66-.28-1.99-.85ZM933.48,272.33h2.66l1-.85.66,1.13,2.66-.28,1-.85,8.98-2.25,7.32-3.66,3.33-5.63-.33-.85,1.33-3.66,2.33-1.69-8.31-11.83.33-.56-5.32-5.92-5.32,1.69-6.65-1.97-2.33-4.51-1.66,1.13-2.33-5.35-.66-9.58h-2.33l2-13.8-.67-2.25,1-1.13v-1.41l1.66-1.97,1,.56,2.33-3.1,1.33-4.51-4.66,2.82-.66-1.13.66-.85v-4.23l-1-2.54,1.33-6.2,2.99,2.54.66,2.25-.66,3.1,3.33-.28.33-1.13,3.66-1.13,3.33-1.97,1.33.28,2.99-1.97h3.99l-2.33-2.54,1.33-3.66-1.66-1.13-11.31,1.13-1.33,1.13,1.66,1.97-8.31.28-1.66-2.82.66-3.1,2.66-1.13,2.33-2.54,7.32.85,2.99-1.69,2,1.41h1.66l1.33,1.41,1.66-1.69-1-1.97,2.99-1.97-.66-2.82-2-2.82,2.33-4.23.66-5.92-.66-11.55-7.32,1.13-4.66-.85-3.33.28-2.99-.85-4.99-2.82-.33-.85,2-12.96-1.33-5.92-4.32-.56-6.98-1.97-4.66.56-2.33-.56-2.66,1.13-2.99,5.35v4.79l-1,1.41v6.76l-4.32,3.94,2.99,1.97-1.66,3.38-1.66.56-4.32-.85-6.98.56.33,2.54-1,.85-.66,3.38-2.33.85v.85l2.66,1.41-1.99,2.54.33.85-1,1.41.33,3.38-2.33,1.97h2l-.67,1.13-2.66,1.69,5.65,2.25,3.99-1.41,5.65.28,2.33,1.13,1.66,1.69-1.66,1.69.33,11.27-2.33,1.41.33,1.97-.66,2.82.33,2.54,1.33.28-1.33,2.25,1.33.85-1.33,1.97,1,5.07-1.33,4.79.33,1.97-1.33,7.89,2.66-.28-.66,1.69,2.66,6.76-.33,3.1-1.66,3.38v1.69l-1.66.85,2.33,1.97-1.99,2.54,1.33.85-1,1.41,2,.56v1.69l1,1.13-3.32,1.97,5.99,5.35,1.66,10.71,8.31,7.61,5.32,1.97,4.66,3.38h4.99l1,1.41ZM905.88,112.31h1.33l-.33-.85h-2l1,.85ZM938.14,281.91v-1.69l-2.33-1.69h-2.99l2.66,1.97,2.66,1.41ZM940.46,230.07h1.33l2.33-1.69-2-.85-.66,1.41-1,1.13ZM943.79,123.58v1.13h1.66l1-.85v.85l-1.33.56,1.33,2.82,1.66-1.97,2.66-.56,2.99-3.66-4.99-2.54-2.33.28v3.38l1-.28-1,1.13v-.85l-2.66.56ZM947.45,210.92l2.33-.56-1-1.69-1-.28-.33,2.54ZM954.1,276.28l1-1.13-1.33.85.33.28ZM957.09,172.6l1.99-.85h-1.99v.85ZM959.42,180.21v-1.41l-1.33.85,1.33.56ZM970.06,177.39l1.66.28-.33-2.25-5.65-2.54-3.66.28-1.33.85,4.99-.28-.66,1.41,4.99,2.25ZM968.73,168.94l2.33,1.13,1.33-3.66.33-4.51-2.66-1.69,1.66-2.25-3.66-2.82h-3.66l-1.33.85,2,1.69-2,2.25,2.33.85,1.99,2.82-1.33,2.54v2.54l2.66.28ZM967.73,152.88l1-.85-3.32-3.94,2.99-.28,2.66-1.69-2.66-7.04-4.32,2.54,2.66,1.97-2.33,4.79.33,3.94,2.99.56ZM974.72,262.47h1.33l-2.33-.56,1,.56ZM978.71,277.97l1.33-.28-1.33-1.13v1.41ZM989.68,156.26l2.66-.56-2-1.97-1,1.13.33,1.41ZM991.68,159.08l.33-.56h-2.66l2.33.56ZM989.35,161.89h1v-1.13l-1,1.13Z"/><path class="cls-1" d="M1038.23,291.77l-2.99-.85-2.99,1.13-1.99-3.38-3.99-.28-4.32-6.2-5.99-2.54-11.31-10.71-1.33-4.51-2.66-2.25.33-9.3,1,.56-1-7.61-1-1.13,1.33-7.33-.66-1.97.33-3.38v-14.37l.67-1.97-1-2.54,1.33-10.71-.66-5.35,1-2.25v-3.94l1.66-9.02v-27.61l1.99-3.38-1-9.02,1.33-1.13,1.99-3.94h3.99l4.99,2.82,8.31-.28-5.65-4.51v-4.23l-2.66-1.13-1.33-3.38-3.66-5.35-4.66-3.1-.66-4.51,3.66-2.54-3.99-.85-.67-3.94-1.33-2.25,1-1.13,2.66.28v-3.1l-1-1.41v-2.82h1.99v1.41l1.33,1.97,1-3.38h1.33l-1.33,4.23-1.66.85,2,2.82-3.33,1.41,3.99,1.69,1,2.25,2.33,1.69.33,1.41,3.66,1.69,9.64.28,8.31.85,3.33.85,1.33-3.94v-4.23l1.66-1.97-2.66-4.51,1.99-3.94-1.66-5.07.33-3.38-.66-2.82,1.33-1.13-2.66-1.41-10.97-.28-1-2.54.66-.85,5.32.56,3.99-.56,1.33-.85h10.31l.33,1.69,2.33,1.69-.66,2.54,3.99.56-3.66,1.69,2.99,2.54,3.33.28.66,1.41,2.33.85.33.85,4.32.28.33,2.82,2.33,1.13v1.41l2.33,2.25.33,2.25,4.66,4.79,1.99,6.48,2.99,2.25v3.66l-1.99-.56,1.33,3.94-3.33,5.63v4.51l-1.99,2.54,2.33,2.54-1,7.61-10.64,1.69-2.66-.85-4.32.56.66,3.38,5.65,6.76.66,1.97,3.66,1.69,4.32,5.63,3.99,2.25,1.99,3.38-1,4.23.33,6.48-1,2.82-.66,6.48-2.33,3.1,1.99,3.94v1.97l1.66,3.94v2.54l-3.33,6.48.67,2.54h1.99l-.33,1.97.66,2.25-1.33,1.69v6.2l-1.99,1.69,2.33,3.1-2.99,1.69,2.66,1.69,1,5.92-1.33,4.79-2.33,4.51,2.66,4.79v18.31l-1,.85-.33,6.76-3.33,1.97,3.33.56v2.25l1.33,2.25-1.99.85-2.66,2.54-11.97-2.25-10.64-.28-2.33,1.13-2.99-.85h-3.99l-2.33.28ZM1009.96,78.5l5.65-.56,7.32,1.41-.33,3.1-2.33-.28-3.66-1.69-4.32,2.25-.33,2.25-2.66-.85-3.33,1.97,1.33-5.63,2.66-1.97ZM1028.59,260.22l1.99.56,7.32-.56,2.33-2.82.33-5.07,1-.85,1-4.23-1.66-1.41-1-5.07.33-5.07,1.33-1.69-.33-1.69,1.33-2.25-1-7.04v-16.34l.66-.85-1.33-1.69.66-3.66-.66-.85.66-6.48,5.32-.85,2.66.85,3.99-.85-.66-2.25-4.99.56-1.33-1.97-4.66,3.1-.66-1.69,1.33-1.97-1-1.13-1-10.42v-15.78l-1-2.54,1-3.1v-5.07l-4.32-.85-1.99-1.13-8.31.56-3.66-1.69h-2.66l-1.66-1.41h-1.66l-2.66,5.63,1.33,3.66-1.33,3.66-1.66,2.25,2.33,1.13v3.94l-1.99,2.82,2.33,2.25-.33,6.76,1.66,1.13-2.66,1.13.33,2.82-2.66,2.25,1.33.85-1.66,1.13,1,6.2,2,5.35-4.32,3.66,1.66,1.69.66,2.82-1.66,1.97.33,4.51,1.33,3.1-2.33,3.66.66,3.94-.33,4.23,1.99,4.23h-2.33l-1,.56,2.66,6.2-1.33,4.79,2.33,12.4,1.66.85,9.31,2.82,5.65.28ZM1016.28,270.64l3.33,1.97-2-3.38-3.33-2.25-1.99-.28,1.99,2.25,2,1.69ZM1027.26,127.8l4.99,7.04,1.66.85,1,2.82,3.33.28,3.33-2.82-5.32-3.38-3.33-7.89-3.66-2.25-5.32.28v1.69l.33-.28,2.99,3.66ZM1044.88,86.39v-.85h-1l1,.85ZM1046.21,91.74l2.66-1.97h-1l-1.33,1.41h-1.66l1.33.56ZM1053.86,252.33l1.66,1.13.33-1.41-2.33-7.04v-2.25l-1.66-3.38.33-1.97-3.99,1.41-2,2.54,4.66,2.54-2.33,3.94,2.99,3.38,2.33,1.13ZM1052.2,211.76l1.99-.28,2.33-2.82-2.66-1.97v-12.11l-1.66-.28-2.99,4.51,1,3.1-.66,1.13,2.33,2.82-4.99,1.41,5.65,1.41-.33,3.1ZM1053.19,164.15v-.56h-1l1,.56ZM1053.19,181.05l1-.56,1-3.1-1.66-1.41-1.33,2.54,1,1.41v1.13ZM1053.19,94.56h1.66l-1-1.13-.66,1.13ZM1054.86,271.21h1.33v-.85l-1.33.85ZM1057.19,214.3v-.56h-1l1,.56ZM1065.5,264.16l1.99.28v-2.25l-1.66-.56-1.33-3.38,1.99-.85,1-2.54,2.66-1.41-2.66-1.69-.33-5.07-2.66-1.97-2.66-4.51h-1.33l-3.33,4.51,2.33,7.33,2.66,2.25.33,1.97-.66,1.97,3.66,3.94v1.97ZM1058.18,272.9l1-.85-1-.85v1.69ZM1062.17,137.66l1-.85-3.99-.85v1.41l2.99.28ZM1061.51,165.84h.33l-.33-2.25h-2.33l1.33.56,1,1.69ZM1064.83,283.32l1.66.56-.66-2.82,1.66-4.79-1-1.69v-1.97l-4.32.85-.67,3.94.33-.28-.66,4.79,3.66,1.41ZM1063.17,117.94l2.99-4.23h-2.99l-1,.85,1,1.13-1.33,1.13,1.33,1.13ZM1064.5,172.04l1,1.97h1.33l1.66-3.38-2.33-3.38-1.33-.28-2.99,1.69,2.66,3.38ZM1065.17,110.34l.66-2.82h-2.66l2,2.82ZM1063.17,216.27h1.33l.33-.85-1.33-1.13-.33,1.97ZM1064.5,225.28h1.66l.33-4.51-1-.85-1,.56-1.33,3.66,1.33,1.13ZM1073.81,188.94l2-.85h-1l-1,.85ZM1073.81,226.97l1-.85h-1v.85Z"/><path class="cls-1" d="M1134.67,290.08l-5.32-4.51-.33-1.41-5.99-.28-3.66-1.69-3.66.28-6.32-3.1-.66-1.41-4.99-3.1-6.98-2.54-9.98-11.55-2.99-5.07-4.66-14.37,1.99-12.96-.33-3.94,3.33-3.1,2.66-.56,2.66.28,3.99-.56,8.65-2.54,8.98-1.13-.33-2.54-5.32-5.35-4.99-6.48-1.66-.28-3.66-3.94,1-.56-1-1.97h-2.33v-.85l1.66-.85-3.99-.85v-1.97l-2.33.85-1.66-2.54-2-8.73-3.66-3.94,1-3.66-1-1.13,1.33-3.66,1-6.48,2-5.07,3.99-5.35,8.31-6.76-.33-1.97,5.32-4.79,12.3-6.48h2.66l11.97-4.51,7.65-2.25,8.65,2.54,3.66,2.25h3.33l1.66,2.25,3.66.85,3.99,2.25-.33.85h2.99l6.32,3.38,11.64,4.51,4.32,3.38v1.69l2.33-.28,5.65,1.97,1,3.1,1.33.56,1.66,2.82,2.66,12.96,2.66,1.13v.85l1.66,1.13v.85l1,.28-.33,10.14-1.99,1.97.33,1.97,2.33-.85-.67,3.38-1.33.28,2,3.38-2,2.82-2,4.79-5.32,1.13-4.66,2.25-3.99-.56,7.98,8.45,1.66,3.66,3.33,1.13,1.99,3.38-1.66-.28-2.33-2.25-2.33,4.79,8.98,1.41-.33,2.54,4.99,6.2.66,3.1-.66,4.23,2.99,11.55-3.99,7.89-3.99,3.1-1.99,5.92-4.32,3.66-2.33,4.51-3.99.85-.66,1.97-3.33.56-8.98,6.48-9.98,1.69-1.33,1.13-3.33.28-7.32,1.69-3.66-.28h-16.63l-1-.85-2.99-1.13ZM1087.78,177.95v-.85h-1l1,.85ZM1121.37,268.39l4.66,1.69h3.66l2.66.85,2.66-1.13,17.96-1.41,1-1.13,5.65-2.25,6.32-3.94,2.99-2.82,1.66-3.94,2.66-3.1v-5.07l4.32-9.02v-4.23l1-.85-1-1.13,1-1.97v-2.25l2.33-1.13-3.33-1.69-1.33-3.66-1.99-.85-2.99-3.94-8.31-6.76-2.99-5.92-2.66-.28-3.32-3.38-6.98-2.54.33-1.69-6.32-1.69-3.99-3.38.33-2.25-9.31-1.41-1.33-2.82-.33-6.2-4.32-.56,1.33-1.97-1.33-.85v-4.79l3.66-5.07,2.66-.85,4.32-2.82,9.31.85,5.65,3.66,2,2.82-2,5.07.66,5.35,1.33.85,1.99-2.25,5.32-.28,10.97-2.82,2.33-2.25-3.66-3.38-1-5.63.33-3.1-2.66-8.73-3.33-5.35-6.65-3.38h-2.33l-2.66-2.54-.33-2.54-4.32-.56-3.66-1.41-5.99-.56-4.66-1.97-3.66,1.41h-4.32l-2.33,1.97-7.98,2.54-5.99,3.1-1.99,4.79-6.32,5.92h-1.99l-2.66,4.51-.33,3.66-1,.85-.66,6.76,2.33,10.42,1.99,1.97v4.23l-1.33,1.13,3.66.85,2.99,4.79,8.98,7.33.66,1.97,5.32,1.69,2.33,2.82v.85l5.65,4.51,1.99,4.23,2,.56,1,1.97,4.32,3.1,3.99,3.94,1,4.23v5.07l-1.33,1.97.33,2.82-5.32,2.82-6.32,1.69h-4.32v-.56h-2l-2.66-2.54-2.66-1.13-3.66-3.38-2.33-6.2v-3.66l-1.66.85-4.32-.56-11.31,3.1-1.33,10.71.66,2.82,5.99,10.14,2.66,2.54,5.99,7.04,3.66,2.25,10.97,4.51h3.33ZM1124.36,229.51l-.67-2.54-2.99-1.41-1.33-3.38-1.33-.28-1.33,1.97,1.33,4.51h2.99l1,.85h1.33l1,.28ZM1124.36,233.74l1-1.13-1.99-.56v.85l1,.85ZM1137,180.77l.66-.85h-.66v.85ZM1148.63,281.35h2.99l-1.33-.85h-2l.33.85ZM1183.22,282.76l3.99-5.07,3.33.28,1-1.97,2.33-1.69,3.33-5.63,1.66-1.13,3.66-5.63v-5.07l-3.66,2.54-3.66,1.41-.66,3.66-2.66.85-1,1.13-3.66.28-.33-2.82-1.99,6.76-2.99,3.66-4.32,1.69.33,2.54-1.33,2.25,4.99.56,1.66,1.41ZM1181.56,175.14v-.56l-2.66.28,2.66.28ZM1181.56,229.23h1v-.85l-1,.85ZM1183.55,182.74h1.33l-1.33-1.13v1.13ZM1183.55,216.83h1.33l-1.33-.85v.85ZM1186.55,231.48l7.65-4.79-4.66-2.54.33-2.82-.67-.85-1.66.85.67,5.07-4.66,3.38,2.99,1.69ZM1183.55,232.89h1.33l-1.33-.85v.85ZM1187.54,180.77h1.66v-.85h-1.66v.85ZM1189.21,186.12l.67.28v-2.25l-.67.85v1.13ZM1197.52,186.12l.67.28v-2.25l-.67-.85v2.82ZM1202.18,228.1l1.99-.85-1.33-2.25-1,1.69.33,1.41Z"/><path class="cls-1" d="M1258.04,295.44l-5.65-3.1-11.64-4.23-1.33-1.69-9.31-4.79-2.33-4.23-9.98-8.73-2.66-3.38-1-3.38-2.66-4.51.67-1.13-2.33-2.82-1.99-10.14-.66-7.04.66-1.69-2.33-5.63v-23.67l1-2.54-1-3.38-.33-9.86-2.33-3.1-.66-4.51-3.33-2.82-3.33-5.63-4.99-5.92v-1.97l1.33-1.13,3.33-14.37.33-8.17,1.66-3.38v-1.41l2.66-.56,3.33-1.97,5.32-1.13,4.66-1.97-1.66-2.82.67-2.54v-13.52l.66-1.97-.66-3.38,1,.56,4.99-1.97,4.99.28,2-1.69h5.32l.66.85h5.32l1.33,1.41,2.66-1.41,6.32.56,4.99-.28,3.66,2.25h4.99l3.66,3.66v2.82l2.66.56v1.69l1,1.13v1.69l4.32,3.1-.66,3.94,1,1.97,2.33.28,1,2.25.33-1.97,1.33-.56-1.33-.85v-1.13l-1.33-1.41,2.99-1.41h2.33l1,3.1,3.33,3.1v1.13l1.33.85-1.33.85,3.33,4.23,2.33.28,9.98,5.63,3.33.56,3.33,3.38h2l6.32,5.35h3.33v7.61l-2.33,3.38-1,5.07-.33,10.71-1.66,3.38-6.65,2.82-6.65.56-2.33,1.13-1.66-.28-6.32,1.13-1.33,2.25v1.97l-1.33,3.1v5.07l1,3.66-4.66,1.69.33,1.97,1.99,2.54.66,11.27-.66,2.82,1.33,1.13-1,3.38.33,2.25-3.33,7.33,1.33,3.38,4.32,6.48,2.66,1.41,5.32,8.17h1.99l1-1.97,2.33,6.48,4.32,1.69,4.32,3.38-.33,8.73-1.66,2.82.33,2.82-2,.85v1.41l-1.66,1.97,3.33,1.97-1.66.85-4.32,4.79-2.99.28-2.33,3.1-4.32.28-1.66,1.13-5.65,1.69-12.3-.56-8.31-2.54-4.66-.28-1.99-.85ZM1247.4,272.33h2.66l1-.85.66,1.13,2.66-.28,1-.85,8.98-2.25,7.32-3.66,3.33-5.63-.33-.85,1.33-3.66,2.33-1.69-8.31-11.83.33-.56-5.32-5.92-5.32,1.69-6.65-1.97-2.33-4.51-1.66,1.13-2.33-5.35-.66-9.58h-2.33l2-13.8-.67-2.25,1-1.13v-1.41l1.66-1.97,1,.56,2.33-3.1,1.33-4.51-4.66,2.82-.66-1.13.66-.85v-4.23l-1-2.54,1.33-6.2,2.99,2.54.66,2.25-.66,3.1,3.33-.28.33-1.13,3.66-1.13,3.33-1.97,1.33.28,2.99-1.97h3.99l-2.33-2.54,1.33-3.66-1.66-1.13-11.31,1.13-1.33,1.13,1.66,1.97-8.31.28-1.66-2.82.66-3.1,2.66-1.13,2.33-2.54,7.32.85,2.99-1.69,2,1.41h1.66l1.33,1.41,1.66-1.69-1-1.97,2.99-1.97-.66-2.82-2-2.82,2.33-4.23.66-5.92-.66-11.55-7.32,1.13-4.66-.85-3.33.28-2.99-.85-4.99-2.82-.33-.85,2-12.96-1.33-5.92-4.32-.56-6.98-1.97-4.66.56-2.33-.56-2.66,1.13-2.99,5.35v4.79l-1,1.41v6.76l-4.32,3.94,2.99,1.97-1.66,3.38-1.66.56-4.32-.85-6.98.56.33,2.54-1,.85-.66,3.38-2.33.85v.85l2.66,1.41-1.99,2.54.33.85-1,1.41.33,3.38-2.33,1.97h2l-.67,1.13-2.66,1.69,5.65,2.25,3.99-1.41,5.65.28,2.33,1.13,1.66,1.69-1.66,1.69.33,11.27-2.33,1.41.33,1.97-.66,2.82.33,2.54,1.33.28-1.33,2.25,1.33.85-1.33,1.97,1,5.07-1.33,4.79.33,1.97-1.33,7.89,2.66-.28-.66,1.69,2.66,6.76-.33,3.1-1.66,3.38v1.69l-1.66.85,2.33,1.97-1.99,2.54,1.33.85-1,1.41,2,.56v1.69l1,1.13-3.32,1.97,5.99,5.35,1.66,10.71,8.31,7.61,5.32,1.97,4.66,3.38h4.99l1,1.41ZM1219.8,112.31h1.33l-.33-.85h-2l1,.85ZM1252.06,281.91v-1.69l-2.33-1.69h-2.99l2.66,1.97,2.66,1.41ZM1254.39,230.07h1.33l2.33-1.69-2-.85-.66,1.41-1,1.13ZM1257.71,123.58v1.13h1.66l1-.85v.85l-1.33.56,1.33,2.82,1.66-1.97,2.66-.56,2.99-3.66-4.99-2.54-2.33.28v3.38l1-.28-1,1.13v-.85l-2.66.56ZM1261.37,210.92l2.33-.56-1-1.69-1-.28-.33,2.54ZM1268.02,276.28l1-1.13-1.33.85.33.28ZM1271.01,172.6l1.99-.85h-1.99v.85ZM1273.34,180.21v-1.41l-1.33.85,1.33.56ZM1283.98,177.39l1.66.28-.33-2.25-5.65-2.54-3.66.28-1.33.85,4.99-.28-.66,1.41,4.99,2.25ZM1282.65,168.94l2.33,1.13,1.33-3.66.33-4.51-2.66-1.69,1.66-2.25-3.66-2.82h-3.66l-1.33.85,2,1.69-2,2.25,2.33.85,1.99,2.82-1.33,2.54v2.54l2.66.28ZM1281.65,152.88l1-.85-3.32-3.94,2.99-.28,2.66-1.69-2.66-7.04-4.32,2.54,2.66,1.97-2.33,4.79.33,3.94,2.99.56ZM1288.64,262.47h1.33l-2.33-.56,1,.56ZM1292.63,277.97l1.33-.28-1.33-1.13v1.41ZM1303.6,156.26l2.66-.56-2-1.97-1,1.13.33,1.41ZM1305.6,159.08l.33-.56h-2.66l2.33.56ZM1303.27,161.89h1v-1.13l-1,1.13Z"/><path class="cls-1" d="M95.76,430.12l-4.32,1.69-3.33-.56-2.33.28-2.99-.84-1.66.28-2-1.13-5.65,1.13-2.99-.28-3.99.84-2.66-3.66v-2.25l-1,.56-2.66-5.63-3.33-1.41v-2.25l-2.66-1.69-3.33-6.48-4.32-1.69-3.66-2.54-1-3.94,2-3.38-1-5.35,1-1.69v-2.25l1.33-3.38-1.33-3.94,1-1.97-1.33-4.79.33-2.25-.67-1.97,1-4.51-.33-5.63-1.33-4.23,1.33-3.94-1.33-3.1,2-1.13,1.66-2.25-2.99-1.13-.33-12.68.66-1.41-1-7.61-1-.85,1.33-9.58-2-2.25,1.66-2.54-1.99-1.13-1.66-2.25,1.66-1.13-1-4.23.33-3.38,2.99.28-2-1.97v-1.69l-1.33-.85.33-1.97-.66-.56-.66-5.92-6.65-.85-1-3.94-4.66-2.25-3.99-5.07-6.98-5.63-1-2.25-4.32-4.23,1-3.1-.33-3.38,1-4.23-1.33-4.23v-12.96l.66-3.1,1.99-2.82,2.66.28,2.66-1.69,8.31-.28,1.99,1.97,3.33-1.97,2.66-.28,1.99,1.97h2.33l1.33-1.41,1,1.13,2.33-1.13,2.99-.28,2.33-1.41,14.63.85,3.32-1.69,3.66-.28-.33-1.41,2.33-.85,6.32.56.66.56h11.31l4.32-2.54,3.33.28,5.32,1.69,3.33-2.82,5.32,2.54-1,1.69,1.66,2.25,4.99,1.69-1,1.13,3.66,4.23,1.33,3.38,1.66.28,1.66-1.97,9.31,8.45v2.82l1.99-1.13,1,1.41,5.32,3.38v3.38l-2.33,1.69.33,1.97,1,.28,1-2.25,2,.56-.66,3.94-3.99,1.13,2.33.28-1,1.41,1.33,2.54-6.98,2.82,1.66,1.69h1v-1.69l3.33,2.25-3.99,1.41,1.99,7.61h1l2.33,1.69-1,1.97-3.66-.28-.33,2.54-2.99,2.25-4.32-.85-6.65.28-.33,1.41-4.66,3.66h-1.33l-1,1.41,1.33,1.13-1.33,7.89h-1.99l-3.33,3.1,2.66,3.1v3.1l-1.66,3.66,1,1.13h2.33v5.07l1,1.13-1.99.85v1.69l1.99.56-3.66.28-9.31-1.97.33-2.54-3.33-1.13-2.66,1.97-2.33-1.41v-1.13l-3.66.28-.33-2.82,1.33-.28-.33-1.69h-1.33l-.66-2.25-.66.28-.67,5.92.67,1.69-2.99,3.38,2.33,4.51v4.51l-2.66,1.69,2.99,5.63,2.99-2.82v4.51l2.33-.28-.33.85-2.99,1.69-2.33-.56.33,7.61h2.66l1.33-4.51,3.66-1.13-2,2.54,3.99,3.1-2.99.85,2.66,1.97v1.69h1v.85l-2.33,1.69h1.66l1.66,1.13-3.33,2.82,3.33-.28.33,4.23,2.66-.56,2.33,2.82,1.99-2.25,3.66.85,1-1.97-5.65-.28-.33-.85,1.33-1.69-1.33-1.13,1.99-2.82,2.66-2.25-2.33-.28v-2.82l-1.99-1.13-2.33.85-3.66.28,1-1.97.33-3.1h-1.66v-.85l1.33-.85-1.33-3.94-1.66.28-2.66-1.97.66-1.97,4.32-3.1-5.65-4.23-.33-2.54,2.99-1.13.33-3.1,4.99,1.69-4.66,3.94,2.99,1.41,1.66,3.38,2.33-1.41,2.66.28.33-3.66h-1.99v-1.97l1-1.41,4.32,2.25v2.54l2.99,1.41v3.66l-2.33-2.82-1,.56v2.25h-.66l2.66,3.38h-2.66l.33,5.92,3.66,12.96-2.99,1.69,1,1.97,2.66-.28-.67,4.51-6.32,4.23.33,3.66-2.33,1.41-1.33-.56.33-2.25-1.66-.85.66-2.54-2.99-.85.33-1.13-2.99,1.13-.33,3.1,3.33,1.69,2.66,3.1-2,2.54,1.33-.28,2.66,1.97,4.66-3.66,4.32,6.2-2.99,3.1-1.66.56,1.66,1.97h2.33l-1,14.65-2.66,3.38,4.66,1.97-.66,2.25.66,7.32-3.33-1.41v.85l2.99,3.66.33,5.35h-4.32v1.69l1,1.41,2.33-2.25,1.66,1.41-1.66,1.41-1.66,3.38-6.98,3.38h-2.33l-2.66-1.13-4.66.56-2-2.54ZM14.95,239.95l.66-.85h-.66v.85ZM94.43,414.34l2.66.85v-2.25l-1.66-3.38h1.66v.85l2.66,2.25,2-.56-2.33-3.38v-7.61l3.33-2.25,4.66-1.13-.66-3.1-2-1.69-1.33,1.69h-2v-1.97l2.33-1.97,2.99.28,1-1.13-1-7.61-1-1.13-3.66.56-1.66,1.13-1-.28.66-8.73-2.99-3.1.66-2.54-.66-3.66,2.33-.85-.33-1.13-3.33.56-.33-3.1,1-1.41h-2.99v-3.38l-2.33,1.69-1.66,2.54h-8.31v-5.63l3.66-4.23-1-1.97-1.66-.28-.66-7.61,1.66-.56-.33-2.82-1.33-1.97,1-3.1-2.66-2.82,3.33-.85-2.66-5.35v-1.69l1.33-1.69.66-3.38,4.66-2.25h-2l-1.99-1.41,1.66-1.41v-1.69l-4.32.28v-1.41l4.99-1.97-1-1.97-3.99-1.69,1.99-5.07-3.33-1.97-.33-6.48-2-5.07,1.66-1.97,1.33-4.23-2.33-1.97-.66-3.1,1-4.23-2.66-8.17,3.99-1.41,1.66-3.94,4.99.56,3.33-.28.33,3.66,2.66-3.1,4.99.28,6.65-.56,4.32-2.82,1.66-3.38,3.66-4.79-2.33,1.13-4.32.56,2.33-2.54,1.99-3.94-1.33-1.13v-1.13l5.32.28-.67-3.66-5.65-.85-1-1.69.33-1.69,2.99-.28v1.97l4.66-.85,1.99-1.69-4.99.28v-2.82l-5.99.85-1-.56h-4.66l-5.32.85-4.32-.28-.66.85-6.32-1.41h-3.33l-7.65,1.41-6.32-.85-3.33,1.97h-9.31l-1.66-1.69-1.33,1.69-10.97.85-4.99-.85-5.32,1.41h-6.98l-6.98,3.66,2,3.1.33,5.07,1.33,2.54-3.33.56v3.38l2.66,2.82,2.33-3.1,4.66,2.25,8.31.56,1.99,1.97,6.32,1.13,1.66-.28,2.33,3.1,1.33,3.66-1.66,1.13,1.33,1.69-1.66,1.13,2.66,1.41-.66,3.1-1,1.13v1.69l1.66.28v3.1l-1.99,1.69,1.33,3.1-1.33,4.23.66,2.82,2,1.41-2.33.85v2.54l2.66,2.25-2.33,3.1,2.66,2.82.33,7.04,1,1.13v4.23l-1,.85,1.33.85-3.66,1.97,1.33,3.38,1.66-2.25,1,1.97-.66,2.54,2.99,5.63-2,.56-.33,2.82-1.66-.28-1.99,1.97,4.66,2.82,1.33,3.94-.33,1.41,1.66,1.69-2.66,1.97,1.33.28v2.82l1.33,1.97.33,2.82-.66,4.79-.66-.28.66,5.92-.66,1.69-2.66,1.41v1.69l1,.56-.33.56,1.66,2.25h-2.33l2.33,2.54v2.54l1.66,1.41v3.66l-3.99.56-1.66,4.23,3.99.85v1.41l-2.99,1.13-.66,1.69,5.32,5.63,2.99-.85,6.65.56,4.66-.85,5.99.85.66,2.25h2.33l.33-1.69,2.33-3.38,3.66-1.69-4.66-5.63.33-4.79,1.66-3.38-.67-2.54.33-7.89,2.66-2.25-1.66-3.1.33-.85,3.66-.85.66,2.82,3.33,2.54-1.33,1.69,1,3.38h-2.66l-1,.85,3.33.56-2.33,2.82v.85l2.33-.85,2.33,1.97-.33,8.73,2.66-2.82,1.33.28v1.69l1.33,3.1-3.99.85-.66-1.41-4.99,1.13v1.41l1,1.13-1,.85-.33,1.69,2.66-.28,2.33,2.54-1.33,1.69v1.41l-1,.85v2.82l-1.66.56,2.66,1.41-.67.85-.33,7.33,3.33,1.69ZM22.26,252.35l1-1.13-.66-.85-.33,1.97ZM31.58,263.05l2.99-2.82h-2.66l-.33,2.82ZM48.2,350.39v-.85h-1l1,.85ZM61.84,398.85l1-.56h-1v.56ZM66.16,408.71l1-.84-1.33-.85.33,1.69ZM73.14,419.41l1.33-.85h-1.33v.85ZM83.78,320.24h1l-1-.85v.85ZM87.11,412.93l1.99-.28-.33-2.25h-4.99v1.69l3.33.28v.56ZM88.77,306.16v-1.69h-1v.85l1,.85ZM87.78,398.28h1.99l-1-.85-1,.85ZM88.44,351.8l2.66-3.1-2.33-.28-.33,3.38ZM90.1,354.9l1.33-2.25,3.99-.85v-1.13l-2.99-1.69.66,2.25-4.66,2.25,1.66,1.41ZM91.43,295.73l2.99-1.97-1.33-3.1-.66-4.23-1.33-2.25-2.33,3.94.33,7.61h2.33ZM95.76,356.59l2.66-1.41-2.33-1.69-2.33.28,1.66.85.33,1.97ZM100.41,336.3l1-.85v-1.13l-1,.28v1.69ZM101.41,407.86l1.33-1.13h-1.33v1.13ZM103.4,333.49h3.33l-.33-1.69-2.66.28-.33,1.41ZM105.07,299.4l1.66-1.13-1.66-.56,3.66-2.54-3.99-2.25-1,2.54v2.82l1.33,1.13ZM104.4,339.12h1l-.33-3.1-1.33.56.67,2.54ZM107.73,306.72l.33-3.94-2.33-.28-.66,2.25,2.66,1.97ZM105.4,379.41h8.31v-2.82l-5.99,1.69-2.33,1.13ZM105.73,218.26l2-.28-1-1.13-1,1.41ZM107.4,337.15l1.66-1.41-1.66-1.69v3.1ZM108.73,318.55h1v-1.13l-1,1.13ZM108.73,344.75h1v-.56h-1v.56ZM112.72,296.3h1v-.85h-1v.85ZM117.37,248.96l4.32-.56-.33-4.79-3.33-.56-.33-1.97,1-2.82-5.32-.28,1.66,5.07,2.66,1.41.67,1.97-4.32,1.41,3.33,1.13ZM117.7,260.52l-2.99,2.54,4.66-.28v-3.38l-1.66,1.13ZM128.35,275.17h3.33l.66-4.23-4.66.85.66,3.38ZM139.98,247.84h1v-.85h-1v.85Z"/><path class="cls-1" d="M251.72,441.95l-3.33.56-4.66-1.13-7.98-.56-2.99-1.69-5.32-.28-8.65-6.76v-1.97h-6.65l1,3.66-.67,5.07,1,1.13-4.66,2.25-2.33,1.97-2.33-1.97-4.99-.28-4.32-2.82-3.33.84-7.98-1.13-10.31-3.38-7.32-4.51-3.33-6.2-2.66-1.97-1.33-2.82-3.33-3.38-2.66-4.23-1.66,2.82-1.99-1.69-.33-1.97-2.66-2.54,1.33-5.35,2.66-3.66h-2.99l1-6.48,1.33-2.25v3.38l8.98-2.54-1.33,3.66v2.82l-1.99,1.41,5.65,1.69,8.31,1.41,6.32.28,6.32-.85-.66-1.69,1.33-3.66-1.99-6.76v-6.48l-1.66-3.66.33-2.82-1-2.25,1.33-6.76.33-6.2.66-.85-.66-3.94,1-1.97-.33-2.54,2.33-9.86,1-.85-.67-2.82,1-2.82-.66-3.38,2.33-2.54,1.66-3.1-.66-2.54,1.66-9.3,2.99-7.04.33-2.82,3.66-3.94,2.66.28,4.32,1.97,2.33,2.25,2.99.28,1.66,2.25,4.66,3.94,7.32,12.11-2,1.69,2.33,1.97-.33,4.51-2.33,6.2,1.33,1.41-1,4.79v6.48l-1.66,6.76-.66-.28v5.07l-1.66,4.23,1.66,3.38v9.02l-1,.56-.66,2.82-1,.56,1.66,1.13.33,1.97-1,1.13,1,3.1v5.07l-2.33,1.97,1.66,5.92,3.99,1.69,3.66-.56v.28l3.99-.28,2.33-1.69,6.32,1.41,3.33-.56,1.99-2.54,2,2.82,1.66-12.96-1-3.1,1.33-5.35-.33-1.69,1.33-4.23,1-10.42-2.33-5.63,1.99-1.97-.66-5.07,1-5.35-1.33-4.79.66-4.23,1.99-1.69-1.99-3.66,1.33-10.71-.33-7.89,1.33-1.41-1-2.54.33-6.76-.66-2.54,1.33-5.92-2.33-2.82.33-5.35-2.33-3.38-6.32-4.51-3.33-3.66v-4.23l-3.33.28-2.99-2.25-2.33-.85-2.33-1.97-8.65,2.82-1-1.13-2.33,1.69-4.32-.85-1.33,2.25-6.65,1.97,2,.28v1.41l-2.66.85-1.33,1.41-6.98-1.97-1.99-4.51v-7.33l.66-.28-1.33-4.23.67-5.63,2.33-.85-1-.28,1-4.79-.33-2.25.66-17.47,1.33-1.41-2-2.25-2.33-.28-3.33-1.69h-6.32l-3.66,1.97-7.32,1.97-2.66-.28-3.99.56-3.99,9.58-2.66,2.82,3.99-.85,2.66,1.41.66,7.04-1.33,4.51,1.33,3.94v2.54l-1.99-.56-1,1.97,2,3.38-2,1.13,2,3.1-2,4.79,2,1.41-3.66,1.69,3.99.56-1.33,3.66v8.45l-2.33,2.25,3.33,7.04.33,3.38-5.99.28.33,10.99,1.66.56-1.99,2.25h3.66l-3.33,2.54-1,2.82,1,2.54-5.65-2.25.66-6.48,2.33-2.54-2.33-2.82v-1.69l2.33-1.97v-1.41l2.66-3.66,3.66-1.13-3.66-1.13,2-1.13h-5.99v-1.97l-.66-.56-.33-3.1-1.66-2.82,2-2.54h2.99l-.66-1.41-2.66-.85.66-1.13,3.99-.28,1.99-3.38-1.66,1.41-5.32.28-.66-3.1,1-10.99,1-1.69-.33-.85,1.33-1.69.33-3.66-1.33-.56v-3.1l-1-.85.66-1.13-1-2.54,2.99-5.07-1.66-1.69v-.85l-1.66-1.41,1.66-.85-.66-3.1,1.33-3.66-2.66-1.97,1.66-3.66-3.99-1.41,2-1.13,4.66-.56-2.33-.56-.33-2.25,2.33-1.41,1.33-1.97,5.32-.56,10.31,1.13,4.66-2.54,1.66,1.13,3.33.85,1.66-.56.33-1.69,6.65,1.41,1.99,1.13,3.66.56v1.69l4.66,2.25,7.65,7.61.33,2.54-3.99-1.41-.33,3.1.66,4.23,1.66,1.41,3.66-2.82v-2.54l-1-.85,2.33-1.97,1.66-.56-1,4.23,3.66-.56.66,3.66,3.33,2.82-.33,3.94-1.66,1.41.33.85-1.33,3.94,2.33-.28-.66,7.33-2.99,1.97,7.32,2.25,4.99-.28,4.66,5.63,1.66-2.54,1.66,1.13-1.33,1.69,3.99.28,2.33,3.66,1.99,1.69-.33,1.97h4.32l7.65,3.1,2,1.97-.33,2.25,3.33.85v2.54h-1v1.41h4.66l2.33,4.79,3.33,2.82.33,3.38,2.99,3.94-.33,1.69,2.33,2.54-1,1.97v4.79l2.33,1.69v4.79l-3.66,3.38,1-1.41-.66-3.94-1.33-1.69-.66-8.17h-6.65l-1-5.35h.33l-1.66-5.07,1-3.1-1-4.23h-1.66l-1-.85h-1.99v1.41l-2,2.82-.33,1.97,2.33,2.82-1.66,2.25.33,4.79,1.33,1.41-3.66,6.48h1.33l1,1.13-1.33,1.41,1.33,1.13,2.33-.28v-1.97l5.65.56.66,3.38,2.33,6.2h-1.66l1.33,3.66-1.33,3.66,1,1.41-1.66.85-1.66,3.1-2.66-3.1v-1.41l-1.66-1.69-2.66,3.94.33,2.82-1.66,4.23,1.66-.28-2.99,7.33h2.66l2.66-1.13,2.33,1.69-1.66,1.41,1,1.69-5.99,5.35.33,1.13-1.33,1.69,1,.85,1.66-.28,1.33,1.69h1.99l-1-1.41.33-2.54-1.33-3.1h1l1.99,3.94,6.32,1.69,1.33,3.38-.33,3.66,1,.85,1.99-4.79.33-3.1,2.33.56,1-3.66v.28l2-3.66h1.33l-.66,5.92-1.33,3.66.67,1.97-2,2.54,1.66,1.41-2.33,6.48,1,1.13-.33,2.82-2.66,1.13,2,.56.33,1.97,2.33,1.13-1.33,5.07-2.33,3.1v5.35l-1,2.54,2.99-2.25,1.33,2.82-1,1.41,1.66-.56-.66,12.4,1.33,3.38-1,3.94.66,3.1-2.99,2.25,1,.85,2.66.28-2.99,3.66,1.33,2.54v2.54l1.33.28-.66,2.54-10.31-.56-3.99.56-2.33-.56-3.99.56-1.66-1.69ZM152.95,372.93l-2.66.56-1.66-1.97,3.99-1.13-1.33-2.82,1-1.97-1.33-1.41.67-5.63h-2.66l3.66-4.51-2.66-1.13-.33-5.92,2-3.38,1.33-5.35,1.66,1.41,2.66-2.54.33-1.97-4.99.56,1-1.97,3.66-1.13,1.33-2.25-.66.56-2.33-3.66-5.99,2.54,1.33-2.54,8.98-4.79,2.66,2.54-.66,4.23-.33,8.73-1.33,7.61.66,4.79-2.33,2.25-4.32,2.25,3.33.85v1.41l1.66,3.1.33,9.02-2.66,9.02-3.99-.28-2.99.85.33-3.94,2.66-1.97ZM154.62,270.94l2.33.28v-.85l-1.66-.56-.66,1.13ZM154.62,288.97l2.66-.85-2.66-.85v1.69ZM155.28,295.17v-.85h-.66l.66.85ZM155.28,367.58l1.66-.85h-1.66v.85ZM157.61,255.16h1v-.85l-1,.85ZM165.92,418.01h1.33l-2-2.82.66,2.82ZM171.24,423.08l-1-1.41v.84l1,.56ZM175.24,428.99l2.33-.28-.66-1.41-5.32-4.51,1.33,3.38,2.33,2.82ZM178.23,415.19l1.33-1.69h-1l-.33,1.69ZM191.53,365.32l.33-6.76-.67.28-1.66,7.04,2-.56ZM190.2,369.27h.66v-.85l-.66.85ZM191.53,391.24l1.99-2.25-.33-6.48h-2.66v7.04l1,1.69ZM193.86,348.98l-1.66,2.54h2.66l1.66-1.97-1.33-2.25-1.33,1.69ZM201.51,313.48l1.99-.85h-1l-1,.85ZM201.51,417.44v5.07h1.99v-5.63l1.33-4.23-.67-3.66-2.66-.28,1.33,2.82-.66,2.82-.66,3.1ZM207.49,339.4h3.33v-1.69l-3.33,1.69ZM210.82,343.63l1-.56h-1v.56ZM216.47,427.58l.33-1.69-.66.84.33.85ZM228.11,420.82l1,1.41,2-1.97-2-1.41.33-2.82-1.33-.28-2.33,2.25,2.33,2.82ZM228.44,425.89l-2-2.82-.33,1.69,2.33,1.13ZM228.77,414.34l2-.85h-1.33l-.67.85ZM234.1,423.92l.66-.84-3.66-2.54,2.99,3.38ZM238.09,416.03l2.99-1.41h-1.99l-1,1.41ZM246.73,425.33l2.33-1.69-7.32-2.82-2.66-2.82.66,1.13-.66,3.38,4.99,1.69,2.66,1.13ZM239.08,428.43l3.33.56.33-2.25-2.66-.28-1,1.97ZM264.36,436.6l2-.56-1-3.38,1.99-5.92-1.33-.28-1.66,1.97-5.32-5.35-3.32,1.97v-1.69l1.99-4.23-1-4.23-3.33-.56-.66-1.97-6.32,4.51-.66,2.54,3.66-.28v1.97l2.33,3.66-1.99,2.54,3.33,1.69-2.99,1.41,2,1.41,2.66,5.07,2.33-2.25-.33-3.66-1.33-2.25,2.33-2.25,2.99,3.1-.33,2.54.66,1.69-.66,2.54,3.99.28ZM257.37,396.59l1.66,1.97,1.66.28v-12.96l3.99.28-.67,3.66.33,5.92h2.99l-.33-2.25.66-7.33-4.99-2.54-2,.85-.66-1.97,1.66-2.25-3.99-4.79.66-2.25-.66-4.79-1.66.56-1.99,2.82-3.66,6.76,3.33,1.41-2.99,1.41,2.99,2.25-2.66,3.1,1.33,3.94-.67.56.33,3.38,2.99.56,2.33,1.41ZM250.72,292.35h1v-1.41h-1v1.41ZM250.72,336.58l1-.85h-1v.85ZM254.71,326.16l.33-1.13-2.66-.85.33,1.41,2,.56ZM258.7,333.2l2.33-2.25-4.32-.85-1-1.69-2.66.28,2.33,4.51h3.33ZM256.04,411.53l-.33-1.69h-.67l1,1.69ZM257.71,324.19h1.33l-1.33-.85h-1.99l1.99.85ZM259.04,401.95h1v-.56h-1v.56ZM261.7,439.98h1.33v-1.97l-1.33,1.13v.84ZM263.36,401.95l2.66-.56h-2l-.66.56ZM264.02,298.55h1l-1-1.41v1.41ZM264.02,416.03h2l.66-5.07-2.66,3.66v1.41ZM265.02,380.82l1.33.28-.33-2.25h-1v1.97Z"/><path class="cls-1" d="M333.86,436.04l-2.66-.28-7.98-5.07-6.32-5.63-1.33.85-4.66-5.92v-5.92l-2.66-.28-4.32-4.23.67-1.69-2.99,1.13-3.66-6.48-2.66-2.54-6.65-11.55-1-6.2-1.99-3.94.33-13.52-1-2.54,1-1.97-.66-1.69.66-2.54-1.66-4.23-.66-4.79,2-5.92-.67-1.41.33-1.97-1-1.41v-4.79l1.33-1.13h1v.85l2,.85,1-1.13v-3.38l-1,.28.33-2.82-3.33-.28-.67-5.92-2.33-.28,2.99-3.38v-7.04l1-.85.67,1.41,5.65.28,3.33,3.66.66,4.51,1.33,1.41-2.66,1.97,2,.85-1.33,5.63,1.66,3.1v3.1l-.67.85,1,6.48-2.99,3.66,1.99,2.54-.33,1.97h-1.66l-.33,2.82-1,.56v2.25h1l.66.85-.66,1.97.33,8.45,2.66,5.63,1.66,1.13.66,5.63-.66,6.76,4.32,1.41v3.38l1,2.54,2,.56,3.33,2.54,10.64,6.48,5.65.56,13.3,3.66,2-1.13,1,.28,2.33-1.41,9.64-.56,2.66-1.13h2.99l3.99-3.66,9.31-10.14-1-3.1,4.32-6.48-.66-2.54,2.99-4.23,1-3.66-1.33-1.69h-6.32l-1.33.85h-3.66l-6.32-2.25-5.65-1.13v2.25l-2,1.41.67,1.69-.67,1.41v3.38h-3.99l.33,2.54-2.99,1.69-12.3,1.97-3.66-2.82-2.66-.28-2.99-1.69-2-6.76-2.33-5.92,1-10.42,2.33-1.41-2.33-2.82v-4.51l4.99-1.13,1-.85h8.31l1,1.13-1,5.92-1.33,2.54.33,3.1-1,6.48,2,1.13,2.33-3.38,2.33-1.69.66-1.69,1-.28v-2.54l-1.33-1.13,2.33-.56,2.99.28,1.99-4.51-4.99,2.25h-2v-2.25l-3.99-1.69,7.32-1.41,6.98.85,3.33-2.54h2.99l1.66,2.54,3.66-2.82,2.33-.28.33-1.97h3.99l4.66-7.61v-5.63l-1.66-4.51.33-9.3,2.66-5.63,1.66,1.13,1.33-1.13-1.99-3.38.66-3.66-1-4.23-2.33-1.13v2.25h-2.66l.66-4.51-.66-5.35-4.32-3.66v-6.2l1.33-3.66-2.99-1.41-1-2.25,8.31,2.82,3.99,3.38v.85h2.33l1,3.38,2.66.85,11.97,5.35v1.97l4.99,1.13,1.99,3.38v1.69l3.99.28v3.38l4.66,1.69v2.82l2.99,3.38,1.99,4.51-.33,3.38-1.66,1.69,4.99,3.1,2.33,8.73-1.33,6.2-1.66,1.13,2.66,1.97v2.82l-1,2.25,2.33,3.94v1.97h-1.33l1.33,2.82-1.33.56v1.69l1.33-.28.33,5.07-6.65,4.51-6.98,1.41-2.33-.85-10.64,3.1,3.66,2.54,2,.56-1.33,6.48,1.99-.28-.33-1.69,2.99-1.41,2.99,3.94,5.65,4.23,1.33,1.97,1.66,8.73-2.66,3.38-.33,2.54-1.99,3.66-.33,3.1-3.66-.28.66,5.92-5.99,3.38,1.66.84-2.66,4.51-7.32,7.89-2.99.56-2.33,1.69-5.99,7.33-3.33.84-1-.28-2.99,1.41-8.31,1.97-2.66-2.25-.33-2.82-2.66,3.66-1.66.85-4.99-.56-2.66,1.41-5.99.84-2-.84-4.32-.28-2.66-1.13-3.66-.28.33-1.41ZM291.29,305.31l-4.66.28v-1.69l.67-.56-.33-3.38,2.99-3.94-1.33-1.97,1-1.13,3.66.28v-1.97l-4.66-3.1,2.99-3.38,2.66-5.35,3.66-2.25v1.13l1.66-1.13.66-3.1,9.98-4.79,4.99-1.69,2.66-.28,8.65-3.94,1.66,2.82,5.32,1.13-2.66,1.13-2.33-.28-1.33,3.94-.66-.28-8.98,5.35h-5.99l-2-.85-.66,3.66-2.99,4.51-2.33.28-2.33,4.23-1.33.28v3.1l-.66.56-.33,3.38-4.99-1.41v1.69l3.66.28,1,4.79-3.66,2.54v2.25l1,1.13.33,1.97-4.66-2.25-.33-1.97ZM287.3,334.61h1.33l-1.33-.56v.56ZM289.63,303.9l1.99-.28,2-3.66-1.66-1.97-1.33,5.07-1,.85ZM290.63,287.84l1-.85h-1v.85ZM292.96,328.41l1.99-.85h-1l-1,.85ZM297.95,285.31h1v-1.13l-1,1.13ZM303.27,276.29l2-.85h-2v.85ZM321.56,411.81l-.33-1.69-4.66-1.13,4.99,2.82ZM327.54,418.29l-2.33-2.25-2.33-3.38h-.66v1.69l2.33,3.66,2.99.28ZM324.55,319.4l-.66-8.17,3.33.28-1-1.41,1-1.97,3.99-1.97,1-1.41,2.33,1.69h1v.85l-1.66,1.41,1.66,3.94,3.33,3.1,2.99-1.69,3.33.56,2.99,2.25-2.99,4.23.66,3.1-8.31-1.41-10.97.28-2.66-2.54.66-1.13ZM331.2,422.51l4.32,2.54,2.33-1.41-1.33-1.41-4.66-1.41-1.66-1.97h-1.99l.66,1.69,2.33,1.97ZM331.2,412.93l2-.84-2.66-.28.66,1.13ZM332.2,359.4v-5.92h-1.33l.33,5.07,1,.85ZM334.53,266.43l3.33-1.69v-1.97l8.31,1.13,1.66-.85v.85l1.99,1.13,1.33-1.97,1,.85-1.33,1.41,1.66,2.54-2,1.97-5.32-1.41v-2.54l-6.32,2.54.66.85-1,1.13-1.99-.28v-1.41l-2-2.25ZM341.84,428.71l-2.33-1.97.33,2.25,2-.28ZM347.83,305.59l-4.32-4.51,3.99-1.97-.33-1.69,1-.28,1.33,1.41,1.33-2.82,3.33.85.33,1.97h1l-.66,4.79-3.66,1.69.66,5.92-3.99-1.69v-3.66ZM347.16,357.71h1l5.65-3.94-.33-1.97,1.66-1.13.66-2.54-2.33-1.97,1.33-2.54-3.33,2.25-.66,3.66-3.66,2.82,2.99,1.13v1.69l-2.33-.85-.33.56-.33,2.82ZM350.15,302.21h3.33v-1.97l-3.33-.56v2.54ZM361.79,418.85h1.99v-3.38l-.66-.56,3.33-3.66-.33-3.94h-3.66l-5.99,3.94,2.66,2.25.33,3.38,2.33,1.97ZM382.41,359.4h2.99l2.33-.85h4.99l2.33-.85,12.97-1.13-.33-2.25-3.33.28-2,1.41-2.99-.28-1-1.69-3.66.28.33-2.25-2.33.28-1,1.13-3.99,1.97-6.32.28-3.99-3.1h-2.33l-1.66,4.51,4.32,1.69,4.66.56ZM379.42,404.76h2.66l2.66-3.1-1.66-2.54.66-2.25-.33-1.97h-1.33l-1,1.69-4.32,2.54,2.33,2.54.33,3.1ZM382.74,426.74h2.99l1-4.79-.33-8.45-2-1.69h-1.66l-1.33.85,1.99,2.82v1.41l-3.33-1.13-1.33.85,2.66,4.51-.67,2.25,2.66-.28,1,.84-1.66,1.13v1.69ZM385.74,394.9l1-.28v-2.25l5.65-1.41.33-2.54,2.33-3.1-4.32-4.79-6.98,11.55,1.99,2.25v.56ZM388.73,293.48l2.33-.28-.66-1.97-1.66,2.25ZM390.06,320.24l2-4.23-2-1.13-1.33.56,1.33,4.79ZM391.06,313.48l.66-.85-.66-1.13-1,1.13,1,.85ZM395.38,304.47l2.66,2.82,4.66-.28-8.65-10.42-1.99-.56,1.99,6.2,1.33,2.25ZM392.72,308.13h1.33v-.85h-1.33v.85ZM397.38,394.9h1l-1-.56v.56ZM403.69,316.3l2-4.51-3.99,4.51h1.99ZM402.7,337.43l.66,7.89,8.65.28-.33-5.35.66-1.13-3.99-2.54-1.33-7.33,1.33-3.38-2-1.97.33-5.92-1,.28-2.33,3.1v2.82l.33-.56.67,10.42-1.33,1.41-.33,1.97ZM406.69,312.64h1v-1.69l-1,.56v1.13ZM414,350.11h1l-1-1.41v1.41Z"/><path class="cls-1" d="M609.54,438.01l-2.33-1.41-3.33.85-1.66,1.13-1.66-.84-2.99.28-2.66-1.13-1.66,2.25-3.99-1.13-1.33-1.13-5.32-.56-2.33-1.69h-3.99l-1.33-1.69-.33-2.82h-2v2.82l1,.56v2.54l-9.31,2.25-1.66-1.13-6.65.85h-5.99l-2-.85-2.99.85-5.65-.56-1-.85-2.66,1.13-4.99-1.97h-2.99l-1.66-1.13h-2.33l-4.99-3.1v-1.97l-1.33-3.1-1.33-6.76h-2l-.33-2.54-4.32-2.82.33-4.51,2.33-1.41v-1.41h-4.99l.66-.56v-1.69l-1.99.28-1.66-3.1-3.66-3.66v-5.35l2.66-1.97-1.66-1.41,3.66-3.94-1.33-1.13.66-1.13-1-4.23,2-6.48-.33-1.97,1-6.48,1.66-5.07h2.66l2.99-1.41-1.33-2.54h-1l.33,1.69-3.66-.28,1-3.66,1.33-1.97v-3.38l3.99-3.94,1.33-5.92-1.33-2.82,2-1.97v-8.73h2l1.33,1.13h1v.85l-1,.56,3.33.85-.33,3.38-1,2.25-.67-.28-.33-2.25-2-.56-.66,2.82.33,4.23,1.66,3.1,4.66,1.41-.66,1.41h-1.33l-1.66,7.32-1.33-1.13v-1.13h-2.66l.33,2.54-3.33-.56,1.66,2.54h1.66l.33-1.69,4.99.56v1.13l-1.99,1.69h1.99v.56l-4.66,1.41-.66-1.69-2.66,1.13,2.66,1.41-3.33,3.94,2.99,2.25,2.66.85-1,1.97-6.65-1.69-.33,2.25-2,2.82,2.99.85-2.99,7.04.33,4.23-2.66,1.41,1.66,1.41v4.23l-1.33,4.23,3.66,1.13,3.66,3.38,2.33.85,14.3,1.69,1.66-.28,3.99.85,2.66-3.1.66-5.07,1-.85.66-3.38-.33-2.54,1.66-4.23v-2.25l3.33-2.82,6.98-.56,6.98.56,9.31,4.51,3.99,3.94,2,3.38v6.76l1.99,1.41,1.33,3.1,1.99.56,8.65-.56,2.99-1.41-.33-5.07,1.33-.28-1-2.82.66-6.2-.66-.85.66-15.78-1.66-1.97,1.66-3.38,1.66-.28-1-7.04-.67-.85-1-7.89.66-4.23.33-10.42h4.32l-3.66-1.69v-7.61l1.33-.85,5.99,1.13-.67-4.23-3.32-.56,1.99-1.13,2.33.28.66-.85h7.98l.33-1.97-.66-1.41-1,1.13-4.32.28v-.85h3.33l-1-6.48-3.66.28-1.66,1.97,2.33,1.13-2.33,3.1-3.33,1.69-3.33-1.69,1.33-.56,2.99-5.35v-4.51l-5.65-.28-1.33-1.69,1-.85,6.98,1.41-2-3.1-6.98.28,1.33-1.69-.33-1.97,1-1.13-1-1.13.66-2.25-3.66-2.25-3.33-6.48-.33-5.35,2.33-.28-.33-2.54-2.33-3.1,1.33-1.41,1.33,1.97,1.99-.56v-3.94l3.33,1.13,1.66,5.35,3.33-3.38v-1.97l-1.66.85.67-7.89,1.66-1.97h-4.99l-.67-.56.67-3.66,2.33.85,5.99-1.41,7.65.85,2.33,3.1-.66,1.69,1.33,5.35-1.99-.85h-3.33l1,1.41-.33,3.66h5.65l-.33,2.82,5.32.28.66,1.97-.66,4.79,1.66,4.79-2.33,1.41.33.85,2.66,1.41-1.99,2.54-.66,2.25-2.66,1.97,4.66,4.51,2,.85.66,1.13-1.33,1.41-.66,3.66h2v1.41l-1,.85v5.35l-2.66-1.13-2.33,1.97h1.66v1.13l2,1.13-1.33,1.69-.66,2.82,1.33,2.25-2.99.85v3.66h3.33l.66,1.69,2.33-1.69v-3.1l2.33-1.97,1.99,2.82-1.99,1.69-.33,3.94-2.33.28-.33,9.02,3.99-3.1,1-1.97.66,3.1,3.99-.28-2.99,3.66,4.99,5.92-.66,2.25-2.66,3.66.33,3.38-1.66.85,2.99,2.54,2.66,3.66-.33,1.13,1.66,6.2-1.66,1.97,2,.56.33,2.82-7.32.28v2.25l6.98-.28,1.99,4.23-.33,1.97,2.66,8.45.67,8.45-1,1.69,1.99,2.54v4.23l-1.33,1.13,2.66,1.97-1,1.69-.33,3.38-1,1.69,1.66-.85,1.66.85-1.66.84v5.07l2.33,1.41-2.99,3.38.33,4.23h-2.33v-.85l-3.66,3.1,1.33,1.13v1.41h-2.99l-1,1.41-1-.85-5.99-.84h-16.63l-1.99-1.13ZM508.45,365.04l2.66-1.13-2.33.28-.33.85ZM533.72,262.21l-.33-4.23-2.33-.28.33-1.41-1.33-3.38,5.65,1.97.33,8.45-2.33,1.69h-1.66l-.33,3.94-2,.28v-3.38l.67-1.13,3.33-2.54ZM536.05,250.09l6.32.28-.33,1.97-1.66-.56-8.65.28,4.32-1.97ZM534.72,239.67l-.33-1.69,1.66-2.82v-3.94h1.99l3.33,3.1-1.33,2.54.66,2.82-5.99,2.25-2.33-1.13,2.33-1.13ZM549.68,348.98l-3.66-2.82-.33-3.94,1.99-6.76-.33-8.45,2.99-7.33,1.33-1.41h-1.33l-.66-1.41.66-3.1,2.33-1.13.33-3.1,7.65-5.63,2.33,1.69h1l4.66,3.66.33,4.23-1.99.85,3.33,4.79v7.04l.66.56,1.66,13.8-1.33.85-1.66,8.45-6.32.28-1,.56-7.98-1.69h-4.66ZM549.68,429.56l2-.28v-1.69l-2,.28v1.69ZM556,337.99l2,1.13,1-1.41-2.99-1.13-.33-2.54-2,1.69,2.33,2.25ZM557.66,401.1l.33-6.2h-1.66l-1.66,3.66v2.54h2.99ZM557,325.32h1v-1.13h-1v1.13ZM558,322.5l1,.28-.33-2.25h-.66v1.97ZM558,341.09h.66v-.85l-.66.85ZM593.58,245.02l-1.66,1.41-2.66-1.41h-3.33l-.66-5.35.33-3.66-1.33-1.97-2.33.85v-.85l1.99-1.13-1.99-2.25-1.33-3.38.33-3.1,1.99.28,1.33,1.69,1.33.56,3.33,3.66-.66,1.97,5.32,1.13v2.54l-1.99,2.54-2-1.41-1.66,7.04,2.33-1.13,3.33.28.67-2.25-1.66-.85.33-.85,4.66,1.13.66,1.69,2.66,2.54,1,1.97-2.66.56-1.33,3.1,3.33-1.41,1.33,1.13-1.66,1.69h-6.65v-5.07l-.67-1.69ZM587.59,425.89l2.66,3.66,2,.56,6.32-.56,1,.56,3.99-.56-1.66-4.23-2.33,1.41-4.99-.84-5.99-2.54h-3.32l-.33,1.69,2.66.85ZM585.27,230.65h.66v-.85l-.66.85ZM590.25,285.31l3.33-1.13-1-1.41-2,.56-.33,1.97ZM594.25,413.5h1.33v-4.23l-1.33-1.69-3.33,3.38,3.33,2.54ZM603.22,296.3l3.66.28,7.32-3.1,2-2.25-2-.28-2.33,1.41-4.32-.28,4.66-4.23.66-4.51-1.66,1.69-2-3.38,1.66-1.41.33-2.54-3.33,1.41v-.85l1.33-.85h-2.33l-1.99,5.07,1.66,1.41.66,3.1h-5.32l1.33-1.13.33-3.38,1-1.41-3.33.28.66-2.82-3.66-3.1,2.66-2.54-2.99,1.13h-2.99l2.33,3.66-.66,3.38,1,.85-1,.85h-2.33l1,.85,5.65,1.69-1.66.85-2.66-.28,1,2.25,4.66.85-2.66,1.69-2.66.28,1.66,4.23,1-.28,1.33-3.1,1,1.41,3.66-.85.33,1.97-3.33.85.67,1.13ZM597.57,328.41l3.32.28,1.66-1.97h-2.99l-1.99,1.69ZM599.57,422.51h3.33l-1.33-1.41-2,1.41ZM603.56,272.07v-.56l-2.66-1.13v1.69h2.66ZM603.89,387.02l1.99.28v-1.41l-1.33-.85,2.33-2.54-.66-.85,5.32-3.94-8.65,2.25,1,2.54-2,1.13,2,3.38ZM604.55,322.78l3.33,1.69v-1.13l-1.33-1.13,2.66-.85v-4.23h-1.33l-2,2.82h-1v-.85h-1v2.54l-1.33.85,2,.28ZM602.89,276.57l1.66,2.54,1.33-3.38,3.33-.28,1-1.13-5.65-1.69-1.66,1.13v2.82ZM606.88,288.97l2.33.85-5.32-.85h2.99ZM609.87,374.9l2.33.28,1-2.54-1.99-1.41-.33-2.82h-3.99l-.33.56,1.66.85-2.33,1.97-1,2.54,4.99.56ZM607.88,364.19h5.32l-.66-1.41-4.66-2.25-2.33,1.69,2.33,1.97ZM605.55,409.84l4.32.56-2.99-3.94-1,.56-.33,2.82ZM605.88,257.13h1l1-1.97h-1l-1,1.97ZM605.88,388.71h2v-.85l-2,.85ZM606.88,335.18v2.25l2.99.28-.33-4.79-1.66-1.69-1.33,1.41.33,2.54ZM607.21,329.26l2.99.28.33-.56-3.66-.28.33.56ZM609.21,420.54l1.33,1.97,2.66-2.54-2.33-3.1-1-3.38-1.66-1.69-1.33,4.23,2.33,4.51ZM610.54,301.37l2.99-2.82-4.32-1.97-1.99,1.97,1.99.85,1.33,1.97ZM607.88,354.62l1.33.56,1.33-7.04h-2.66v6.48ZM609.21,360.53h1l.66-3.38-1.66,3.38ZM613.2,279.11l1.33.28.66-1.97,1.66-1.69-2-2.54-1.66,1.69-2.99,1.41,2.66.85.33,1.97ZM611.87,307l2.33-1.69-1.99-1.13-1.66.85,1.33,1.97ZM612.53,382.51v-1.13l-1.66-1.13v1.41l1.66.85ZM613.2,315.45l1.66-.28.33-1.69h-1.66l-.33,1.97ZM617.19,330.39l1.33-1.97-5.32-1.97,1,2.82,2.99,1.13ZM615.2,286.15v-.85h-1l1,.85ZM617.52,348.14v-.85h-1l1,.85ZM619.19,346.45l1.66-1.13v-.85l-1.66-.28v2.25ZM620.85,374.62l1-.85h-2.66l1.66.85ZM620.85,380.82l1-.28-.66-1.69-.33,1.97ZM629.16,411.81l.66-1.13-1-2.25,1-1.41-.33-1.13,1.99-1.41-2.33-3.38,1.33-2.25-1.99-.85-1.33-5.35,2.33-2.54-4.66-4.79-2.33,1.97v2.82l2.33,4.51-.66,4.23,1.66,2.54,1.66,5.07v3.38l1.66,1.97ZM627.83,385.04l2.99,1.13-3.66-4.51-2.33.85,2.99,2.54ZM626.83,343.63h.66l-.66-1.97v1.97ZM629.5,430.97l2.66-1.97.33-1.13-2-3.66,1.33-3.66-4.99,4.51v4.79l2.66,1.13ZM627.5,364.19h1.66l-1.66-.85v.85ZM631.16,369.27h2v-2.25l-2.33,1.41.33.85ZM633.15,381.66l1-1.41-2.33.56,1.33.85ZM638.14,392.65v-1.13l-2-1.69-2.99-.28.33,1.13,4.66,1.97Z"/><path class="cls-1" d="M671.39,425.89l-1.66-1.41-4.99-6.48-2.66-1.41-2.99-3.94-5.32-4.79-9.98-5.07-2-14.09,1.33-3.66.67-10.71-1-3.94h4.66l2.99-.85-6.32-2.54,1.66-2.54v-13.8l3.99-5.92-.66-4.79.66-2.82,1.33-.85-1-2.54,1.99-3.38-1.33-1.41,1-8.73-1-2.25,4.66-2.82-1.33-2.54-.33-4.51,2.33-12.96,1.33-1.97v-8.45l.66-3.1-1-5.92,1.66-1.97v-2.82l1.33-1.97-1.33-1.13.33-3.38,13.63.28,2,.56,2.33-.28,6.98,1.41,2-1.41,3.33.56,9.98-.56,1.33,3.1,2.33-1.97,5.65-1.41,2.33,1.69,4.66-1.69,1.33.85,3.33-1.97,11.31-.28,2,1.69,1,5.07,2.66,5.63,2.99,2.54,2.99-.28,1.33,2.25-.33,1.13,2.33.56,3.33,2.54-.33,2.82,2.33,3.66,4.32,1.13,1,1.41-2.99.28,2.66,5.63,1.33-1.13h1.33v1.69l-1.99,1.97-.33,5.35h-1.99l-2.33,1.69.33.56,3.33-.28,1.66,1.97v6.2l-1,2.82h-1.99l-1.33.85,1.66.85-.33,1.69,1,.56-.66,2.25,2.66,1.13-2.33,5.07-2-.85-1,3.38-4.32-1.41-3.66-.28-5.32.85-1.66-.85-2.99,1.97-3.99-2.25-1.99,4.51-3.33-.56-3.99,3.1-2.66,1.13-1.66,1.97,2.33-1.41,2.99.28,1.66-2.54h2.33l-1.33,1.41-.66,2.25-7.32,1.97,1.66,1.41v1.41l1.66,1.97-2,2.54-1.33.28-.66,8.73-2,1.13,2,2.54,3.33,2.25-2.99,1.13-.33,1.69,2.99.28,2,5.07-2.99,3.66-3.99.56v2.82l-1.33,1.13,1.99,3.94-3.66,1.13-4.32.28.66-.56.67-3.38-2.33-.56,2.66-4.51-1.66-.85.33-2.82-2.66-.85-1-5.07h-.66v14.65l-2.66,1.41,1.66,1.69v.85l2.33,1.97-2.66,4.79,1,2.82,3.99,3.94,3.99-3.38-2.66.28-.66-1.41,3.99-.85-2.99-1.13v-2.82l-1.66-1.41,3.32-1.41,4.99,1.13-1.99.85-.33,1.69-1.66,1.13,2,.85,3.33-.28v3.1l6.65,3.1-4.66,4.51-3.66,1.69,4.32,4.51-2,.85-1.33,4.23h3.66v1.41l2.33,1.41-1.33,1.41,4.32-.85-.33,3.1-5.32,4.23-2.66-.56-6.98.85h-7.32l-2.33,1.41-7.65-.56-1.66.85h-8.65l-4.32-1.13h-3.33l-2.99-3.66ZM655.1,368.7l-.33-4.23-4.99-4.79.33-4.23-2.99.28,2,3.38v2.25l2,1.69-.33,2.82,2,.28.33,2.54h2ZM653.44,392.09l-.66-2.25,1-3.38-2.33-3.1,3.66-3.94v-1.69l-3.99,3.1-1.33,2.54,1,6.48h-1.33l.33,1.97h2l1.66.28ZM655.1,358.28v-3.66h-2l.33,1.41,1.66,2.25ZM653.1,375.75l1.33-3.1-.33-1.97-1,.85v4.23ZM654.1,344.19h1.33l-.33-1.97-1,1.13v.85ZM666.07,399.98l1.66,1.13,2.66.28,3.66,1.97,1.66-1.13,7.98.28,4.66-1.69-1-3.1,1-3.38v-4.51l2.33-.56,1.33-2.82-3.66-1.41.33-9.58,1-2.25-.33-1.41,1.33-3.94-1-.56-1.33-5.63.33-10.99,1.33-2.25-.33-3.1.67-.56v-4.79l1.33-2.54v-6.76l.66-.56-1-1.13,2.33-3.66-1.33-.85.33-3.94,1.33-1.69,2-7.89,7.65-7.04,1.66.28,8.31-3.38,2.99-.28,2.66-2.82,1.99-5.35-.33-3.94,1-6.2-1.33-1.97,1-3.66-1-5.63h-12.3l-1.33.85-8.65,8.17-11.31.28-2-1.13-.33-2.82-2-5.35-8.31-.28-3.33,10.14,1,3.1-7.65,1.97.33,1.13,4.66-.28.33,1.69-2.66.56-.66,1.41,2.99-.85v3.66l-5.32-.28-1.66-1.41-2.66-.56.66,5.92,2-.56,5.99,1.13v1.69l-1,.85-1-.85-1.33.85,3.32,2.82-1.99,11.55.33,6.2-1,1.41v2.82l-2,3.38-3.66-.85v1.13l3.33.28v13.52l-1,1.13.33,1.41-1,2.82v5.92l-1.66,9.02.66,2.82-2.33,9.58.66,1.69-1.33.85.67,6.2-.67,6.2,1,2.82-1,3.66,2.99,2.54,5.32,1.13ZM661.42,300.52h1v-1.41l-1,.85v.56ZM661.42,308.97l2,.28v-2.25l-2-.28v2.25ZM668.07,294.04l-4.32,1.97,1.66-1.97h2.66ZM664.41,273.19l1.33-.85h-1.33v.85ZM688.35,422.8h1.33v-1.13h-1.33v1.13ZM691.68,384.76l.66-1.97-1.33.28.66,1.69ZM706.31,356.02l1.66-1.41,2.66-.85-1.66-1.13,1.66-2.54,2.66-.56-2-1.69.66-4.51-1-2.82-.67,1.69-1.66,1.41-2-4.51-2.66.56v15.21l2.33,1.13ZM708.64,422.51l1.99-.84h-1.66l-.33.84ZM711.3,414.63h1l-1.66-.85.66.85ZM713.29,374.34h1.33l-.33-.85-2-.28,1,1.13ZM716.62,403.92h.66v-.56h-1.66l1,.56ZM718.95,310.1l4.32,1.13,1.66-.85,1.33.85,1.33-.85-.33-1.97-6.32-1.97-4.32,2.54.66,1.41,1.66-.28ZM721.94,316.02h1v-1.41h-1v1.41ZM740.23,332.08l-.33-3.94,2-.56,3.99-2.82.66-1.13,2.66-.28,1-3.1h2.66l-.33-.56-3.99.85-2.99-1.13-2.66,1.13h-5.99l-5.65-4.51h-1l.66,1.13-3.99,3.1,1,2.82,1,.56.66,2.54,3.99,3.66,4.99.85,1.66,1.41ZM738.9,299.4l3.99.56,1.33-.85-3.66-.85-1.33-1.41,3.66.56,3.99-1.13-1.33-.85v-1.13h-2.66l-.33-1.13-1.99-1.13-2.33-3.66-1.99,5.35.33,2.54-1,4.23,3.33-1.13ZM749.87,304.18h1.33l-2.33-.85,1,.85ZM752.2,326.44v-1.97h-1l1,1.97ZM752.87,300.52l1-.56v-.85h-1v1.41ZM754.2,315.74l1-2.25-1.33-1.13-.33,1.41.66,1.97Z"/><path class="cls-1" d="M808.06,427.87l-5.65-3.1-11.64-4.23-1.33-1.69-9.31-4.79-2.33-4.23-9.98-8.73-2.66-3.38-1-3.38-2.66-4.51.67-1.13-2.33-2.82-1.99-10.14-.66-7.04.66-1.69-2.33-5.63v-23.67l1-2.54-1-3.38-.33-9.86-2.33-3.1-.66-4.51-3.33-2.82-3.33-5.63-4.99-5.92v-1.97l1.33-1.13,3.33-14.37.33-8.17,1.66-3.38v-1.41l2.66-.56,3.33-1.97,5.32-1.13,4.66-1.97-1.66-2.82.67-2.54v-13.52l.66-1.97-.66-3.38,1,.56,4.99-1.97,4.99.28,2-1.69h5.32l.66.85h5.32l1.33,1.41,2.66-1.41,6.32.56,4.99-.28,3.66,2.25h4.99l3.66,3.66v2.82l2.66.56v1.69l1,1.13v1.69l4.32,3.1-.66,3.94,1,1.97,2.33.28,1,2.25.33-1.97,1.33-.56-1.33-.85v-1.13l-1.33-1.41,2.99-1.41h2.33l1,3.1,3.33,3.1v1.13l1.33.85-1.33.85,3.33,4.23,2.33.28,9.98,5.63,3.33.56,3.33,3.38h2l6.32,5.35h3.33v7.61l-2.33,3.38-1,5.07-.33,10.71-1.66,3.38-6.65,2.82-6.65.56-2.33,1.13-1.66-.28-6.32,1.13-1.33,2.25v1.97l-1.33,3.1v5.07l1,3.66-4.66,1.69.33,1.97,1.99,2.54.66,11.27-.66,2.82,1.33,1.13-1,3.38.33,2.25-3.33,7.33,1.33,3.38,4.32,6.48,2.66,1.41,5.32,8.17h1.99l1-1.97,2.33,6.48,4.32,1.69,4.32,3.38-.33,8.73-1.66,2.82.33,2.82-2,.85v1.41l-1.66,1.97,3.33,1.97-1.66.85-4.32,4.79-2.99.28-2.33,3.1-4.32.28-1.66,1.13-5.65,1.69-12.3-.56-8.31-2.54-4.66-.28-1.99-.85ZM797.42,404.76h2.66l1-.85.66,1.13,2.66-.28,1-.85,8.98-2.25,7.32-3.66,3.33-5.63-.33-.85,1.33-3.66,2.33-1.69-8.31-11.83.33-.56-5.32-5.92-5.32,1.69-6.65-1.97-2.33-4.51-1.66,1.13-2.33-5.35-.66-9.58h-2.33l2-13.8-.67-2.25,1-1.13v-1.41l1.66-1.97,1,.56,2.33-3.1,1.33-4.51-4.66,2.82-.66-1.13.66-.85v-4.23l-1-2.54,1.33-6.2,2.99,2.54.66,2.25-.66,3.1,3.33-.28.33-1.13,3.66-1.13,3.33-1.97,1.33.28,2.99-1.97h3.99l-2.33-2.54,1.33-3.66-1.66-1.13-11.31,1.13-1.33,1.13,1.66,1.97-8.31.28-1.66-2.82.66-3.1,2.66-1.13,2.33-2.54,7.32.85,2.99-1.69,2,1.41h1.66l1.33,1.41,1.66-1.69-1-1.97,2.99-1.97-.66-2.82-2-2.82,2.33-4.23.66-5.92-.66-11.55-7.32,1.13-4.66-.85-3.33.28-2.99-.85-4.99-2.82-.33-.85,2-12.96-1.33-5.92-4.32-.56-6.98-1.97-4.66.56-2.33-.56-2.66,1.13-2.99,5.35v4.79l-1,1.41v6.76l-4.32,3.94,2.99,1.97-1.66,3.38-1.66.56-4.32-.85-6.98.56.33,2.54-1,.85-.66,3.38-2.33.85v.85l2.66,1.41-1.99,2.54.33.85-1,1.41.33,3.38-2.33,1.97h2l-.67,1.13-2.66,1.69,5.65,2.25,3.99-1.41,5.65.28,2.33,1.13,1.66,1.69-1.66,1.69.33,11.27-2.33,1.41.33,1.97-.66,2.82.33,2.54,1.33.28-1.33,2.25,1.33.85-1.33,1.97,1,5.07-1.33,4.79.33,1.97-1.33,7.89,2.66-.28-.66,1.69,2.66,6.76-.33,3.1-1.66,3.38v1.69l-1.66.85,2.33,1.97-1.99,2.54,1.33.85-1,1.41,2,.56v1.69l1,1.13-3.32,1.97,5.99,5.35,1.66,10.71,8.31,7.61,5.32,1.97,4.66,3.38h4.99l1,1.41ZM769.82,244.74h1.33l-.33-.85h-2l1,.85ZM802.08,414.34v-1.69l-2.33-1.69h-2.99l2.66,1.97,2.66,1.41ZM804.41,362.5h1.33l2.33-1.69-2-.85-.66,1.41-1,1.13ZM807.73,256.01v1.13h1.66l1-.85v.85l-1.33.56,1.33,2.82,1.66-1.97,2.66-.56,2.99-3.66-4.99-2.54-2.33.28v3.38l1-.28-1,1.13v-.85l-2.66.56ZM811.39,343.35l2.33-.56-1-1.69-1-.28-.33,2.54ZM818.04,408.71l1-1.13-1.33.85.33.28ZM821.03,305.03l1.99-.85h-1.99v.85ZM823.36,312.64v-1.41l-1.33.85,1.33.56ZM834,309.82l1.66.28-.33-2.25-5.65-2.54-3.66.28-1.33.85,4.99-.28-.66,1.41,4.99,2.25ZM832.67,301.37l2.33,1.13,1.33-3.66.33-4.51-2.66-1.69,1.66-2.25-3.66-2.82h-3.66l-1.33.85,2,1.69-2,2.25,2.33.85,1.99,2.82-1.33,2.54v2.54l2.66.28ZM831.68,285.31l1-.85-3.32-3.94,2.99-.28,2.66-1.69-2.66-7.04-4.32,2.54,2.66,1.97-2.33,4.79.33,3.94,2.99.56ZM838.66,394.9h1.33l-2.33-.56,1,.56ZM842.65,410.4l1.33-.28-1.33-1.13v1.41ZM853.62,288.69l2.66-.56-2-1.97-1,1.13.33,1.41ZM855.62,291.51l.33-.56h-2.66l2.33.56ZM853.29,294.32h1v-1.13l-1,1.13Z"/><path class="cls-1" d="M902.17,424.2l-2.99-.85-2.99,1.13-1.99-3.38-3.99-.28-4.32-6.2-5.99-2.54-11.31-10.71-1.33-4.51-2.66-2.25.33-9.3,1,.56-1-7.61-1-1.13,1.33-7.33-.66-1.97.33-3.38v-14.37l.67-1.97-1-2.54,1.33-10.71-.66-5.35,1-2.25v-3.94l1.66-9.02v-27.61l1.99-3.38-1-9.02,1.33-1.13,1.99-3.94h3.99l4.99,2.82,8.31-.28-5.65-4.51v-4.23l-2.66-1.13-1.33-3.38-3.66-5.35-4.66-3.1-.66-4.51,3.66-2.54-3.99-.85-.67-3.94-1.33-2.25,1-1.13,2.66.28v-3.1l-1-1.41v-2.82h1.99v1.41l1.33,1.97,1-3.38h1.33l-1.33,4.23-1.66.85,2,2.82-3.33,1.41,3.99,1.69,1,2.25,2.33,1.69.33,1.41,3.66,1.69,9.64.28,8.31.85,3.33.85,1.33-3.94v-4.23l1.66-1.97-2.66-4.51,1.99-3.94-1.66-5.07.33-3.38-.66-2.82,1.33-1.13-2.66-1.41-10.97-.28-1-2.54.66-.85,5.32.56,3.99-.56,1.33-.85h10.31l.33,1.69,2.33,1.69-.66,2.54,3.99.56-3.66,1.69,2.99,2.54,3.33.28.66,1.41,2.33.85.33.85,4.32.28.33,2.82,2.33,1.13v1.41l2.33,2.25.33,2.25,4.66,4.79,1.99,6.48,2.99,2.25v3.66l-1.99-.56,1.33,3.94-3.33,5.63v4.51l-1.99,2.54,2.33,2.54-1,7.61-10.64,1.69-2.66-.85-4.32.56.66,3.38,5.65,6.76.66,1.97,3.66,1.69,4.32,5.63,3.99,2.25,1.99,3.38-1,4.23.33,6.48-1,2.82-.66,6.48-2.33,3.1,1.99,3.94v1.97l1.66,3.94v2.54l-3.33,6.48.67,2.54h1.99l-.33,1.97.66,2.25-1.33,1.69v6.2l-1.99,1.69,2.33,3.1-2.99,1.69,2.66,1.69,1,5.92-1.33,4.79-2.33,4.51,2.66,4.79v18.31l-1,.85-.33,6.76-3.33,1.97,3.33.56v2.25l1.33,2.25-1.99.85-2.66,2.54-11.97-2.25-10.64-.28-2.33,1.13-2.99-.85h-3.99l-2.33.28ZM873.91,210.93l5.65-.56,7.32,1.41-.33,3.1-2.33-.28-3.66-1.69-4.32,2.25-.33,2.25-2.66-.85-3.33,1.97,1.33-5.63,2.66-1.97ZM892.53,392.65l1.99.56,7.32-.56,2.33-2.82.33-5.07,1-.85,1-4.23-1.66-1.41-1-5.07.33-5.07,1.33-1.69-.33-1.69,1.33-2.25-1-7.04v-16.34l.66-.85-1.33-1.69.66-3.66-.66-.85.66-6.48,5.32-.85,2.66.85,3.99-.85-.66-2.25-4.99.56-1.33-1.97-4.66,3.1-.66-1.69,1.33-1.97-1-1.13-1-10.42v-15.78l-1-2.54,1-3.1v-5.07l-4.32-.85-1.99-1.13-8.31.56-3.66-1.69h-2.66l-1.66-1.41h-1.66l-2.66,5.63,1.33,3.66-1.33,3.66-1.66,2.25,2.33,1.13v3.94l-1.99,2.82,2.33,2.25-.33,6.76,1.66,1.13-2.66,1.13.33,2.82-2.66,2.25,1.33.85-1.66,1.13,1,6.2,2,5.35-4.32,3.66,1.66,1.69.66,2.82-1.66,1.97.33,4.51,1.33,3.1-2.33,3.66.66,3.94-.33,4.23,1.99,4.23h-2.33l-1,.56,2.66,6.2-1.33,4.79,2.33,12.4,1.66.85,9.31,2.82,5.65.28ZM880.22,403.07l3.33,1.97-2-3.38-3.33-2.25-1.99-.28,1.99,2.25,2,1.69ZM891.2,260.23l4.99,7.04,1.66.85,1,2.82,3.33.28,3.33-2.82-5.32-3.38-3.33-7.89-3.66-2.25-5.32.28v1.69l.33-.28,2.99,3.66ZM908.82,218.82v-.85h-1l1,.85ZM910.15,224.17l2.66-1.97h-1l-1.33,1.41h-1.66l1.33.56ZM917.8,384.76l1.66,1.13.33-1.41-2.33-7.04v-2.25l-1.66-3.38.33-1.97-3.99,1.41-2,2.54,4.66,2.54-2.33,3.94,2.99,3.38,2.33,1.13ZM916.14,344.19l1.99-.28,2.33-2.82-2.66-1.97v-12.11l-1.66-.28-2.99,4.51,1,3.1-.66,1.13,2.33,2.82-4.99,1.41,5.65,1.41-.33,3.1ZM917.14,296.58v-.56h-1l1,.56ZM917.14,313.48l1-.56,1-3.1-1.66-1.41-1.33,2.54,1,1.41v1.13ZM917.14,226.99h1.66l-1-1.13-.66,1.13ZM918.8,403.64h1.33v-.85l-1.33.85ZM921.13,346.73v-.56h-1l1,.56ZM929.44,396.59l1.99.28v-2.25l-1.66-.56-1.33-3.38,1.99-.85,1-2.54,2.66-1.41-2.66-1.69-.33-5.07-2.66-1.97-2.66-4.51h-1.33l-3.33,4.51,2.33,7.33,2.66,2.25.33,1.97-.66,1.97,3.66,3.94v1.97ZM922.13,405.33l1-.85-1-.85v1.69ZM926.12,270.09l1-.85-3.99-.85v1.41l2.99.28ZM925.45,298.27h.33l-.33-2.25h-2.33l1.33.56,1,1.69ZM928.78,415.75l1.66.56-.66-2.82,1.66-4.79-1-1.69v-1.97l-4.32.84-.67,3.94.33-.28-.66,4.79,3.66,1.41ZM927.11,250.37l2.99-4.23h-2.99l-1,.85,1,1.13-1.33,1.13,1.33,1.13ZM928.44,304.47l1,1.97h1.33l1.66-3.38-2.33-3.38-1.33-.28-2.99,1.69,2.66,3.38ZM929.11,242.77l.66-2.82h-2.66l2,2.82ZM927.11,348.7h1.33l.33-.85-1.33-1.13-.33,1.97ZM928.44,357.71h1.66l.33-4.51-1-.85-1,.56-1.33,3.66,1.33,1.13ZM937.75,321.37l2-.85h-1l-1,.85ZM937.75,359.4l1-.85h-1v.85Z"/><path class="cls-1" d="M998.61,422.51l-5.32-4.51-.33-1.41-5.99-.28-3.66-1.69-3.66.28-6.32-3.1-.66-1.41-4.99-3.1-6.98-2.54-9.98-11.55-2.99-5.07-4.66-14.37,1.99-12.96-.33-3.94,3.33-3.1,2.66-.56,2.66.28,3.99-.56,8.65-2.54,8.98-1.13-.33-2.54-5.32-5.35-4.99-6.48-1.66-.28-3.66-3.94,1-.56-1-1.97h-2.33v-.85l1.66-.85-3.99-.85v-1.97l-2.33.85-1.66-2.54-2-8.73-3.66-3.94,1-3.66-1-1.13,1.33-3.66,1-6.48,2-5.07,3.99-5.35,8.31-6.76-.33-1.97,5.32-4.79,12.3-6.48h2.66l11.97-4.51,7.65-2.25,8.65,2.54,3.66,2.25h3.33l1.66,2.25,3.66.85,3.99,2.25-.33.85h2.99l6.32,3.38,11.64,4.51,4.32,3.38v1.69l2.33-.28,5.65,1.97,1,3.1,1.33.56,1.66,2.82,2.66,12.96,2.66,1.13v.85l1.66,1.13v.85l1,.28-.33,10.14-1.99,1.97.33,1.97,2.33-.85-.67,3.38-1.33.28,2,3.38-2,2.82-2,4.79-5.32,1.13-4.66,2.25-3.99-.56,7.98,8.45,1.66,3.66,3.33,1.13,1.99,3.38-1.66-.28-2.33-2.25-2.33,4.79,8.98,1.41-.33,2.54,4.99,6.2.66,3.1-.66,4.23,2.99,11.55-3.99,7.89-3.99,3.1-1.99,5.92-4.32,3.66-2.33,4.51-3.99.85-.66,1.97-3.33.56-8.98,6.48-9.98,1.69-1.33,1.13-3.33.28-7.32,1.69-3.66-.28h-16.63l-1-.85-2.99-1.13ZM951.72,310.38v-.85h-1l1,.85ZM985.31,400.82l4.66,1.69h3.66l2.66.85,2.66-1.13,17.96-1.41,1-1.13,5.65-2.25,6.32-3.94,2.99-2.82,1.66-3.94,2.66-3.1v-5.07l4.32-9.02v-4.23l1-.85-1-1.13,1-1.97v-2.25l2.33-1.13-3.33-1.69-1.33-3.66-1.99-.85-2.99-3.94-8.31-6.76-2.99-5.92-2.66-.28-3.32-3.38-6.98-2.54.33-1.69-6.32-1.69-3.99-3.38.33-2.25-9.31-1.41-1.33-2.82-.33-6.2-4.32-.56,1.33-1.97-1.33-.85v-4.79l3.66-5.07,2.66-.85,4.32-2.82,9.31.85,5.65,3.66,2,2.82-2,5.07.66,5.35,1.33.85,1.99-2.25,5.32-.28,10.97-2.82,2.33-2.25-3.66-3.38-1-5.63.33-3.1-2.66-8.73-3.33-5.35-6.65-3.38h-2.33l-2.66-2.54-.33-2.54-4.32-.56-3.66-1.41-5.99-.56-4.66-1.97-3.66,1.41h-4.32l-2.33,1.97-7.98,2.54-5.99,3.1-1.99,4.79-6.32,5.92h-1.99l-2.66,4.51-.33,3.66-1,.85-.66,6.76,2.33,10.42,1.99,1.97v4.23l-1.33,1.13,3.66.85,2.99,4.79,8.98,7.33.66,1.97,5.32,1.69,2.33,2.82v.85l5.65,4.51,1.99,4.23,2,.56,1,1.97,4.32,3.1,3.99,3.94,1,4.23v5.07l-1.33,1.97.33,2.82-5.32,2.82-6.32,1.69h-4.32v-.56h-2l-2.66-2.54-2.66-1.13-3.66-3.38-2.33-6.2v-3.66l-1.66.85-4.32-.56-11.31,3.1-1.33,10.71.66,2.82,5.99,10.14,2.66,2.54,5.99,7.04,3.66,2.25,10.97,4.51h3.33ZM988.3,361.94l-.67-2.54-2.99-1.41-1.33-3.38-1.33-.28-1.33,1.97,1.33,4.51h2.99l1,.85h1.33l1,.28ZM988.3,366.17l1-1.13-1.99-.56v.85l1,.85ZM1000.94,313.2l.66-.85h-.66v.85ZM1012.58,413.78h2.99l-1.33-.85h-2l.33.85ZM1047.16,415.19l3.99-5.07,3.33.28,1-1.97,2.33-1.69,3.33-5.63,1.66-1.13,3.66-5.63v-5.07l-3.66,2.54-3.66,1.41-.66,3.66-2.66.85-1,1.13-3.66.28-.33-2.82-1.99,6.76-2.99,3.66-4.32,1.69.33,2.54-1.33,2.25,4.99.56,1.66,1.41ZM1045.5,307.57v-.56l-2.66.28,2.66.28ZM1045.5,361.66h1v-.85l-1,.85ZM1047.49,315.17h1.33l-1.33-1.13v1.13ZM1047.49,349.26h1.33l-1.33-.85v.85ZM1050.49,363.91l7.65-4.79-4.66-2.54.33-2.82-.67-.85-1.66.85.67,5.07-4.66,3.38,2.99,1.69ZM1047.49,365.32h1.33l-1.33-.85v.85ZM1051.48,313.2h1.66v-.85h-1.66v.85ZM1053.15,318.55l.67.28v-2.25l-.67.85v1.13ZM1061.46,318.55l.67.28v-2.25l-.67-.85v2.82ZM1066.12,360.53l1.99-.85-1.33-2.25-1,1.69.33,1.41Z"/><path class="cls-1" d="M1121.99,427.87l-5.65-3.1-11.64-4.23-1.33-1.69-9.31-4.79-2.33-4.23-9.98-8.73-2.66-3.38-1-3.38-2.66-4.51.67-1.13-2.33-2.82-1.99-10.14-.66-7.04.66-1.69-2.33-5.63v-23.67l1-2.54-1-3.38-.33-9.86-2.33-3.1-.66-4.51-3.33-2.82-3.33-5.63-4.99-5.92v-1.97l1.33-1.13,3.33-14.37.33-8.17,1.66-3.38v-1.41l2.66-.56,3.33-1.97,5.32-1.13,4.66-1.97-1.66-2.82.67-2.54v-13.52l.66-1.97-.66-3.38,1,.56,4.99-1.97,4.99.28,2-1.69h5.32l.66.85h5.32l1.33,1.41,2.66-1.41,6.32.56,4.99-.28,3.66,2.25h4.99l3.66,3.66v2.82l2.66.56v1.69l1,1.13v1.69l4.32,3.1-.66,3.94,1,1.97,2.33.28,1,2.25.33-1.97,1.33-.56-1.33-.85v-1.13l-1.33-1.41,2.99-1.41h2.33l1,3.1,3.33,3.1v1.13l1.33.85-1.33.85,3.33,4.23,2.33.28,9.98,5.63,3.33.56,3.33,3.38h2l6.32,5.35h3.33v7.61l-2.33,3.38-1,5.07-.33,10.71-1.66,3.38-6.65,2.82-6.65.56-2.33,1.13-1.66-.28-6.32,1.13-1.33,2.25v1.97l-1.33,3.1v5.07l1,3.66-4.66,1.69.33,1.97,1.99,2.54.66,11.27-.66,2.82,1.33,1.13-1,3.38.33,2.25-3.33,7.33,1.33,3.38,4.32,6.48,2.66,1.41,5.32,8.17h1.99l1-1.97,2.33,6.48,4.32,1.69,4.32,3.38-.33,8.73-1.66,2.82.33,2.82-2,.85v1.41l-1.66,1.97,3.33,1.97-1.66.85-4.32,4.79-2.99.28-2.33,3.1-4.32.28-1.66,1.13-5.65,1.69-12.3-.56-8.31-2.54-4.66-.28-1.99-.85ZM1111.34,404.76h2.66l1-.85.66,1.13,2.66-.28,1-.85,8.98-2.25,7.32-3.66,3.33-5.63-.33-.85,1.33-3.66,2.33-1.69-8.31-11.83.33-.56-5.32-5.92-5.32,1.69-6.65-1.97-2.33-4.51-1.66,1.13-2.33-5.35-.66-9.58h-2.33l2-13.8-.67-2.25,1-1.13v-1.41l1.66-1.97,1,.56,2.33-3.1,1.33-4.51-4.66,2.82-.66-1.13.66-.85v-4.23l-1-2.54,1.33-6.2,2.99,2.54.66,2.25-.66,3.1,3.33-.28.33-1.13,3.66-1.13,3.33-1.97,1.33.28,2.99-1.97h3.99l-2.33-2.54,1.33-3.66-1.66-1.13-11.31,1.13-1.33,1.13,1.66,1.97-8.31.28-1.66-2.82.66-3.1,2.66-1.13,2.33-2.54,7.32.85,2.99-1.69,2,1.41h1.66l1.33,1.41,1.66-1.69-1-1.97,2.99-1.97-.66-2.82-2-2.82,2.33-4.23.66-5.92-.66-11.55-7.32,1.13-4.66-.85-3.33.28-2.99-.85-4.99-2.82-.33-.85,2-12.96-1.33-5.92-4.32-.56-6.98-1.97-4.66.56-2.33-.56-2.66,1.13-2.99,5.35v4.79l-1,1.41v6.76l-4.32,3.94,2.99,1.97-1.66,3.38-1.66.56-4.32-.85-6.98.56.33,2.54-1,.85-.66,3.38-2.33.85v.85l2.66,1.41-1.99,2.54.33.85-1,1.41.33,3.38-2.33,1.97h2l-.67,1.13-2.66,1.69,5.65,2.25,3.99-1.41,5.65.28,2.33,1.13,1.66,1.69-1.66,1.69.33,11.27-2.33,1.41.33,1.97-.66,2.82.33,2.54,1.33.28-1.33,2.25,1.33.85-1.33,1.97,1,5.07-1.33,4.79.33,1.97-1.33,7.89,2.66-.28-.66,1.69,2.66,6.76-.33,3.1-1.66,3.38v1.69l-1.66.85,2.33,1.97-1.99,2.54,1.33.85-1,1.41,2,.56v1.69l1,1.13-3.32,1.97,5.99,5.35,1.66,10.71,8.31,7.61,5.32,1.97,4.66,3.38h4.99l1,1.41ZM1083.74,244.74h1.33l-.33-.85h-2l1,.85ZM1116,414.34v-1.69l-2.33-1.69h-2.99l2.66,1.97,2.66,1.41ZM1118.33,362.5h1.33l2.33-1.69-2-.85-.66,1.41-1,1.13ZM1121.65,256.01v1.13h1.66l1-.85v.85l-1.33.56,1.33,2.82,1.66-1.97,2.66-.56,2.99-3.66-4.99-2.54-2.33.28v3.38l1-.28-1,1.13v-.85l-2.66.56ZM1125.31,343.35l2.33-.56-1-1.69-1-.28-.33,2.54ZM1131.96,408.71l1-1.13-1.33.85.33.28ZM1134.96,305.03l1.99-.85h-1.99v.85ZM1137.28,312.64v-1.41l-1.33.85,1.33.56ZM1147.92,309.82l1.66.28-.33-2.25-5.65-2.54-3.66.28-1.33.85,4.99-.28-.66,1.41,4.99,2.25ZM1146.59,301.37l2.33,1.13,1.33-3.66.33-4.51-2.66-1.69,1.66-2.25-3.66-2.82h-3.66l-1.33.85,2,1.69-2,2.25,2.33.85,1.99,2.82-1.33,2.54v2.54l2.66.28ZM1145.6,285.31l1-.85-3.32-3.94,2.99-.28,2.66-1.69-2.66-7.04-4.32,2.54,2.66,1.97-2.33,4.79.33,3.94,2.99.56ZM1152.58,394.9h1.33l-2.33-.56,1,.56ZM1156.57,410.4l1.33-.28-1.33-1.13v1.41ZM1167.54,288.69l2.66-.56-2-1.97-1,1.13.33,1.41ZM1169.54,291.51l.33-.56h-2.66l2.33.56ZM1167.21,294.32h1v-1.13l-1,1.13Z"/></svg>