<?xml version="1.0" encoding="UTF-8"?><svg id="Layer_1" xmlns="http://www.w3.org/2000/svg" viewBox="0 0 1336.1 599.42"><defs><style>.cls-1{fill:#fff;}</style></defs><path class="cls-1" d="M125.45,433.87l-2.45-1.05-10.87-1.4-2.45-10.87-3.86-1.75-3.15,2.8-9.81.35-18.22-.7-2.1-.7-6.31,1.05-1.75-.7-12.62.7-3.5-8.06-2.8-3.15-2.1-.35-4.21-8.76-2.1-1.75-2.8-7.01-1.05-7.01-2.8-1.4,1.4-19.28,1.75-6.66-1.4-4.21v-5.26l2.45-.35-2.1-1.05-.35-2.45,2.8-.35,1.4-1.4,2.8,1.75,3.15-.35-1.05,1.05,1.05,13.67,1.4.7-.35,9.46-2.1,1.05,3.5,4.21h4.56l3.15-2.8,3.85,4.56,2.45-2.1,9.81.7,5.26-.7v-5.26l1.4-.7-1.75-8.41.7-2.1-1.4-3.15,2.8-3.15-2.8-2.45,1.4-6.66-.7-7.36,3.86-.35-3.5-2.1v-15.42l.7-3.5-.7-17.17-2.45-10.51,2.45-7.71v-2.45l3.15-1.75h5.61l1.05,3.15,2.8,2.1-1.05,1.4,1.75,1.75,3.15,6.31-.7,5.96,2.8,3.5-1.4,4.21.35,3.86-1.4,2.8,2.45,4.21,2.8,1.75-3.5,1.75-1.05,1.75,5.26,2.8v1.4l-2.1,4.21h4.56l-.35,2.8-2.1,1.75,1.75,1.05-2.1,2.8,2.8.35,2.1,2.8,2.8,1.05,1.4,3.86v4.91l.7,1.75-4.91.7,4.91,4.21-1.75,2.8,2.45.7,4.21-.7v1.05l-3.15.35-2.45,2.45h4.21l-1.75,2.1v1.05l4.56,5.26v2.45l2.45,8.41,5.26,2.1,1.75-2.8,2.8,1.75-2.8,2.45,4.2.35,7.71-1.05,8.06-1.75.35-5.61-1.05-6.66,2.1-9.46-.35-15.07,3.85-3.5,2.8-1.4v-5.26l-1.4.35-2.8,2.8v-9.81l-1.05-2.8,1.05-4.91v-10.51l-1.05-1.75,1.75-12.27-.7-3.86,1.05-3.86-.7-.35.35-4.21,1.4-4.56-.35-4.91,2.45-8.76-.35-1.4.7-19.63,1.05-3.85-.35-2.8,1.75-9.46-.7-5.26,1.4-18.22-.35-7.01,1.4-4.91v-20.33l-2.45-2.8-14.37-.7-5.96-1.75,2.1-2.45-5.61-.7,2.45,3.5h-7.36v-1.4l-3.15,1.05-2.45-1.4.7-9.11,3.86-.35v1.05l4.2-1.4,4.56.35-1.05,1.05.35,1.75,3.15-.35-1.05-1.4,1.4-1.75,3.5,4.21,7.01,1.05-3.15,1.4,4.91-.35,2.45-1.05,5.26,1.05,3.5,1.75,3.15-3.86,2.8.7-.7,1.4h4.21l2.45,6.31.35,5.61,1.4,3.5v2.45l9.11,8.76.7,2.8,1.75.35,3.5,2.8,7.01,11.92-1.4,4.91-3.15.7v5.61l1.05-.35-1.75,6.31.7,4.91-.35-.35.35,12.97,2.45,2.45-2.45,1.4,3.15,3.86-4.56,4.21,1.75,1.75-3.86,2.8,1.05,2.1-1.05,1.4v1.75h-2.45l-2.45-12.97-5.61-.7-.7-2.8-1.05-.7v-3.5l-1.75-2.45,3.5-3.15,6.66,1.05-.7-9.81,2.45-4.21,2.45-2.1-3.15-3.5-2.1-10.16-8.41-2.8.35-7.01-2.45-2.45-1.05,8.06h-2.1l.7,1.05,3.5,1.4,3.5,4.21h3.15l-.7.7,3.5,4.56-6.66,1.4-.35,3.15,2.8,1.4,1.75,6.31-5.26-1.05.35,3.15-2.8.7-2.45-3.5-3.15-.35.7,7.36,3.5,1.75-3.86,4.21,2.8,1.4v2.45l-1.05,2.45.7,1.4,2.8-2.8,2.45,5.26-1.4,4.21-1.75-1.75-3.15,3.15-3.85,1.75h7.36l1.4,1.05h2.45l-.35,2.45,1.75.35-4.56,2.45,2.8,3.5v2.45l1.05,2.1-.35,1.4,5.61.7,1.4,4.56,1.75.35.35-4.56.35.35.7-4.91-2.1-2.1,5.96-4.91,3.85,1.4-2.8,2.8-2.8,4.91,2.45,1.75v6.31l-2.45,1.75,1.05,1.05v2.1l1.4,2.1v3.5h-1.4l-1.05,1.05,1.05,1.05h3.5l-2.8,3.15-1.4,3.15,2.1,4.91-1.4,2.1,2.1,3.5-2.1,2.8-.35,3.5,1.05,7.71-.7,4.21-1.05,1.4.7.7-.7,5.26,1.05,2.8-2.1,2.1,1.4,3.15,1.05,9.11-2.8,5.96,2.45,1.75-2.8,7.71,3.5,7.71-3.86,5.61-3.5.7,1.75,3.15-.7,1.4,3.86,1.05-1.4,3.5-.35,5.26h-2.1l1.05,3.5-1.4,1.75,1.4,1.4v5.26h-.7v-5.26l-4.56,7.36,5.26,1.4.35,1.75-3.15,2.8v5.61l2.1-3.15h.7v4.56l-2.8,5.61-3.15.7-2.8,2.45-11.57-.35-.35-.7-6.31.7-2.45-1.05-2.1,1.05.35-1.05-2.8-.35-1.05,2.45-7.71.35-2.8,4.21-3.15-.7-3.86.7-3.5-3.5ZM37.83,335.04v-1.75l-2.45-2.8h-1.75l-2.1-9.11,3.15-15.42v-16.82l1.75-4.21v-8.76l2.45-.7-.7-1.4-.35-15.07,1.05-5.26-.35-2.8,2.1-7.01-1.05-1.75,1.05-1.4-.7-2.8-.7-13.67,1.05-7.36-.35-8.76,1.05-1.4v-19.98l-.7-3.85.7-3.86-.7-3.15,4.91-2.45-3.86-7.36-.35-5.96-1.05-1.05,6.66-3.5,2.8,1.4,2.8,8.06-.7,2.8.7,10.87h-3.15l-.7,1.75,3.86,1.4.35,1.05-3.85,1.4,1.05,1.05,2.1.35,1.4,3.15-1.75,11.22-4.91,4.56,2.8,2.1-1.4,1.4-.35,7.01h2.1l-4.56,2.45v1.75l1.4,1.75,3.5,2.1-1.05,1.75,2.45.7-2.8,3.15-.35,3.5-1.4,1.4-.7,2.45,1.05,2.1,3.85,1.75-3.15.7,1.05,5.61-4.91-.7.35,2.45h2.1l3.5,2.1-.35,3.5-2.1,2.1v9.81l1.4.7-2.1,2.45-.35,3.15,1.75,2.1-3.15,4.56,1.75,5.96-2.8,1.4v3.15l2.45,4.56-2.8,4.91,1.75,2.45-2.1,4.21.7,3.5-.35,2.1-2.8-.35-.35-1.05-1.4,1.4,4.91,6.66-1.75.35,1.05,2.8v5.61l1.05,5.96-.7,5.96-2.45,1.05-.35-2.1-3.15-2.1ZM39.93,323.82h1.05v-1.05h-1.05v1.05ZM40.98,288.77l1.4-1.05h-1.4v1.05ZM44.14,166.46h1.05l-1.75-1.05.7,1.05ZM52.2,386.56l.7-1.05h-.7v1.05ZM108.98,257.58l-1.75-2.8-.7-5.61-3.85-7.01,1.05-4.91,2.45-2.45-4.56-1.4-2.45-6.31-1.05-6.66-2.45-1.75,1.05-5.26-4.21-1.05v-8.41l-2.8-10.16-1.75-2.1-2.1-4.91-.7-5.96-5.96-14.02-19.98-2.1-3.86-3.15,3.15-3.86h-1.05v-1.4l3.15.35,3.85,2.8-5.96.7-.35,3.15,5.96-2.45,2.45-2.8,2.45,1.75,5.61.35,2.8-1.05,1.05,1.05,7.71-4.56,6.31,5.26,1.75,4.56.35,3.5,1.4,3.15,1.05,9.11,1.4,3.5,1.4,8.06,1.4,2.8-1.75,1.4,2.45,2.45,1.05,4.56-.35,3.15,4.56,4.56.7,7.71-.7,1.4.35,3.15,1.05-2.45,2.8-1.05,1.4-5.61,6.31,1.75-4.21,2.1,7.36,2.8-2.1,5.26,1.05,4.56-.7,4.56,2.1,2.1-1.05,10.86.7,4.56-1.4,3.5.7,3.86-3.85,1.4-.35,2.45-4.21-2.45-4.2-1.05v-3.5ZM64.82,394.27l3.15,2.1,2.8,7.36,3.15,2.8v1.75l4.21-.7-1.75-5.96-2.8-3.5-.7-2.45-4.56.7.35-4.91-5.96-4.91h-1.75l.7,3.15,2.45,3.5.7,1.05ZM69.72,163.66l2.45-.35v-1.4l-1.75-1.05-1.75,1.05,1.05,1.75ZM89.7,379.9l1.75-1.05v-1.05h-1.75l4.21-4.21-2.8-5.61,2.8-1.4-5.96-1.05v-1.75h1.75l1.4-2.1-3.5-3.15.35-3.5-2.1-1.75,4.21-2.8,4.56.7.35-4.21,1.4.35,1.05-2.8-4.91-1.05v-5.26l-1.75-1.75,3.15-3.86v-2.1l-2.8,2.8-2.45-5.96,2.1-1.75-3.5-.35-5.26,1.05.7,10.51h-1.05l-.35,1.05,2.1,2.45-.7,3.86-1.75,3.15,2.45,3.5-1.4,2.8,3.85,3.85-.35,3.15,2.1,1.05-2.45,2.1v2.1h-2.45l2.8,2.8.35,4.56,2.1,3.5v1.75l1.75,1.4ZM89,383.75l4.56-.7-1.75-.7-3.86.7,1.05.7ZM93.55,390.76l1.4-3.86-.7-1.05-2.45,1.4,1.75,3.5ZM94.96,397.77h1.05v-1.4l-1.05,1.4ZM113.53,194.5l.7-5.26-1.75-4.91,2.1-4.56,4.56-2.45,2.1,2.8v2.1l-2.8,2.1,3.5,6.31-2.8,3.5h-1.4l.35,1.05h3.15l-4.21,4.56-3.15-1.75-.35-3.5ZM112.48,203.96l5.26.7v4.21l3.5-.35-2.45,3.86-3.86,2.45-1.4-8.41-1.05-2.45ZM126.15,399.17l3.85.35v-2.8l-3.5-.35-.35,2.8ZM132.46,411.79l1.75-1.05-.35-10.87h-3.15l-.7,6.66-2.1,1.75v1.75h1.05l1.05-2.1,2.45,3.85ZM144.02,425.46l2.1-.7,4.91,1.4,1.75-1.75,3.15-.35.35-2.45,2.45-2.1,2.1,3.5,2.8-2.8,4.91,1.75,2.8-4.21-3.5-4.56-3.86,3.5-.7,2.1h-2.1l-1.4-1.4-1.75-.35-1.75-2.8,1.75-3.5-.35-2.45,4.21-.35v-7.01l3.15-.7,2.45.35,1.4-1.4-2.45-3.85,2.1-1.75v-3.5h2.45v3.15h2.8l1.75-1.75-2.1-2.45.7-7.01-3.15-8.41-.7-6.31-1.05-.7-.7-4.56,1.75-1.05-.35-4.21h2.8l-.35-2.1,2.45-2.1-.7-4.56,1.4-1.05.35-9.11,2.8-1.05-1.75-1.05-1.05-9.81,2.45-3.86-2.1-3.15-2.8,2.1-7.71-5.96-.7-2.8.35-2.8-1.75-.35.35-2.8-.7-3.15,3.5-2.8-2.8-1.75-1.4-3.15,2.1-3.85,3.85-2.1h1.75l-2.8,2.45-.35,3.86,4.91.7,1.75,3.15-3.85.35v2.45l1.05,2.8h3.5l1.75-2.1,2.45-.7v-19.98l-6.66-1.4.7-4.21-2.8-1.4v-3.5h-1.4l1.4-2.1v-2.45l-4.21.7-4.56-.35-.7,1.4.7,3.5-2.8,2.8.35,3.5-1.05,1.05-.35,3.5,1.05,2.1-1.4,8.76,1.75,5.96-1.4,2.45-.35,8.41-2.45,2.1,1.75,4.21-1.05.7,1.05.7-4.21,7.36,2.45,2.1-1.75,2.45-2.8,1.75,1.4,1.75,1.75-2.1.35,3.5,1.75,2.8-3.86,3.86,2.1,1.05-.35,4.21,1.75,4.21-1.4,1.05-.35,3.15-2.8,3.5,1.75,2.45-2.45-.35-3.15-2.45-1.05,3.86,2.1.35,2.8,2.1-3.15,2.8,3.85-1.75,1.05,1.4h1.4v1.4l-3.15,1.05-2.8,2.1-.35,2.1,6.31-3.5-2.8,1.75h2.45v2.8l3.5-1.05,2.1,3.15-2.1,4.91-5.61,2.8.35,2.1,11.57,3.15,2.45,7.71-2.1-.35-4.56,1.4.35-9.11-4.21.35-5.96,4.21,5.61,1.75-.7,3.85v-2.8h-2.1l-3.86,1.75-1.4,1.75-4.21-1.05-2.45,3.15-1.05,2.8,4.21.35,2.1,1.4,1.4-1.4,1.05,1.4-2.45,2.8v8.41l-2.8,5.26,1.75,1.05ZM144.72,382l4.21.7-3.15-3.85-1.05,2.45v.7ZM146.48,355.71h1.05v-.7h-1.05v.7ZM147.53,404.08h-1.05v-1.05l1.05,1.05ZM151.73,412.84h-2.8l1.75-1.75,1.05,1.75ZM151.03,383.05l2.45-1.05h-1.4l-1.05,1.05ZM154.54,402.68l3.85,1.05.7,3.15-4.56-1.05v-3.15ZM163.3,330.48l-2.1,1.75-2.45.7,1.4-4.21,3.15,1.75ZM163.65,337.49l1.75,1.4-1.4,2.45-3.5-1.4,3.15-2.45ZM162.25,262.14h1.05v-.7h-1.05v.7ZM167.85,350.11l2.1.35-1.4.7v4.21l-5.26.35v-4.56l4.56-1.05ZM166.45,344.5l1.05,1.75-2.1,1.75-1.4-.7.35-3.15,2.1.35ZM164,426.16h1.4l-1.4-2.1v2.1ZM167.5,217.63l2.1.7,2.1-3.86-3.85-3.5v3.86l-3.5,1.05,3.15,1.75ZM170.66,407.58v-3.5h-3.86l3.86,3.5ZM167.15,224.29l5.61.35v-1.4h-3.15l-2.45,1.05ZM172.76,384.1l-5.61,2.45,2.8-2.1,2.8-.35ZM167.5,372.54h1.05v1.75l-1.05-1.05v-.7ZM169.61,378.85l.35,2.45-2.1-2.1,1.75-.35ZM171.01,285.27l.35,1.75-2.8-.35.35-1.4h2.1ZM170.31,317.86l1.75-1.4h-1.05l-.7,1.4ZM175.21,310.5l1.05-1.05-.7-1.05-2.8.35,2.45,1.75ZM175.91,315.41l-.7,1.05h1.05l-.35-1.05ZM176.27,427.56l1.05-1.4-2.1-1.05v2.45h1.05ZM175.91,241.11l2.8.35v-1.05h-1.4l-1.4.7ZM179.77,350.81l1.75-8.06-.7-.7-1.05,4.91-2.8,2.1,2.8,1.75ZM181.52,394.62l-1.75-5.61-1.05,1.05.7,2.45,2.1,2.1ZM179.77,378.85h1.05l-1.05-1.05v1.05ZM181.52,350.46h1.4l1.4-1.4h-2.8v1.4Z"/><path class="cls-1" d="M270.89,405.83l-1.05-1.05-7.01-1.75-1.4,1.05-7.71-2.45-4.91-4.91-5.26-2.45-4.91-4.21-3.15-5.96-8.41-3.5-2.8-2.8-3.15-1.75-.35-2.8-4.56-1.75-3.5-5.96-3.5-2.8-1.75-3.85-.7-4.56-4.56-7.71-1.05-4.56-2.1-2.1-4.91-11.57-1.75-2.8,1.05-11.22-.35-3.85-1.4-1.75,1.05-4.56v-11.22l-.7-4.56,1.75-2.8-.7-.35,3.5-3.85.7-7.36-2.45-3.85,3.5-1.4-3.5-4.56,2.45-.35-1.05-1.05v-4.21l-.7-.7.7-4.56,3.5-1.75-2.45-1.75.7-6.31,2.45-4.91v-3.5l1.75-.35-.7-5.26,1.4-.7-1.05-3.15,5.26-4.91,2.1.35,2.45-1.75.35-4.21,5.96-4.91,2.1,1.05.7-2.8,5.26,1.4-1.05-4.21,5.96-.7,6.66-2.45,1.75,1.4,4.56-3.5h5.26l1.75-.7v5.61h-11.22l-2.8,3.15-3.86.35-1.75-1.4v2.8l-2.45,1.05-6.31,5.61-1.75,4.56-3.5,3.86-1.05,2.8-2.45,3.15-.35,4.56-3.15,6.66v5.61l-1.05,1.4.7,1.75-1.4,4.21v4.21l-2.1,10.16-1.4,1.75v1.4l2.8-.35v3.15l-1.75,15.07-1.05,1.75,1.75,1.05-.7,4.21-1.75,3.86-.7,5.26,1.4,7.36,1.05,14.37,2.8,4.56,2.45.7,4.21,15.42,2.1,1.05,4.91,8.76,5.96,4.21,1.75,2.45,6.31,5.96.35,3.85,3.15.7,5.26-.7,1.4,1.4,2.1-1.4,12.27,1.05,1.4-1.05,3.86.35,1.4-2.8,3.5-.35,6.31-2.45,2.45-4.91,4.56-1.75,5.96-5.61,2.1-8.06,2.8-4.91-.35-2.1,2.45-12.62,2.1-3.15v-4.91h1.4l-1.75-10.86.35-9.46,1.4-1.05-1.4-11.57,1.05-3.5-.7-13.67,1.4-5.26-3.15-14.72v-19.63l-3.15-3.15.35-6.31h2.45v2.1l-1.4,3.15,1.75,2.8,4.21.7,2.45,2.1,1.75,4.91,2.45.35,4.21,4.91,1.75,3.85,7.36,6.66,2.45-1.75,4.2,8.06.7,6.66,4.21,8.41-1.4,6.31,2.45-.35-.35,3.5,3.15,3.5v7.01l-1.05,4.91.35,4.91,2.45,2.8-1.75,4.21-2.1,2.45,3.15,2.1-1.75,2.1-1.05,3.5.35,3.15-1.05,3.15,1.05,4.91v8.76l-1.05,7.01-2.45,10.16v8.41l-3.86,9.11-2.8,9.81-4.21,5.61-1.05,3.15-3.5,1.4-5.61,4.21-5.26-.7-.7-.7-5.26,3.5h-4.91l-3.15,1.4h-3.15l-2.1-1.05-5.26,1.05-2.45-.7-4.21,2.8-4.56-1.75ZM203.95,247.07h1.05v-.7h-1.05v.7ZM208.51,225.34h.7v-1.05h-.7v1.05ZM223.23,213.07l3.5-.7-3.15-.35-.35,1.05ZM235.15,336.79l-4.91-6.31-.35-7.71,1.75-2.1-1.4-3.15v-4.56l-1.05-2.1-.7-5.61.35-13.67.7-2.45-.7-3.5,1.05.35v-7.01l2.45-1.4-1.05-1.75,1.75-.7-.7-3.86.7-1.4v-5.61l2.45,2.1,1.05,2.1,2.1-3.86,1.75-.35,2.1,5.96-3.85,1.75,1.4,1.4-1.75,4.56,3.5,1.75-1.4,2.8-3.15,2.1,2.8,2.1.35,1.75-2.8-.35v1.05l1.75,1.75,1.75,3.5h2.45v-4.56l-1.05-4.56,1.05-3.15h.7l.35,2.8,1.4-3.15-1.75-2.1,5.61-2.8,1.4.7,1.4-2.8,2.8-2.1-3.5-9.81.35-2.8-2.45.35-1.05-1.75.7-3.5-1.05-3.85-7.01,3.85-1.05-3.15,4.56.7-1.75-6.66.7-4.91,1.4-3.15,1.75,2.45,2.8-3.85,4.56.35,3.85,2.1h3.86l1.75,3.15,2.1,1.4.35,4.56.7.35,2.1-2.45,1.75,4.56.35,3.15-1.05,9.11-3.85,1.75,2.8,2.1-.35,1.05,2.1,4.91-.35,5.26,1.4,7.01-1.4,2.1,1.4,8.41-1.05,9.11h-1.05l.7,9.46-1.05,6.31.35,3.5-1.4,3.5-1.05,6.31-6.31,3.86-7.01,2.1-1.4,2.1-16.82-2.45-.7-2.45ZM234.8,281.41h.7v-2.1l-.7,1.05v1.05ZM248.81,247.77l2.1-.7-3.15-.7v.7l1.05.7ZM251.27,334.33l1.75-1.4v-1.05l-2.1,1.05.35,1.4ZM253.02,280.36v-1.05h-.7l.7,1.05ZM254.07,257.93l1.4-2.1-.35-3.15,1.75-1.05-2.1-1.4-1.75,6.66,1.05,1.05ZM255.47,260.39l2.1-1.05,1.05-2.45-1.05-1.75-1.05,3.15-1.4,1.05.35,1.05ZM263.88,394.27l1.4-1.4-3.85-3.15-2.45,1.05.35,2.1,4.56,1.4ZM278.6,209.22l-4.56-.7-5.26-2.8-1.05,3.15-4.21-3.15,2.8-2.8,9.11,1.4,2.45,2.1,3.5.35,2.45-1.05-2.45,4.56-2.8-1.05ZM269.84,382l1.05-2.8h-3.5v2.1l2.45.7ZM268.79,390.76h1.05l-1.05-.7v.7ZM284.56,399.52l3.86-4.21-1.05-.7-2.45.7-6.31-.35,2.8,3.5,3.15,1.05ZM297.53,397.77l2.45-1.4,3.15.35,3.86-3.86,4.21-1.75,1.75-4.56,3.5-2.45,1.4-2.1-.35-5.61,1.4-3.85,2.1-11.92,1.75-2.1,1.05-5.26-.7-3.5-2.1-4.21,2.45-3.85v-3.5l3.15-3.15-2.45-4.21h-5.96l-1.4,3.5-2.1-2.45-1.75,1.4,2.45,3.15,2.45,9.46,2.1,3.15-2.45-.35-.7,3.15.35,3.15,1.05.7-3.15,2.1h-3.15l-2.8,3.86.7,1.05h-2.8l-1.05-3.5.7-3.5-.7-1.4-2.45,2.1,1.4,3.15-.35,4.91h4.56l-1.05,2.8,3.15,3.5v1.4l-2.8,3.5,1.4,3.86-.7,1.75-2.45.7-5.61,4.21-5.96,3.15-2.1,3.86-2.45,2.1.35,1.05,5.26.35,1.4,1.05ZM303.84,376.74v-1.05h-1.4l1.4,1.05ZM308.39,258.63l.35,1.75,3.86-3.86-2.45-1.4h-2.1l.35,3.5ZM309.1,264.59l1.05-1.75h-1.75l.7,1.75ZM315.75,304.19l2.1-2.8-2.8-2.1-2.1,4.91h2.8ZM314,264.24l1.4-1.4-1.75,1.05.35.35ZM313.65,349.41h1.05v-.7l-1.05.7ZM314.35,292.63h2.8l.7-1.75-.7-.7.35-2.45-2.8,2.1-.35,2.8ZM315.4,286.67l1.75-.7-1.75-5.61-.7,4.21.7,1.05v1.05ZM319.96,286.67l1.05-1.05.35-7.01-3.86.35,1.75,2.45.7,5.26ZM318.91,353.96h-1.05l1.05-1.05v1.05ZM322.41,294.38h3.5v-3.5l-3.5,3.5ZM324.17,263.54l1.75-2.1-2.8-1.05,1.05,3.15ZM334.68,293.33l.7-.7-1.05-2.1.35,2.8Z"/><path class="cls-1" d="M398.46,405.48l-5.96-3.86-12.27-5.26-1.4-2.1-9.81-5.96-2.45-5.26-10.51-10.87-2.8-4.21-1.05-4.21-2.8-5.61.7-1.4-2.45-3.5-2.1-12.62-.7-8.76.7-2.1-2.45-7.01v-29.44l1.05-3.15-1.05-4.21-.35-12.27-2.45-3.86-.7-5.61-3.5-3.5-3.5-7.01-5.26-7.36v-2.45l1.4-1.4,3.5-17.87.35-10.16,1.75-4.21v-1.75l2.8-.7,3.5-2.45,5.61-1.4,4.91-2.45-1.75-3.5.7-3.15v-16.82l.7-2.45-.7-4.21,1.05.7,5.26-2.45,5.26.35,2.1-2.1h5.61l.7,1.05h5.61l1.4,1.75,2.8-1.75,6.66.7,5.26-.35,3.85,2.8h5.26l3.86,4.56v3.5l2.8.7v2.1l1.05,1.4v2.1l4.56,3.85-.7,4.91,1.05,2.45,2.45.35,1.05,2.8.35-2.45,1.4-.7-1.4-1.05v-1.4l-1.4-1.75,3.15-1.75h2.45l1.05,3.85,3.5,3.86v1.4l1.4,1.05-1.4,1.05,3.5,5.26,2.45.35,10.51,7.01,3.5.7,3.5,4.21h2.1l6.66,6.66h3.5v9.46l-2.45,4.21-1.05,6.31-.35,13.32-1.75,4.21-7.01,3.5-7.01.7-2.45,1.4-1.75-.35-6.66,1.4-1.4,2.8v2.45l-1.4,3.86v6.31l1.05,4.56-4.91,2.1.35,2.45,2.1,3.15.7,14.02-.7,3.5,1.4,1.4-1.05,4.21.35,2.8-3.5,9.11,1.4,4.21,4.56,8.06,2.8,1.75,5.61,10.16h2.1l1.05-2.45,2.45,8.06,4.56,2.1,4.56,4.21-.35,10.86-1.75,3.5.35,3.5-2.1,1.05v1.75l-1.75,2.45,3.5,2.45-1.75,1.05-4.56,5.96-3.15.35-2.45,3.85-4.56.35-1.75,1.4-5.96,2.1-12.97-.7-8.76-3.15-4.91-.35-2.1-1.05ZM387.25,376.74h2.8l1.05-1.05.7,1.4,2.8-.35,1.05-1.05,9.46-2.8,7.71-4.56,3.5-7.01-.35-1.05,1.4-4.56,2.45-2.1-8.76-14.72.35-.7-5.61-7.36-5.61,2.1-7.01-2.45-2.45-5.61-1.75,1.4-2.45-6.66-.7-11.92h-2.45l2.1-17.17-.7-2.8,1.05-1.4v-1.75l1.75-2.45,1.05.7,2.45-3.86,1.4-5.61-4.91,3.5-.7-1.4.7-1.05v-5.26l-1.05-3.15,1.4-7.71,3.15,3.15.7,2.8-.7,3.86,3.5-.35.35-1.4,3.85-1.4,3.5-2.45,1.4.35,3.15-2.45h4.2l-2.45-3.15,1.4-4.56-1.75-1.4-11.92,1.4-1.4,1.4,1.75,2.45-8.76.35-1.75-3.5.7-3.85,2.8-1.4,2.45-3.15,7.71,1.05,3.15-2.1,2.1,1.75h1.75l1.4,1.75,1.75-2.1-1.05-2.45,3.15-2.45-.7-3.5-2.1-3.5,2.45-5.26.7-7.36-.7-14.37-7.71,1.4-4.91-1.05-3.5.35-3.15-1.05-5.26-3.5-.35-1.05,2.1-16.12-1.4-7.36-4.56-.7-7.36-2.45-4.91.7-2.45-.7-2.8,1.4-3.15,6.66v5.96l-1.05,1.75v8.41l-4.56,4.91,3.15,2.45-1.75,4.21-1.75.7-4.56-1.05-7.36.7.35,3.15-1.05,1.05-.7,4.21-2.45,1.05v1.05l2.8,1.75-2.1,3.15.35,1.05-1.05,1.75.35,4.21-2.45,2.45h2.1l-.7,1.4-2.8,2.1,5.96,2.8,4.21-1.75,5.96.35,2.45,1.4,1.75,2.1-1.75,2.1.35,14.02-2.45,1.75.35,2.45-.7,3.5.35,3.15,1.4.35-1.4,2.8,1.4,1.05-1.4,2.45,1.05,6.31-1.4,5.96.35,2.45-1.4,9.81,2.8-.35-.7,2.1,2.8,8.41-.35,3.86-1.75,4.21v2.1l-1.75,1.05,2.45,2.45-2.1,3.15,1.4,1.05-1.05,1.75,2.1.7v2.1l1.05,1.4-3.5,2.45,6.31,6.66,1.75,13.32,8.76,9.46,5.61,2.45,4.91,4.21h5.26l1.05,1.75ZM358.16,177.67h1.4l-.35-1.05h-2.1l1.05,1.05ZM392.16,388.66v-2.1l-2.45-2.1h-3.15l2.8,2.45,2.8,1.75ZM394.61,324.17h1.4l2.45-2.1-2.1-1.05-.7,1.75-1.05,1.4ZM398.11,191.69v1.4h1.75l1.05-1.05v1.05l-1.4.7,1.4,3.5,1.75-2.45,2.8-.7,3.15-4.56-5.26-3.15-2.45.35v4.21l1.05-.35-1.05,1.4v-1.05l-2.8.7ZM401.97,300.34l2.45-.7-1.05-2.1-1.05-.35-.35,3.15ZM408.98,381.65l1.05-1.4-1.4,1.05.35.35ZM412.13,252.68l2.1-1.05h-2.1v1.05ZM414.59,262.14v-1.75l-1.4,1.05,1.4.7ZM425.8,258.63l1.75.35-.35-2.8-5.96-3.15-3.85.35-1.4,1.05,5.26-.35-.7,1.75,5.26,2.8ZM424.4,248.12l2.45,1.4,1.4-4.56.35-5.61-2.8-2.1,1.75-2.8-3.86-3.5h-3.86l-1.4,1.05,2.1,2.1-2.1,2.8,2.45,1.05,2.1,3.5-1.4,3.15v3.15l2.8.35ZM423.35,228.14l1.05-1.05-3.5-4.91,3.15-.35,2.8-2.1-2.8-8.76-4.56,3.15,2.8,2.45-2.45,5.96.35,4.91,3.15.7ZM430.71,364.48h1.4l-2.45-.7,1.05.7ZM434.91,383.75l1.4-.35-1.4-1.4v1.75ZM446.48,232.35l2.8-.7-2.1-2.45-1.05,1.4.35,1.75ZM448.58,235.85l.35-.7h-2.8l2.45.7ZM446.13,239.36h1.05v-1.4l-1.05,1.4Z"/><path class="cls-1" d="M526.73,418.45l-4.21-1.75-5.96-.7-3.86-4.21-6.31-1.4-1.05-2.1-10.51-9.46-.35-2.1-4.91-5.96v-2.45l-4.21-3.5-5.61-7.01-2.1-7.01-4.91-4.56-2.8-9.46.35-4.21-3.5-1.4-2.45-8.06-2.1-3.5.7-5.61-3.15-4.56-1.05-7.01v-5.96l1.75-1.05-1.4-2.1v-7.71l-.7-2.45,1.4-4.21-1.05-.35v-10.51l1.4-1.75-1.05-7.01.7-6.31,2.45-1.4-2.1-2.1,2.1-4.56v-7.01l2.1-6.66,1.4-1.75,2.8-10.16,2.8-2.45-.7-1.75,1.05-3.15,3.15-2.1.7-6.31,3.85-5.96,3.85-1.05,4.21-4.21,9.46-7.71,6.66-.7,4.91-2.8,6.31-.35,5.61-1.4,1.4,1.4h6.31l2.8,1.05,3.85,2.8,4.91-1.4,1.4,4.21,4.2-1.75,1.4,3.15,2.1,1.05,1.75,2.1,5.96,2.1.35,3.5,3.15.35v5.26l1.75-.35,3.15,4.56,1.05,3.5,4.91,2.1,1.75,3.5,2.1,1.75.35,4.56,1.05,1.05.35,3.15,2.1,1.4,2.8,3.5,2.1,5.26,2.45,2.8-.35,3.86,3.15,9.81-5.96,5.26,1.05,1.4h2.1v5.26l-7.01,9.11-3.86-.7-2.45,2.8-11.57,4.56-7.71-.7-2.1-1.4-4.56,2.1-.7-.35-7.01,2.1,4.56,5.96,2.8-1.4,3.85,1.4,4.91,3.86,2.8,4.56,4.21,2.45v1.4l3.85,3.86h2.1l4.56,5.26.35,1.4,1.75.35,2.8-1.75-.7,3.5h8.06l-.35,1.4,1.4,3.86,3.5,3.15v3.5l2.8,5.61-3.5,1.4,2.8,2.8-1.75,2.45-1.4,10.86-3.5,7.01-.35,3.5-2.45,3.5-2.45,6.66-2.45,2.45-1.75,5.26-2.45,3.86-6.31,7.01-.7,2.45-4.56.35-2.8,1.05-2.1,2.8-7.71,4.56h-6.31l-4.91-1.05-5.26,1.05-3.5-.7-2.1-.35ZM517.97,378.49l9.46-.7,2.8-2.8,3.86.35,4.91-8.41h1.05v3.5l2.8-6.31,1.75-9.46,4.2-7.71,1.05-4.21v-5.61l2.8-7.01-3.86-1.05,2.1-3.15-2.1-7.01,1.05-1.4-10.16-3.15-.35,2.8-4.21,5.96-1.05,6.66-2.45,3.15-.35,2.1-9.11.7-5.96,1.75-3.5-2.1-4.91-1.4-5.96-9.81-.7-7.36-2.45-9.11.35-2.45-1.75-3.5.35-4.56-1.05-2.1,1.05-5.96-.7-7.71.35-8.06,1.05-2.1-1.05-3.15-.35-8.76,1.75-9.81,2.45-4.21,1.4-.7,4.91-11.22,6.31-2.1,4.21,1.05,2.1-1.75.35,1.05,5.96,4.21,3.15,7.36,2.8,3.15,2.1,14.37,6.31-.35,2.8,1.4,5.26-.7,2.1-2.1,1.75.7,2.45-2.45,1.4-6.66h5.61l.7,1.4,4.56-1.05,3.5,1.75-.35-1.75-2.8-2.8h-3.5l-4.56-1.4,6.31-1.75,2.1-1.75-3.15-2.1-2.1-.35,1.05,2.1-2.1,1.05-2.8-1.05-4.56-3.85,2.8-3.5-3.85-4.91,1.75-1.75-.7-1.05-2.1,1.05-2.1-3.5-.35-4.91-4.56-3.85-3.15-4.56-4.21-.35-3.15-2.8-9.46-1.05-5.26.35-8.06,2.8-.7,1.75-9.46,2.8-3.15,2.45-8.76,8.41-.7,2.8-2.8,3.15-7.36,12.62-.35,4.91-2.45,5.26-.35,3.86-3.5,8.76v3.15l-1.05,3.15.35,7.71-1.75,8.41-2.1.35,2.1,3.15.35,7.36-1.4,3.85,1.05,8.06-1.4,3.5,1.05,1.05.35,4.21,1.05,1.75-2.1,1.4,2.45,1.75-.35,2.45,2.1,2.8v4.91l2.1,3.86v3.5l1.75,4.21,3.5,2.8.7,3.85,4.56,5.61,11.21,9.46.7,1.75,4.21,2.8,3.15,1.05v.7h2.8l5.96,2.45,4.21-.35ZM493.79,382v-1.75h-2.1l2.1,1.75ZM516.57,248.12l1.75-1.05-1.75-.7-.7.7.7,1.05ZM534.8,283.17l1.05-4.56,1.75-2.1v-3.15l-2.45-1.4-2.45,2.1,2.1,1.75-1.4,1.05.35,4.56,1.05,1.75ZM540.05,404.08h1.05l3.85-5.26-1.4-3.5v-2.1h1.75l.35-2.45-1.05-4.56-2.1,2.1-2.1-7.01-2.8.7,1.05,1.4-1.4,5.96-2.45,1.4,3.85,8.06,3.15.7-4.2,1.75v1.05l2.45-.35v2.1ZM558.28,398.82l3.5-2.1,4.56-4.56v-5.26l3.5-2.45-1.4-.35-1.05-2.8-4.91-3.86,2.8.35,3.5,1.75-1.4-2.8,1.05-2.1-1.05-2.8,6.66,2.8,3.15-5.26-6.31,2.45-4.21-1.05.7-10.51,4.21-8.76,1.4,1.4,2.1-.35,1.05-1.05-1.4-.35.7-6.66-2.45-3.85-1.75-6.31-5.61-2.1-3.15-4.21-1.4,1.75v3.15l-1.4,2.45-.35,4.56.7,3.15-.35,2.8-1.4,2.45.7,5.96-.35,5.96-5.61,7.01-3.15,1.4-2.1,2.1,3.15,12.97,1.4.7-2.1,1.05,2.1,4.21.35,2.8,4.56,1.75.35,4.56h.7ZM553.37,288.07l1.05-1.4.35-9.46,2.8-1.4.7-1.75,3.85-.7-3.5-3.15-2.1,1.4-1.4-1.05,1.05-2.1h-2.45l-1.4,2.1.35,2.1-3.15,6.31,3.15,2.8-1.4,1.05-.35,3.15,2.45,2.1ZM554.07,377.79l-.7,1.4v-2.45l.7,1.05ZM554.07,398.82h1.05l-1.05-1.05v1.05ZM558.63,364.13l-2.1,2.1v-1.75l2.1-.35ZM558.63,371.48h-2.1v-3.85l2.8.7,2.8,2.1-1.05,1.05,1.75,1.05-.7.7h-3.5v-1.75ZM570.54,285.27l3.5.35-.7-2.1.7-4.56,1.05-1.05v1.05h1.05l1.05-1.4-2.8-1.75-1.05-4.21,2.8-2.8-2.1-9.81v-3.5l-3.5.35-2.1,8.06.7,2.45-1.05,5.61-4.56,6.66-.35,3.5-2.1,2.8,2.1-.35,2.1-3.15h2.1v1.05l3.15,2.8ZM562.13,268.1l3.5-2.8-3.5,1.75v1.05ZM567.74,343.8l-4.2,3.5,3.15-6.31,3.15,3.15,2.1.7v2.45l-4.21-3.5ZM567.39,275.81h1.05v2.1l-1.05,1.05-1.4-1.4,1.4-1.75ZM573.7,374.64l-3.86.7,2.45,2.45,1.4-3.15ZM574.05,358.17l2.1-.7h-1.05l-1.05.7ZM578.6,348h2.1v-1.05l-2.1,1.05Z"/><path class="cls-1" d="M709.68,423l-3.5.7-4.91-1.4-8.41-.7-3.15-2.1-5.61-.35-9.11-8.41v-2.45h-7.01l1.05,4.56-.7,6.31,1.05,1.4-4.91,2.8-2.45,2.45-2.45-2.45-5.26-.35-4.56-3.5-3.5,1.05-8.41-1.4-10.87-4.21-7.71-5.61-3.5-7.71-2.8-2.45-1.4-3.5-3.5-4.21-2.8-5.26-1.75,3.5-2.1-2.1-.35-2.45-2.8-3.15,1.4-6.66,2.8-4.56h-3.15l1.05-8.06,1.4-2.8v4.21l9.46-3.15-1.4,4.56v3.5l-2.1,1.75,5.96,2.1,8.76,1.75,6.66.35,6.66-1.05-.7-2.1,1.4-4.56-2.1-8.41v-8.06l-1.75-4.56.35-3.5-1.05-2.8,1.4-8.41.35-7.71.7-1.05-.7-4.91,1.05-2.45-.35-3.15,2.45-12.27,1.05-1.05-.7-3.5,1.05-3.5-.7-4.21,2.45-3.15,1.75-3.86-.7-3.15,1.75-11.57,3.15-8.76.35-3.5,3.85-4.91,2.8.35,4.56,2.45,2.45,2.8,3.15.35,1.75,2.8,4.91,4.91,7.71,15.07-2.1,2.1,2.45,2.45-.35,5.61-2.45,7.71,1.4,1.75-1.05,5.96v8.06l-1.75,8.41-.7-.35v6.31l-1.75,5.26,1.75,4.21v11.22l-1.05.7-.7,3.5-1.05.7,1.75,1.4.35,2.45-1.05,1.4,1.05,3.85v6.31l-2.45,2.45,1.75,7.36,4.21,2.1,3.85-.7v.35l4.21-.35,2.45-2.1,6.66,1.75,3.5-.7,2.1-3.15,2.1,3.5,1.75-16.12-1.05-3.85,1.4-6.66-.35-2.1,1.4-5.26,1.05-12.97-2.45-7.01,2.1-2.45-.7-6.31,1.05-6.66-1.4-5.96.7-5.26,2.1-2.1-2.1-4.56,1.4-13.32-.35-9.81,1.4-1.75-1.05-3.15.35-8.41-.7-3.15,1.4-7.36-2.45-3.5.35-6.66-2.45-4.21-6.66-5.61-3.5-4.56v-5.26l-3.5.35-3.15-2.8-2.45-1.05-2.45-2.45-9.11,3.5-1.05-1.4-2.45,2.1-4.56-1.05-1.4,2.8-7.01,2.45,2.1.35v1.75l-2.8,1.05-1.4,1.75-7.36-2.45-2.1-5.61v-9.11l.7-.35-1.4-5.26.7-7.01,2.45-1.05-1.05-.35,1.05-5.96-.35-2.8.7-21.73,1.4-1.75-2.1-2.8-2.45-.35-3.5-2.1h-6.66l-3.86,2.45-7.71,2.45-2.8-.35-4.21.7-4.21,11.92-2.8,3.5,4.21-1.05,2.8,1.75.7,8.76-1.4,5.61,1.4,4.91v3.15l-2.1-.7-1.05,2.45,2.1,4.21-2.1,1.4,2.1,3.85-2.1,5.96,2.1,1.75-3.86,2.1,4.21.7-1.4,4.56v10.51l-2.45,2.8,3.5,8.76.35,4.21-6.31.35.35,13.67,1.75.7-2.1,2.8h3.86l-3.5,3.15-1.05,3.5,1.05,3.15-5.96-2.8.7-8.06,2.45-3.15-2.45-3.5v-2.1l2.45-2.45v-1.75l2.8-4.56,3.86-1.4-3.86-1.4,2.1-1.4h-6.31v-2.45l-.7-.7-.35-3.86-1.75-3.5,2.1-3.15h3.15l-.7-1.75-2.8-1.05.7-1.4,4.21-.35,2.1-4.21-1.75,1.75-5.61.35-.7-3.86,1.05-13.67,1.05-2.1-.35-1.05,1.4-2.1.35-4.56-1.4-.7v-3.85l-1.05-1.05.7-1.4-1.05-3.15,3.15-6.31-1.75-2.1v-1.05l-1.75-1.75,1.75-1.05-.7-3.86,1.4-4.56-2.8-2.45,1.75-4.56-4.21-1.75,2.1-1.4,4.91-.7-2.45-.7-.35-2.8,2.45-1.75,1.4-2.45,5.61-.7,10.87,1.4,4.91-3.15,1.75,1.4,3.5,1.05,1.75-.7.35-2.1,7.01,1.75,2.1,1.4,3.85.7v2.1l4.91,2.8,8.06,9.46.35,3.15-4.21-1.75-.35,3.86.7,5.26,1.75,1.75,3.85-3.5v-3.15l-1.05-1.05,2.45-2.45,1.75-.7-1.05,5.26,3.86-.7.7,4.56,3.5,3.5-.35,4.91-1.75,1.75.35,1.05-1.4,4.91,2.45-.35-.7,9.11-3.15,2.45,7.71,2.8,5.26-.35,4.91,7.01,1.75-3.15,1.75,1.4-1.4,2.1,4.2.35,2.45,4.56,2.1,2.1-.35,2.45h4.56l8.06,3.85,2.1,2.45-.35,2.8,3.5,1.05v3.15h-1.05v1.75h4.91l2.45,5.96,3.5,3.5.35,4.21,3.15,4.91-.35,2.1,2.45,3.15-1.05,2.45v5.96l2.45,2.1v5.96l-3.86,4.21,1.05-1.75-.7-4.91-1.4-2.1-.7-10.16h-7.01l-1.05-6.66h.35l-1.75-6.31,1.05-3.86-1.05-5.26h-1.75l-1.05-1.05h-2.1v1.75l-2.1,3.5-.35,2.45,2.45,3.5-1.75,2.8.35,5.96,1.4,1.75-3.85,8.06h1.4l1.05,1.4-1.4,1.75,1.4,1.4,2.45-.35v-2.45l5.96.7.7,4.21,2.45,7.71h-1.75l1.4,4.56-1.4,4.56,1.05,1.75-1.75,1.05-1.75,3.86-2.8-3.86v-1.75l-1.75-2.1-2.8,4.91.35,3.5-1.75,5.26,1.75-.35-3.15,9.11h2.8l2.8-1.4,2.45,2.1-1.75,1.75,1.05,2.1-6.31,6.66.35,1.4-1.4,2.1,1.05,1.05,1.75-.35,1.4,2.1h2.1l-1.05-1.75.35-3.15-1.4-3.85h1.05l2.1,4.91,6.66,2.1,1.4,4.21-.35,4.56,1.05,1.05,2.1-5.96.35-3.85,2.45.7,1.05-4.56v.35l2.1-4.56h1.4l-.7,7.36-1.4,4.56.7,2.45-2.1,3.15,1.75,1.75-2.45,8.06,1.05,1.4-.35,3.5-2.8,1.4,2.1.7.35,2.45,2.45,1.4-1.4,6.31-2.45,3.86v6.66l-1.05,3.15,3.15-2.8,1.4,3.5-1.05,1.75,1.75-.7-.7,15.42,1.4,4.21-1.05,4.91.7,3.86-3.15,2.8,1.05,1.05,2.8.35-3.15,4.56,1.4,3.15v3.15l1.4.35-.7,3.15-10.86-.7-4.21.7-2.45-.7-4.21.7-1.75-2.1ZM605.59,337.14l-2.8.7-1.75-2.45,4.21-1.4-1.4-3.5,1.05-2.45-1.4-1.75.7-7.01h-2.8l3.85-5.61-2.8-1.4-.35-7.36,2.1-4.21,1.4-6.66,1.75,1.75,2.8-3.15.35-2.45-5.26.7,1.05-2.45,3.86-1.4,1.4-2.8-.7.7-2.45-4.56-6.31,3.15,1.4-3.15,9.46-5.96,2.8,3.15-.7,5.26-.35,10.86-1.4,9.46.7,5.96-2.45,2.8-4.56,2.8,3.5,1.05v1.75l1.75,3.85.35,11.22-2.8,11.22-4.21-.35-3.15,1.05.35-4.91,2.8-2.45ZM607.34,210.27l2.45.35v-1.05l-1.75-.7-.7,1.4ZM607.34,232.7l2.8-1.05-2.8-1.05v2.1ZM608.04,240.41v-1.05h-.7l.7,1.05ZM608.04,330.48l1.75-1.05h-1.75v1.05ZM610.5,190.64h1.05v-1.05l-1.05,1.05ZM619.26,393.21h1.4l-2.1-3.5.7,3.5ZM624.87,399.52l-1.05-1.75v1.05l1.05.7ZM629.07,406.88l2.45-.35-.7-1.75-5.61-5.61,1.4,4.21,2.45,3.5ZM632.23,389.71l1.4-2.1h-1.05l-.35,2.1ZM646.25,327.68l.35-8.41-.7.35-1.75,8.76,2.1-.7ZM644.84,332.58h.7v-1.05l-.7,1.05ZM646.25,359.92l2.1-2.8-.35-8.06h-2.8v8.76l1.05,2.1ZM648.7,307.35l-1.75,3.15h2.8l1.75-2.45-1.4-2.8-1.4,2.1ZM656.76,263.19l2.1-1.05h-1.05l-1.05,1.05ZM656.76,392.51v6.31h2.1v-7.01l1.4-5.26-.7-4.56-2.8-.35,1.4,3.5-.7,3.5-.7,3.86ZM663.07,295.43h3.5v-2.1l-3.5,2.1ZM666.57,300.69l1.05-.7h-1.05v.7ZM672.53,405.13l.35-2.1-.7,1.05.35,1.05ZM684.8,396.72l1.05,1.75,2.1-2.45-2.1-1.75.35-3.5-1.4-.35-2.45,2.8,2.45,3.5ZM685.15,403.03l-2.1-3.5-.35,2.1,2.45,1.4ZM685.5,388.66l2.1-1.05h-1.4l-.7,1.05ZM691.11,400.57l.7-1.05-3.85-3.15,3.15,4.21ZM695.31,390.76l3.15-1.75h-2.1l-1.05,1.75ZM704.42,402.33l2.45-2.1-7.71-3.5-2.8-3.5.7,1.4-.7,4.21,5.26,2.1,2.8,1.4ZM696.36,406.18l3.5.7.35-2.8-2.8-.35-1.05,2.45ZM723,416.34l2.1-.7-1.05-4.21,2.1-7.36-1.4-.35-1.75,2.45-5.61-6.66-3.5,2.45v-2.1l2.1-5.26-1.05-5.26-3.5-.7-.7-2.45-6.66,5.61-.7,3.15,3.85-.35v2.45l2.45,4.56-2.1,3.15,3.5,2.1-3.15,1.75,2.1,1.75,2.8,6.31,2.45-2.8-.35-4.56-1.4-2.8,2.45-2.8,3.15,3.85-.35,3.15.7,2.1-.7,3.15,4.2.35ZM715.64,366.58l1.75,2.45,1.75.35v-16.12l4.21.35-.7,4.56.35,7.36h3.15l-.35-2.8.7-9.11-5.26-3.15-2.1,1.05-.7-2.45,1.75-2.8-4.21-5.96.7-2.8-.7-5.96-1.75.7-2.1,3.5-3.86,8.41,3.5,1.75-3.15,1.75,3.15,2.8-2.8,3.85,1.4,4.91-.7.7.35,4.21,3.15.7,2.45,1.75ZM708.63,236.9h1.05v-1.75h-1.05v1.75ZM708.63,291.93l1.05-1.05h-1.05v1.05ZM712.83,278.96l.35-1.4-2.8-1.05.35,1.75,2.1.7ZM717.04,287.72l2.45-2.8-4.56-1.05-1.05-2.1-2.8.35,2.45,5.61h3.5ZM714.24,385.15l-.35-2.1h-.7l1.05,2.1ZM715.99,276.51h1.4l-1.4-1.05h-2.1l2.1,1.05ZM717.39,373.24h1.05v-.7h-1.05v.7ZM720.19,420.55h1.4v-2.45l-1.4,1.4v1.05ZM721.95,373.24l2.8-.7h-2.1l-.7.7ZM722.65,244.61h1.05l-1.05-1.75v1.75ZM722.65,390.76h2.1l.7-6.31-2.8,4.56v1.75ZM723.7,346.95l1.4.35-.35-2.8h-1.05v2.45Z"/><path class="cls-1" d="M867.04,423l-.35-2.8-2.45-2.1-3.85-1.75-2.45-3.15.35-2.8-7.01-7.01-4.21-6.66-3.85-2.8v-1.05l-7.36-4.21,1.05-3.15-1.4-4.21.7-3.86-.7-2.45-1.05-15.42,2.45-16.12-1.05-17.87,1.05-2.45,1.4-18.93-1.4-1.75,1.05-3.85-.35-3.86,1.05-7.36-1.05-1.4,2.1-12.62-.7-4.91,1.75-4.91-.7-.7,1.75-3.15.7-4.56-.7-4.21,1.05-14.37,1.4-1.4-2.1-4.21,2.45-5.26-1.05-1.4v-12.62l2.1-2.45.7-7.71,1.4-.7,1.4,1.75.35,2.1-1.05,6.66,2.1,5.26-.35,3.85-1.4,3.15,1.05,5.96-1.4,1.75,1.05,1.4-.35,3.5.35,12.97-1.75,5.96,2.45,1.75-2.8,11.92,1.4.7-1.75,8.06v5.96l-1.05,6.66,1.05,2.8-1.05,4.56.35,4.21v18.57l-1.05,1.75v5.96l-1.05,3.15v5.61l-1.4,3.15,1.05,6.66.35,11.57-1.05,2.45.7,5.61-.35,4.21.7,6.31,2.8-1.05,4.21,1.75,4.21.7.7-1.4,7.71-.35,12.27,1.4,6.31-2.1,14.37,1.4,6.66-.7,5.61.7,11.22-5.26,1.05-2.8,2.1-1.75,1.4-5.61,2.8-2.8.7-8.76,1.75-3.15v-1.75l1.75-1.75,2.45-13.32v-7.36l1.4-2.8-.35-4.91.7-5.96-2.45-7.36-.7-4.91-1.4-1.75-1.4-5.61-2.8-6.31-5.26-6.66-.35-2.8-2.1-2.1,2.1-3.5,7.01-7.36,8.06-19.98.35-4.21,1.4-4.56-.7-2.8,1.05-2.8-.35-3.5.7-4.91,1.75,1.05-1.75-5.61.7-6.31-2.45-14.02-7.01-10.16,2.45-1.05v-1.05l-3.5-.35.35-5.26-5.26-5.26-1.05-3.15-2.45,1.75h-2.45l-8.41-5.61h-2.45l-3.5-1.4-1.75-2.1,1.75-1.4,3.15,1.4,3.5.35,3.86,3.15h6.31l3.15,1.05,2.8,2.1,4.56,5.96,4.91,3.15,6.31,9.81-.35,3.15,5.26,3.5,2.45,3.5-.35,2.8,4.21-.35,2.1,2.8h1.75l4.56,3.5-.35,4.21,2.8,3.15,2.1,5.26.35,6.66,4.21,4.56-2.45,1.4,1.75,1.05,1.05,6.31,2.1,3.85-1.4,2.8-.35-.7-1.75,4.21h1.75l-.35,1.75-3.15,3.5,1.05,2.8,3.86-.35.35,1.75-3.5,1.4-.35,4.21,2.45-1.75,1.05.7.35,3.15h-2.1l-3.86,1.4,2.8,5.61-4.56,2.8-.35,3.85,2.8,1.4-4.91,8.76,1.4,6.31,2.1,1.75.35,5.26,4.21,2.45-.35,2.8,3.5,2.1,1.05,5.61-4.56,2.1.7,5.26,3.5,3.86-2.8,2.8-.7,2.8.35,3.5,1.75,1.05-2.8,3.5,1.4,1.05,3.15-1.05-.7,2.8h-3.15l-.7,7.71,3.15-.35-2.1,2.8v5.96l1.75,2.45-2.45,2.8.7,9.11-2.8,4.56,1.4,3.5-2.1,3.86,1.75,1.05v3.5l-2.1,2.1.7,2.1-2.45,2.45-.35,2.8-4.91,2.45-1.4-1.05v3.5l3.5-.7v4.21l-6.31,6.66-7.36,3.15-3.86,4.21-2.1-2.45-1.4.7v3.86h-8.41l-1.4,1.05-7.36-.7-5.61,1.4-7.71.35-11.92,1.75-3.85-.35-.35.7-4.91-.35-7.36,1.05-4.21-1.4-9.46-.7-3.15-2.45ZM848.12,195.9l-3.15-4.21h-2.45l.35-4.56h-3.5l2.45-3.86-.7-3.15.7-3.15-1.05-4.91,1.05-3.85,2.1-1.4-1.4-8.76,2.45-1.75,3.85.35,3.5-1.4,1.4,1.4,1.05-1.05,5.26-1.4,3.5.7,11.92-.7,4.56-2.8,7.36,3.15,3.5.7,1.4,2.45,8.76.35-1.05,2.8h-5.26l-7.71-1.75-2.8-2.45-2.8,1.05-4.91.35-2.45,1.4-4.56-.35-10.86.35-3.5.7-3.5,2.8v4.56l-1.05.35,1.05,6.66-.35,12.27-2.8,1.4,1.75,1.75-1.4,1.05-.35,5.61-.35-.7ZM872.3,335.74v-7.01l-1.05-2.8,1.4-7.71-1.05-6.66-1.4-2.45,2.45-5.26,2.8-13.32,1.75-1.75,9.81-.7,6.66,1.4,1.05,1.4,5.26.7,6.66,9.11-.7,5.61.7,3.15-.35,3.86-5.26,12.62-3.5,2.8-4.56,9.11-6.31,2.45-3.15,2.45h-1.4l-4.21-2.45-5.61,2.8-3.86-4.21,3.86-3.15ZM872.65,217.63l3.5-3.15v-11.22l.7-3.85-1.75-4.21,5.96-3.15,4.56,1.75,1.05-.35,6.31,4.56-1.75,3.15,5.26-2.1.7,3.5,4.21,5.26-.35,1.05,2.8,9.11-.7,4.21.35,2.8-1.05,4.21-5.96,11.92-4.91,2.45v1.05l-5.61,1.75-3.15-.35-3.5.7-3.86-.35-.7-3.85h-1.05l1.75-9.46-.7-12.62-2.1-2.8ZM873.7,387.61h1.05v-1.4h-1.05v1.4ZM883.17,299.64l2.8,4.21,1.75-1.75,1.4-4.56h5.61l-.35-1.4-3.15-1.75-9.11-.7,1.4,3.86-.35,2.1ZM883.87,204.31l2.8-1.75.35-2.45h-3.15l-1.4,2.45,1.4,1.75ZM891.23,392.86l1.05-1.05.35-2.45-3.15-.35,1.75,3.85ZM897.89,308.05v-1.75l-1.4.7,1.4,1.05ZM899.99,405.83l3.5.35-3.15-4.21,2.1-1.4v-1.4l-3.86,2.45,1.4,4.21ZM908.75,392.86h3.15l-.35-3.15-2.45-4.56-4.21,3.86,3.86,3.85ZM905.95,402.68h1.05l3.85-5.26-1.75-1.05-3.5,2.8.35,3.5ZM908.75,405.83l2.1-3.5-1.75.7-.35,2.8ZM916.46,406.53v-1.4l-2.8-.7,2.8,2.1ZM914.71,401.63h.7v-1.05l-.7,1.05ZM925.92,402.68l2.1-1.75,4.91.35-1.05-3.5-4.56.7.35-3.15,1.75-1.4-3.86-1.05,1.4-9.11-1.75-3.86-3.15,1.75,1.4,2.45v5.26l-1.05.35-3.15,7.01,4.91-2.8.35,3.5-2.8,2.45,2.45,1.05,1.75,1.75ZM928.73,406.18l1.05-2.1h-2.1v1.05l1.05,1.05ZM930.13,389.01l.35-2.8-1.75-.35v2.8l1.4.35ZM939.24,412.84l-1.05-1.75.35-2.8-2.1-.35,2.8-.7,1.4-5.61-3.15,2.45-2.45-1.05-2.1,3.85,2.1,2.45-.35,3.5h4.56ZM943.1,382.7l-.35-5.26-4.21-3.5,3.15-7.71v-6.66l-.7-.7v-3.5l3.5-4.56,2.8,2.1,4.91-2.8-2.45-3.15v-4.91l.7-1.75-1.05-7.36-1.75-4.56-2.8-4.21v-5.96l-2.45.35.35,3.5-.7,2.8.35,3.86-1.4,11.57-2.8,13.67-1.75,2.45-1.75,10.16,1.75,5.26,1.05.7.35,4.21,1.75,3.15,3.5,2.8ZM950.46,403.73l1.05-1.05h2.1l1.05-2.8-1.75-3.5.7-2.1-5.61-1.05-1.4-5.26-5.26-2.8v3.86l3.15-1.05,3.15,10.86,2.8,2.1v2.8ZM962.72,325.22l2.1-2.8-.35-9.11-4.21-8.76-.35-3.15-3.85,2.45-3.15.7-1.05-4.21-2.45-2.45-2.1.35-1.05-.7-2.1.35-1.05,10.51.7,5.96,6.66.35,3.15-2.8,3.85.7,1.4,2.8-1.4,1.4,1.05,3.85h4.56l-.7,1.75-3.5,2.1,3.85.7ZM946.95,223.24l7.36-5.96-.7-3.5.35-4.21-1.75-2.45-5.26-3.86-1.75,15.42,1.75,4.56ZM949.75,234.45h.7v-1.05h-.7v1.05ZM949.75,237.96l1.75-1.4h-1.05l-.7,1.4ZM950.46,371.13l7.01-3.5-3.15-1.4-.35-2.1-2.45,1.4-1.75-1.4v2.45l1.75,1.05-1.75,1.05.7,2.45ZM955.01,375.69v-3.15h-3.15v2.8l3.15.35ZM956.76,279.66l2.1-2.8.35-4.91-3.15.7-3.15,5.96,3.86,1.05ZM953.96,243.21l2.1-2.45v-1.75l-2.1,4.21ZM953.96,307l.7-.7,4.91.7-.35,3.5h-.7l-1.05-2.45-3.5-1.05ZM956.06,406.88l1.4-.7h-1.4v.7ZM960.27,331.53h2.8l-1.4-3.15-2.45-1.05,1.05,4.21ZM961.32,363.07l1.4-4.91-2.45-.7v3.5l1.05,2.1Z"/><path class="cls-1" d="M1062.26,405.83l-1.05-1.05-7.01-1.75-1.4,1.05-7.71-2.45-4.91-4.91-5.26-2.45-4.91-4.21-3.15-5.96-8.41-3.5-2.8-2.8-3.15-1.75-.35-2.8-4.56-1.75-3.5-5.96-3.5-2.8-1.75-3.85-.7-4.56-4.56-7.71-1.05-4.56-2.1-2.1-4.91-11.57-1.75-2.8,1.05-11.22-.35-3.85-1.4-1.75,1.05-4.56v-11.22l-.7-4.56,1.75-2.8-.7-.35,3.5-3.85.7-7.36-2.45-3.85,3.5-1.4-3.5-4.56,2.45-.35-1.05-1.05v-4.21l-.7-.7.7-4.56,3.5-1.75-2.45-1.75.7-6.31,2.45-4.91v-3.5l1.75-.35-.7-5.26,1.4-.7-1.05-3.15,5.26-4.91,2.1.35,2.45-1.75.35-4.21,5.96-4.91,2.1,1.05.7-2.8,5.26,1.4-1.05-4.21,5.96-.7,6.66-2.45,1.75,1.4,4.56-3.5h5.26l1.75-.7v5.61h-11.22l-2.8,3.15-3.85.35-1.75-1.4v2.8l-2.45,1.05-6.31,5.61-1.75,4.56-3.5,3.86-1.05,2.8-2.45,3.15-.35,4.56-3.15,6.66v5.61l-1.05,1.4.7,1.75-1.4,4.21v4.21l-2.1,10.16-1.4,1.75v1.4l2.8-.35v3.15l-1.75,15.07-1.05,1.75,1.75,1.05-.7,4.21-1.75,3.86-.7,5.26,1.4,7.36,1.05,14.37,2.8,4.56,2.45.7,4.21,15.42,2.1,1.05,4.91,8.76,5.96,4.21,1.75,2.45,6.31,5.96.35,3.85,3.15.7,5.26-.7,1.4,1.4,2.1-1.4,12.27,1.05,1.4-1.05,3.85.35,1.4-2.8,3.5-.35,6.31-2.45,2.45-4.91,4.56-1.75,5.96-5.61,2.1-8.06,2.8-4.91-.35-2.1,2.45-12.62,2.1-3.15v-4.91h1.4l-1.75-10.86.35-9.46,1.4-1.05-1.4-11.57,1.05-3.5-.7-13.67,1.4-5.26-3.15-14.72v-19.63l-3.15-3.15.35-6.31h2.45v2.1l-1.4,3.15,1.75,2.8,4.21.7,2.45,2.1,1.75,4.91,2.45.35,4.21,4.91,1.75,3.85,7.36,6.66,2.45-1.75,4.21,8.06.7,6.66,4.21,8.41-1.4,6.31,2.45-.35-.35,3.5,3.15,3.5v7.01l-1.05,4.91.35,4.91,2.45,2.8-1.75,4.21-2.1,2.45,3.15,2.1-1.75,2.1-1.05,3.5.35,3.15-1.05,3.15,1.05,4.91v8.76l-1.05,7.01-2.45,10.16v8.41l-3.85,9.11-2.8,9.81-4.21,5.61-1.05,3.15-3.5,1.4-5.61,4.21-5.26-.7-.7-.7-5.26,3.5h-4.91l-3.15,1.4h-3.15l-2.1-1.05-5.26,1.05-2.45-.7-4.21,2.8-4.56-1.75ZM995.32,247.07h1.05v-.7h-1.05v.7ZM999.87,225.34h.7v-1.05h-.7v1.05ZM1014.59,213.07l3.5-.7-3.15-.35-.35,1.05ZM1026.51,336.79l-4.91-6.31-.35-7.71,1.75-2.1-1.4-3.15v-4.56l-1.05-2.1-.7-5.61.35-13.67.7-2.45-.7-3.5,1.05.35v-7.01l2.45-1.4-1.05-1.75,1.75-.7-.7-3.86.7-1.4v-5.61l2.45,2.1,1.05,2.1,2.1-3.86,1.75-.35,2.1,5.96-3.86,1.75,1.4,1.4-1.75,4.56,3.5,1.75-1.4,2.8-3.15,2.1,2.8,2.1.35,1.75-2.8-.35v1.05l1.75,1.75,1.75,3.5h2.45v-4.56l-1.05-4.56,1.05-3.15h.7l.35,2.8,1.4-3.15-1.75-2.1,5.61-2.8,1.4.7,1.4-2.8,2.8-2.1-3.5-9.81.35-2.8-2.45.35-1.05-1.75.7-3.5-1.05-3.85-7.01,3.85-1.05-3.15,4.56.7-1.75-6.66.7-4.91,1.4-3.15,1.75,2.45,2.8-3.85,4.56.35,3.86,2.1h3.85l1.75,3.15,2.1,1.4.35,4.56.7.35,2.1-2.45,1.75,4.56.35,3.15-1.05,9.11-3.86,1.75,2.8,2.1-.35,1.05,2.1,4.91-.35,5.26,1.4,7.01-1.4,2.1,1.4,8.41-1.05,9.11h-1.05l.7,9.46-1.05,6.31.35,3.5-1.4,3.5-1.05,6.31-6.31,3.86-7.01,2.1-1.4,2.1-16.82-2.45-.7-2.45ZM1026.16,281.41h.7v-2.1l-.7,1.05v1.05ZM1040.18,247.77l2.1-.7-3.15-.7v.7l1.05.7ZM1042.63,334.33l1.75-1.4v-1.05l-2.1,1.05.35,1.4ZM1044.38,280.36v-1.05h-.7l.7,1.05ZM1045.43,257.93l1.4-2.1-.35-3.15,1.75-1.05-2.1-1.4-1.75,6.66,1.05,1.05ZM1046.84,260.39l2.1-1.05,1.05-2.45-1.05-1.75-1.05,3.15-1.4,1.05.35,1.05ZM1055.25,394.27l1.4-1.4-3.86-3.15-2.45,1.05.35,2.1,4.56,1.4ZM1069.97,209.22l-4.56-.7-5.26-2.8-1.05,3.15-4.21-3.15,2.8-2.8,9.11,1.4,2.45,2.1,3.5.35,2.45-1.05-2.45,4.56-2.8-1.05ZM1061.21,382l1.05-2.8h-3.5v2.1l2.45.7ZM1060.15,390.76h1.05l-1.05-.7v.7ZM1075.93,399.52l3.86-4.21-1.05-.7-2.45.7-6.31-.35,2.8,3.5,3.15,1.05ZM1088.89,397.77l2.45-1.4,3.15.35,3.85-3.86,4.21-1.75,1.75-4.56,3.5-2.45,1.4-2.1-.35-5.61,1.4-3.85,2.1-11.92,1.75-2.1,1.05-5.26-.7-3.5-2.1-4.21,2.45-3.85v-3.5l3.15-3.15-2.45-4.21h-5.96l-1.4,3.5-2.1-2.45-1.75,1.4,2.45,3.15,2.45,9.46,2.1,3.15-2.45-.35-.7,3.15.35,3.15,1.05.7-3.15,2.1h-3.15l-2.8,3.86.7,1.05h-2.8l-1.05-3.5.7-3.5-.7-1.4-2.45,2.1,1.4,3.15-.35,4.91h4.56l-1.05,2.8,3.15,3.5v1.4l-2.8,3.5,1.4,3.86-.7,1.75-2.45.7-5.61,4.21-5.96,3.15-2.1,3.86-2.45,2.1.35,1.05,5.26.35,1.4,1.05ZM1095.2,376.74v-1.05h-1.4l1.4,1.05ZM1099.76,258.63l.35,1.75,3.86-3.86-2.45-1.4h-2.1l.35,3.5ZM1100.46,264.59l1.05-1.75h-1.75l.7,1.75ZM1107.12,304.19l2.1-2.8-2.8-2.1-2.1,4.91h2.8ZM1105.36,264.24l1.4-1.4-1.75,1.05.35.35ZM1105.01,349.41h1.05v-.7l-1.05.7ZM1105.72,292.63h2.8l.7-1.75-.7-.7.35-2.45-2.8,2.1-.35,2.8ZM1106.77,286.67l1.75-.7-1.75-5.61-.7,4.21.7,1.05v1.05ZM1111.32,286.67l1.05-1.05.35-7.01-3.86.35,1.75,2.45.7,5.26ZM1110.27,353.96h-1.05l1.05-1.05v1.05ZM1113.78,294.38h3.5v-3.5l-3.5,3.5ZM1115.53,263.54l1.75-2.1-2.8-1.05,1.05,3.15ZM1126.04,293.33l.7-.7-1.05-2.1.35,2.8Z"/><path class="cls-1" d="M1137.26,405.48l-1.05-2.45-2.8-2.8-.7-2.45-2.45-.7-3.5-4.21.7-3.5,1.4-1.4-.7-2.45h-2.1l.35-1.75-1.4-4.56-6.31-2.1.7-3.15-.7-.7,6.66-5.96v-5.26l2.8-1.4h3.5l-1.4-1.75h-3.15l-1.75-1.05,4.56-2.45.7-4.91,1.4-2.8-1.4-1.4-2.1-5.26,2.1-4.56,1.05-.35-.7-4.91,2.45-3.86.35-5.26,1.75.35v2.8l1.75-3.15-.7-9.46,2.45-2.1,5.61-.35v-5.96l1.05-5.96,2.45-.35v-3.5h-1.05l-.35-3.15,2.45-2.45-2.8.7-.7-5.26,2.45.35,1.75-3.15h-1.75v-2.1l1.75-1.75-3.15-3.15,2.45-2.1-2.45-1.75-1.4-2.8,1.4-1.4-1.75-2.8-.35-3.5,1.75-4.56-4.21-2.45h3.5l-.35-2.8-1.75-.7v-2.45l-2.45-.35v-3.86h2.45l1.05,1.4h1.05v-1.75l-4.91-4.56-2.8.35-3.86-9.81-1.75-8.41.7-1.75-.35-5.26-3.5.35-.35-3.15,5.26-4.21h5.61l24.53-4.21,2.45,2.8,1.75,7.01,1.4-2.1,4.56-2.8h-2.45v-1.75l3.85-.7,4.91-4.21,3.86,2.1,2.45-1.4,7.01,2.45,3.15-.7,2.1-1.4,4.56-.35v-2.8l3.5.35,2.1,1.75,4.56-1.75,2.8,4.56,4.91-1.05,2.1-1.75,3.86,5.26,2.45-4.21,1.75,6.66,2.8,1.4,4.21,11.22,5.61-.35,7.71,5.26-2.8,11.57-3.15,7.01-1.75,7.71.7,3.86-2.8,8.06.35,2.8-1.75,3.86.7,2.1-2.8,6.31-3.15,11.57.35,4.56-2.1,5.26-.7,12.62,3.5,9.46-1.4,3.15,1.4,1.4-2.1,2.1-2.45-1.05,1.75,3.5,5.26-.35v2.1l4.56,6.66-2.8,3.5-2.1,1.05,2.1,4.56-.35,1.05,1.4,4.21-2.1,2.45,4.56-1.4,1.05,1.05v2.8l-3.15,7.71,3.85-.35,4.21,1.4-1.75,2.45.7,6.66,4.21,3.15-2.1,2.8-1.05,4.21,4.21.35,3.5-.7v-2.1h2.45l-.35,3.86,1.05,3.85v3.5l-3.86.35,1.05,2.45-3.5,3.15-6.66,2.8h-3.15l-.7-3.15-2.45,2.1,2.1,1.4-2.8,1.4-10.86.35-7.01,2.45-2.1-1.05-4.56,1.4-7.71-1.05-3.85,1.75-3.86.35-7.36-2.8-1.4-1.75-4.21-1.4-2.45,2.1h-6.31l-1.05,1.05h-19.28l-7.01.7-8.06,2.1-7.36-1.4.35-3.5ZM1132.35,330.83h1.05l-1.05-1.4v1.4ZM1137.61,373.59l3.5-3.86,9.46,2.45,4.21-1.05,8.41-9.11,1.4-3.85h2.1l.7-2.1,1.75-1.75v-2.1l5.61-15.77,6.66.7,1.75,3.86.7-3.86,2.1-2.8.7,3.15-.35,3.15,1.75-.35,2.45,2.8-4.56,3.5,5.26,2.45-.7,2.45-2.1,2.45.7.35,4.21-2.45,4.56,8.76,4.56,2.45,4.91.7.7,2.45,3.5-1.75,1.05,1.4,4.21.35,6.66-5.61v-1.4h-1.75l-1.75,1.4-2.1-3.5-.35-3.5,1.4-.7-1.75-2.45.35-1.05-2.8-1.05-.35-5.26-2.45-2.8v-7.36l-4.91-8.76-.7-3.86-1.05-1.4-3.15-12.97-1.75-3.15,1.4-1.4-1.4-.7-2.1-9.46-1.05-1.75v-3.85l-1.05-2.45,4.21-4.91-2.8-3.15,4.21-3.5v-8.76l2.8-9.46,3.5-6.31.35-3.5,2.1-5.26,1.05-5.61-.35-2.8,2.45-3.85,1.4-7.36,2.8-8.41-5.26-1.4-3.15.35-1.05,1.05-6.66-1.05v.35l-5.26-.35-2.1-2.8-2.45,2.45h-3.15l-4.56,1.75h-3.85l.35,5.26-.7,1.4v6.66l-2.8,4.21-1.4,12.97-3.5,4.21-9.46.35-1.75-2.8,4.21-6.31-1.75-3.15-.35-4.56,1.05-1.05-4.21-1.4-.35-2.1-1.4.35.35-3.85-4.91-5.61-8.76,1.05.35,4.21,2.8,4.91-2.8,5.96,2.45.35,2.8,1.75-.35,2.8,2.8,9.81-4.91,6.66,1.75,3.5,2.45-.35-1.4-.7v-2.1l1.4-.35,2.45,3.15.7,7.36,1.75.7-1.75,2.45,1.4.7.35,1.75,4.91-1.05-3.86,4.56,1.05,2.8-1.75,5.96-1.75,10.51-7.36,16.47v5.26l-4.56,8.41-1.75,7.01-.7,8.06-2.1,4.91.7,3.85-1.4,5.96-1.75,2.45,1.4,1.05-.35,2.45-1.4.7-3.15-1.4-.35,2.1,3.15,2.8-1.4,1.05h2.1l.35,3.5-3.86,2.8,3.5,1.05.7,3.5ZM1135.86,347.65v-1.4h-1.05l1.05,1.4ZM1144.97,238.31l4.21-.7-.7-1.4-3.86-.7.35,2.8ZM1149.17,246.37l.7-3.5-.7,1.4v2.1ZM1161.09,383.75h1.05l1.05-2.45-.7.35-1.4,2.1ZM1172.66,210.62l3.85.7-2.45-2.1-1.4,1.4ZM1181.42,382l1.75,1.4,4.56-2.1v-1.75l-6.66.7-.35-2.8.7-3.15-.35-2.45.7-3.5-1.75.7-1.4-2.1v-2.1l-5.61,2.1.35,5.96,2.45,1.75,1.75,5.61,3.86,1.75ZM1177.21,206.76h1.4l2.1-3.85-3.85.7.35,3.15ZM1178.61,384.45l1.05-.7h-1.05v.7ZM1185.97,378.14v-2.45h-.7v1.05l.7,1.4ZM1205.6,304.55l-.35-2.45h-2.45v1.05l2.8,1.4ZM1207,395.67l1.4-1.4h-1.4v1.4ZM1211.56,283.87l2.45-3.5-1.05-.7-.35-3.15,2.45-6.66-3.86,1.05-1.05,2.1-.35,8.06,1.75,2.8ZM1211.56,268.1h1.4v-1.05h-1.4v1.05ZM1219.27,383.4v-2.45l-1.4-4.21-2.45.35,1.75,2.1-.35,2.1,2.45,2.1ZM1217.16,344.15h1.05v-1.05l-1.05,1.05ZM1220.32,366.93h1.75l2.45-1.4-1.05-1.75-3.15,3.15ZM1225.58,330.48l2.45-1.05.7-2.45-4.91-2.45-.35,4.21,2.1,1.75ZM1228.73,343.8l3.85-4.91-3.5-2.45.35-2.45h-3.5v2.1l-1.4,2.8,4.56,2.8-.35,2.1ZM1231.18,252.32l11.57-2.1-.7-9.46h-1.75l-1.05-2.45,1.75-.35,1.4-2.1-2.8-4.21-2.8-1.75-.7-1.75-4.91-3.5-.35,4.91-3.85,10.16,5.26,2.1-.7,9.81-.35.7ZM1230.83,363.07l2.1-.7-.7-3.15.35-2.45-4.56.7,2.45,1.4.35,4.21ZM1231.53,259.33l4.21-.7-.35-3.86-4.21-2.45-1.75,2.8,2.1,4.21ZM1248.71,392.51l1.4-4.56-3.86-2.45-.7-2.8h-3.5l-.35,2.1-3.86-.35v-.7h-2.1l-1.05-1.4-3.86,2.8.7,5.61,1.4,3.85,5.96-.7,6.31.35,3.5-1.75ZM1231.88,326.98l1.4-2.8h-1.75l.35,2.8ZM1231.53,348.7l2.45-3.15-1.75-2.45-.7.35v5.26ZM1232.59,356.06h2.8v-2.8h-2.8v2.8ZM1234.69,359.22h1.05l-1.05-1.05v1.05ZM1235.74,350.46h1.4l-.35-2.8-1.05,1.05v1.75ZM1239.24,365.53v-3.85l1.05-1.05-.7-.7-3.15,1.4.35,3.5,2.45.7ZM1239.24,380.95l2.1-2.1-2.1-3.15-1.4,1.05,1.4,3.5v.7ZM1241,229.54h1.05v-.7l-1.05.7ZM1243.45,373.94l1.05-2.45,2.1-1.05-.7-.7-3.86-.35-1.05,2.1,2.45,2.45ZM1245.55,237.6l.35-3.5-1.4,2.45,1.05,1.05ZM1244.5,378.14l1.05-.35v-2.1h-1.05v2.45ZM1247.66,400.92l3.15.35-1.05-1.75-2.1,1.4Z"/></svg>