<?xml version="1.0" encoding="UTF-8"?><svg id="Layer_1" xmlns="http://www.w3.org/2000/svg" viewBox="0 0 1336.1 599.42"><defs><style>.cls-1{fill:#fff;}</style></defs><path class="cls-1" d="M67.07,385.28l-2.54-.85v-1.02l-.85-.34-.34-1.19-1.53-.51-1.53-1.87-1.19-.34.34-.51-2.54-1.53.51-2.37-1.19-1.02-.17-1.19-1.19-1.36.17-.85-1.19-1.36,1.02-.34-.85-1.87-4.24-3.22-.68-2.54-1.02-1.36.17-1.19-.85-1.53-.68-3.73.17-1.7-1.87-.68,1.19-.68-2.04-1.53,1.53-3.9-1.36-3.05.34-2.37-.85.17-1.02-.51,1.7-1.53-.17-.85,1.36-3.39-.68-1.7-1.02,1.02-.68-1.19.51-.51-.85-.85,2.38-1.7-3.9-.68,1.19-1.19v-4.41l1.36-2.21-.51-1.19-.34-2.88.34-1.87.85-1.7-1.02.34.17-1.19-.51-3.73.34-6.45,1.36-.68-1.36-1.19,1.02-1.02,1.02-4.75-.68-.68.68-1.36-.68-2.21.68-2.04,1.02.17v-1.87h-1.87l.17-2.54,1.19-1.7v-1.02l1.19-1.02-.51-3.73,2.38-2.04v-2.21l.85-2.88,1.02-.85,2.54-4.24,2.71-2.71v-1.02l.68.17,1.53-1.7h.68l2.71-1.53,1.02-1.19,3.22-1.19,4.07-.51,1.36-.68,2.88-.34,2.88.17,3.05,1.02,3.73,3.22h1.7l2.38-1.36v1.87l.85,2.04,1.87,1.7.85,2.37,1.87,2.88,3.39,3.73.68,5.09,4.24,4.07,1.19,2.21,2.88,6.45,2.21,7.13.68,6.96.68,1.02-.68,3.22-7.3,3.9-1.53-.34-3.22.68-2.37,1.87-5.6-.34-2.37-5.43-.85-.34-2.04-2.21-1.36-.17-.68,1.36h-1.02v.51l1.19.68v1.87l-.68,1.36.85,1.36-.68,3.22-.85,1.02.51,1.19.34,5.43-.85,1.36.68,1.19,3.73,1.19.51.68,2.88,1.36,8.82,1.53,3.73,1.36,1.02,4.92,1.53,1.53.68,1.7,1.02.85,1.53,2.21,1.19,4.07h-.85l-.34,2.38.85,1.19,2.04,1.19,1.53,1.87-.68.51-.34.85.34,1.7-.85.85-.51,1.53-.68.68-.51,1.36-.51,4.07-.85.51-1.19,1.53.85.51-1.36,2.88-1.19,1.02-1.19,2.04-.85,2.88-1.7,1.02-1.02,1.19-.17,1.7-2.88,1.7-.68,1.53-3.73,2.54-2.71.68-2.04,1.36-3.05-.17-2.21.85-7.13-.17-5.77-1.19-1.02-1.19ZM44.68,330.82h.68l.51-1.7-1.36.34.17,1.36ZM45.87,290.62l1.19.17-.68-2.54-.51,2.38ZM68.94,364.24l1.53.68,1.7-.85,3.39-.17,1.36-.51,4.58-.17,6.45-4.07.68-1.36,1.36.17.34-.51,1.53.17-.17-1.36.51-.34v-1.36l-.51-.34,1.02-2.71.85-.68,1.36-2.21,1.02,2.21-.17,1.36,2.21.68-2.21,1.19,2.54,3.22-2.21-.34v1.36l-1.36.68-.51.68h-.68l.17-1.7-.85-.68-2.04,1.19-.34,2.04.51.68-.51,1.53,2.04-.68,1.19-1.7,2.21-.34-.68-.51,2.71.17-.34.34.34,1.7.34-.17,1.36,2.54,4.07-2.38-.34-1.02-1.87,1.02-.34-.51-1.36,1.02-.68-3.05-.85-1.02.68-.85v-1.53l.68-.17.17-1.36-2.04-3.9,1.19-2.04v-1.19l-1.36,1.19-1.02.17-1.36-1.19.68-.68v-1.02l-1.19-1.02,1.36-.51.34-2.04-.51-1.7.17-1.53-.51-1.87,1.53-1.19-1.19-1.19-3.73-1.19-1.7.17-2.21-.85-2.37-.17-2.21-1.19-2.71.34-.17,1.7-1.02,1.53-.68,4.24-1.36,2.38-.85,2.54h-.68l-1.87,2.04v.68l-2.04,1.36-2.37-.34-2.54.34-3.22-2.54-2.04-3.9.51-2.04-.51-2.21.34-6.96-.68-1.87.17-1.53-.68-2.04,1.53-.68-.34-6.96,1.19-1.36-.85-1.19.51-.34-1.02-.85.51-3.73v-13.74l-.34-1.19.51-1.87.68-5.77-.34-2.37,1.36-4.41,1.19-.51v-1.02l3.22-4.07,1.87.34.34-.34.85.17,2.04-.51,3.73,2.21,1.53,1.7,1.87,3.56,1.36,1.19v1.87l.68,2.54v1.36l.51,1.36,5.26-.85,2.38-.85,1.53-2.04-2.21-2.21,1.02-.68-.85-2.04v-4.75l-.51-1.7-.51-.34v-1.02l-.51-.68.34-.85-2.88-4.24-.17-2.04-1.7-1.53-.51-1.19-.85-.34-2.04-2.04-.68-1.36-1.36-1.36-1.87-.34-.51-.68-3.22-1.02-2.88.34-1.7.68-3.9.68-6.45,4.24-2.21,2.54-3.9,5.6-2.21,6.96-1.02,1.7.17,1.87-1.02,6.11-.34,8.14.51.68-.68,3.9-.68,1.19.34,3.39-1.02,3.73.51,2.21-.51.51.51,2.54-.17,5.09.34,6.96-1.19,2.38.34,7.29,2.21,6.96-.17,1.53,1.36,1.02,1.36,5.94,3.22,6.96,1.87,1.53,1.87.68,1.02,1.36,5.43,2.88h1.53l2.38.34ZM48.07,277.55l.34-.51-.34-1.7-.17.17.17,2.04ZM64.53,314.37l.34-4.41h-.68l-.34,3.9.68.51ZM67.07,319.12l1.36-.34-1.36-1.87-.51.68.51,1.53ZM66.73,281.29l.34-.51-.34-.34v.85ZM67.07,369l1.02-.34h-.51l-.51.34ZM69.45,340.32l1.02-.68-1.19-2.04-1.36.34.17,1.19,1.36,1.19ZM68.77,286.54l1.02-1.02.34-4.24,2.54-1.36-1.7-1.7h-.85v1.19l-.85,1.02.34.85-.34,2.37-1.19,2.54.68.34ZM71.48,336.25l.85-1.7h-1.02l.17,1.7ZM73.35,288.58l1.02-1.36.51-1.7-.51-2.04-1.7-.51-.85,1.7.51,2.04,1.02,1.87ZM71.82,368.83l1.19.17.68-.51-1.87.17v.17ZM74.37,278.23v-.68h-.34l.34.68ZM75.56,322.34l.34.17,1.36-2.71v-4.58l.51-.51-.68-4.07h-1.53l-.34,3.56.68,2.21-1.36,2.54,1.36,1.02-.34,2.38ZM76.23,303.34l-.34,1.02,1.19-.34.17-1.53-.51-1.19-.51,2.04ZM82,303.17h.51l-.51-.68v.68ZM84.38,381.55l1.36.51h2.71l3.56-3.73-2.04-.17-1.19-.68-3.05,1.7-2.37.34-.17,1.53,1.19.51ZM87.26,293.33l1.19-.34,1.53.17,2.54-1.19,1.87.17v-1.87l-1.36.17-4.24,2.04-1.36.17-.17.68ZM91.67,363.91l.51-.68h-.51v.68ZM93.37,308.94l1.02-.85,1.7-.68-1.36-.85-2.04.17v1.19l.68,1.02ZM95.23,375.95l3.39-2.04-.17-2.21h1.02l-.68-2.54-1.87-.51,1.53-2.38-.51-1.87-2.54,1.02,1.19,2.88-1.87,1.19v6.45h.51ZM95.23,363.91l1.36-.68-.68-2.21-1.02.51.34,2.37ZM97.27,354.58h-.51l.51-.34v.34ZM98.46,344.06v1.19l4.41-.17-.34-.68-1.53-1.02-.85-2.04-1.87,1.19.17,1.53ZM100.15,288.92h1.02l-.51-.51-.51.51ZM100.32,366.11h1.36l1.02-1.19-1.36-.68-1.19,1.02.17.85ZM102.19,350.84h.51v-.51l-.51.51Z"/><path class="cls-1" d="M153.09,376.97l-.51-.51-3.39-.85-.68.51-3.73-1.19-2.38-2.38-2.54-1.19-2.38-2.04-1.53-2.88-4.07-1.7-1.36-1.36-1.53-.85-.17-1.36-2.21-.85-1.7-2.88-1.7-1.36-.85-1.87-.34-2.21-2.21-3.73-.51-2.21-1.02-1.02-2.37-5.6-.85-1.36.51-5.43-.17-1.87-.68-.85.51-2.21v-5.43l-.34-2.21.85-1.36-.34-.17,1.7-1.87.34-3.56-1.19-1.87,1.7-.68-1.7-2.21,1.19-.17-.51-.51v-2.04l-.34-.34.34-2.21,1.7-.85-1.19-.85.34-3.05,1.19-2.37v-1.7l.85-.17-.34-2.54.68-.34-.51-1.53,2.54-2.38,1.02.17,1.19-.85.17-2.04,2.88-2.37,1.02.51.34-1.36,2.54.68-.51-2.04,2.88-.34,3.22-1.19.85.68,2.21-1.7h2.54l.85-.34v2.71h-5.43l-1.36,1.53-1.87.17-.85-.68v1.36l-1.19.51-3.05,2.71-.85,2.21-1.7,1.87-.51,1.36-1.19,1.53-.17,2.21-1.53,3.22v2.71l-.51.68.34.85-.68,2.04v2.04l-1.02,4.92-.68.85v.68l1.36-.17v1.53l-.85,7.29-.51.85.85.51-.34,2.04-.85,1.87-.34,2.54.68,3.56.51,6.96,1.36,2.21,1.19.34,2.04,7.46,1.02.51,2.37,4.24,2.88,2.04.85,1.19,3.05,2.88.17,1.87,1.53.34,2.54-.34.68.68,1.02-.68,5.94.51.68-.51,1.87.17.68-1.36,1.7-.17,3.05-1.19,1.19-2.37,2.21-.85,2.88-2.71,1.02-3.9,1.36-2.37-.17-1.02,1.19-6.11,1.02-1.53v-2.37h.68l-.85-5.26.17-4.58.68-.51-.68-5.6.51-1.7-.34-6.62.68-2.54-1.53-7.13v-9.5l-1.53-1.53.17-3.05h1.19v1.02l-.68,1.53.85,1.36,2.04.34,1.19,1.02.85,2.37,1.19.17,2.04,2.37.85,1.87,3.56,3.22,1.19-.85,2.04,3.9.34,3.22,2.04,4.07-.68,3.05,1.19-.17-.17,1.7,1.53,1.7v3.39l-.51,2.37.17,2.38,1.19,1.36-.85,2.04-1.02,1.19,1.53,1.02-.85,1.02-.51,1.7.17,1.53-.51,1.53.51,2.38v4.24l-.51,3.39-1.19,4.92v4.07l-1.87,4.41-1.36,4.75-2.04,2.71-.51,1.53-1.7.68-2.71,2.04-2.54-.34-.34-.34-2.54,1.7h-2.37l-1.53.68h-1.53l-1.02-.51-2.54.51-1.19-.34-2.04,1.36-2.21-.85ZM120.68,300.12h.51v-.34h-.51v.34ZM122.89,289.6h.34v-.51h-.34v.51ZM130.01,283.66l1.7-.34-1.53-.17-.17.51ZM135.78,343.55l-2.37-3.05-.17-3.73.85-1.02-.68-1.53v-2.21l-.51-1.02-.34-2.71.17-6.62.34-1.19-.34-1.7.51.17v-3.39l1.19-.68-.51-.85.85-.34-.34-1.87.34-.68v-2.71l1.19,1.02.51,1.02,1.02-1.87.85-.17,1.02,2.88-1.87.85.68.68-.85,2.21,1.7.85-.68,1.36-1.53,1.02,1.36,1.02.17.85-1.36-.17v.51l.85.85.85,1.7h1.19v-2.21l-.51-2.21.51-1.53h.34l.17,1.36.68-1.53-.85-1.02,2.71-1.36.68.34.68-1.36,1.36-1.02-1.7-4.75.17-1.36-1.19.17-.51-.85.34-1.7-.51-1.87-3.39,1.87-.51-1.53,2.21.34-.85-3.22.34-2.37.68-1.53.85,1.19,1.36-1.87,2.21.17,1.87,1.02h1.87l.85,1.53,1.02.68.17,2.21.34.17,1.02-1.19.85,2.21.17,1.53-.51,4.41-1.87.85,1.36,1.02-.17.51,1.02,2.37-.17,2.54.68,3.39-.68,1.02.68,4.07-.51,4.41h-.51l.34,4.58-.51,3.05.17,1.7-.68,1.7-.51,3.05-3.05,1.87-3.39,1.02-.68,1.02-8.14-1.19-.34-1.19ZM135.61,316.74h.34v-1.02l-.34.51v.51ZM142.4,300.46l1.02-.34-1.53-.34v.34l.51.34ZM143.59,342.36l.85-.68v-.51l-1.02.51.17.68ZM144.43,316.23v-.51h-.34l.34.51ZM144.94,305.38l.68-1.02-.17-1.53.85-.51-1.02-.68-.85,3.22.51.51ZM145.62,306.56l1.02-.51.51-1.19-.51-.85-.51,1.53-.68.51.17.51ZM149.69,371.37l.68-.68-1.87-1.53-1.19.51.17,1.02,2.21.68ZM156.82,281.79l-2.21-.34-2.54-1.36-.51,1.53-2.04-1.53,1.36-1.36,4.41.68,1.19,1.02,1.7.17,1.19-.51-1.19,2.21-1.36-.51ZM152.58,365.43l.51-1.36h-1.7v1.02l1.19.34ZM152.07,369.67h.51l-.51-.34v.34ZM159.7,373.92l1.87-2.04-.51-.34-1.19.34-3.05-.17,1.36,1.7,1.53.51ZM165.98,373.07l1.19-.68,1.53.17,1.87-1.87,2.04-.85.85-2.21,1.7-1.19.68-1.02-.17-2.71.68-1.87,1.02-5.77.85-1.02.51-2.54-.34-1.7-1.02-2.04,1.19-1.87v-1.7l1.53-1.53-1.19-2.04h-2.88l-.68,1.7-1.02-1.19-.85.68,1.19,1.53,1.19,4.58,1.02,1.53-1.19-.17-.34,1.53.17,1.53.51.34-1.53,1.02h-1.53l-1.36,1.87.34.51h-1.36l-.51-1.7.34-1.7-.34-.68-1.19,1.02.68,1.53-.17,2.37h2.21l-.51,1.36,1.53,1.7v.68l-1.36,1.7.68,1.87-.34.85-1.19.34-2.71,2.04-2.88,1.53-1.02,1.87-1.19,1.02.17.51,2.54.17.68.51ZM169.03,362.89v-.51h-.68l.68.51ZM171.24,305.72l.17.85,1.87-1.87-1.19-.68h-1.02l.17,1.7ZM171.58,308.6l.51-.85h-.85l.34.85ZM174.8,327.77l1.02-1.36-1.36-1.02-1.02,2.38h1.36ZM173.95,308.43l.68-.68-.85.51.17.17ZM173.78,349.65h.51v-.34l-.51.34ZM174.12,322.17h1.36l.34-.85-.34-.34.17-1.19-1.36,1.02-.17,1.36ZM174.63,319.29l.85-.34-.85-2.71-.34,2.04.34.51v.51ZM176.84,319.29l.51-.51.17-3.39-1.87.17.85,1.19.34,2.54ZM176.33,351.86h-.51l.51-.51v.51ZM178.02,323.02h1.7v-1.7l-1.7,1.7ZM178.87,308.09l.85-1.02-1.36-.51.51,1.53ZM183.96,322.51l.34-.34-.51-1.02.17,1.36Z"/><path class="cls-1" d="M230.62,374.93l-3.05-2.38-1.7-.17-2.04,2.21-3.73.17-3.39-.51-3.39.34-1.7-.34-1.53.34-2.71-.34-.68-.68-2.54-.34-1.53-1.36-1.87-2.71-2.04-1.87-2.71-3.56-1.19-.68-3.56-3.9-2.37-1.36-.17-3.39.34-1.36h-.85l-.17-2.54h-1.53l.17-1.7h1.02v-1.02l-.51-.51.51-1.19,1.53-1.02,1.53-.34v2.37l-.51.34.34,2.37.51.68-.85,2.04.68.85-.68,1.53,4.07.68,1.19,1.87,2.04-.34,4.07.17,4.75-1.02,1.36.51,1.02-.51,1.19.51v.85l-4.24.17-.34.51,1.7.85.34,1.53h1.87l.51,2.71.68-.85-.34-2.21-1.36-1.19,2.54-1.36,2.04,1.7,2.04,3.05h1.36l-1.36-4.07-1.53-1.19.34-1.87-1.53-1.87,1.02-1.19h2.04l-3.22-3.05-.34-1.53-.85-1.36-1.36-.68.51-3.22-1.19-2.21,1.02-1.7-.34-2.21-1.19-.85.85-2.88h.85l-.17.85,2.88.85.51-.51-1.19-1.19v-.85l.68.34.51-.17v-1.36l-.51-.51.85-1.53.34-2.54-1.36-4.92.51-3.05,1.02-2.04-1.02-2.21.68-1.19-.51-4.75.68-2.71,2.88.68.34-1.87-.17-5.77.51-.51-1.19-.68v-.85l2.54.85h1.53l.17,1.7h.85l2.37,4.75-2.04,1.19,1.02.17,1.19-.68.34,7.46v5.43l-.85,2.04.17,1.87-.85,1.36.17,5.94-.34,1.7.17,3.39-.51,3.73-1.02,2.71-.51.17-1.02-1.36.17-.51h-1.36l-1.36,1.02-1.19,4.58.68,2.71,1.36-.68.51-.85h.68l-.17.68,1.53.51-.34-1.19.34-2.54-.85-.17-1.19,1.02-1.19-2.54,1.36-.85,2.88,1.19,1.02,3.39-1.53,5.6,1.19,2.38v2.21l-.68.51,1.02,2.04-.17,4.07,4.58,1.02.68-.34h4.24l1.19.34,6.11-1.87,2.04-2.21,2.71.17.17-1.53h1.02l.34-1.7-.34-.68.17-1.87-1.19-1.36,1.02-1.19v-6.11l.34-.85-.17-2.21-1.02-1.7.68-2.37-.68-1.87-2.21-1.7,1.87-1.02,1.36-3.39-2.37-2.71,2.54-.34-1.19-2.04,1.02-1.87-2.88-.68,1.87-1.19-1.36-.51.17-.51,1.02-.34,1.36-4.92v-1.02l.68.17.85.85,2.04.17-.68-5.43-.68-.34,1.36-1.02-1.02-2.88h-2.71l.34-3.39-2.21-1.53-1.19-3.05-1.19-1.19.17-2.21h.68l.85,1.19,1.36.17.68-1.36.51,1.02.17,4.24-.68,1.02,1.87.85,1.02,3.05h1.02l1.53-2.37,1.87-.68-.17-1.7.34-1.53-2.54-1.02-2.04-1.7-2.37-2.71-1.36,1.19-.34-2.54-1.36-1.36-1.87-.17-1.19.34-1.36-1.7,1.19-.51,1.7-2.71,3.22,2.71,2.37,1.02,3.9,5.09,1.7.85.68,1.02,1.36.51,2.88,4.92.68.34,1.53,1.87.17,2.54.68,1.19v.85l-.85.85.68,2.71.34-.17.17,2.37-.68,1.7,2.04.51-.34,2.54-.17,5.94-.68,1.7-.34,3.22.34,4.92-.68,4.07.17,2.21-.34,1.36.68,1.7-1.02,3.05.51,2.21-.68,2.54.34,2.04-1.02,3.39,1.02,1.53-1.53.17,1.53.85v17.98l-.85.34-11.37.68-3.22,1.19-8.65-.68-1.87-1.02-1.53-.34-1.7-1.36ZM188.71,337.95v-1.02l-.51-.51.51-1.87,2.04,1.53.34,1.02v2.38l-2.71,1.36-.85-2.37,1.19-.51ZM188.71,332.69l1.53-2.54-1.53-.51.51-1.87,2.04.51v3.56l.51.17-.34,2.54-1.7-1.87h-1.02ZM189.9,324.89l-.34-1.7.34-2.21-1.02-.68.68-1.02,1.7-1.36-1.53-.68,2.54-1.87-1.19,7.13.85.85-.68.34-.17,3.05-1.36-.85.17-1.02ZM190.41,303.85l1.7-.17-1.36-.68h-.85l.51-2.88,1.53.85,1.02-.17.51,1.53-.51,2.21.17.85-3.22,1.7.17-1.02.34-2.21ZM200.25,280.95h-5.26l-1.87.85-.68-2.54,1.36-.34,5.43.68.34.51,3.56-.17,1.87.51,1.19.85-.51.51h-1.7l-.51-.68-1.53.85-1.02-.68-.68-.34ZM199.4,361.36l1.53.17.17-1.36-1.02-1.36h-1.36l-.34,1.87,1.02.68ZM204.66,364.08h.51v-.51h-.51v.51ZM212.12,370.86l2.04-.34-.17-.68-2.37-1.02-1.19,1.19,1.7.85ZM216.2,320.31l1.02,3.9,2.04-1.87,1.19-3.56v-5.26l-2.54.17-.34-.34-1.53-.17-.85,2.37.85,2.37v1.53l.17.85ZM216.2,366.28l.51.17v-1.53l1.19-.17v-.68l-2.04-.17-.51,1.7.85.68ZM215.86,310.97l1.53-.85v-2.21l-.68-.17-.85,1.02v2.21ZM217.38,326.41l.51-.51v-1.02h-.34l-.17,1.53ZM218.4,349.32l.51-.51v-1.02l-.51-.68-.68.85.68,1.36ZM218.91,336.93h.68v-.51h-.68v.51ZM219.59,310.64l.51-.17v-1.02l-.51.68v.51ZM234.69,280.95l-4.58-2.21h-2.38l1.19-1.36h3.39l.68,1.87,1.7-.68.34.85,2.37,1.87.17.51h-1.53l-.68-1.02-.68.17ZM235.37,365.43v-1.87l-4.24-.17-.34,1.36h3.56l1.02.68ZM245.04,320.64h.85l-.34-.68-.51.68ZM247.92,373.41l3.73-.34.85.68,1.53-.51v-1.53l-4.75-1.19-.34,1.87-2.21.85,1.19.17ZM250.3,305.88l.68-.68h-.68v.68ZM250.97,303.68h.34v-.68h-.34v.68ZM255.89,322l.51-3.22.85-1.7-.68-.68-.34-2.04.34-2.38-.51-2.54,1.53-.85.68-1.36-1.7,1.19-1.36.34.34-2.37-1.19-1.87-.34-2.04-1.02.17-.51,1.02.85,4.07-.17,3.05-1.02,1.7,1.53,2.71-.17,4.41,1.02-.51,1.02.17-2.54,1.36h2.21l.68,1.36ZM252.33,340.32l-.17,1.02,1.19.34,1.7-.34.17-1.53-1.53-2.37-.85-.34-.51,3.22ZM253.52,344.06l1.19-.17-.17-1.02h-1.19l-1.02.68,1.19.51ZM254.71,346.26l-.17-1.19-1.87-.17,2.04,1.36ZM255.55,328.28l1.02-2.88-.34-1.53h-3.22v1.53l1.19-.17-1.19,1.02,1.02,1.02v2.21l-.68.34,2.21,2.88v-4.41ZM258.27,357.29l-1.02.17v1.02h.51l.51-1.19ZM257.25,367.81h.51l.68-.85-1.19.85ZM257.76,311.48l.51-.51h-.51v.51ZM257.76,373.24h.51v-.68h-.51v.68ZM258.27,369l.51-.68h-.51v.68Z"/><path class="cls-1" d="M288.64,376.8l-2.88-1.87-5.94-2.54-.68-1.02-4.75-2.88-1.19-2.54-5.09-5.26-1.36-2.04-.51-2.04-1.36-2.71.34-.68-1.19-1.7-1.02-6.11-.34-4.24.34-1.02-1.19-3.39v-14.25l.51-1.53-.51-2.04-.17-5.94-1.19-1.87-.34-2.71-1.7-1.7-1.7-3.39-2.54-3.56v-1.19l.68-.68,1.7-8.65.17-4.92.85-2.04v-.85l1.36-.34,1.7-1.19,2.71-.68,2.37-1.19-.85-1.7.34-1.53v-8.14l.34-1.19-.34-2.04.51.34,2.54-1.19,2.54.17,1.02-1.02h2.71l.34.51h2.71l.68.85,1.36-.85,3.22.34,2.54-.17,1.87,1.36h2.54l1.87,2.21v1.7l1.36.34v1.02l.51.68v1.02l2.21,1.87-.34,2.37.51,1.19,1.19.17.51,1.36.17-1.19.68-.34-.68-.51v-.68l-.68-.85,1.53-.85h1.19l.51,1.87,1.7,1.87v.68l.68.51-.68.51,1.7,2.54,1.19.17,5.09,3.39,1.7.34,1.7,2.04h1.02l3.22,3.22h1.7v4.58l-1.19,2.04-.51,3.05-.17,6.45-.85,2.04-3.39,1.7-3.39.34-1.19.68-.85-.17-3.22.68-.68,1.36v1.19l-.68,1.87v3.05l.51,2.21-2.38,1.02.17,1.19,1.02,1.53.34,6.79-.34,1.7.68.68-.51,2.04.17,1.36-1.7,4.41.68,2.04,2.21,3.9,1.36.85,2.71,4.92h1.02l.51-1.19,1.19,3.9,2.21,1.02,2.21,2.04-.17,5.26-.85,1.7.17,1.7-1.02.51v.85l-.85,1.19,1.7,1.19-.85.51-2.21,2.88-1.53.17-1.19,1.87-2.21.17-.85.68-2.88,1.02-6.28-.34-4.24-1.53-2.38-.17-1.02-.51ZM283.21,362.89h1.36l.51-.51.34.68,1.36-.17.51-.51,4.58-1.36,3.73-2.21,1.7-3.39-.17-.51.68-2.21,1.19-1.02-4.24-7.13.17-.34-2.71-3.56-2.71,1.02-3.39-1.19-1.19-2.71-.85.68-1.19-3.22-.34-5.77h-1.19l1.02-8.31-.34-1.36.51-.68v-.85l.85-1.19.51.34,1.19-1.87.68-2.71-2.37,1.7-.34-.68.34-.51v-2.54l-.51-1.53.68-3.73,1.53,1.53.34,1.36-.34,1.87,1.7-.17.17-.68,1.87-.68,1.7-1.19.68.17,1.53-1.19h2.04l-1.19-1.53.68-2.21-.85-.68-5.77.68-.68.68.85,1.19-4.24.17-.85-1.7.34-1.87,1.36-.68,1.19-1.53,3.73.51,1.53-1.02,1.02.85h.85l.68.85.85-1.02-.51-1.19,1.53-1.19-.34-1.7-1.02-1.7,1.19-2.54.34-3.56-.34-6.96-3.73.68-2.37-.51-1.7.17-1.53-.51-2.54-1.7-.17-.51,1.02-7.8-.68-3.56-2.21-.34-3.56-1.19-2.38.34-1.19-.34-1.36.68-1.53,3.22v2.88l-.51.85v4.07l-2.21,2.37,1.53,1.19-.85,2.04-.85.34-2.21-.51-3.56.34.17,1.53-.51.51-.34,2.04-1.19.51v.51l1.36.85-1.02,1.53.17.51-.51.85.17,2.04-1.19,1.19h1.02l-.34.68-1.36,1.02,2.88,1.36,2.04-.85,2.88.17,1.19.68.85,1.02-.85,1.02.17,6.79-1.19.85.17,1.19-.34,1.7.17,1.53.68.17-.68,1.36.68.51-.68,1.19.51,3.05-.68,2.88.17,1.19-.68,4.75,1.36-.17-.34,1.02,1.36,4.07-.17,1.87-.85,2.04v1.02l-.85.51,1.19,1.19-1.02,1.53.68.51-.51.85,1.02.34v1.02l.51.68-1.7,1.19,3.05,3.22.85,6.45,4.24,4.58,2.71,1.19,2.38,2.04h2.54l.51.85ZM269.13,266.53h.68l-.17-.51h-1.02l.51.51ZM285.58,368.66v-1.02l-1.19-1.02h-1.53l1.36,1.19,1.36.85ZM286.77,337.44h.68l1.19-1.02-1.02-.51-.34.85-.51.68ZM288.47,273.31v.68h.85l.51-.51v.51l-.68.34.68,1.7.85-1.19,1.36-.34,1.53-2.21-2.54-1.53-1.19.17v2.04l.51-.17-.51.68v-.51l-1.36.34ZM290.33,325.9l1.19-.34-.51-1.02-.51-.17-.17,1.53ZM293.73,365.26l.51-.68-.68.51.17.17ZM295.25,302.83l1.02-.51h-1.02v.51ZM296.44,307.41v-.85l-.68.51.68.34ZM301.87,305.72l.85.17-.17-1.36-2.88-1.53-1.87.17-.68.51,2.54-.17-.34.85,2.54,1.36ZM301.19,300.63l1.19.68.68-2.21.17-2.71-1.36-1.02.85-1.36-1.87-1.7h-1.87l-.68.51,1.02,1.02-1.02,1.36,1.19.51,1.02,1.7-.68,1.53v1.53l1.36.17ZM300.68,290.96l.51-.51-1.7-2.37,1.53-.17,1.36-1.02-1.36-4.24-2.21,1.53,1.36,1.19-1.19,2.88.17,2.38,1.53.34ZM304.25,356.95h.68l-1.19-.34.51.34ZM306.28,366.28l.68-.17-.68-.68v.85ZM311.88,292.99l1.36-.34-1.02-1.19-.51.68.17.85ZM312.9,294.69l.17-.34h-1.36l1.19.34ZM311.71,296.38h.51v-.68l-.51.68Z"/><path class="cls-1" d="M336.65,374.59l-1.53-.51-1.53.68-1.02-2.04-2.04-.17-2.21-3.73-3.05-1.53-5.77-6.45-.68-2.71-1.36-1.36.17-5.6.51.34-.51-4.58-.51-.68.68-4.41-.34-1.19.17-2.04v-8.65l.34-1.19-.51-1.53.68-6.45-.34-3.22.51-1.36v-2.37l.85-5.43v-16.63l1.02-2.04-.51-5.43.68-.68,1.02-2.37h2.04l2.54,1.7,4.24-.17-2.88-2.71v-2.54l-1.36-.68-.68-2.04-1.87-3.22-2.37-1.87-.34-2.71,1.87-1.53-2.04-.51-.34-2.37-.68-1.36.51-.68,1.36.17v-1.87l-.51-.85v-1.7h1.02v.85l.68,1.19.51-2.04h.68l-.68,2.54-.85.51,1.02,1.7-1.7.85,2.04,1.02.51,1.36,1.19,1.02.17.85,1.87,1.02,4.92.17,4.24.51,1.7.51.68-2.37v-2.54l.85-1.19-1.36-2.71,1.02-2.37-.85-3.05.17-2.04-.34-1.7.68-.68-1.36-.85-5.6-.17-.51-1.53.34-.51,2.71.34,2.04-.34.68-.51h5.26l.17,1.02,1.19,1.02-.34,1.53,2.04.34-1.87,1.02,1.53,1.53,1.7.17.34.85,1.19.51.17.51,2.21.17.17,1.7,1.19.68v.85l1.19,1.36.17,1.36,2.37,2.88,1.02,3.9,1.53,1.36v2.21l-1.02-.34.68,2.38-1.7,3.39v2.71l-1.02,1.53,1.19,1.53-.51,4.58-5.43,1.02-1.36-.51-2.21.34.34,2.04,2.88,4.07.34,1.19,1.87,1.02,2.21,3.39,2.04,1.36,1.02,2.04-.51,2.54.17,3.9-.51,1.7-.34,3.9-1.19,1.87,1.02,2.37v1.19l.85,2.37v1.53l-1.7,3.9.34,1.53h1.02l-.17,1.19.34,1.36-.68,1.02v3.73l-1.02,1.02,1.19,1.87-1.53,1.02,1.36,1.02.51,3.56-.68,2.88-1.19,2.71,1.36,2.88v11.03l-.51.51-.17,4.07-1.7,1.19,1.7.34v1.36l.68,1.36-1.02.51-1.36,1.53-6.11-1.36-5.43-.17-1.19.68-1.53-.51h-2.04l-1.19.17ZM322.23,246.17l2.88-.34,3.73.85-.17,1.87-1.19-.17-1.87-1.02-2.21,1.36-.17,1.36-1.36-.51-1.7,1.19.68-3.39,1.36-1.19ZM331.73,355.59l1.02.34,3.73-.34,1.19-1.7.17-3.05.51-.51.51-2.54-.85-.85-.51-3.05.17-3.05.68-1.02-.17-1.02.68-1.36-.51-4.24v-9.84l.34-.51-.68-1.02.34-2.21-.34-.51.34-3.9,2.71-.51,1.36.51,2.04-.51-.34-1.36-2.54.34-.68-1.19-2.37,1.87-.34-1.02.68-1.19-.51-.68-.51-6.28v-9.5l-.51-1.53.51-1.87v-3.05l-2.21-.51-1.02-.68-4.24.34-1.87-1.02h-1.36l-.85-.85h-.85l-1.36,3.39.68,2.21-.68,2.21-.85,1.36,1.19.68v2.37l-1.02,1.7,1.19,1.36-.17,4.07.85.68-1.36.68.17,1.7-1.36,1.36.68.51-.85.68.51,3.73,1.02,3.22-2.21,2.21.85,1.02.34,1.7-.85,1.19.17,2.71.68,1.87-1.19,2.21.34,2.37-.17,2.54,1.02,2.54h-1.19l-.51.34,1.36,3.73-.68,2.88,1.19,7.46.85.51,4.75,1.7,2.88.17ZM325.45,361.87l1.7,1.19-1.02-2.04-1.7-1.36-1.02-.17,1.02,1.36,1.02,1.02ZM331.05,275.86l2.54,4.24.85.51.51,1.7,1.7.17,1.7-1.7-2.71-2.04-1.7-4.75-1.87-1.36-2.71.17v1.02l.17-.17,1.53,2.21ZM340.04,250.92v-.51h-.51l.51.51ZM340.72,254.14l1.36-1.19h-.51l-.68.85h-.85l.68.34ZM344.62,350.84l.85.68.17-.85-1.19-4.24v-1.36l-.85-2.04.17-1.19-2.04.85-1.02,1.53,2.37,1.53-1.19,2.37,1.53,2.04,1.19.68ZM343.77,326.41l1.02-.17,1.19-1.7-1.36-1.19v-7.29l-.85-.17-1.53,2.71.51,1.87-.34.68,1.19,1.7-2.54.85,2.88.85-.17,1.87ZM344.28,297.74v-.34h-.51l.51.34ZM344.28,307.92l.51-.34.51-1.87-.85-.85-.68,1.53.51.85v.68ZM344.28,255.84h.85l-.51-.68-.34.68ZM345.13,362.21h.68v-.51l-.68.51ZM346.32,327.94v-.34h-.51l.51.34ZM350.56,357.97l1.02.17v-1.36l-.85-.34-.68-2.04,1.02-.51.51-1.53,1.36-.85-1.36-1.02-.17-3.05-1.36-1.19-1.36-2.71h-.68l-1.7,2.71,1.19,4.41,1.36,1.36.17,1.19-.34,1.19,1.87,2.37v1.19ZM346.83,363.23l.51-.51-.51-.51v1.02ZM348.86,281.79l.51-.51-2.04-.51v.85l1.53.17ZM348.52,298.76h.17l-.17-1.36h-1.19l.68.34.51,1.02ZM350.22,369.5l.85.34-.34-1.7.85-2.88-.51-1.02v-1.19l-2.21.51-.34,2.37.17-.17-.34,2.88,1.87.85ZM349.37,269.92l1.53-2.54h-1.53l-.51.51.51.68-.68.68.68.68ZM350.05,302.49l.51,1.19h.68l.85-2.04-1.19-2.04-.68-.17-1.53,1.02,1.36,2.04ZM350.39,265.34l.34-1.7h-1.36l1.02,1.7ZM349.37,329.13h.68l.17-.51-.68-.68-.17,1.19ZM350.05,334.56h.85l.17-2.71-.51-.51-.51.34-.68,2.21.68.68ZM354.8,312.67l1.02-.51h-.51l-.51.51ZM354.8,335.57l.51-.51h-.51v.51Z"/><path class="cls-1" d="M400.61,374.93l-3.05-2.38-1.7-.17-2.04,2.21-3.73.17-3.39-.51-3.39.34-1.7-.34-1.53.34-2.71-.34-.68-.68-2.54-.34-1.53-1.36-1.87-2.71-2.04-1.87-2.71-3.56-1.19-.68-3.56-3.9-2.38-1.36-.17-3.39.34-1.36h-.85l-.17-2.54h-1.53l.17-1.7h1.02v-1.02l-.51-.51.51-1.19,1.53-1.02,1.53-.34v2.37l-.51.34.34,2.37.51.68-.85,2.04.68.85-.68,1.53,4.07.68,1.19,1.87,2.04-.34,4.07.17,4.75-1.02,1.36.51,1.02-.51,1.19.51v.85l-4.24.17-.34.51,1.7.85.34,1.53h1.87l.51,2.71.68-.85-.34-2.21-1.36-1.19,2.54-1.36,2.04,1.7,2.04,3.05h1.36l-1.36-4.07-1.53-1.19.34-1.87-1.53-1.87,1.02-1.19h2.04l-3.22-3.05-.34-1.53-.85-1.36-1.36-.68.51-3.22-1.19-2.21,1.02-1.7-.34-2.21-1.19-.85.85-2.88h.85l-.17.85,2.88.85.51-.51-1.19-1.19v-.85l.68.34.51-.17v-1.36l-.51-.51.85-1.53.34-2.54-1.36-4.92.51-3.05,1.02-2.04-1.02-2.21.68-1.19-.51-4.75.68-2.71,2.88.68.34-1.87-.17-5.77.51-.51-1.19-.68v-.85l2.54.85h1.53l.17,1.7h.85l2.37,4.75-2.04,1.19,1.02.17,1.19-.68.34,7.46v5.43l-.85,2.04.17,1.87-.85,1.36.17,5.94-.34,1.7.17,3.39-.51,3.73-1.02,2.71-.51.17-1.02-1.36.17-.51h-1.36l-1.36,1.02-1.19,4.58.68,2.71,1.36-.68.51-.85h.68l-.17.68,1.53.51-.34-1.19.34-2.54-.85-.17-1.19,1.02-1.19-2.54,1.36-.85,2.88,1.19,1.02,3.39-1.53,5.6,1.19,2.38v2.21l-.68.51,1.02,2.04-.17,4.07,4.58,1.02.68-.34h4.24l1.19.34,6.11-1.87,2.04-2.21,2.71.17.17-1.53h1.02l.34-1.7-.34-.68.17-1.87-1.19-1.36,1.02-1.19v-6.11l.34-.85-.17-2.21-1.02-1.7.68-2.37-.68-1.87-2.21-1.7,1.87-1.02,1.36-3.39-2.38-2.71,2.54-.34-1.19-2.04,1.02-1.87-2.88-.68,1.87-1.19-1.36-.51.17-.51,1.02-.34,1.36-4.92v-1.02l.68.17.85.85,2.04.17-.68-5.43-.68-.34,1.36-1.02-1.02-2.88h-2.71l.34-3.39-2.21-1.53-1.19-3.05-1.19-1.19.17-2.21h.68l.85,1.19,1.36.17.68-1.36.51,1.02.17,4.24-.68,1.02,1.87.85,1.02,3.05h1.02l1.53-2.37,1.87-.68-.17-1.7.34-1.53-2.54-1.02-2.04-1.7-2.37-2.71-1.36,1.19-.34-2.54-1.36-1.36-1.87-.17-1.19.34-1.36-1.7,1.19-.51,1.7-2.71,3.22,2.71,2.37,1.02,3.9,5.09,1.7.85.68,1.02,1.36.51,2.88,4.92.68.34,1.53,1.87.17,2.54.68,1.19v.85l-.85.85.68,2.71.34-.17.17,2.37-.68,1.7,2.04.51-.34,2.54-.17,5.94-.68,1.7-.34,3.22.34,4.92-.68,4.07.17,2.21-.34,1.36.68,1.7-1.02,3.05.51,2.21-.68,2.54.34,2.04-1.02,3.39,1.02,1.53-1.53.17,1.53.85v17.98l-.85.34-11.37.68-3.22,1.19-8.65-.68-1.87-1.02-1.53-.34-1.7-1.36ZM358.7,337.95v-1.02l-.51-.51.51-1.87,2.04,1.53.34,1.02v2.38l-2.71,1.36-.85-2.37,1.19-.51ZM358.7,332.69l1.53-2.54-1.53-.51.51-1.87,2.04.51v3.56l.51.17-.34,2.54-1.7-1.87h-1.02ZM359.89,324.89l-.34-1.7.34-2.21-1.02-.68.68-1.02,1.7-1.36-1.53-.68,2.54-1.87-1.19,7.13.85.85-.68.34-.17,3.05-1.36-.85.17-1.02ZM360.4,303.85l1.7-.17-1.36-.68h-.85l.51-2.88,1.53.85,1.02-.17.51,1.53-.51,2.21.17.85-3.22,1.7.17-1.02.34-2.21ZM370.24,280.95h-5.26l-1.87.85-.68-2.54,1.36-.34,5.43.68.34.51,3.56-.17,1.87.51,1.19.85-.51.51h-1.7l-.51-.68-1.53.85-1.02-.68-.68-.34ZM369.39,361.36l1.53.17.17-1.36-1.02-1.36h-1.36l-.34,1.87,1.02.68ZM374.65,364.08h.51v-.51h-.51v.51ZM382.11,370.86l2.04-.34-.17-.68-2.37-1.02-1.19,1.19,1.7.85ZM386.19,320.31l1.02,3.9,2.04-1.87,1.19-3.56v-5.26l-2.54.17-.34-.34-1.53-.17-.85,2.37.85,2.37v1.53l.17.85ZM386.19,366.28l.51.17v-1.53l1.19-.17v-.68l-2.04-.17-.51,1.7.85.68ZM385.85,310.97l1.53-.85v-2.21l-.68-.17-.85,1.02v2.21ZM387.37,326.41l.51-.51v-1.02h-.34l-.17,1.53ZM388.39,349.32l.51-.51v-1.02l-.51-.68-.68.85.68,1.36ZM388.9,336.93h.68v-.51h-.68v.51ZM389.58,310.64l.51-.17v-1.02l-.51.68v.51ZM404.68,280.95l-4.58-2.21h-2.37l1.19-1.36h3.39l.68,1.87,1.7-.68.34.85,2.38,1.87.17.51h-1.53l-.68-1.02-.68.17ZM405.36,365.43v-1.87l-4.24-.17-.34,1.36h3.56l1.02.68ZM415.03,320.64h.85l-.34-.68-.51.68ZM417.91,373.41l3.73-.34.85.68,1.53-.51v-1.53l-4.75-1.19-.34,1.87-2.21.85,1.19.17ZM420.29,305.88l.68-.68h-.68v.68ZM420.96,303.68h.34v-.68h-.34v.68ZM425.88,322l.51-3.22.85-1.7-.68-.68-.34-2.04.34-2.38-.51-2.54,1.53-.85.68-1.36-1.7,1.19-1.36.34.34-2.37-1.19-1.87-.34-2.04-1.02.17-.51,1.02.85,4.07-.17,3.05-1.02,1.7,1.53,2.71-.17,4.41,1.02-.51,1.02.17-2.54,1.36h2.21l.68,1.36ZM422.32,340.32l-.17,1.02,1.19.34,1.7-.34.17-1.53-1.53-2.37-.85-.34-.51,3.22ZM423.51,344.06l1.19-.17-.17-1.02h-1.19l-1.02.68,1.19.51ZM424.7,346.26l-.17-1.19-1.87-.17,2.04,1.36ZM425.54,328.28l1.02-2.88-.34-1.53h-3.22v1.53l1.19-.17-1.19,1.02,1.02,1.02v2.21l-.68.34,2.21,2.88v-4.41ZM428.26,357.29l-1.02.17v1.02h.51l.51-1.19ZM427.24,367.81h.51l.68-.85-1.19.85ZM427.75,311.48l.51-.51h-.51v.51ZM427.75,373.24h.51v-.68h-.51v.68ZM428.26,369l.51-.68h-.51v.68Z"/><path class="cls-1" d="M480.34,377.48l-2.04-1.87h-2.21l-.51,1.02-4.07,1.19-3.56.51-4.41-.17-.85.34-1.7-1.19-.85.34h-2.04l-1.02-2.04-3.05-1.02-2.71-2.88.85-.85h-2.21l-1.36-2.54-3.9-2.04-3.73-3.9-.34-1.36-2.38-2.88.34-.51-1.19-2.21.34-.68-2.54-1.36,2.21-.17-1.87-2.71.68-1.36-.68-.68v-1.53l-.51-1.19.17-1.02h1.19l-.17-2.04-.85-.34.17-1.87-.51-2.54.17-2.21,1.36-1.02-.17-2.21-1.19.68-.34-3.05.34-9.84,2.88-1.87-.68-1.19-.17-3.73-1.19.51v-4.24l.68-.85-.51-2.21.51-1.36.51-8.31-.51-1.02.68-3.05.17-5.94,1.02-1.53,5.26-1.53,1.87.51v-.34l2.38,1.19,2.04-1.19,1.36,1.02v1.36l-3.22.68-1.02.68-.68-.17-1.87,1.87h-2.04v1.19l1.87-.34-.51,2.37-.34.17-.17,3.39-.51.68.68.51-1.02,2.54.34,1.87-.34,2.04.34,5.77-.34,1.7.34,1.53-1.19,4.07v9.67l-.34.68.34,2.04-.85,1.19h-.51l-.17.51,1.7.68-.85,1.36v1.87l1.19,1.87v1.19l-2.38,3.39h1.19l.51,4.58-.85.34-.17,2.21-.85.51,1.19,1.53v1.7l.34-.68,1.53-.17.68,2.04,2.21,4.24,3.22,2.21,1.53-.34,2.04.85,3.22.34.17.51,2.54-.17v-.85l4.58.17,1.19-.68.34,1.53.17-2.21,2.21-2.21,1.36-2.04h1.19l.68-1.19,4.24.17,1.7,6.79,1.36,1.36,1.87-1.36,4.41-.85.85-1.7,1.87-.51-.51-1.36-1.02-.68.51-3.73-.85-.68,2.04-3.22-2.04-1.02v-2.71l-.68-.51,1.36-1.36-2.04-4.75,1.36-1.19,1.02-3.73-1.7-2.04,1.19-2.21-1.19-2.21,1.36.17.51.68.17-1.36,1.7-1.02v-.51l-1.19.51.34-4.07-2.04-.85-.85-1.53.68-.17-1.87-1.87.34-1.53,1.36-1.19,1.19-.34-2.37-1.87.68-1.53h-1.02v-2.71h1.02v1.19l.68-.51.85-2.54v-2.71l-1.36-2.71,3.05.68.68-1.19,1.02,1.02v1.02l-.68.51.85.51h1.53l3.05,1.87v1.87l-1.7-1.7-.34,2.04,1.53,1.7,1.02-1.53.51.34.51,1.53h1.02l.17,1.36-3.56,3.9-.85-2.88-.68-.34.17-1.36-.51-.51-1.19.34v1.36l-.85.51-.17,2.88,2.04-2.04.68,1.19.51,2.88,2.37,2.37-.68.68-.34-.85-1.53.17-.51,2.37-1.87,1.19v.85l-.68,1.53.68.68-.51.51.17.51h1.19l.68-.51.51.17v3.73l-1.7.85.51.68h1.7v2.88l-1.02.68v.51l3.56-.85v1.02l-.85.51v.34l.85-.17-.34,3.22,1.19,2.54-.85,2.04-1.53.34-3.22-.34-.85.85.17.68-.85,1.02.68.51,1.53-.51,2.54.17,1.02,1.53,1.87-.34,3.56-5.09-1.53-2.21.34-1.02-.34-1.53-.51-.51v-1.19l1.19-.68,1.36-3.56-.34-.51,1.36-1.53h.85l.34,1.53-.34.34v5.6l1.02,1.02-1.02,3.56.17,1.87,1.7.17-.85.68.34,2.88-.17,7.97-.34,2.04.34,5.09,1.02,2.21-1.02,2.21v3.05l-.85,2.54-.34,4.75-1.36,1.19-3.05,1.02-2.71.34-.51-1.36-.51.17v1.36l-2.04-.34h-8.14l-2.54-1.19-.51-.68ZM438.27,295.54h1.02l.51-.51-.68-.68-.85.68v.51ZM439.8,322.34h1.19v-2.21l-2.21.34v.34l1.02.51v1.02ZM438.95,330.65l1.53-1.19-.34-.51-1.36,1.7h.17ZM448.28,286.54h.68v-.68h-.68v.68ZM464.74,324.21l-.68-.34-1.19-1.53-.34,2.88-1.7-1.19v-2.71l2.38-.68-5.77.34-.51-.68-1.02-.34-.51-2.21-.85-.68v-.68l-1.02-1.87,1.87-3.05,2.04-.17,1.19.51,1.7-.51-.51-2.71-1.36-.17-.68,1.36-.85-1.02h-.68l1.36-2.54,2.04,1.02-.85-2.37v-2.21l-1.36,1.19-2.04-.85.68-1.36,1.36-.34-.85-.68.17-1.36-2.37-2.04.17-1.53-.34-2.37.34-2.71-1.19-2.04.85-.51.85-2.04-1.36-1.19,1.19-2.04,4.41-.17.85,2.37,4.92,2.54,1.19-.85.68.51-.17,1.02,1.02,1.87h-.68l-.17,1.53.85.34-.68,2.88-1.87,2.21,2.88,1.87.17.85-1.36.51-.34.85-1.36.68v.34l1.7.17-.51,1.19.51,1.53.85-.34.51,2.37-1.02,1.19-.34,3.22.34,2.37-2.04.17v.51h1.7l.17.34-1.87,2.21-.68.17-.17,1.53,1.87,1.02,1.02,1.36v3.39l-2.37,1.36-.17-1.19v-.51ZM455.4,334.39l-.85-1.36.34-3.9-.34-3.39.85-.68v-3.73l.85,2.04,1.19.85.17.68-1.02.17-.34,2.38,4.24.85-.51,1.19h-.34l.17-.51-.85.51.85,2.04.85-2.21,1.53.17.17.85-1.53,1.19v1.02l-.68,1.19-1.19-.17-1.53-1.53-1.19,1.02,1.02.51-.85,1.36-.17,1.36-.51.68v-.68l-.34-1.87ZM455.74,344.23l-.68-2.88,2.88-.17-.51-1.02h1.36l1.36.68,1.53-.85-.68-.34.51-1.19.17-2.21,2.21-.85.85-1.36,2.21-.85-.17.68,1.36,1.02-.51,1.02.51,2.54-.17,1.36.34,1.19-1.36.17-1.19-1.02.34.85-.17,1.7-.85.85-.85-1.36-.34.17.34,2.21-2.54,2.04h-3.56l-1.36-.51-1.02-1.87ZM457.27,318.27l.17,1.02.85.34-.85-2.54.51-.51-.51-1.02-1.02,1.02.85,1.7ZM458.46,300.63l1.36-1.02-1.36-.34-.51.51.51.85ZM459.98,343.89l-1.19-1.7.85-.68h-1.36l.17,2.04,1.53.34ZM458.46,295.88l.34-.34h-.34v.34ZM459.98,297.57v-.51h-.34l.34.51ZM460.49,344.23l1.7-.85v-1.19l-.51.51.17.68-1.36.85ZM461.68,341.17h.51v-.68l-.51.68ZM462.19,300.63h.51v-.51h-.51v.51ZM464.23,328.96l2.37.34v1.53l1.53.68-3.39.17-1.19-2.04.68-.68ZM477.29,280.61l2.71-.34.85.85v.85l2.04-.85,2.54-.17,2.71-1.53.85,1.36.34,1.36,3.73,2.04-.17,1.36,2.21,1.02,1.02,3.56h1.7v1.19l.51.34,1.02,2.54,1.02-2.37.68,2.37-.17,1.53,1.7.68-1.02,1.19.68.68-.85,1.36.51,2.04h-2.37l-2.21-3.39-3.22-3.05-.68-1.87-.85-.17-1.7-1.87h-.68l.17.68-1.53.17,2.04,2.71.51,1.87-.68,1.87-1.36.34-5.94-.34v-1.02l.51-.51.17-2.04,2.71.51-1.36-2.71-1.7-1.7,1.36-2.04-.51-2.37v-2.21l-3.22-.34-3.39.85-.51-1.36-.68-.17-2.37,1.87h-5.6l-2.88-2.21.34-.34v-2.54l4.58.34,4.24,1.36,2.21-1.36ZM472.03,283.66l.68-.85-1.53.34.85.51ZM473.9,284.34h.51l-.34-.68-1.53-.17,1.36.85ZM485.43,363.23h2.54l1.36-1.02h-2.88l-1.02,1.02ZM486.79,311.31l-.17-1.7-.68,1.19.85.51ZM487.13,308.26v-.51h-.51l.51.51ZM489.16,334.9l.17,1.19,1.19-4.58h-1.7v-3.05l-1.53.68.51,2.04v2.04l1.36-.34v2.04ZM487.64,372.56l.51.17v-1.36h-.68l.17,1.19ZM488.15,308.26h1.19l.17-.51h-1.36v.51ZM494.93,365.94l1.19.34,1.19-.85,1.36-.34,1.36-2.88-1.36.68-.34-.51-1.02-.34.17-1.19,1.87-1.53.34-2.71-.51-1.53-1.19,3.22-1.53-.17-.34-1.7-.85-1.7-.85,1.7-1.53,1.36.17,1.36.68,1.19-2.54-.17.17,1.87,1.7,1.36v.68h-1.19v1.02h2.37l.68.85ZM492.39,336.93l.85.17-.85-1.36v1.19ZM493.58,369.67h.51v-.85l-.85-1.36-.85,1.19,1.19,1.02ZM496.12,362.38h-.51l.51-.34v.34ZM498.33,356.27l.51-1.53-.17-2.37h-.85l-1.53,2.04,1.53.51.51,1.36ZM497.48,373.75l.85-.17-.17-.34-1.53-.34.85.85ZM497.82,347.62h.51v-.51h-.51v.51ZM499.85,325.23l.17-1.19-1.02-.68,1.53-.68-1.36-1.36,1.19-1.36v-1.7l1.7-.34v5.26l.51,2.04-1.02,1.53-.85-.17.17-1.36h-1.02ZM499.34,335.74h.51v-.85h-.51v.85Z"/><path class="cls-1" d="M557.03,381.38l-3.22-.17-1.7-1.53.85-.85-1.87,1.02-1.7-.85-3.22-2.54-1.87-.51-2.21-1.36-1.53,1.7-1.19.34-.34.51h-1.19l-.85-1.02-3.39,2.04-1.02-1.02-3.9.34-.17-.34h-1.87l-5.43-3.39-4.41-1.87-1.53-2.21-3.22-2.88-.34-1.19-2.37-1.53-3.05-3.05-.85-2.54-1.7-1.7v-1.02l-2.54-5.77v-1.53l-1.19-2.37-.17-1.87.51-6.28.34-.51-.34-7.47,1.19-.68,1.36-4.07,1.19-2.38,3.22-3.05-4.07-7.3-1.36.17-1.36,3.05-1.53-1.87-1.36-6.62,1.87-6.28,2.04-3.22v-1.7l2.21-3.56h.85l.85-2.54.85-1.19,2.21-1.53,2.21-3.05,3.05-.68,1.87-2.38h1.36l5.43-1.02.34.51,1.02-1.02,1.36.17,2.21-.85.51-.85.85.51h1.19l-.85,1.36,3.56-.85,3.22,1.02,1.87,1.02,3.39.68.85.85,1.7.51,2.04,1.7h1.53l1.36,2.54,2.21,2.38-.17,1.53,1.02,1.19.68,1.7,3.22,1.53-.17,3.39,1.87.85.85,1.19-.51,1.36h.51l1.53,1.7-.34.34,1.19.68,1.02,4.41-.34,3.73.85.85-.17,1.53.51,2.21v6.45l.51.85-.68,2.88.34,8.65-2.38,9.67.85,2.04-.17,1.7,2.04-.17,1.19,1.7-.17.85,2.38,1.7,1.87-.34v1.87l.51.51-.68.68h-1.19l-1.02-1.19h-1.19l-1.87,2.04,1.36,1.87,2.04.68v.68l-.51.68v1.19l-1.7-.34-1.53,1.87v2.54l.68,1.19-.85.85.85,1.02.51,1.87.85.17v-1.53l1.53-1.19.17-1.53,1.02-1.87.17-4.07,1.36-.34.68,2.71-.68.51.68.34-1.02,2.71v1.53l-.85,3.39-.85,1.87.17,1.19-1.7,2.04-.85,2.71-.85.34-1.7,2.37-1.02-.85-1.87-.68-1.7-.34ZM519.02,362.72l5.26.51,1.87-.34,2.21-1.36,1.87-.51,1.7-3.22,1.7-.68h1.87l1.02-.51,1.87,2.37,2.71,1.7,2.54.85,3.22,1.7,1.19-.34,1.87.51-.17-2.71,1.53-2.71,1.53.34.34-2.04,2.04-4.58-.85-.51-.51-2.54-7.46-4.07h-1.53l.51-3.22-.51-7.13.17-5.77-.51-3.05,1.02-2.04-.51-1.87.34-2.88.34-.17.85.85-.34-.51-.51-4.58,1.19.17-1.19-3.56.85-1.02-.17-7.63-1.02-3.39.34-1.02-.17-4.41-1.53-1.87-.51-1.53-4.07-6.28h-1.19l-5.77-3.05-9.16,2.04-6.45,2.04-1.53,1.87-5.43,5.26-4.24,6.28v2.37l-2.04,4.24-.85.17v3.39l5.77-.51,2.71.34,2.21,1.36,4.75-.51,2.37-4.75.85-.68.34-1.53,5.09-.85,1.19-1.02,2.04,1.19,2.04.51,1.02,2.71-1.02,5.77-2.21,1.87-4.41,2.54-2.37,2.54-7.46,3.22-3.73.85-1.02,1.19-1.19.68-2.88,5.09-.85.85-.17,2.04-.51.68-.51,3.05.34.85-.34,2.88.51.34-.51,3.05v3.22l.68,2.88.68,1.02,1.19,4.41,1.19.85.51,1.36,2.71,3.9,1.7.51,2.88,2.37,2.71.17ZM532.77,374.42l3.56-.17.85-1.02.51.68.17-.85-2.04-2.88-1.19,1.7v1.02l-2.04-.17-1.7.34-3.9-1.87.51-.85-3.05-2.88-3.56-.17-2.71-.85,1.19,2.04,2.54.68,2.54,1.36,2.54,2.21,2.21.51.68.68,1.19-.17,1.7.68ZM520.55,347.62v-.85l-1.02-.51-.85-2.21.34-2.04-.34-1.87,2.04-3.05,1.53-3.22,3.9-2.04.85.17,1.36-1.19,3.05-.17v1.7l1.19,1.02.51,6.28-1.02,1.36-.68,5.26-1.7,1.53-.51,1.02-1.36,1.02-2.37.17-3.39-.68-1.53-1.7ZM525.13,346.09h1.19l1.19-3.22-2.54-2.71v-1.53l-.51-.51-.34.51.17,2.04-1.7.85v1.53l1.19,2.37,1.36.68ZM525.47,305.04l2.37-.34.17-1.02-2.71.68.17.68ZM533.27,368.83l2.38.17,1.53-1.19.51.85h1.87l-.17-3.56-.51-1.19-.51.34v2.71h-.68l-.51-.51-1.7,2.04-2.21.34ZM533.44,365.26h1.19v-.51l-1.19.51ZM545.32,368.66v-.51h-.51l.51.51ZM552.62,312.84l.34,3.22,1.19-1.19-1.19-1.7.68-.51.34-1.19,1.02.68.17-1.53-.17-5.94,1.02-2.37-1.7-1.53-3.22-4.92-1.53,1.7.68,2.88,1.36,1.7h.68l2.21,1.36-.85.68v1.7l-.85,5.09-.17,1.87ZM550.75,371.2l3.05-1.19.68-1.87,1.53-.68-.17-3.05.51-4.24.85-1.87-1.36.17-1.53,2.21-1.36,4.24-.34-.17-1.7,4.92-.17,1.53ZM552.62,318.44l.68,1.02.51-2.54-.34-.51-1.36.51.51,1.53ZM554.99,376.97l4.58,1.19,1.53-1.02.17-1.7-.34-.85-2.21,1.02-1.7-.17v-.51l-.85-.34-1.87.34-.34,1.36,1.02.68ZM554.99,372.9v-.51h-.85l.85.51ZM557.03,326.58l1.02-1.19-.17-.68-1.36.17v1.02l.51.68ZM557.53,380.87h.51l-.51-.51v.51ZM563.47,374.42h.34v-.51l-.34.51Z"/><path class="cls-1" d="M598.76,376.8l-2.88-1.87-5.94-2.54-.68-1.02-4.75-2.88-1.19-2.54-5.09-5.26-1.36-2.04-.51-2.04-1.36-2.71.34-.68-1.19-1.7-1.02-6.11-.34-4.24.34-1.02-1.19-3.39v-14.25l.51-1.53-.51-2.04-.17-5.94-1.19-1.87-.34-2.71-1.7-1.7-1.7-3.39-2.54-3.56v-1.19l.68-.68,1.7-8.65.17-4.92.85-2.04v-.85l1.36-.34,1.7-1.19,2.71-.68,2.37-1.19-.85-1.7.34-1.53v-8.14l.34-1.19-.34-2.04.51.34,2.54-1.19,2.54.17,1.02-1.02h2.71l.34.51h2.71l.68.85,1.36-.85,3.22.34,2.54-.17,1.87,1.36h2.54l1.87,2.21v1.7l1.36.34v1.02l.51.68v1.02l2.21,1.87-.34,2.37.51,1.19,1.19.17.51,1.36.17-1.19.68-.34-.68-.51v-.68l-.68-.85,1.53-.85h1.19l.51,1.87,1.7,1.87v.68l.68.51-.68.51,1.7,2.54,1.19.17,5.09,3.39,1.7.34,1.7,2.04h1.02l3.22,3.22h1.7v4.58l-1.19,2.04-.51,3.05-.17,6.45-.85,2.04-3.39,1.7-3.39.34-1.19.68-.85-.17-3.22.68-.68,1.36v1.19l-.68,1.87v3.05l.51,2.21-2.37,1.02.17,1.19,1.02,1.53.34,6.79-.34,1.7.68.68-.51,2.04.17,1.36-1.7,4.41.68,2.04,2.21,3.9,1.36.85,2.71,4.92h1.02l.51-1.19,1.19,3.9,2.21,1.02,2.21,2.04-.17,5.26-.85,1.7.17,1.7-1.02.51v.85l-.85,1.19,1.7,1.19-.85.51-2.21,2.88-1.53.17-1.19,1.87-2.21.17-.85.68-2.88,1.02-6.28-.34-4.24-1.53-2.37-.17-1.02-.51ZM593.33,362.89h1.36l.51-.51.34.68,1.36-.17.51-.51,4.58-1.36,3.73-2.21,1.7-3.39-.17-.51.68-2.21,1.19-1.02-4.24-7.13.17-.34-2.71-3.56-2.71,1.02-3.39-1.19-1.19-2.71-.85.68-1.19-3.22-.34-5.77h-1.19l1.02-8.31-.34-1.36.51-.68v-.85l.85-1.19.51.34,1.19-1.87.68-2.71-2.37,1.7-.34-.68.34-.51v-2.54l-.51-1.53.68-3.73,1.53,1.53.34,1.36-.34,1.87,1.7-.17.17-.68,1.87-.68,1.7-1.19.68.17,1.53-1.19h2.04l-1.19-1.53.68-2.21-.85-.68-5.77.68-.68.68.85,1.19-4.24.17-.85-1.7.34-1.87,1.36-.68,1.19-1.53,3.73.51,1.53-1.02,1.02.85h.85l.68.85.85-1.02-.51-1.19,1.53-1.19-.34-1.7-1.02-1.7,1.19-2.54.34-3.56-.34-6.96-3.73.68-2.37-.51-1.7.17-1.53-.51-2.54-1.7-.17-.51,1.02-7.8-.68-3.56-2.21-.34-3.56-1.19-2.37.34-1.19-.34-1.36.68-1.53,3.22v2.88l-.51.85v4.07l-2.21,2.37,1.53,1.19-.85,2.04-.85.34-2.21-.51-3.56.34.17,1.53-.51.51-.34,2.04-1.19.51v.51l1.36.85-1.02,1.53.17.51-.51.85.17,2.04-1.19,1.19h1.02l-.34.68-1.36,1.02,2.88,1.36,2.04-.85,2.88.17,1.19.68.85,1.02-.85,1.02.17,6.79-1.19.85.17,1.19-.34,1.7.17,1.53.68.17-.68,1.36.68.51-.68,1.19.51,3.05-.68,2.88.17,1.19-.68,4.75,1.36-.17-.34,1.02,1.36,4.07-.17,1.87-.85,2.04v1.02l-.85.51,1.19,1.19-1.02,1.53.68.51-.51.85,1.02.34v1.02l.51.68-1.7,1.19,3.05,3.22.85,6.45,4.24,4.58,2.71,1.19,2.37,2.04h2.54l.51.85ZM579.25,266.53h.68l-.17-.51h-1.02l.51.51ZM595.71,368.66v-1.02l-1.19-1.02h-1.53l1.36,1.19,1.36.85ZM596.89,337.44h.68l1.19-1.02-1.02-.51-.34.85-.51.68ZM598.59,273.31v.68h.85l.51-.51v.51l-.68.34.68,1.7.85-1.19,1.36-.34,1.53-2.21-2.54-1.53-1.19.17v2.04l.51-.17-.51.68v-.51l-1.36.34ZM600.46,325.9l1.19-.34-.51-1.02-.51-.17-.17,1.53ZM603.85,365.26l.51-.68-.68.51.17.17ZM605.38,302.83l1.02-.51h-1.02v.51ZM606.56,307.41v-.85l-.68.51.68.34ZM611.99,305.72l.85.17-.17-1.36-2.88-1.53-1.87.17-.68.51,2.54-.17-.34.85,2.54,1.36ZM611.31,300.63l1.19.68.68-2.21.17-2.71-1.36-1.02.85-1.36-1.87-1.7h-1.87l-.68.51,1.02,1.02-1.02,1.36,1.19.51,1.02,1.7-.68,1.53v1.53l1.36.17ZM610.81,290.96l.51-.51-1.7-2.37,1.53-.17,1.36-1.02-1.36-4.24-2.21,1.53,1.36,1.19-1.19,2.88.17,2.38,1.53.34ZM614.37,356.95h.68l-1.19-.34.51.34ZM616.4,366.28l.68-.17-.68-.68v.85ZM622,292.99l1.36-.34-1.02-1.19-.51.68.17.85ZM623.02,294.69l.17-.34h-1.36l1.19.34ZM621.83,296.38h.51v-.68l-.51.68Z"/><path class="cls-1" d="M646.77,374.59l-1.53-.51-1.53.68-1.02-2.04-2.04-.17-2.21-3.73-3.05-1.53-5.77-6.45-.68-2.71-1.36-1.36.17-5.6.51.34-.51-4.58-.51-.68.68-4.41-.34-1.19.17-2.04v-8.65l.34-1.19-.51-1.53.68-6.45-.34-3.22.51-1.36v-2.37l.85-5.43v-16.63l1.02-2.04-.51-5.43.68-.68,1.02-2.37h2.04l2.54,1.7,4.24-.17-2.88-2.71v-2.54l-1.36-.68-.68-2.04-1.87-3.22-2.38-1.87-.34-2.71,1.87-1.53-2.04-.51-.34-2.37-.68-1.36.51-.68,1.36.17v-1.87l-.51-.85v-1.7h1.02v.85l.68,1.19.51-2.04h.68l-.68,2.54-.85.51,1.02,1.7-1.7.85,2.04,1.02.51,1.36,1.19,1.02.17.85,1.87,1.02,4.92.17,4.24.51,1.7.51.68-2.37v-2.54l.85-1.19-1.36-2.71,1.02-2.37-.85-3.05.17-2.04-.34-1.7.68-.68-1.36-.85-5.6-.17-.51-1.53.34-.51,2.71.34,2.04-.34.68-.51h5.26l.17,1.02,1.19,1.02-.34,1.53,2.04.34-1.87,1.02,1.53,1.53,1.7.17.34.85,1.19.51.17.51,2.21.17.17,1.7,1.19.68v.85l1.19,1.36.17,1.36,2.38,2.88,1.02,3.9,1.53,1.36v2.21l-1.02-.34.68,2.38-1.7,3.39v2.71l-1.02,1.53,1.19,1.53-.51,4.58-5.43,1.02-1.36-.51-2.21.34.34,2.04,2.88,4.07.34,1.19,1.87,1.02,2.21,3.39,2.04,1.36,1.02,2.04-.51,2.54.17,3.9-.51,1.7-.34,3.9-1.19,1.87,1.02,2.37v1.19l.85,2.37v1.53l-1.7,3.9.34,1.53h1.02l-.17,1.19.34,1.36-.68,1.02v3.73l-1.02,1.02,1.19,1.87-1.53,1.02,1.36,1.02.51,3.56-.68,2.88-1.19,2.71,1.36,2.88v11.03l-.51.51-.17,4.07-1.7,1.19,1.7.34v1.36l.68,1.36-1.02.51-1.36,1.53-6.11-1.36-5.43-.17-1.19.68-1.53-.51h-2.04l-1.19.17ZM632.35,246.17l2.88-.34,3.73.85-.17,1.87-1.19-.17-1.87-1.02-2.21,1.36-.17,1.36-1.36-.51-1.7,1.19.68-3.39,1.36-1.19ZM641.85,355.59l1.02.34,3.73-.34,1.19-1.7.17-3.05.51-.51.51-2.54-.85-.85-.51-3.05.17-3.05.68-1.02-.17-1.02.68-1.36-.51-4.24v-9.84l.34-.51-.68-1.02.34-2.21-.34-.51.34-3.9,2.71-.51,1.36.51,2.04-.51-.34-1.36-2.54.34-.68-1.19-2.38,1.87-.34-1.02.68-1.19-.51-.68-.51-6.28v-9.5l-.51-1.53.51-1.87v-3.05l-2.21-.51-1.02-.68-4.24.34-1.87-1.02h-1.36l-.85-.85h-.85l-1.36,3.39.68,2.21-.68,2.21-.85,1.36,1.19.68v2.37l-1.02,1.7,1.19,1.36-.17,4.07.85.68-1.36.68.17,1.7-1.36,1.36.68.51-.85.68.51,3.73,1.02,3.22-2.21,2.21.85,1.02.34,1.7-.85,1.19.17,2.71.68,1.87-1.19,2.21.34,2.37-.17,2.54,1.02,2.54h-1.19l-.51.34,1.36,3.73-.68,2.88,1.19,7.46.85.51,4.75,1.7,2.88.17ZM635.57,361.87l1.7,1.19-1.02-2.04-1.7-1.36-1.02-.17,1.02,1.36,1.02,1.02ZM641.17,275.86l2.54,4.24.85.51.51,1.7,1.7.17,1.7-1.7-2.71-2.04-1.7-4.75-1.87-1.36-2.71.17v1.02l.17-.17,1.53,2.21ZM650.16,250.92v-.51h-.51l.51.51ZM650.84,254.14l1.36-1.19h-.51l-.68.85h-.85l.68.34ZM654.74,350.84l.85.68.17-.85-1.19-4.24v-1.36l-.85-2.04.17-1.19-2.04.85-1.02,1.53,2.37,1.53-1.19,2.37,1.53,2.04,1.19.68ZM653.9,326.41l1.02-.17,1.19-1.7-1.36-1.19v-7.29l-.85-.17-1.53,2.71.51,1.87-.34.68,1.19,1.7-2.54.85,2.88.85-.17,1.87ZM654.4,297.74v-.34h-.51l.51.34ZM654.4,307.92l.51-.34.51-1.87-.85-.85-.68,1.53.51.85v.68ZM654.4,255.84h.85l-.51-.68-.34.68ZM655.25,362.21h.68v-.51l-.68.51ZM656.44,327.94v-.34h-.51l.51.34ZM660.68,357.97l1.02.17v-1.36l-.85-.34-.68-2.04,1.02-.51.51-1.53,1.36-.85-1.36-1.02-.17-3.05-1.36-1.19-1.36-2.71h-.68l-1.7,2.71,1.19,4.41,1.36,1.36.17,1.19-.34,1.19,1.87,2.37v1.19ZM656.95,363.23l.51-.51-.51-.51v1.02ZM658.98,281.79l.51-.51-2.04-.51v.85l1.53.17ZM658.65,298.76h.17l-.17-1.36h-1.19l.68.34.51,1.02ZM660.34,369.5l.85.34-.34-1.7.85-2.88-.51-1.02v-1.19l-2.21.51-.34,2.37.17-.17-.34,2.88,1.87.85ZM659.49,269.92l1.53-2.54h-1.53l-.51.51.51.68-.68.68.68.68ZM660.17,302.49l.51,1.19h.68l.85-2.04-1.19-2.04-.68-.17-1.53,1.02,1.36,2.04ZM660.51,265.34l.34-1.7h-1.36l1.02,1.7ZM659.49,329.13h.68l.17-.51-.68-.68-.17,1.19ZM660.17,334.56h.85l.17-2.71-.51-.51-.51.34-.68,2.21.68.68ZM664.92,312.67l1.02-.51h-.51l-.51.51ZM664.92,335.57l.51-.51h-.51v.51Z"/><path class="cls-1" d="M706.83,376.97l-.51-.51-3.39-.85-.68.51-3.73-1.19-2.37-2.38-2.54-1.19-2.38-2.04-1.53-2.88-4.07-1.7-1.36-1.36-1.53-.85-.17-1.36-2.21-.85-1.7-2.88-1.7-1.36-.85-1.87-.34-2.21-2.21-3.73-.51-2.21-1.02-1.02-2.37-5.6-.85-1.36.51-5.43-.17-1.87-.68-.85.51-2.21v-5.43l-.34-2.21.85-1.36-.34-.17,1.7-1.87.34-3.56-1.19-1.87,1.7-.68-1.7-2.21,1.19-.17-.51-.51v-2.04l-.34-.34.34-2.21,1.7-.85-1.19-.85.34-3.05,1.19-2.37v-1.7l.85-.17-.34-2.54.68-.34-.51-1.53,2.54-2.38,1.02.17,1.19-.85.17-2.04,2.88-2.37,1.02.51.34-1.36,2.54.68-.51-2.04,2.88-.34,3.22-1.19.85.68,2.21-1.7h2.54l.85-.34v2.71h-5.43l-1.36,1.53-1.87.17-.85-.68v1.36l-1.19.51-3.05,2.71-.85,2.21-1.7,1.87-.51,1.36-1.19,1.53-.17,2.21-1.53,3.22v2.71l-.51.68.34.85-.68,2.04v2.04l-1.02,4.92-.68.85v.68l1.36-.17v1.53l-.85,7.29-.51.85.85.51-.34,2.04-.85,1.87-.34,2.54.68,3.56.51,6.96,1.36,2.21,1.19.34,2.04,7.46,1.02.51,2.37,4.24,2.88,2.04.85,1.19,3.05,2.88.17,1.87,1.53.34,2.54-.34.68.68,1.02-.68,5.94.51.68-.51,1.87.17.68-1.36,1.7-.17,3.05-1.19,1.19-2.37,2.21-.85,2.88-2.71,1.02-3.9,1.36-2.37-.17-1.02,1.19-6.11,1.02-1.53v-2.37h.68l-.85-5.26.17-4.58.68-.51-.68-5.6.51-1.7-.34-6.62.68-2.54-1.53-7.13v-9.5l-1.53-1.53.17-3.05h1.19v1.02l-.68,1.53.85,1.36,2.04.34,1.19,1.02.85,2.37,1.19.17,2.04,2.37.85,1.87,3.56,3.22,1.19-.85,2.04,3.9.34,3.22,2.04,4.07-.68,3.05,1.19-.17-.17,1.7,1.53,1.7v3.39l-.51,2.37.17,2.38,1.19,1.36-.85,2.04-1.02,1.19,1.53,1.02-.85,1.02-.51,1.7.17,1.53-.51,1.53.51,2.38v4.24l-.51,3.39-1.19,4.92v4.07l-1.87,4.41-1.36,4.75-2.04,2.71-.51,1.53-1.7.68-2.71,2.04-2.54-.34-.34-.34-2.54,1.7h-2.38l-1.53.68h-1.53l-1.02-.51-2.54.51-1.19-.34-2.04,1.36-2.21-.85ZM674.42,300.12h.51v-.34h-.51v.34ZM676.63,289.6h.34v-.51h-.34v.51ZM683.75,283.66l1.7-.34-1.53-.17-.17.51ZM689.52,343.55l-2.38-3.05-.17-3.73.85-1.02-.68-1.53v-2.21l-.51-1.02-.34-2.71.17-6.62.34-1.19-.34-1.7.51.17v-3.39l1.19-.68-.51-.85.85-.34-.34-1.87.34-.68v-2.71l1.19,1.02.51,1.02,1.02-1.87.85-.17,1.02,2.88-1.87.85.68.68-.85,2.21,1.7.85-.68,1.36-1.53,1.02,1.36,1.02.17.85-1.36-.17v.51l.85.85.85,1.7h1.19v-2.21l-.51-2.21.51-1.53h.34l.17,1.36.68-1.53-.85-1.02,2.71-1.36.68.34.68-1.36,1.36-1.02-1.7-4.75.17-1.36-1.19.17-.51-.85.34-1.7-.51-1.87-3.39,1.87-.51-1.53,2.21.34-.85-3.22.34-2.37.68-1.53.85,1.19,1.36-1.87,2.21.17,1.87,1.02h1.87l.85,1.53,1.02.68.17,2.21.34.17,1.02-1.19.85,2.21.17,1.53-.51,4.41-1.87.85,1.36,1.02-.17.51,1.02,2.37-.17,2.54.68,3.39-.68,1.02.68,4.07-.51,4.41h-.51l.34,4.58-.51,3.05.17,1.7-.68,1.7-.51,3.05-3.05,1.87-3.39,1.02-.68,1.02-8.14-1.19-.34-1.19ZM689.35,316.74h.34v-1.02l-.34.51v.51ZM696.14,300.46l1.02-.34-1.53-.34v.34l.51.34ZM697.33,342.36l.85-.68v-.51l-1.02.51.17.68ZM698.17,316.23v-.51h-.34l.34.51ZM698.68,305.38l.68-1.02-.17-1.53.85-.51-1.02-.68-.85,3.22.51.51ZM699.36,306.56l1.02-.51.51-1.19-.51-.85-.51,1.53-.68.51.17.51ZM703.43,371.37l.68-.68-1.87-1.53-1.19.51.17,1.02,2.21.68ZM710.56,281.79l-2.21-.34-2.54-1.36-.51,1.53-2.04-1.53,1.36-1.36,4.41.68,1.19,1.02,1.7.17,1.19-.51-1.19,2.21-1.36-.51ZM706.32,365.43l.51-1.36h-1.7v1.02l1.19.34ZM705.81,369.67h.51l-.51-.34v.34ZM713.44,373.92l1.87-2.04-.51-.34-1.19.34-3.05-.17,1.36,1.7,1.53.51ZM719.72,373.07l1.19-.68,1.53.17,1.87-1.87,2.04-.85.85-2.21,1.7-1.19.68-1.02-.17-2.71.68-1.87,1.02-5.77.85-1.02.51-2.54-.34-1.7-1.02-2.04,1.19-1.87v-1.7l1.53-1.53-1.19-2.04h-2.88l-.68,1.7-1.02-1.19-.85.68,1.19,1.53,1.19,4.58,1.02,1.53-1.19-.17-.34,1.53.17,1.53.51.34-1.53,1.02h-1.53l-1.36,1.87.34.51h-1.36l-.51-1.7.34-1.7-.34-.68-1.19,1.02.68,1.53-.17,2.37h2.21l-.51,1.36,1.53,1.7v.68l-1.36,1.7.68,1.87-.34.85-1.19.34-2.71,2.04-2.88,1.53-1.02,1.87-1.19,1.02.17.51,2.54.17.68.51ZM722.77,362.89v-.51h-.68l.68.51ZM724.98,305.72l.17.85,1.87-1.87-1.19-.68h-1.02l.17,1.7ZM725.32,308.6l.51-.85h-.85l.34.85ZM728.54,327.77l1.02-1.36-1.36-1.02-1.02,2.38h1.36ZM727.69,308.43l.68-.68-.85.51.17.17ZM727.52,349.65h.51v-.34l-.51.34ZM727.86,322.17h1.36l.34-.85-.34-.34.17-1.19-1.36,1.02-.17,1.36ZM728.37,319.29l.85-.34-.85-2.71-.34,2.04.34.51v.51ZM730.58,319.29l.51-.51.17-3.39-1.87.17.85,1.19.34,2.54ZM730.07,351.86h-.51l.51-.51v.51ZM731.77,323.02h1.7v-1.7l-1.7,1.7ZM732.61,308.09l.85-1.02-1.36-.51.51,1.53ZM737.7,322.51l.34-.34-.51-1.02.17,1.36Z"/><path class="cls-1" d="M784.36,374.93l-3.05-2.38-1.7-.17-2.04,2.21-3.73.17-3.39-.51-3.39.34-1.7-.34-1.53.34-2.71-.34-.68-.68-2.54-.34-1.53-1.36-1.87-2.71-2.04-1.87-2.71-3.56-1.19-.68-3.56-3.9-2.37-1.36-.17-3.39.34-1.36h-.85l-.17-2.54h-1.53l.17-1.7h1.02v-1.02l-.51-.51.51-1.19,1.53-1.02,1.53-.34v2.37l-.51.34.34,2.37.51.68-.85,2.04.68.85-.68,1.53,4.07.68,1.19,1.87,2.04-.34,4.07.17,4.75-1.02,1.36.51,1.02-.51,1.19.51v.85l-4.24.17-.34.51,1.7.85.34,1.53h1.87l.51,2.71.68-.85-.34-2.21-1.36-1.19,2.54-1.36,2.04,1.7,2.04,3.05h1.36l-1.36-4.07-1.53-1.19.34-1.87-1.53-1.87,1.02-1.19h2.04l-3.22-3.05-.34-1.53-.85-1.36-1.36-.68.51-3.22-1.19-2.21,1.02-1.7-.34-2.21-1.19-.85.85-2.88h.85l-.17.85,2.88.85.51-.51-1.19-1.19v-.85l.68.34.51-.17v-1.36l-.51-.51.85-1.53.34-2.54-1.36-4.92.51-3.05,1.02-2.04-1.02-2.21.68-1.19-.51-4.75.68-2.71,2.88.68.34-1.87-.17-5.77.51-.51-1.19-.68v-.85l2.54.85h1.53l.17,1.7h.85l2.37,4.75-2.04,1.19,1.02.17,1.19-.68.34,7.46v5.43l-.85,2.04.17,1.87-.85,1.36.17,5.94-.34,1.7.17,3.39-.51,3.73-1.02,2.71-.51.17-1.02-1.36.17-.51h-1.36l-1.36,1.02-1.19,4.58.68,2.71,1.36-.68.51-.85h.68l-.17.68,1.53.51-.34-1.19.34-2.54-.85-.17-1.19,1.02-1.19-2.54,1.36-.85,2.88,1.19,1.02,3.39-1.53,5.6,1.19,2.38v2.21l-.68.51,1.02,2.04-.17,4.07,4.58,1.02.68-.34h4.24l1.19.34,6.11-1.87,2.04-2.21,2.71.17.17-1.53h1.02l.34-1.7-.34-.68.17-1.87-1.19-1.36,1.02-1.19v-6.11l.34-.85-.17-2.21-1.02-1.7.68-2.37-.68-1.87-2.21-1.7,1.87-1.02,1.36-3.39-2.38-2.71,2.54-.34-1.19-2.04,1.02-1.87-2.88-.68,1.87-1.19-1.36-.51.17-.51,1.02-.34,1.36-4.92v-1.02l.68.17.85.85,2.04.17-.68-5.43-.68-.34,1.36-1.02-1.02-2.88h-2.71l.34-3.39-2.21-1.53-1.19-3.05-1.19-1.19.17-2.21h.68l.85,1.19,1.36.17.68-1.36.51,1.02.17,4.24-.68,1.02,1.87.85,1.02,3.05h1.02l1.53-2.37,1.87-.68-.17-1.7.34-1.53-2.54-1.02-2.04-1.7-2.37-2.71-1.36,1.19-.34-2.54-1.36-1.36-1.87-.17-1.19.34-1.36-1.7,1.19-.51,1.7-2.71,3.22,2.71,2.37,1.02,3.9,5.09,1.7.85.68,1.02,1.36.51,2.88,4.92.68.34,1.53,1.87.17,2.54.68,1.19v.85l-.85.85.68,2.71.34-.17.17,2.37-.68,1.7,2.04.51-.34,2.54-.17,5.94-.68,1.7-.34,3.22.34,4.92-.68,4.07.17,2.21-.34,1.36.68,1.7-1.02,3.05.51,2.21-.68,2.54.34,2.04-1.02,3.39,1.02,1.53-1.53.17,1.53.85v17.98l-.85.34-11.37.68-3.22,1.19-8.65-.68-1.87-1.02-1.53-.34-1.7-1.36ZM742.45,337.95v-1.02l-.51-.51.51-1.87,2.04,1.53.34,1.02v2.38l-2.71,1.36-.85-2.37,1.19-.51ZM742.45,332.69l1.53-2.54-1.53-.51.51-1.87,2.04.51v3.56l.51.17-.34,2.54-1.7-1.87h-1.02ZM743.64,324.89l-.34-1.7.34-2.21-1.02-.68.68-1.02,1.7-1.36-1.53-.68,2.54-1.87-1.19,7.13.85.85-.68.34-.17,3.05-1.36-.85.17-1.02ZM744.15,303.85l1.7-.17-1.36-.68h-.85l.51-2.88,1.53.85,1.02-.17.51,1.53-.51,2.21.17.85-3.22,1.7.17-1.02.34-2.21ZM753.99,280.95h-5.26l-1.87.85-.68-2.54,1.36-.34,5.43.68.34.51,3.56-.17,1.87.51,1.19.85-.51.51h-1.7l-.51-.68-1.53.85-1.02-.68-.68-.34ZM753.14,361.36l1.53.17.17-1.36-1.02-1.36h-1.36l-.34,1.87,1.02.68ZM758.4,364.08h.51v-.51h-.51v.51ZM765.86,370.86l2.04-.34-.17-.68-2.38-1.02-1.19,1.19,1.7.85ZM769.94,320.31l1.02,3.9,2.04-1.87,1.19-3.56v-5.26l-2.54.17-.34-.34-1.53-.17-.85,2.37.85,2.37v1.53l.17.85ZM769.94,366.28l.51.17v-1.53l1.19-.17v-.68l-2.04-.17-.51,1.7.85.68ZM769.6,310.97l1.53-.85v-2.21l-.68-.17-.85,1.02v2.21ZM771.12,326.41l.51-.51v-1.02h-.34l-.17,1.53ZM772.14,349.32l.51-.51v-1.02l-.51-.68-.68.85.68,1.36ZM772.65,336.93h.68v-.51h-.68v.51ZM773.33,310.64l.51-.17v-1.02l-.51.68v.51ZM788.43,280.95l-4.58-2.21h-2.37l1.19-1.36h3.39l.68,1.87,1.7-.68.34.85,2.38,1.87.17.51h-1.53l-.68-1.02-.68.17ZM789.11,365.43v-1.87l-4.24-.17-.34,1.36h3.56l1.02.68ZM798.78,320.64h.85l-.34-.68-.51.68ZM801.66,373.41l3.73-.34.85.68,1.53-.51v-1.53l-4.75-1.19-.34,1.87-2.21.85,1.19.17ZM804.04,305.88l.68-.68h-.68v.68ZM804.71,303.68h.34v-.68h-.34v.68ZM809.63,322l.51-3.22.85-1.7-.68-.68-.34-2.04.34-2.38-.51-2.54,1.53-.85.68-1.36-1.7,1.19-1.36.34.34-2.37-1.19-1.87-.34-2.04-1.02.17-.51,1.02.85,4.07-.17,3.05-1.02,1.7,1.53,2.71-.17,4.41,1.02-.51,1.02.17-2.54,1.36h2.21l.68,1.36ZM806.07,340.32l-.17,1.02,1.19.34,1.7-.34.17-1.53-1.53-2.37-.85-.34-.51,3.22ZM807.26,344.06l1.19-.17-.17-1.02h-1.19l-1.02.68,1.19.51ZM808.45,346.26l-.17-1.19-1.87-.17,2.04,1.36ZM809.3,328.28l1.02-2.88-.34-1.53h-3.22v1.53l1.19-.17-1.19,1.02,1.02,1.02v2.21l-.68.34,2.21,2.88v-4.41ZM812.01,357.29l-1.02.17v1.02h.51l.51-1.19ZM810.99,367.81h.51l.68-.85-1.19.85ZM811.5,311.48l.51-.51h-.51v.51ZM811.5,373.24h.51v-.68h-.51v.68ZM812.01,369l.51-.68h-.51v.68Z"/><path class="cls-1" d="M882.42,376.63h-3.73l-1.19-.51h-3.56l-.68.34-1.53-1.19-2.37.34-1.19-.68-2.21-.17-1.19-1.02v-1.87h1.02v-.51l-.68-.17-1.53-1.7-1.36-3.9-2.71-5.94-.17-4.07.51-.68-.17-1.19,1.36-1.19-1.7.34v-1.7l1.7-1.53v-.68l-.51.68-.68-.17.85-1.02h1.19l1.87,2.04-.17,2.71h1.19v-.51l-.85-.34h1.36l1.53,2.21-1.02,1.02,1.02.34,4.07-.51,1.7.34,1.19-.17,1.7-1.87,2.71.85,1.36-5.77.68-.51-2.04-1.02.68-4.58,1.02-.51-.17-2.37-.85-1.36-.68-6.28,1.02-8.99-.68-4.75,1.87-3.39.17,2.04,3.22-1.02.68-1.7,1.02.17v1.02l-.68.68.51.68-1.02,1.87.68.51v1.87l-1.7.34v1.19l1.53-.17,1.02.85,1.87.17,3.22-2.37-.85-2.38-1.36.51-.17-1.53-2.04-.68-.17-.51,1.36-.17.85-1.87,3.22.17,1.02-1.53,2.04.17,3.39-.51.34.68,1.53-2.88,1.36-.34,3.05-1.87,1.7-2.37,1.53-.17.51-1.02.17-2.54,2.21-1.87v-1.53l.68-1.02.68-3.73,1.19-3.73-.17-6.28,1.02-3.22-.85-1.7-1.7-6.11-.51-.51.17-.68h-1.36l-.17-1.53.51-1.02-1.19-2.04-3.39-3.56-2.04-3.22v-1.02h-1.02l-1.02-.68-1.19-1.53-1.87.34-3.56-1.87.34-1.02-2.54.34-4.07-.51-1.87-.68-1.36.34-2.54-.51-2.21.34-4.24-.17-.17-.51-2.88.34-2.21,1.19-1.53-1.7.85-.51,4.24.17,1.19-1.87,2.71-.51.34.34,2.88-.34.51-.51,5.6,2.21v1.19h6.79l5.09,1.19.34-1.53,1.7,2.88v.68l1.19-.17,1.19,1.02,2.37.34,3.05,1.7-.34,2.71h2.21l1.19,3.05-.68,1.36,1.02-.34.68-1.02,2.54,2.21v1.53l1.7,1.36-.68,1.53,1.36.68,1.36,1.36.34,2.38,1.87,1.02v1.53l1.19,2.88.34,4.07-.34.34-.68-1.53.17-.68-1.19-.34-.34-.51h-1.36l-.85,5.94.34,2.71-.17,3.56.68,1.19-2.21,1.02-2.04,2.21.34,1.02-1.02,2.04.34.17-1.7,2.37-.85,2.38,2.21,1.7-1.36.85v-.68l-2.04.17-2.54-.51-1.87,1.02.17,5.26h-3.22v-.85l-1.02-.17-1.19,1.02v1.36l-.85,1.02-1.36-1.19-.17,2.54-2.04,1.19-1.53-.51-1.87-1.87-.85,1.53v1.53l1.36.17.85-.34.68.51-.17,1.02h-2.54l.34,1.19,2.88.34.85.51.51-1.19-.51-.85,1.02-1.53,2.04.68.34,2.21,2.38.17-2.21,1.02,3.05.17,2.54,2.04v1.02l.68-.51,1.7-.34,1.36.17-1.02-1.53v-5.09l.51-.85,1.7-1.02,1.19,1.53-.68.68,1.53,4.41.17-1.7h1.36l2.88-1.53.34-1.19h.68v-1.02l-.51-1.02-.17-1.7.51-.51,1.53,1.19v2.54l-1.02,1.02v.68h.51l2.71-2.71h-1.02l.51-1.02v-1.87l2.04.51,1.19-.34.17,1.19-1.02.51-1.19,2.21h-.51l-.34,1.87-.68,1.02-4.92,4.41-.51-.68-1.53-.17-2.21,2.04-1.53-.51-.17.85-3.39,1.7-1.02,1.02h-.85l-1.02,1.02-3.56.68-.85.68-1.36.34v1.7h-1.7l-.34,1.36.51,2.21-.85,1.02.68,2.88-2.88,1.02.68,2.54v1.53l-1.7.85,1.19,1.53-1.19.85v.68l2.04-.17,1.36-2.04.85,4.24-1.7,2.71.68,1.19-.34,10.01-2.88,2.04.68.51,1.36-.17-.34,4.58-1.53.68-1.7-.17-2.37.68-5.94-.68-1.02-.17ZM860.53,343.21l-.34-1.7,1.36-1.19,2.54,3.05-.17,2.38-2.88.17.17-1.19-.68-1.53ZM862.57,253.29h2.71l1.53,1.19v.85l-2.04-.17-2.54.51.34-2.37ZM865.96,296.21l-.68-2.88-.51-.51v-2.37l.51-.34-.51-.68v-6.62l.34-2.37-1.02-4.07.68-.51-.34-2.04.34-3.39v-4.41l-.85-.68.34-5.6-.34-2.38,1.36.17.68-.51h1.36l.17.34h1.53l1.36,1.36v4.24h-4.24v1.02l.68.68-.34.85,1.36.34v1.36l-.51.51,1.87.68,1.53-.34-.85,1.02.51,1.87-.34.51h-1.02l1.19,3.73-1.19.51,1.36,1.02v5.6l-.51,1.19,1.02,2.04-.51,1.87.51.34-1.7,1.87h-2.21l2.04,1.7,1.36.51-.51,1.87-.85-.51-2.37,1.53,2.54,3.39-.85.85-.51-1.02-1.87-1.7ZM877.5,252.28h.51l-.51-.51v.51ZM881.06,365.43h.68l.51-1.02-1.19.17v.85ZM891.92,279.42l1.7-.34,1.19,1.19.68,2.38v1.53l-.34.51.68.85.17,2.21-1.36,1.36.51,1.36,1.36,1.53-2.21.51,1.02,1.7-.51,1.53-1.53.34v2.54l-1.36,1.36-.17.85-2.71.85-.51,1.19-1.36,1.19h-2.88v-.85l-1.7-2.21,1.36-1.19h.68l.34-1.36-.17-1.53h-.51l-.34.51h-1.02v-1.02l1.02-.17.68-.85-1.36-2.88,1.53-.85-.85-.34.34-.85-1.02-.17-1.02,1.02-.17-5.94.68-3.22-.68-3.05-.51-.85v-3.56l2.04-.17,2.37.34.51.85h.34l.68-1.02h1.53v1.53h.68l.51-.85,1.87.51,1.53,3.05h-1.7v.51ZM882.76,360.85v-1.02h-.51v.51l.51.51ZM889.37,337.1l-.34-3.9.68-.68.34-1.36-2.37-.17-.34-2.54-1.36-.85-1.02,1.87-1.36.85-.34,3.22,1.53.17,1.19,1.7-.51.34.17.85,2.04-.17,1.7.68ZM889.71,286.71l.34.17-.34-3.22.34-.51-2.71-2.54-.85.85-.51-1.53,2.21-.85-2.54-1.36-1.53.17.17,3.73-.85.34.34,1.19,1.36,2.04,3.05-.51,1.53,2.04ZM883.94,287.9h.34l-.34-.51h-.51l.51.51ZM883.6,349.65l.51-.85-.51-.85v1.7ZM884.28,289.6l.51-.51h-.51v.51ZM887.51,353.39l.85.51,1.36-.68v-.51l-1.53-.34-.51-1.19.51-.34.85-1.87-.85-.17-1.19,1.36h-.51l.34-1.19,2.04-2.54h-2.37l2.71-2.37v-1.7l2.54,1.7,1.87-.68-1.7-1.53-.17-2.21-2.04-.17-.85-1.36-1.36,1.53,2.37.68-2.21,3.05v.85l-1.87.34-1.19,5.94,2.04,1.7.85,1.19ZM885.3,342.7h1.7l-.17-1.36-1.53,1.36ZM885.98,368.83l.51-.51-.51-.68-.51.68.51.51ZM885.98,339.98l.51.17,1.19-1.02-1.53-1.53-.17,2.37ZM887,364.08l.68-.85-1.19-.34v.51l.51.68ZM889.71,364.92l1.87.34-.51-3.39-1.7,1.53.85.68-.51.51v.34ZM891.24,361.19v-1.36l-.34-.51-1.02.51,1.36,1.36ZM892.6,368.66l-.17-1.02-.51.68.68.34ZM893.27,329.98l.68-.51-1.02-.51.34,1.02ZM893.95,354.91h1.53l.68-.68-1.7.17-.51-.51-.68.51.68.51ZM893.95,362.89v-.51l-.68-.34v.34l.68.51ZM893.95,278.91l-.34.17v-.17h.34ZM894.46,287.9l.68.34-.17-2.37-.34.34-.17,1.7ZM897.52,327.94l3.39-.85-.17-1.02-1.7.51-.85.68-.68.68ZM902.44,326.92l.51-1.19-.51.34v.85ZM916.86,284.17h.51l-.51-.51v.51ZM919.23,325.56l-.17-1.53-.51.17-.17,1.02.85.34Z"/><path class="cls-1" d="M965.55,376.97l-.51-.51-3.39-.85-.68.51-3.73-1.19-2.37-2.38-2.54-1.19-2.38-2.04-1.53-2.88-4.07-1.7-1.36-1.36-1.53-.85-.17-1.36-2.21-.85-1.7-2.88-1.7-1.36-.85-1.87-.34-2.21-2.21-3.73-.51-2.21-1.02-1.02-2.37-5.6-.85-1.36.51-5.43-.17-1.87-.68-.85.51-2.21v-5.43l-.34-2.21.85-1.36-.34-.17,1.7-1.87.34-3.56-1.19-1.87,1.7-.68-1.7-2.21,1.19-.17-.51-.51v-2.04l-.34-.34.34-2.21,1.7-.85-1.19-.85.34-3.05,1.19-2.37v-1.7l.85-.17-.34-2.54.68-.34-.51-1.53,2.54-2.38,1.02.17,1.19-.85.17-2.04,2.88-2.37,1.02.51.34-1.36,2.54.68-.51-2.04,2.88-.34,3.22-1.19.85.68,2.21-1.7h2.54l.85-.34v2.71h-5.43l-1.36,1.53-1.87.17-.85-.68v1.36l-1.19.51-3.05,2.71-.85,2.21-1.7,1.87-.51,1.36-1.19,1.53-.17,2.21-1.53,3.22v2.71l-.51.68.34.85-.68,2.04v2.04l-1.02,4.92-.68.85v.68l1.36-.17v1.53l-.85,7.29-.51.85.85.51-.34,2.04-.85,1.87-.34,2.54.68,3.56.51,6.96,1.36,2.21,1.19.34,2.04,7.46,1.02.51,2.37,4.24,2.88,2.04.85,1.19,3.05,2.88.17,1.87,1.53.34,2.54-.34.68.68,1.02-.68,5.94.51.68-.51,1.87.17.68-1.36,1.7-.17,3.05-1.19,1.19-2.37,2.21-.85,2.88-2.71,1.02-3.9,1.36-2.37-.17-1.02,1.19-6.11,1.02-1.53v-2.37h.68l-.85-5.26.17-4.58.68-.51-.68-5.6.51-1.7-.34-6.62.68-2.54-1.53-7.13v-9.5l-1.53-1.53.17-3.05h1.19v1.02l-.68,1.53.85,1.36,2.04.34,1.19,1.02.85,2.37,1.19.17,2.04,2.37.85,1.87,3.56,3.22,1.19-.85,2.04,3.9.34,3.22,2.04,4.07-.68,3.05,1.19-.17-.17,1.7,1.53,1.7v3.39l-.51,2.37.17,2.38,1.19,1.36-.85,2.04-1.02,1.19,1.53,1.02-.85,1.02-.51,1.7.17,1.53-.51,1.53.51,2.38v4.24l-.51,3.39-1.19,4.92v4.07l-1.87,4.41-1.36,4.75-2.04,2.71-.51,1.53-1.7.68-2.71,2.04-2.54-.34-.34-.34-2.54,1.7h-2.38l-1.53.68h-1.53l-1.02-.51-2.54.51-1.19-.34-2.04,1.36-2.21-.85ZM933.14,300.12h.51v-.34h-.51v.34ZM935.35,289.6h.34v-.51h-.34v.51ZM942.47,283.66l1.7-.34-1.53-.17-.17.51ZM948.24,343.55l-2.38-3.05-.17-3.73.85-1.02-.68-1.53v-2.21l-.51-1.02-.34-2.71.17-6.62.34-1.19-.34-1.7.51.17v-3.39l1.19-.68-.51-.85.85-.34-.34-1.87.34-.68v-2.71l1.19,1.02.51,1.02,1.02-1.87.85-.17,1.02,2.88-1.87.85.68.68-.85,2.21,1.7.85-.68,1.36-1.53,1.02,1.36,1.02.17.85-1.36-.17v.51l.85.85.85,1.7h1.19v-2.21l-.51-2.21.51-1.53h.34l.17,1.36.68-1.53-.85-1.02,2.71-1.36.68.34.68-1.36,1.36-1.02-1.7-4.75.17-1.36-1.19.17-.51-.85.34-1.7-.51-1.87-3.39,1.87-.51-1.53,2.21.34-.85-3.22.34-2.37.68-1.53.85,1.19,1.36-1.87,2.21.17,1.87,1.02h1.87l.85,1.53,1.02.68.17,2.21.34.17,1.02-1.19.85,2.21.17,1.53-.51,4.41-1.87.85,1.36,1.02-.17.51,1.02,2.37-.17,2.54.68,3.39-.68,1.02.68,4.07-.51,4.41h-.51l.34,4.58-.51,3.05.17,1.7-.68,1.7-.51,3.05-3.05,1.87-3.39,1.02-.68,1.02-8.14-1.19-.34-1.19ZM948.07,316.74h.34v-1.02l-.34.51v.51ZM954.86,300.46l1.02-.34-1.53-.34v.34l.51.34ZM956.04,342.36l.85-.68v-.51l-1.02.51.17.68ZM956.89,316.23v-.51h-.34l.34.51ZM957.4,305.38l.68-1.02-.17-1.53.85-.51-1.02-.68-.85,3.22.51.51ZM958.08,306.56l1.02-.51.51-1.19-.51-.85-.51,1.53-.68.51.17.51ZM962.15,371.37l.68-.68-1.87-1.53-1.19.51.17,1.02,2.21.68ZM969.28,281.79l-2.21-.34-2.54-1.36-.51,1.53-2.04-1.53,1.36-1.36,4.41.68,1.19,1.02,1.7.17,1.19-.51-1.19,2.21-1.36-.51ZM965.04,365.43l.51-1.36h-1.7v1.02l1.19.34ZM964.53,369.67h.51l-.51-.34v.34ZM972.16,373.92l1.87-2.04-.51-.34-1.19.34-3.05-.17,1.36,1.7,1.53.51ZM978.44,373.07l1.19-.68,1.53.17,1.87-1.87,2.04-.85.85-2.21,1.7-1.19.68-1.02-.17-2.71.68-1.87,1.02-5.77.85-1.02.51-2.54-.34-1.7-1.02-2.04,1.19-1.87v-1.7l1.53-1.53-1.19-2.04h-2.88l-.68,1.7-1.02-1.19-.85.68,1.19,1.53,1.19,4.58,1.02,1.53-1.19-.17-.34,1.53.17,1.53.51.34-1.53,1.02h-1.53l-1.36,1.87.34.51h-1.36l-.51-1.7.34-1.7-.34-.68-1.19,1.02.68,1.53-.17,2.37h2.21l-.51,1.36,1.53,1.7v.68l-1.36,1.7.68,1.87-.34.85-1.19.34-2.71,2.04-2.88,1.53-1.02,1.87-1.19,1.02.17.51,2.54.17.68.51ZM981.49,362.89v-.51h-.68l.68.51ZM983.7,305.72l.17.85,1.87-1.87-1.19-.68h-1.02l.17,1.7ZM984.04,308.6l.51-.85h-.85l.34.85ZM987.26,327.77l1.02-1.36-1.36-1.02-1.02,2.38h1.36ZM986.41,308.43l.68-.68-.85.51.17.17ZM986.24,349.65h.51v-.34l-.51.34ZM986.58,322.17h1.36l.34-.85-.34-.34.17-1.19-1.36,1.02-.17,1.36ZM987.09,319.29l.85-.34-.85-2.71-.34,2.04.34.51v.51ZM989.3,319.29l.51-.51.17-3.39-1.87.17.85,1.19.34,2.54ZM988.79,351.86h-.51l.51-.51v.51ZM990.48,323.02h1.7v-1.7l-1.7,1.7ZM991.33,308.09l.85-1.02-1.36-.51.51,1.53ZM996.42,322.51l.34-.34-.51-1.02.17,1.36Z"/><path class="cls-1" d="M1028.32,373.58l-2.71-2.71-.17-.85-3.05-.17-1.87-1.02-1.87.17-3.22-1.87-.34-.85-2.54-1.87-3.56-1.53-5.09-6.96-1.53-3.05-2.37-8.65,1.02-7.8-.17-2.37,1.7-1.87,1.36-.34,1.36.17,2.04-.34,4.41-1.53,4.58-.68-.17-1.53-2.71-3.22-2.54-3.9-.85-.17-1.87-2.38.51-.34-.51-1.19h-1.19v-.51l.85-.51-2.04-.51v-1.19l-1.19.51-.85-1.53-1.02-5.26-1.87-2.38.51-2.21-.51-.68.68-2.21.51-3.9,1.02-3.05,2.04-3.22,4.24-4.07-.17-1.19,2.71-2.88,6.28-3.9h1.36l6.11-2.71,3.9-1.36,4.41,1.53,1.87,1.36h1.7l.85,1.36,1.87.51,2.04,1.36-.17.51h1.53l3.22,2.04,5.94,2.71,2.21,2.04v1.02l1.19-.17,2.88,1.19.51,1.87.68.34.85,1.7,1.36,7.8,1.36.68v.51l.85.68v.51l.51.17-.17,6.11-1.02,1.19.17,1.19,1.19-.51-.34,2.04-.68.17,1.02,2.04-1.02,1.7-1.02,2.88-2.71.68-2.37,1.36-2.04-.34,4.07,5.09.85,2.21,1.7.68,1.02,2.04-.85-.17-1.19-1.36-1.19,2.88,4.58.85-.17,1.53,2.54,3.73.34,1.87-.34,2.54,1.53,6.96-2.04,4.75-2.04,1.87-1.02,3.56-2.21,2.21-1.19,2.71-2.04.51-.34,1.19-1.7.34-4.58,3.9-5.09,1.02-.68.68-1.7.17-3.73,1.02-1.87-.17h-8.48l-.51-.51-1.53-.68ZM1004.39,306.05v-.51h-.51l.51.51ZM1021.53,360.51l2.38,1.02h1.87l1.36.51,1.36-.68,9.16-.85.51-.68,2.88-1.36,3.22-2.37,1.53-1.7.85-2.37,1.36-1.87v-3.05l2.21-5.43v-2.54l.51-.51-.51-.68.51-1.19v-1.36l1.19-.68-1.7-1.02-.68-2.21-1.02-.51-1.53-2.37-4.24-4.07-1.53-3.56-1.36-.17-1.7-2.04-3.56-1.53.17-1.02-3.22-1.02-2.04-2.04.17-1.36-4.75-.85-.68-1.7-.17-3.73-2.21-.34.68-1.19-.68-.51v-2.88l1.87-3.05,1.36-.51,2.21-1.7,4.75.51,2.88,2.21,1.02,1.7-1.02,3.05.34,3.22.68.51,1.02-1.36,2.71-.17,5.6-1.7,1.19-1.36-1.87-2.04-.51-3.39.17-1.87-1.36-5.26-1.7-3.22-3.39-2.04h-1.19l-1.36-1.53-.17-1.53-2.21-.34-1.87-.85-3.05-.34-2.38-1.19-1.87.85h-2.21l-1.19,1.19-4.07,1.53-3.05,1.87-1.02,2.88-3.22,3.56h-1.02l-1.36,2.71-.17,2.21-.51.51-.34,4.07,1.19,6.28,1.02,1.19v2.54l-.68.68,1.87.51,1.53,2.88,4.58,4.41.34,1.19,2.71,1.02,1.19,1.7v.51l2.88,2.71,1.02,2.54,1.02.34.51,1.19,2.21,1.87,2.04,2.37.51,2.54v3.05l-.68,1.19.17,1.7-2.71,1.7-3.22,1.02h-2.21v-.34h-1.02l-1.36-1.53-1.36-.68-1.87-2.04-1.19-3.73v-2.21l-.85.51-2.21-.34-5.77,1.87-.68,6.45.34,1.7,3.05,6.11,1.36,1.53,3.05,4.24,1.87,1.36,5.6,2.71h1.7ZM1023.06,337.1l-.34-1.53-1.53-.85-.68-2.04-.68-.17-.68,1.19.68,2.71h1.53l.51.51h.68l.51.17ZM1023.06,339.65l.51-.68-1.02-.34v.51l.51.51ZM1052.24,304.36v-.34l-1.36.17,1.36.17ZM1055.29,307.75h.85v-.51h-.85v.51ZM1029.5,307.75l.34-.51h-.34v.51ZM1053.25,308.94h.68l-.68-.68v.68ZM1060.38,310.97l.34.17v-1.36l-.34-.51v1.7ZM1056.14,310.97l.34.17v-1.36l-.34.51v.68ZM1053.25,329.47h.68l-.68-.51v.51ZM1054.78,338.29l3.9-2.88-2.38-1.53.17-1.7-.34-.51-.85.51.34,3.05-2.38,2.04,1.53,1.02ZM1062.76,336.25l1.02-.51-.68-1.36-.51,1.02.17.85ZM1052.24,336.93h.51v-.51l-.51.51ZM1053.25,339.14h.68l-.68-.51v.51ZM1053.09,369.17l2.04-3.05,1.7.17.51-1.19,1.19-1.02,1.7-3.39.85-.68,1.87-3.39v-3.05l-1.87,1.53-1.87.85-.34,2.21-1.36.51-.51.68-1.87.17-.17-1.7-1.02,4.07-1.53,2.21-2.21,1.02.17,1.53-.68,1.36,2.54.34.85.85ZM1035.44,368.32h1.53l-.68-.51h-1.02l.17.51Z"/><path class="cls-1" d="M1091.26,376.8l-2.88-1.87-5.94-2.54-.68-1.02-4.75-2.88-1.19-2.54-5.09-5.26-1.36-2.04-.51-2.04-1.36-2.71.34-.68-1.19-1.7-1.02-6.11-.34-4.24.34-1.02-1.19-3.39v-14.25l.51-1.53-.51-2.04-.17-5.94-1.19-1.87-.34-2.71-1.7-1.7-1.7-3.39-2.54-3.56v-1.19l.68-.68,1.7-8.65.17-4.92.85-2.04v-.85l1.36-.34,1.7-1.19,2.71-.68,2.37-1.19-.85-1.7.34-1.53v-8.14l.34-1.19-.34-2.04.51.34,2.54-1.19,2.54.17,1.02-1.02h2.71l.34.51h2.71l.68.85,1.36-.85,3.22.34,2.54-.17,1.87,1.36h2.54l1.87,2.21v1.7l1.36.34v1.02l.51.68v1.02l2.21,1.87-.34,2.37.51,1.19,1.19.17.51,1.36.17-1.19.68-.34-.68-.51v-.68l-.68-.85,1.53-.85h1.19l.51,1.87,1.7,1.87v.68l.68.51-.68.51,1.7,2.54,1.19.17,5.09,3.39,1.7.34,1.7,2.04h1.02l3.22,3.22h1.7v4.58l-1.19,2.04-.51,3.05-.17,6.45-.85,2.04-3.39,1.7-3.39.34-1.19.68-.85-.17-3.22.68-.68,1.36v1.19l-.68,1.87v3.05l.51,2.21-2.37,1.02.17,1.19,1.02,1.53.34,6.79-.34,1.7.68.68-.51,2.04.17,1.36-1.7,4.41.68,2.04,2.21,3.9,1.36.85,2.72,4.92h1.02l.51-1.19,1.19,3.9,2.21,1.02,2.21,2.04-.17,5.26-.85,1.7.17,1.7-1.02.51v.85l-.85,1.19,1.7,1.19-.85.51-2.21,2.88-1.53.17-1.19,1.87-2.21.17-.85.68-2.88,1.02-6.28-.34-4.24-1.53-2.38-.17-1.02-.51ZM1085.83,362.89h1.36l.51-.51.34.68,1.36-.17.51-.51,4.58-1.36,3.73-2.21,1.7-3.39-.17-.51.68-2.21,1.19-1.02-4.24-7.13.17-.34-2.72-3.56-2.71,1.02-3.39-1.19-1.19-2.71-.85.68-1.19-3.22-.34-5.77h-1.19l1.02-8.31-.34-1.36.51-.68v-.85l.85-1.19.51.34,1.19-1.87.68-2.71-2.37,1.7-.34-.68.34-.51v-2.54l-.51-1.53.68-3.73,1.53,1.53.34,1.36-.34,1.87,1.7-.17.17-.68,1.87-.68,1.7-1.19.68.17,1.53-1.19h2.04l-1.19-1.53.68-2.21-.85-.68-5.77.68-.68.68.85,1.19-4.24.17-.85-1.7.34-1.87,1.36-.68,1.19-1.53,3.73.51,1.53-1.02,1.02.85h.85l.68.85.85-1.02-.51-1.19,1.53-1.19-.34-1.7-1.02-1.7,1.19-2.54.34-3.56-.34-6.96-3.73.68-2.37-.51-1.7.17-1.53-.51-2.54-1.7-.17-.51,1.02-7.8-.68-3.56-2.21-.34-3.56-1.19-2.37.34-1.19-.34-1.36.68-1.53,3.22v2.88l-.51.85v4.07l-2.21,2.37,1.53,1.19-.85,2.04-.85.34-2.21-.51-3.56.34.17,1.53-.51.51-.34,2.04-1.19.51v.51l1.36.85-1.02,1.53.17.51-.51.85.17,2.04-1.19,1.19h1.02l-.34.68-1.36,1.02,2.88,1.36,2.04-.85,2.88.17,1.19.68.85,1.02-.85,1.02.17,6.79-1.19.85.17,1.19-.34,1.7.17,1.53.68.17-.68,1.36.68.51-.68,1.19.51,3.05-.68,2.88.17,1.19-.68,4.75,1.36-.17-.34,1.02,1.36,4.07-.17,1.87-.85,2.04v1.02l-.85.51,1.19,1.19-1.02,1.53.68.51-.51.85,1.02.34v1.02l.51.68-1.7,1.19,3.05,3.22.85,6.45,4.24,4.58,2.71,1.19,2.37,2.04h2.54l.51.85ZM1071.75,266.53h.68l-.17-.51h-1.02l.51.51ZM1091.09,273.31v.68h.85l.51-.51v.51l-.68.34.68,1.7.85-1.19,1.36-.34,1.53-2.21-2.54-1.53-1.19.17v2.04l.51-.17-.51.68v-.51l-1.36.34ZM1103.3,290.96l.51-.51-1.7-2.37,1.53-.17,1.36-1.02-1.36-4.24-2.21,1.53,1.36,1.19-1.19,2.88.17,2.38,1.53.34ZM1114.5,292.99l1.36-.34-1.02-1.19-.51.68.17.85ZM1103.81,300.63l1.19.68.68-2.21.17-2.71-1.36-1.02.85-1.36-1.87-1.7h-1.87l-.68.51,1.02,1.02-1.02,1.36,1.19.51,1.02,1.7-.68,1.53v1.53l1.36.17ZM1115.52,294.69l.17-.34h-1.36l1.19.34ZM1114.33,296.38h.51v-.68l-.51.68ZM1097.87,302.83l1.02-.51h-1.02v.51ZM1104.49,305.72l.85.17-.17-1.36-2.88-1.53-1.87.17-.68.51,2.54-.17-.34.85,2.54,1.36ZM1099.06,307.41v-.85l-.68.51.68.34ZM1092.95,325.9l1.19-.34-.51-1.02-.51-.17-.17,1.53ZM1089.39,337.44h.68l1.19-1.02-1.02-.51-.34.85-.51.68ZM1106.87,356.95h.68l-1.19-.34.51.34ZM1096.35,365.26l.51-.68-.68.51.17.17ZM1108.9,366.28l.68-.17-.68-.68v.85ZM1088.2,368.66v-1.02l-1.19-1.02h-1.53l1.36,1.19,1.36.85Z"/><path class="cls-1" d="M1142.49,279.59l1.7-1.02v-1.19l4.24.68.85-.51v.51l1.02.68.68-1.19.51.51-.68.85.85,1.53-1.02,1.19-2.72-.85v-1.53l-3.22,1.53.34.51-.51.68-1.02-.17v-.85l-1.02-1.36ZM1120.44,303l-2.38.17v-1.02l.34-.34-.17-2.04,1.53-2.38-.68-1.19.51-.68,1.87.17v-1.19l-2.37-1.87,1.53-2.04,1.36-3.22,1.87-1.36v.68l.85-.68.34-1.87,5.09-2.88,2.54-1.02,1.36-.17,4.41-2.37.85,1.7,2.71.68-1.36.68-1.19-.17-.68,2.37-.34-.17-4.58,3.22h-3.05l-1.02-.51-.34,2.21-1.53,2.71-1.19.17-1.19,2.54-.68.17v1.87l-.34.34-.17,2.04-2.54-.85v1.02l1.87.17.51,2.88-1.87,1.53v1.36l.51.68.17,1.19-2.38-1.36-.17-1.19ZM1142.15,381.72l-1.36-.17-4.07-3.05-3.22-3.39-.68.51-2.38-3.56v-3.56l-1.36-.17-2.21-2.54.34-1.02-1.53.68-1.87-3.9-1.36-1.53-3.39-6.96-.51-3.73-1.02-2.37.17-8.14-.51-1.53.51-1.19-.34-1.02.34-1.53-.85-2.54-.34-2.88,1.02-3.56-.34-.85.17-1.19-.51-.85v-2.88l.68-.68h.51v.51l1.02.51.51-.68v-2.04l-.51.17.17-1.7-1.7-.17-.34-3.56-1.19-.17,1.53-2.04v-4.24l.51-.51.34.85,2.88.17,1.7,2.21.34,2.71.68.85-1.36,1.19,1.02.51-.68,3.39.85,1.87v1.87l-.34.51.51,3.9-1.53,2.21,1.02,1.53-.17,1.19h-.85l-.17,1.7-.51.34v1.36h.51l.34.51-.34,1.19.17,5.09,1.36,3.39.85.68.34,3.39-.34,4.07,2.21.85v2.04l.51,1.53,1.02.34,1.7,1.53,5.43,3.9,2.88.34,6.79,2.21,1.02-.68.51.17,1.19-.85,4.92-.34,1.36-.68h1.53l2.04-2.21,4.75-6.11-.51-1.87,2.21-3.9-.34-1.53,1.53-2.54.51-2.21-.68-1.02h-3.22l-.68.51h-1.87l-3.22-1.36-2.88-.68v1.36l-1.02.85.34,1.02-.34.85v2.04h-2.04l.17,1.53-1.53,1.02-6.28,1.19-1.87-1.7-1.36-.17-1.53-1.02-1.02-4.07-1.19-3.56.51-6.28,1.19-.85-1.19-1.7v-2.71l2.54-.68.51-.51h4.24l.51.68-.51,3.56-.68,1.53.17,1.87-.51,3.9,1.02.68,1.19-2.04,1.19-1.02.34-1.02.51-.17v-1.53l-.68-.68,1.19-.34,1.53.17,1.02-2.71-2.54,1.36h-1.02v-1.36l-2.04-1.02,3.73-.85,3.56.51,1.7-1.53h1.53l.85,1.53,1.87-1.7,1.19-.17.17-1.19h2.04l2.37-4.58v-3.39l-.85-2.71.17-5.6,1.36-3.39.85.68.68-.68-1.02-2.04.34-2.21-.51-2.54-1.19-.68v1.36h-1.36l.34-2.71-.34-3.22-2.21-2.21v-3.73l.68-2.21-1.53-.85-.51-1.36,4.24,1.7,2.04,2.04v.51h1.19l.51,2.04,1.36.51,6.11,3.22v1.19l2.54.68,1.02,2.04v1.02l2.04.17v2.04l2.37,1.02v1.7l1.53,2.04,1.02,2.71-.17,2.04-.85,1.02,2.54,1.87,1.19,5.26-.68,3.73-.85.68,1.36,1.19v1.7l-.51,1.36,1.19,2.37v1.19h-.68l.68,1.7-.68.34v1.02l.68-.17.17,3.05-3.39,2.71-3.56.85-1.19-.51-5.43,1.87,1.87,1.53,1.02.34-.68,3.9,1.02-.17-.17-1.02,1.53-.85,1.53,2.37,2.88,2.54.68,1.19.85,5.26-1.36,2.04-.17,1.53-1.02,2.21-.17,1.87-1.87-.17.34,3.56-3.05,2.04.85.51-1.36,2.71-3.73,4.75-1.53.34-1.19,1.02-3.05,4.41-1.7.51-.51-.17-1.53.85-4.24,1.19-1.36-1.36-.17-1.7-1.36,2.21-.85.51-2.54-.34-1.36.85-3.05.51-1.02-.51-2.21-.17-1.36-.68-1.87-.17.17-.85ZM1126.54,285.53l1.02-.51h-1.02v.51ZM1123.83,290.96h.51v-.68l-.51.68ZM1120.1,292.48l.51-.51h-.51v.51ZM1170.14,295.88l1.19-.17-.34-1.19-.85,1.36ZM1149.28,303.17l-2.21-2.71,2.04-1.19-.17-1.02.51-.17.68.85.68-1.7,1.7.51.17,1.19h.51l-.34,2.88-1.87,1.02.34,3.56-2.04-1.02v-2.21ZM1173.54,302.49l1.36,1.7,2.37-.17-4.41-6.28-1.02-.34,1.02,3.73.68,1.36ZM1119.59,302.15l1.02-.17,1.02-2.21-.85-1.19-.68,3.05-.51.51ZM1150.46,301.13h1.7v-1.19l-1.7-.34v1.53ZM1137.4,311.48l-.34-4.92,1.7.17-.51-.85.51-1.19,2.04-1.19.51-.85,1.19,1.02h.51v.51l-.85.85.85,2.37,1.7,1.87,1.53-1.02,1.7.34,1.53,1.36-1.53,2.54.34,1.87-4.24-.85-5.6.17-1.36-1.53.34-.68ZM1172.18,304.7h.68v-.51h-.68v.51ZM1179.31,307.41h.51v-1.02l-.51.34v.68ZM1171.33,307.92l.34-.51-.34-.68-.51.68.51.51ZM1177.78,309.62l1.02-2.71-2.04,2.71h1.02ZM1170.82,311.99l1.02-2.54-1.02-.68-.68.34.68,2.88ZM1177.27,322.34l.34,4.75,4.41.17-.17-3.22.34-.68-2.04-1.53-.68-4.41.68-2.04-1.02-1.19.17-3.56-.51.17-1.19,1.87v1.7l.17-.34.34,6.28-.68.85-.17,1.19ZM1121.28,316.91l1.02-.51h-.51l-.51.51ZM1118.4,320.64h.68l-.68-.34v.34ZM1148.94,334.56h.51l2.88-2.37-.17-1.19.85-.68.34-1.53-1.19-1.19.68-1.53-1.7,1.36-.34,2.21-1.87,1.7,1.53.68v1.02l-1.19-.51-.17.34-.17,1.7ZM1183.04,329.98h.51l-.51-.85v.85ZM1166.92,335.57h1.53l1.19-.51h2.54l1.19-.51,6.62-.68-.17-1.36-1.7.17-1.02.85-1.53-.17-.51-1.02-1.87.17.17-1.36-1.19.17-.51.68-2.04,1.19-3.22.17-2.04-1.87h-1.19l-.85,2.71,2.21,1.02,2.38.34ZM1141.3,335.57v-3.56h-.68l.17,3.05.51.51ZM1168.62,356.95l.51-.17v-1.36l2.88-.85.17-1.53,1.19-1.87-2.21-2.88-3.56,6.96,1.02,1.36v.34ZM1174.56,356.95h.51l-.51-.34v.34ZM1165.39,362.89h1.36l1.36-1.87-.85-1.53.34-1.36-.17-1.19h-.68l-.51,1.02-2.21,1.53,1.19,1.53.17,1.87ZM1156.4,371.37h1.02v-2.04l-.34-.34,1.7-2.21-.17-2.37h-1.87l-3.05,2.37,1.36,1.36.17,2.04,1.19,1.19ZM1135.87,367.13l-.17-1.02-2.37-.68,2.54,1.7ZM1167.09,376.12h1.53l.51-2.88-.17-5.09-1.02-1.02h-.85l-.68.51,1.02,1.7v.85l-1.7-.68-.68.51,1.36,2.71-.34,1.36,1.36-.17.51.51-.85.68v1.02ZM1140.79,367.81l1.02-.51-1.36-.17.34.68ZM1138.93,371.03l-1.19-1.36-1.19-2.04h-.34v1.02l1.19,2.21,1.53.17ZM1140.79,373.58l2.21,1.53,1.19-.85-.68-.85-2.38-.85-.85-1.19h-1.02l.34,1.02,1.19,1.19ZM1146.22,377.31l-1.19-1.19.17,1.36,1.02-.17Z"/><path class="cls-1" d="M1201.36,375.61l-.85-.85-2.54-3.9-1.36-.85-1.53-2.38-2.71-2.88-5.09-3.05-1.02-8.48.68-2.21.34-6.45-.51-2.37h2.37l1.53-.51-3.22-1.53.85-1.53v-8.31l2.04-3.56-.34-2.88.34-1.7.68-.51-.51-1.53,1.02-2.04-.68-.85.51-5.26-.51-1.36,2.37-1.7-.68-1.53-.17-2.71,1.19-7.8.68-1.19v-5.09l.34-1.87-.51-3.56.85-1.19v-1.7l.68-1.19-.68-.68.17-2.04,6.96.17,1.02.34,1.19-.17,3.56.85,1.02-.85,1.7.34,5.09-.34.68,1.87,1.19-1.19,2.88-.85,1.19,1.02,2.37-1.02.68.51,1.7-1.19,5.77-.17,1.02,1.02.51,3.05,1.36,3.39,1.53,1.53,1.53-.17.68,1.36-.17.68,1.19.34,1.7,1.53-.17,1.7,1.19,2.21,2.21.68.51.85-1.53.17,1.36,3.39.68-.68h.68v1.02l-1.02,1.19-.17,3.22h-1.02l-1.19,1.02.17.34,1.7-.17.85,1.19v3.73l-.51,1.7h-1.02l-.68.51.85.51-.17,1.02.51.34-.34,1.36,1.36.68-1.19,3.05-1.02-.51-.51,2.04-2.21-.85-1.87-.17-2.71.51-.85-.51-1.53,1.19-2.04-1.36-1.02,2.71-1.7-.34-2.04,1.87-1.36.68-.85,1.19,1.19-.85,1.53.17.85-1.53h1.19l-.68.85-.34,1.36-3.73,1.19.85.85v.85l.85,1.19-1.02,1.53-.68.17-.34,5.26-1.02.68,1.02,1.53,1.7,1.36-1.53.68-.17,1.02,1.53.17,1.02,3.05-1.53,2.21-2.04.34v1.7l-.68.68,1.02,2.37-1.87.68-2.21.17.34-.34.34-2.04-1.19-.34,1.36-2.71-.85-.51.17-1.7-1.36-.51-.51-3.05h-.34v8.82l-1.36.85.85,1.02v.51l1.19,1.19-1.36,2.88.51,1.7,2.04,2.37,2.04-2.04-1.36.17-.34-.85,2.04-.51-1.53-.68v-1.7l-.85-.85,1.7-.85,2.54.68-1.02.51-.17,1.02-.85.68,1.02.51,1.7-.17v1.87l3.39,1.87-2.37,2.71-1.87,1.02,2.21,2.71-1.02.51-.68,2.54h1.87v.85l1.19.85-.68.85,2.21-.51-.17,1.87-2.71,2.54-1.36-.34-3.56.51h-3.73l-1.19.85-3.9-.34-.85.51h-4.41l-2.21-.68h-1.7l-1.53-2.21ZM1198.65,360l.85.68,1.36.17,1.87,1.19.85-.68,4.07.17,2.37-1.02-.51-1.87.51-2.04v-2.71l1.19-.34.68-1.7-1.87-.85.17-5.77.51-1.36-.17-.85.68-2.37-.51-.34-.68-3.39.17-6.62.68-1.36-.17-1.87.34-.34v-2.88l.68-1.53v-4.07l.34-.34-.51-.68,1.19-2.21-.68-.51.17-2.37.68-1.02,1.02-4.75,3.9-4.24.85.17,4.24-2.04,1.53-.17,1.36-1.7,1.02-3.22-.17-2.38.51-3.73-.68-1.19.51-2.21-.51-3.39h-6.28l-.68.51-4.41,4.92-5.77.17-1.02-.68-.17-1.7-1.02-3.22-4.24-.17-1.7,6.11.51,1.87-3.9,1.19.17.68,2.38-.17.17,1.02-1.36.34-.34.85,1.53-.51v2.21l-2.71-.17-.85-.85-1.36-.34.34,3.56,1.02-.34,3.05.68v1.02l-.51.51-.51-.51-.68.51,1.7,1.7-1.02,6.96.17,3.73-.51.85v1.7l-1.02,2.04-1.87-.51v.68l1.7.17v8.14l-.51.68.17.85-.51,1.7v3.56l-.85,5.43.34,1.7-1.19,5.77.34,1.02-.68.51.34,3.73-.34,3.73.51,1.7-.51,2.21,1.53,1.53,2.71.68ZM1197.8,283.66l.68-.51h-.68v.51ZM1235.8,299.44l2.04.34.68-.51-1.87-.51-.68-.85,1.87.34,2.04-.68-.68-.51v-.68h-1.36l-.17-.68-1.02-.68-1.19-2.21-1.02,3.22.17,1.53-.51,2.54,1.7-.68ZM1199.66,296.21l-2.21,1.19.85-1.19h1.36ZM1242.93,300.12l.51-.34v-.51h-.51v.85ZM1196.27,300.12h.51v-.85l-.51.51v.34ZM1241.4,302.32h.68l-1.19-.51.51.51ZM1225.62,305.88l2.21.68.85-.51.68.51.68-.51-.17-1.19-3.22-1.19-2.21,1.53.34.85.85-.17ZM1196.27,305.21l1.02.17v-1.36l-1.02-.17v1.36ZM1243.6,309.28l.51-1.36-.68-.68-.17.85.34,1.19ZM1227.15,309.45h.51v-.85h-.51v.85ZM1236.48,319.12l-.17-2.37,1.02-.34,2.04-1.7.34-.68,1.36-.17.51-1.87h1.36l-.17-.34-2.04.51-1.53-.68-1.36.68h-3.05l-2.88-2.71h-.51l.34.68-2.04,1.87.51,1.7.51.34.34,1.53,2.04,2.21,2.54.51.85.85ZM1242.59,315.72v-1.19h-.51l.51,1.19ZM1219.17,333.54l.85-.85,1.36-.51-.85-.68.85-1.53,1.36-.34-1.02-1.02.34-2.71-.51-1.7-.34,1.02-.85.85-1.02-2.71-1.36.34v9.16l1.19.68ZM1192.54,326.41h.68l-.17-1.19-.51.68v.51ZM1193.05,334.9v-2.21h-1.02l.17.85.85,1.36ZM1193.05,341.17l-.17-2.54-2.54-2.88.17-2.54-1.53.17,1.02,2.04v1.36l1.02,1.02-.17,1.7,1.02.17.17,1.53h1.02ZM1192.03,345.41l.68-1.87-.17-1.19-.51.51v2.54ZM1222.74,344.57h.68l-.17-.51-1.02-.17.51.68ZM1192.2,355.25l-.34-1.36.51-2.04-1.19-1.87,1.87-2.37v-1.02l-2.04,1.87-.68,1.53.51,3.9h-.68l.17,1.19h1.02l.85.17ZM1211.71,350.84l.34-1.19-.68.17.34,1.02ZM1224.43,362.38h.34v-.34h-.85l.51.34ZM1221.72,368.83h.51l-.85-.51.34.51ZM1210.01,373.75h.68v-.68h-.68v.68ZM1220.36,373.58l1.02-.51h-.85l-.17.51Z"/></svg>