<?xml version="1.0" encoding="UTF-8"?><svg id="Layer_1" xmlns="http://www.w3.org/2000/svg" viewBox="0 0 1179.84 512.8"><defs><style>.cls-1{fill:#fff;}</style></defs><path class="cls-1" d="M3.2,217.6l-3.2-2.8.4-14.8,1.2-2,2.4,1.2,4-2-2,4.4-4.4,1.2v2.4l1.6,1.2,2.4-1.2,1.2,3.2-.4,6.4,2-2.8,2,6.8-4.8,5.2-2.4-4v-2.4h0ZM3.2,215.2h1.2l-1.2-1.2v1.2ZM112,320.8l-3.6-.4-2-3.2,2.4-2.8-.4-3.6h-2.4l-2.4,1.6-1.6-1.6,1.2-3.2-10,4.4v-.8l-2,2.4-6.8-1.2-1.2,4.4h-2l-1.6-1.6-2,4.4-1.6-2-4.8-2.4-6,4-8-4h-4l-3.6-4-6-3.2.4-5.2h-3.6l-1.6,1.6h-5.6l-3.2-6-3.6-1.6.4-2,3.6-4.4-.8-2.8-3.2,1.6v-2.4l-2.4-.8,2-6.8-3.2-.4-.4-4,1.6-4.4-.4-2-9.2-4.4,1.2-2-1.2-3.2-5.2-2,2.4-6.8,1.2-.8-1.2-11.2-4,2-1.2-2h-.8v-2l8.8.8-.8.8,4,2.4-1.6,2,.8,2.8-.4,4.4,4.8.4,3.2,1.6,2.4,7.2h2.4l1.2-2.8,1.2,2.4,7.6,4.8,4.8,6.8,4-1.6,9.6,2.8,1.2,1.6,2.8-1.2,9.2-.4,7.2.8,14-9.6h2.4v2l2.8-1.2,1.2,1.2h2.8l1.6-1.6,1.6,1.6h2l2,10,2.4-.8,4.8.8h14.4l2-4-.4-5.6,2.4-5.2.8-11.2,1.2-1.6-.4-6.4-2.4-7.2.8-7.6-.8-12.8-1.2-3.2,1.2-5.6-1.6-9.2.8-12-1.2-8.4.8-.8v-6.8l-3.6-3.6v-12.8l1.2-1.2-2.4-1.2-.8-3.2-3.6-1.2-1.2-4.4-8.8-3.6-4.4,3.2-1.2-1.2-9.6.8-7.6-3.2-10,.4-.4,3.6-6.4,15.6,14.8,2,3.6,2h3.6l2.4,6.4-4.8,4.4,1.6,3.2-1.2,1.6v7.2l-2,4-1.6,1.2,1.2,3.6-2.4,11.2.4,6.8-2.8,3.2-2.4-1.6-.8,5.2-4,.8-.4,2.4.8,1.2,2.8-2.4,2.8-.8-5.6,9.2-12,4.8-4-1.2-5.6.4-3.6-6.8-3.6-3.6v-4l-1.2,3.2-1.6-.4-3.2-9.6-1.6-1.2.4-4h-1.2v-1.6l1.2-.8-1.6-4,1.2-1.2-2-6h-1.2l.8,4.8-1.6,1.6-.8-4.8,1.2-2.4-1.6-4,3.6-3.2-2.8-4,.8-4.8-1.2-2.8,6.4-2.4-2.4-2-1.6,1.2-1.2-.4-.4-9.6,3.6-8.8-3.2-2.4,2.4-3.6-1.2-2.8,4.4-4.4-4.4-1.2,2.8-10-.4-4.8,2-2,2-6,2-12,.4-9.2,3.2-5.2.8-4.8,8.8-11.2,2.4-.4,2.8-6,8.4-2.8,3.6,2,8,1.6-.8.8,5.2,3.2,1.6,6,1.6,1.2-.4,3.6-1.2,1.2,3.2,1.6-.8,2-.4,13.6-1.6,2.8-.4,2.8,2.8,2,3.2-.8,4,.8h10l8-2,5.2-2.8,4.4-5.2-.8-1.6,1.2-3.2-1.6-8,1.6-3.2,2-1.2-4.4-8,1.2-6-.4-2.8,2.4-2v-1.6l-1.6-.4-.4-12.4-3.6.4-.4-2.8,1.2-2-2.4-.4-1.2-3.2-3.6-4.4-.4-2.4-2-2-6-1.6-5.6-.4v-4l-5.2.8-3.6,1.6-5.2-5.6-13.2-1.6-.4-5.2,3.6-3.2,4,3.6v2.8l3.2-4.4,6.4.8,2-2.8,4.4,3.6,9.2,1.2.4,2,3.6-.4,2,1.6,2.8-.8,7.6,2.8v2.8l4.4,2,2.4,3.2,8.8,5.2,2.8,5.6-2,1.6.8,7.2-1.6,1.2,1.6,1.6,1.2-1.6h4v8l2-3.2,2,4.8,3.6,1.6,4.8,16.4-.8,5.2-1.2-2.8-1.6,2.8-1.6-2.4-1.2,2.4h-1.2l-.4-5.6-2.4-3.2.4-2,2.4-1.6v-6.4l-3.6,3.2-4.8-.4.8,5.2,3.6,1.2-3.2,2.8v2l-2.8,7.6-3.2,5.6,1.6,1.6.4,14.8-1.6,3.2v3.6l-2,1.2-6.8,8.8.8,2.8h4.4l2,2.4.8,4.4,8.8.4,2.8-1.2,3.6,2.8,2.4.4.4,3.2.4-2.4,4-2.8,1.2,4-.4,2.8-1.6,2.8,6,5.6v2l4-1.6,4,2.4,2,2.4.8,14.8-.8,3.6.4,6-4.4,4,4,2.4,1.6,18.4-1.6,1.6-1.6,5.2,2.4,2-.8,3.6-3.6,3.6,4,3.6,3.2,1.6-5.2,4.4-1.2-1.2h-2v3.6l3.2.4,4-1.6-2.4,5.6-1.6.8-1.2,5.2,3.6,2-5.6,1.6,3.2,5.6,2.4-2h-2l-.4-2.4,4.8-4.4-.4,6.4-.8.8.8,8.8,2,6.4-4.4.4,2.4,2.8h2.4l-1.2,2.4.4,6.4-.8,2v5.2l1.6,2.4v5.6l-1.6,1.6v15.2l-1.6.8.8,8-7.2,3.6-7.2-2-1.2,2.8-1.2-.8-2.8,1.6-.8,4.4-1.6-1.2h-3.6v-5.2l-1.2-.8-2.8,6-1.2-3.2-4.4,1.2-8.8,4.8-4.8-4.4-2.8,2.8-6.8-.4-8.8,2.8,1.6-3.6-4-1.2h0ZM11.2,62.41l-2.8,1.6.8-3.6,4.8-10,.4-6,3.6-4,4.4-2.8,4.8,1.2-1.6-4.4,2.4-6,6.4-4,2.8.4,2.4-3.2,2.4,8.8-6.4-.8.8.8-1.2,2-3.6-2-3.6,5.2,1.2.8-1.6,8.4-6.4,2.8,2,2.8-2.8,1.6,2,2-1.6,1.2-4.4.4-2.4,3.2,6-.8-.8,4,.4,4h-4l-2-4.4-2.4.8h0ZM18,49.61h1.2v-1.2l-1.2,1.2ZM26,282.4l3.2-1.6h-2.8s-.4,1.6-.4,1.6ZM30.4,277.6l4,4.8.8-2.4-1.2-4.4h-3.6l-1.2,1.2s1.2.8,1.2.8ZM36.4,284h2v-1.2h-2v1.2ZM39.2,279.2v-2.4l-.8,1.2.8,1.2h0ZM38.4,296.8h.8v-1.2l-.8,1.2ZM49.2,19.61l.4-2,5.6-2.8,6.4,1.2,1.6-2.8,2.8.4,8.4-4,1.6,1.6-1.6,7.2h-2.4l-2.4,3.2-2-2h-4.4l-1.6-1.6-2.8-.4-7.6,6.8-4.4-.4-1.6,1.6-.4-5.6s4.4-.4,4.4-.4ZM53.2,91.2h2.4l1.6-1.2-2.8-.4-1.2,1.6ZM58,196l2.4-3.2-1.6-1.2,3.6-6-2-5.2,2.4-4-4,.4-.8-2.4,2-2.8-.8-2-5.6,5.2,3.6,2.4v1.6l-1.6-.4-2.4,2.8.4,12.4,4.4,2.4h0ZM54,147.6l-.4,2.8,4-.8.8-2.4-1.2-1.2.4-1.2-3.2-.8-.4,3.6h0ZM62,296.8l6-2.8-6-8,2.4-3.2h-2.8l-3.2,2.8.8-2.8-3.2-.4-.8,8,3.6,1.6,3.2,3.6v1.2h0ZM57.2,202.8l1.6-3.6h1.6l-.8-3.2-2.4,3.2v3.6h0ZM60.4,194.4l2.8-1.6h-1.2l-1.6,1.6ZM63.2,132.4h2.4v-1.2h-1.2l-1.2,1.2ZM63.2,189.2l1.2-1.2h-1.2v1.2ZM68.4,125.2h2l-1.2-2-.8,2ZM69.2,102.4h1.2l-1.2-1.2v1.2ZM74,176.8l7.6.8-.4-5.6-2-2-1.6,1.2-4.4-.8-3.6,4.8,4.4,1.6ZM74,88.81l2-2.4-3.2,1.6h-2.4l3.6.8h0ZM70.4,96h1.6v-2.8h-1.6v2.8ZM74.8,124.8l1.2-2.4,2.4-1.2-1.2-2-4-2,1.2-1.2-.8-.8-3.2,6.8,4.4,2.8h0ZM72,214l-.4,2.8,4.4.4-1.2-3.6,1.2-8.4h-4v8.8ZM73.2,148.8v-1.6h-1.2l1.2,1.6ZM74,200.8l3.2-.4-.8-4-2.4-1.2-2,4,2,1.6h0ZM72.8,111.6l6-2.8v-6.8l5.6-2.4-2-1.2-1.2-4.4v-6l-3.2-.4-.8,8-2.4,2-.8,5.2-1.6,2.8,1.2,2-.8,4ZM76.8,194.8l1.6-2-1.2-2.8,4-2v-4l.8-.8-2.8-.4-2.4-1.6,1.6,4-2.4,3.2-3.2-.4.4,2.8,3.6,4h0ZM76,292.8v-.8h-1.6l1.6.8ZM82,303.2l4,1.6,4.4-2.4-1.2-5.6h-7.2l1.2,1.2v1.6l-4.8-.4,1.6,4h2ZM84.4,97.2l2.8-1.2h-2.8v1.2ZM86,198l1.2-.4v-3.6l-.8,1.6-.4,2.4ZM91.2,161.2h.8v-1.2h-.8v1.2ZM98,274l4,.4-.8-3.6-3.2,3.2ZM118.8,118.4l2.4-2.4-1.2-.8v-3.2l-4-.8v-1.2l-2.8,1.2,2.8,4-2.8,2.8,5.6.4ZM114.8,315.6l2.4-.8h-1.2l-1.2.8ZM122.8,306l2-3.2h-2v3.2ZM141.2,79.6l2-1.2-1.2-1.2h-2.4l1.6,2.4h0ZM144.8,310.4l5.2-1.2.4-3.2h-5.2l-5.6,3.6,5.2.8h0ZM142,226.8h1.2l-1.2-1.6-2,.4,2,1.2ZM141.2,160h2l-2-1.2v1.2ZM148.8,160l3.2.4,4-5.6-4-2.8,2-2-7.2,1.2-1.6-1.2v5.6l3.6,4.4h0ZM148.4,300.8l7.6-4h-10l-.4,3.2,2.8.8h0ZM147.2,176.4h1.6v-1.2l-1.6,1.2ZM151.2,172.4l.8,2.8,2.4.4-2.4-8.8-2.4,2,1.6,3.6h0ZM164,258h2l-.8-2.4,2-6.8v-5.6l-2.8-4.4,4.8-7.2-2-3.6,3.2-3.6-2.8-1.2-2-4.4,3.2-2h2.4l-2.4-5.6,1.2-1.2-3.6-.8.8-6,2.4-4-3.6,2h-6v-2h-1.2l2.4,6-4.4.8,3.2,3.2-2.8,2,1.6,1.6v2.4h-7.6l.4,4,4.4,2.8v2.4l-4-.4-.4,1.6,2.4,1.2-.4,2,3.6-2-1.6,4.8-2,1.2,3.6,3.2-2,1.6,1.6,1.6-2,2.8,4,3.2-2,1.6,2.4,2.8,1.6-5.2,2,2.8,1.2,6.4-1.6,2.4,1.6,2h0ZM154,200l.8-.4v-3.2l-3.2,2.4,2.4,1.2ZM154,204h.8v-1.2l-.8,1.2ZM156,303.2l2.8,2,3.2-4v-7.6l-5.6-3.6.8,5.6,1.6,1.2h-1.6l-2.8,4.4,1.6,2ZM157.2,110h-2v-2.8l3.6.4-.4-6.8,3.2-4-.4-2.4-1.6-.8,1.2-5.2-3.6-6h7.6l1.2,2-3.2,2,3.2,3.2-.4,14-2.4,9.6h-3.2l.4-1.2-3.2-2h0ZM164,191.2l.4-2,2.4-1.6-1.6-6.4,4.4-5.6-2.4-3.2-2-12-5.6-3.6-3.6-.4v7.6l2,4.4-1.2,6,3.2-.4.4,4,1.2,2-2,1.2,2.8,4.8-.4,4,2,1.2h0ZM157.2,192.8h1.6l-1.6-1.6v1.6ZM166,272.8l1.2-.4-2.4-3.6-7.6-.8v4h6.8l2,.8ZM160.8,281.6l.8,1.2,5.2-3.2,2,2.4,1.2-1.2v-3.6l-5.2-2.8-6.8,4,2.8,3.2ZM161.2,290.8l.8-4h-2l-.8,1.6,2,1.2v1.2h0ZM161.2,235.2v1.6l-1.2-1.6h1.2ZM161.2,108.4h.8v-2.4h-.8v2.4ZM164,268l3.2-2.4-1.2-1.6-4.8.8,2.8,3.2ZM161.6,312.8h2.8l.4-2.8,2-3.2h-2l-3.6,4,.4,2h0ZM169.6,270.8l4,.8,1.2-6-3.6,1.2-1.6,4h0ZM171.2,177.2h1.2v-.8h-1.2v.8ZM172.4,188l2.4.4,1.2-5.6-2.8.8-.8,4.4h0ZM174,234l.8-2-.8-2v4ZM174,238l.8-1.2h-.8v1.2ZM174.8,252.8l2.4.4-1.2-3.2-.8.4-.4,2.4h0ZM178.8,268h1.2v-1.2l-1.2,1.2Z"/><path class="cls-1" d="M224,304.4l-3.6-1.2-3.6,1.6-2.4-4.8-4.8-.4-5.2-8.8-7.2-3.6-13.6-15.2-1.6-6.4-3.2-3.2.4-13.2,1.2.8-1.2-10.8-1.2-1.6,1.6-10.4-.8-2.8.4-4.8v-20.4l.8-2.8-1.2-3.6,1.6-15.2-.8-7.6,1.2-3.2v-5.6l2-12.8v-39.2l2.4-4.8-1.2-12.8,1.6-1.6,2.4-5.6h4.8l6,4,10-.4-6.8-6.4v-6l-3.2-1.6-1.6-4.8-4.4-7.6-5.6-4.4-.8-6.4,4.4-3.6-4.8-1.2-.8-5.6-1.6-3.2,1.2-1.6,3.2.4v-4.4l-1.2-2v-4h2.4v2l1.6,2.8,1.2-4.8h1.6l-1.6,6-2,1.2,2.4,4-4,2,4.8,2.4,1.2,3.2,2.8,2.4.4,2,4.4,2.4,11.6.4,10,1.2,4,1.2,1.6-5.6v-6l2-2.8-3.2-6.4,2.4-5.6-2-7.2.4-4.8-.8-4,1.6-1.6-3.2-2-13.2-.4-1.2-3.6.8-1.2,6.4.8,4.8-.8,1.6-1.2h12.4l.4,2.4,2.8,2.4-.8,3.6,4.8.8-4.4,2.4,3.6,3.6,4,.4.8,2,2.8,1.2.4,1.2,5.2.4.4,4,2.8,1.6v2l2.8,3.2.4,3.2,5.6,6.8,2.4,9.2,3.6,3.2v5.2l-2.4-.8,1.6,5.6-4,8v6.4l-2.4,3.6,2.8,3.6-1.2,10.8-12.8,2.4-3.2-1.2-5.2.8.8,4.8,6.8,9.6.8,2.8,4.4,2.4,5.2,8,4.8,3.2,2.4,4.8-1.2,6,.4,9.2-1.2,4-.8,9.2-2.8,4.4,2.4,5.6v2.8l2,5.6v3.6l-4,9.2.8,3.6h2.4l-.4,2.8.8,3.2-1.6,2.4v8.8l-2.4,2.4,2.8,4.4-3.6,2.4,3.2,2.4,1.2,8.4-1.6,6.8-2.8,6.4,3.2,6.8v26l-1.2,1.2-.4,9.6-4,2.8,4,.8v3.2l1.6,3.2-2.4,1.2-3.2,3.6-14.4-3.2-12.8-.4-2.8,1.6-3.6-1.2h-4.8l-2.8.4h0ZM190,1.61l6.8-.8,8.8,2-.4,4.4-2.8-.4-4.4-2.4-5.2,3.2-.4,3.2-3.2-1.2-4,2.8,1.6-8,3.2-2.8ZM212.4,259.6l2.4.8,8.8-.8,2.8-4,.4-7.2,1.2-1.2,1.2-6-2-2-1.2-7.2.4-7.2,1.6-2.4-.4-2.4,1.6-3.2-1.2-10v-23.2l.8-1.2-1.6-2.4.8-5.2-.8-1.2.8-9.2,6.4-1.2,3.2,1.2,4.8-1.2-.8-3.2-6,.8-1.6-2.8-5.6,4.4-.8-2.4,1.6-2.8-1.2-1.6-1.2-14.8v-22.4l-1.2-3.6,1.2-4.4v-7.2l-5.2-1.2-2.4-1.6-10,.8-4.4-2.4h-3.2l-2-2h-2l-3.2,8,1.6,5.2-1.6,5.2-2,3.2,2.8,1.6v5.6l-2.4,4,2.8,3.2-.4,9.6,2,1.6-3.2,1.6.4,4-3.2,3.2,1.6,1.2-2,1.6,1.2,8.8,2.4,7.6-5.2,5.2,2,2.4.8,4-2,2.8.4,6.4,1.6,4.4-2.8,5.2.8,5.6-.4,6,2.4,6h-2.8l-1.2.8,3.2,8.8-1.6,6.8,2.8,17.6,2,1.2,11.2,4,6.8.4h0ZM197.6,274.4l4,2.8-2.4-4.8-4-3.2-2.4-.4,2.4,3.2,2.4,2.4ZM210.8,71.6l6,10,2,1.2,1.2,4,4,.4,4-4-6.4-4.8-4-11.2-4.4-3.2-6.4.4v2.4l.4-.4,3.6,5.2h0ZM232,12.81v-1.2h-1.2l1.2,1.2ZM233.6,20.41l3.2-2.8h-1.2l-1.6,2h-2l1.6.8ZM242.8,248.4l2,1.6.4-2-2.8-10v-3.2l-2-4.8.4-2.8-4.8,2-2.4,3.6,5.6,3.6-2.8,5.6,3.6,4.8,2.8,1.6h0ZM240.8,190.8l2.4-.4,2.8-4-3.2-2.8v-17.2l-2-.4-3.6,6.4,1.2,4.4-.8,1.6,2.8,4-6,2,6.8,2-.4,4.4h0ZM242,123.2v-.8h-1.2l1.2.8ZM242,147.2l1.2-.8,1.2-4.4-2-2-1.6,3.6,1.2,2v1.6h0ZM242,24.41h2l-1.2-1.6-.8,1.6ZM244,275.2h1.6v-1.2l-1.6,1.2ZM246.8,194.4v-.8h-1.2l1.2.8ZM256.8,265.2l2.4.4v-3.2l-2-.8-1.6-4.8,2.4-1.2,1.2-3.6,3.2-2-3.2-2.4-.4-7.2-3.2-2.8-3.2-6.4h-1.6l-4,6.4,2.8,10.4,3.2,3.2.4,2.8-.8,2.8,4.4,5.6v2.8h0ZM248,277.6l1.2-1.2-1.2-1.2v2.4h0ZM252.8,85.6l1.2-1.2-4.8-1.2v2l3.6.4h0ZM252,125.6h.4l-.4-3.2h-2.8l1.6.8,1.2,2.4h0ZM256,292.4l2,.8-.8-4,2-6.8-1.2-2.4v-2.8l-5.2,1.2-.8,5.6.4-.4-.8,6.8,4.4,2h0ZM254,57.61l3.6-6h-3.6l-1.2,1.2,1.2,1.6-1.6,1.6s1.6,1.6,1.6,1.6ZM255.6,134.4l1.2,2.8h1.6l2-4.8-2.8-4.8-1.6-.4-3.6,2.4,3.2,4.8h0ZM256.4,46.81l.8-4h-3.2l2.4,4h0ZM254,197.2h1.6l.4-1.2-1.6-1.6-.4,2.8ZM255.6,210h2l.4-6.4-1.2-1.2-1.2.8-1.6,5.2,1.6,1.6h0ZM266.8,158.4l2.4-1.2h-1.2l-1.2,1.2h0ZM266.8,212.4l1.2-1.2h-1.2v1.2Z"/><path class="cls-1" d="M362.4,314.4l-10-6.4-14,6.8-3.6-.4-6.4,1.6-3.2-2h-2.8l-2.4-2.8-3.6.8,1.6-9.6-4.8-3.2-.8.4-4.4-1.6h-3.2l.4-4-3.2-2.4-.4-4.4-5.6-2.8-.8-2-5.6-2.4-8-9.2,4-2-.8-5.2.8-8.4-.8-6.4.4-14.8,2.8-2-3.2-3.6-1.6-11.6,1.6-6.8-1.2-.8-.4-13.6.8-2-1.2-25.6.4-13.2-1.2-4.4,1.6-4-.8-12.4,1.2-1.2-.8-16,1.2-5.6-.8-5.6,2-8-.8-6,1.6-.8-.4-11.2-1.2-3.6,1.6-5.2-.8-3.6.8-1.6-.8-6,1.2-6,.8-22.8,2.8-4-1.6-6.4,4-2.4,1.6,6.8-2.4,2.8,3.6,4-1.6,4,2,4-2.4,6.8-2.8,3.2,4.4,13.2-.8,4,.4,3.6-2.4,2.4.8,6.4-1.6,8,.4,3.2-1.6,10,1.6,8-.4,10.4.8,2.8-2.4,16.8.8,5.6-.4,13.2.8,8-1.2,6,1.2,5.6-.8,4,.4,7.2-2.8.4v1.2l2,.8-.8,9.2.8,21.6-3.6,2.8,2.8,2.4,1.2,8-2,8,4,4-1.2,6.8.8,14,16,4.8,7.2-1.2,2.8.8,5.6-12.4h3.2l1.6-3.6,4,3.6,7.6,3.2,6.8-1.6,2.8,3.2,4,1.6,2.8,2.4,2.4-3.6,8.4-.4v-.8l5.6.8,5.6-4.8,1.6-3.6,4.8-2.4,1.2-2.8,3.2-3.6,1.2-4.8,5.6-7.6,1.2-6.4,4-11.6,1.6-12.8,1.2-1.2-1.2-7.2.4-3.6-.8-5.2,1.2-5.2-1.6-4v-8l-1.6-2,1.2-6.8-.4-13.6.8-1.6-.4-5.6-1.2-2.8-.4-6.4,2.4-1.6-2.8-1.2-4-7.2-1.6-6.4-5.6-3.6-3.6-3.6.4-1.6,2,.4,2.8-2.8v-3.2l-2.4-.4-4-2.4-5.6-5.2-4-2-2.4-3.2-8,4-4.4-.8-10.8,3.6-5.2-.4-6.8,9.2-4.4,2-.8-3.2-2.4,3.2-2.8.4-.4-3.2.8-4.4,2-1.6-3.2-4.4,3.6-9.2-.4-6,.8-4.4-.4-6h.8l-.8-5.6,1.6-3.6-1.6-2V20.8l-2.8-2.4-1.6-5.2-3.6-4.4v-1.2l-3.2,2.4-4.8.8-8.8-.4-.8-.8-5.2.8-6,5.2-1.2,2h-1.2l-.8-1.2.4-7.6,2-2.4.8-3.2,4.4-3.2,20.8,2,3.6,2.4,4,.4,1.2,1.6,6,.4,5.2,4.8v1.6l2.8,5.2,6,2,1.2,5.2h1.6l1.2,1.2-1.2.4v5.6h6.4l3.2-2,4.4,6.8h3.2l.4,4-1.6,2.4-4,2.4,2.8,3.2-1.6.4,1.6,6-2.8,4.8.4,4.4-2.4,4.4v8.4l4.4,4,14.4-.8,15.6,16.8,2.8,8.8,5.6,4.4,3.2-1.6,1.2,2.4,1.6-3.6,1.6,1.2-1.6,4.8,3.2,1.6,6,5.6,1.6,2.8,2.8,2.4,2.4,6.8-.4,2,6,2-.4,6.8,2.8,2.8,2,10.4v6.8l3.6,3.6-2.8,9.6,1.6,4-2.8,2.8.8,4,2.4,1.6v3.6l-2,1.6v2.4l3.2,7.6-.8,6.8-1.6,3.6,1.2,4.8-1.2,4.4,1.2,6.8-1.6,2.4-1.2,17.6-1.6,3.2,2.4,2-1.6,10.4-1.6,4.4-1.2,7.6-3.6,3.6v2.4l1.6.4-5.6,14.8-5.6.8-4,7.2-2.8,2h-2.4l-1.6,4-5.2-.4-2.4,3.2-2.8,1.2-23.2.8-7.6-2.8-2.4-2h0ZM304.8,4.81l.8-1.2-3.6.4,2.8.8h0ZM307.2,295.2l.8-1.2-.4-1.2-.4,2.4h0ZM324.8,307.2l15.6-5.6,1.6-2v-3.2l-3.2,3.6-6,2-8-1.6.4-2-3.2-6-.4-6,1.2-1.2-2.8-6-3.2,1.2-6-.8-2.4.8,2.4,2.8,6.4,10.8-1.6,3.2,4-3.2,1.2,9.2h4v4h0ZM335.2,214.4l-3.6-.8-3.2.4-2.8-4,.8-6.8-.4-19.2,1.6-1.6-1.6-7.2v-15.2l2-6,1.2-13.2,2.4-9.2,4.4-6,4,1.2,12,8.8,1.6-.4.4,3.2,2,3.6,3.6,2.4.4,3.6,2.8,7.6.8,18,1.2.8-.8,2.8,1.2,6-.4,4.4.4,14-3.6,11.6-4,2.4-6.8-.8-4,2-8.4.4-3.2-2.8ZM327.2,11.61v-1.2h-1.2l1.2,1.2ZM333.6,199.6h2l-.8-3.2-1.6-2,.4,5.2ZM338.8,84.4h2l2.4-2.4-2.4-2-2,2.8v1.6ZM338.8,295.2l1.2-1.2h-1.2v1.2ZM348,152.4l2.8,2-.4-4.4-2.8-6.8-2.4-3.2-2.4,5.2-1.6,1.6,2.4,3.2,4.4,2.4ZM347.2,46.81h1.6l1.2-2.4-.4-5.2-2-3.2-2.8-.4-1.2,1.6,3.6,3.2-2,.8,2,5.6h0ZM374,305.6l-1.6-3.6-11.6-5.6v2.8l10,10.4,3.2-4h0ZM375.6,290l-.4-4.8,1.2-6-.4-5.2-1.2-1.6-1.2,1.6v6l-2.8,4,.8,3.6,4,2.4ZM388,305.2l4.4-2-3.6-5.6-2.8,2.8.4,2,1.6,2.8h0ZM390,274l.4,2,3.2.4,1.6-3.2-1.6-3.2,1.6-3.6-.4-6.8.8-5.2-2.4,1.6-.8,4.4-2,4.4-1.6,1.6,1.2,7.6h0ZM393.6,111.6h1.2l-1.2-.8v.8ZM404,277.2l1.6,7.2,3.6,1.6,4.4-14.8-2.4,1.2h-6.8l-.4,4.8h0ZM416.4,237.2l.8-.4.4-2.8-2.8,2.4,1.6.8ZM418.8,205.2l1.2-1.6h-1.2v1.6Z"/><path class="cls-1" d="M508.39,302l-6.4-6.4-.4-2-7.2-.4-4.4-2.4-4.4.4-7.6-4.4-.8-2-6-4.4-8.4-3.6-12-16.4-3.6-7.2-5.6-20.4,2.4-18.4-.4-5.6,4-4.4,3.2-.8,3.2.4,4.8-.8,10.4-3.6,10.8-1.6-.4-3.6-6.4-7.6-6-9.2-2-.4-4.4-5.6,1.2-.8-1.2-2.8h-2.8v-1.2l2-1.2-4.8-1.2v-2.8l-2.8,1.2-2-3.6-2.4-12.4-4.4-5.6,1.2-5.2-1.2-1.6,1.6-5.2,1.2-9.2,2.4-7.2,4.8-7.6,10-9.6-.4-2.8,6.4-6.8,14.8-9.2h3.2l14.4-6.4,9.2-3.2,10.4,3.6,4.4,3.2h4l2,3.2,4.4,1.2,4.8,3.2-.4,1.2h3.6l7.6,4.8,14,6.4,5.2,4.8v2.4l2.8-.4,6.8,2.8,1.2,4.4,1.6.8,2,4,3.2,18.4,3.2,1.6v1.2l2,1.6v1.2l1.2.4-.4,14.4-2.4,2.8.4,2.8,2.8-1.2-.8,4.8-1.6.4,2.4,4.8-2.4,4-2.4,6.8-6.4,1.6-5.6,3.2-4.8-.8,9.6,12,2,5.2,4,1.6,2.4,4.8-2-.4-2.8-3.2-2.8,6.8,10.8,2-.4,3.6,6,8.8.8,4.4-.8,6,3.6,16.4-4.8,11.2-4.8,4.4-2.4,8.4-5.2,5.2-2.8,6.4-4.8,1.2-.8,2.8-4,.8-10.8,9.2-12,2.4-1.6,1.6-4,.4-8.8,2.4-4.4-.4h-20l-1.2-1.2-3.6-1.6h0ZM451.99,142.8v-1.2h-1.2l1.2,1.2ZM492.39,271.2l5.6,2.4h4.4l3.2,1.2,3.2-1.6,21.6-2,1.2-1.6,6.8-3.2,7.6-5.6,3.6-4,2-5.6,3.2-4.4v-7.2l5.2-12.8v-6l1.2-1.2-1.2-1.6,1.2-2.8v-3.2l2.8-1.6-4-2.4-1.6-5.2-2.4-1.2-3.6-5.6-10-9.6-3.6-8.4-3.2-.4-4-4.8-8.4-3.6.4-2.4-7.6-2.4-4.8-4.8.4-3.2-11.2-2-1.6-4-.4-8.8-5.2-.8,1.6-2.8-1.6-1.2v-6.8l4.4-7.2,3.2-1.2,5.2-4,11.2,1.2,6.8,5.2,2.4,4-2.4,7.2.8,7.6,1.6,1.2,2.4-3.2,6.4-.4,13.2-4,2.8-3.2-4.4-4.8-1.2-8,.4-4.4-3.2-12.4-4-7.6-8-4.8h-2.8l-3.2-3.6-.4-3.6-5.2-.8-4.4-2-7.2-.8-5.6-2.8-4.4,2h-5.2l-2.8,2.8-9.6,3.6-7.2,4.4-2.4,6.8-7.6,8.4h-2.4l-3.2,6.4-.4,5.2-1.2,1.2-.8,9.6,2.8,14.8,2.4,2.8v6l-1.6,1.6,4.4,1.2,3.6,6.8,10.8,10.4.8,2.8,6.4,2.4,2.8,4v1.2l6.8,6.4,2.4,6,2.4.8,1.2,2.8,5.2,4.4,4.8,5.6,1.2,6v7.2l-1.6,2.8.4,4-6.4,4-7.6,2.4h-5.2v-.8h-2.4l-3.2-3.6-3.2-1.6-4.4-4.8-2.8-8.8v-5.2l-2,1.2-5.2-.8-13.6,4.4-1.6,15.2.8,4,7.2,14.4,3.2,3.6,7.2,10,4.4,3.2,13.2,6.4h4,0ZM495.99,216l-.8-3.6-3.6-2-1.6-4.8-1.6-.4-1.6,2.8,1.6,6.4h3.6l1.2,1.2h1.6l1.2.4h0ZM495.99,222l1.2-1.6-2.4-.8v1.2l1.2,1.2h0ZM511.19,146.8l.8-1.2h-.8v1.2ZM525.19,289.6h3.6l-1.6-1.2h-2.4l.4,1.2ZM566.79,291.6l4.8-7.2,4,.4,1.2-2.8,2.8-2.4,4-8,2-1.6,4.4-8v-7.2l-4.4,3.6-4.4,2-.8,5.2-3.2,1.2-1.2,1.6-4.4.4-.4-4-2.4,9.6-3.6,5.2-5.2,2.4.4,3.6-1.6,3.2,6,.8,2,2h0ZM564.79,138.8v-.8l-3.2.4,3.2.4h0ZM564.79,215.6h1.2v-1.2l-1.2,1.2ZM567.19,149.6h1.6l-1.6-1.6v1.6ZM567.19,198h1.6l-1.6-1.2v1.2ZM570.79,218.8l9.2-6.8-5.6-3.6.4-4-.8-1.2-2,1.2.8,7.2-5.6,4.8,3.6,2.4h0ZM567.19,220.8h1.6l-1.6-1.2v1.2ZM571.99,146.8h2v-1.2h-2v1.2ZM573.99,154.4l.8.4v-3.2l-.8,1.2v1.6ZM583.99,154.4l.8.4v-3.2l-.8-1.2v4ZM589.59,214l2.4-1.2-1.6-3.2-1.2,2.4.4,2h0Z"/><path class="cls-1" d="M684.79,310l-1.2-1.2-8-2-1.6,1.2-8.8-2.8-5.6-5.6-6-2.8-5.6-4.8-3.6-6.8-9.6-4-3.2-3.2-3.6-2-.4-3.2-5.2-2-4-6.8-4-3.2-2-4.4-.8-5.2-5.2-8.8-1.2-5.2-2.4-2.4-5.6-13.2-2-3.2,1.2-12.8-.4-4.4-1.6-2,1.2-5.2v-12.8l-.8-5.2,2-3.2-.8-.4,4-4.4.8-8.4-2.8-4.4,4-1.6-4-5.2,2.8-.4-1.2-1.2v-4.8l-.8-.8.8-5.2,4-2-2.8-2,.8-7.2,2.8-5.6v-4l2-.4-.8-6,1.6-.8-1.2-3.6,6-5.6,2.4.4,2.8-2,.4-4.8,6.8-5.6,2.4,1.2.8-3.2,6,1.6-1.2-4.8,6.8-.8,7.6-2.8,2,1.6,5.2-4h6l2-.8v6.4h-12.8l-3.2,3.6-4.4.4-2-1.6v3.2l-2.8,1.2-7.2,6.4-2,5.2-4,4.4-1.2,3.2-2.8,3.6-.4,5.2-3.6,7.6v6.4l-1.2,1.6.8,2-1.6,4.8v4.8l-2.4,11.6-1.6,2v1.6l3.2-.4v3.6l-2,17.2-1.2,2,2,1.2-.8,4.8-2,4.4-.8,6,1.6,8.4,1.2,16.4,3.2,5.2,2.8.8,4.8,17.6,2.4,1.2,5.6,10,6.8,4.8,2,2.8,7.2,6.8.4,4.4,3.6.8,6-.8,1.6,1.6,2.4-1.6,14,1.2,1.6-1.2,4.4.4,1.6-3.2,4-.4,7.2-2.8,2.8-5.6,5.2-2,6.8-6.4,2.4-9.2,3.2-5.6-.4-2.4,2.8-14.4,2.4-3.6v-5.6h1.6l-2-12.4.4-10.8,1.6-1.2-1.6-13.2,1.2-4-.8-15.6,1.6-6-3.6-16.8v-22.4l-3.6-3.6.4-7.2h2.8v2.4l-1.6,3.6,2,3.2,4.8.8,2.8,2.4,2,5.6,2.8.4,4.8,5.6,2,4.4,8.4,7.6,2.8-2,4.8,9.2.8,7.6,4.8,9.6-1.6,7.2,2.8-.4-.4,4,3.6,4v8l-1.2,5.6.4,5.6,2.8,3.2-2,4.8-2.4,2.8,3.6,2.4-2,2.4-1.2,4,.4,3.6-1.2,3.6,1.2,5.6v10l-1.2,8-2.8,11.6v9.6l-4.4,10.4-3.2,11.2-4.8,6.4-1.2,3.6-4,1.6-6.4,4.8-6-.8-.8-.8-6,4h-5.6l-3.6,1.6h-3.6l-2.4-1.2-6,1.2-2.8-.8-4.8,3.2-5.2-2h0ZM608.39,128.8h1.2v-.8h-1.2v.8ZM613.59,104h.8v-1.2h-.8v1.2ZM630.39,90l4-.8-3.6-.4s-.4,1.2-.4,1.2ZM643.99,231.2l-5.6-7.2-.4-8.8,2-2.4-1.6-3.6v-5.2l-1.2-2.4-.8-6.4.4-15.6.8-2.8-.8-4,1.2.4v-8l2.8-1.6-1.2-2,2-.8-.8-4.4.8-1.6v-6.4l2.8,2.4,1.2,2.4,2.4-4.4,2-.4,2.4,6.8-4.4,2,1.6,1.6-2,5.2,4,2-1.6,3.2-3.6,2.4,3.2,2.4.4,2-3.2-.4v1.2l2,2,2,4h2.8v-5.2l-1.2-5.2,1.2-3.6h.8l.4,3.2,1.6-3.6-2-2.4,6.4-3.2,1.6.8,1.6-3.2,3.2-2.4-4-11.2.4-3.2-2.8.4-1.2-2,.8-4-1.2-4.4-8,4.4-1.2-3.6,5.2.8-2-7.6.8-5.6,1.6-3.6,2,2.8,3.2-4.4,5.2.4,4.4,2.4h4.4l2,3.6,2.4,1.6.4,5.2.8.4,2.4-2.8,2,5.2.4,3.6-1.2,10.4-4.4,2,3.2,2.4-.4,1.2,2.4,5.6-.4,6,1.6,8-1.6,2.4,1.6,9.6-1.2,10.4h-1.2l.8,10.8-1.2,7.2.4,4-1.6,4-1.2,7.2-7.2,4.4-8,2.4-1.6,2.4-19.2-2.8-.8-2.8h0ZM643.59,168h.8v-2.4l-.8,1.2v1.2ZM659.59,129.6l2.4-.8-3.6-.8v.8l1.2.8h0ZM662.39,228.4l2-1.6v-1.2l-2.4,1.2.4,1.6ZM664.39,166.8v-1.2h-.8l.8,1.2ZM665.59,141.2l1.6-2.4-.4-3.6,2-1.2-2.4-1.6-2,7.6,1.2,1.2h0ZM667.19,144l2.4-1.2,1.2-2.8-1.2-2-1.2,3.6-1.6,1.2.4,1.2h0ZM676.79,296.8l1.6-1.6-4.4-3.6-2.8,1.2.4,2.4,5.2,1.6ZM693.59,85.6l-5.2-.8-6-3.2-1.2,3.6-4.8-3.6,3.2-3.2,10.4,1.6,2.8,2.4,4,.4,2.8-1.2-2.8,5.2s-3.2-1.2-3.2-1.2ZM683.59,282.8l1.2-3.2h-4v2.4l2.8.8h0ZM682.39,292.8h1.2l-1.2-.8v.8ZM700.39,302.8l4.4-4.8-1.2-.8-2.8.8-7.2-.4,3.2,4,3.6,1.2h0ZM715.19,300.8l2.8-1.6,3.6.4,4.4-4.4,4.8-2,2-5.2,4-2.8,1.6-2.4-.4-6.4,1.6-4.4,2.4-13.6,2-2.4,1.2-6-.8-4-2.4-4.8,2.8-4.4v-4l3.6-3.6-2.8-4.8h-6.8l-1.6,4-2.4-2.8-2,1.6,2.8,3.6,2.8,10.8,2.4,3.6-2.8-.4-.8,3.6.4,3.6,1.2.8-3.6,2.4h-3.6l-3.2,4.4.8,1.2h-3.2l-1.2-4,.8-4-.8-1.6-2.8,2.4,1.6,3.6-.4,5.6h5.2l-1.2,3.2,3.6,4v1.6l-3.2,4,1.6,4.4-.8,2-2.8.8-6.4,4.8-6.8,3.6-2.4,4.4-2.8,2.4.4,1.2,6,.4,1.6,1.2h0ZM722.39,276.8v-1.2h-1.6l1.6,1.2ZM727.59,142l.4,2,4.4-4.4-2.8-1.6h-2.4l.4,4h0ZM728.39,148.8l1.2-2h-2l.8,2ZM735.99,194l2.4-3.2-3.2-2.4-2.4,5.6h3.2ZM733.99,148.4l1.6-1.6-2,1.2.4.4h0ZM733.59,245.6h1.2v-.8l-1.2.8ZM734.39,180.8h3.2l.8-2-.8-.8.4-2.8-3.2,2.4-.4,3.2h0ZM735.59,174l2-.8-2-6.4-.8,4.8.8,1.2v1.2ZM740.79,174l1.2-1.2.4-8-4.4.4,2,2.8.8,6ZM739.59,250.8h-1.2l1.2-1.2v1.2ZM743.59,182.8h4v-4l-4,4ZM745.59,147.6l2-2.4-3.2-1.2,1.2,3.6h0ZM757.59,181.6l.8-.8-1.2-2.4.4,3.2Z"/><path class="cls-1" d="M867.59,305.2l-7.2-5.6-4-.4-4.8,5.2-8.8.4-8-1.2-8,.8-4-.8-3.6.8-6.4-.8-1.6-1.6-6-.8-3.6-3.2-4.4-6.4-4.8-4.4-6.4-8.4-2.8-1.6-8.4-9.2-5.6-3.2-.4-8,.8-3.2h-2l-.4-6h-3.6l.4-4h2.4v-2.4l-1.2-1.2,1.2-2.8,3.6-2.4,3.6-.8v5.6l-1.2.8.8,5.6,1.2,1.6-2,4.8,1.6,2-1.6,3.6,9.6,1.6,2.8,4.4,4.8-.8,9.6.4,11.2-2.4,3.2,1.2,2.4-1.2,2.8,1.2v2l-10,.4-.8,1.2,4,2,.8,3.6h4.4l1.2,6.4,1.6-2-.8-5.2-3.2-2.8,6-3.2,4.8,4,4.8,7.2h3.2l-3.2-9.6-3.6-2.8.8-4.4-3.6-4.4,2.4-2.8h4.8l-7.6-7.2-.8-3.6-2-3.2-3.2-1.6,1.2-7.6-2.8-5.2,2.4-4-.8-5.2-2.8-2,2-6.8h2l-.4,2,6.8,2,1.2-1.2-2.8-2.8v-2l1.6.8,1.2-.4v-3.2l-1.2-1.2,2-3.6.8-6-3.2-11.6,1.2-7.2,2.4-4.8-2.4-5.2,1.6-2.8-1.2-11.2,1.6-6.4,6.8,1.6.8-4.4-.4-13.6,1.2-1.2-2.8-1.6v-2l6,2h3.6l.4,4h2l5.6,11.2-4.8,2.8,2.4.4,2.8-1.6.8,17.6v12.8l-2,4.8.4,4.4-2,3.2.4,14-.8,4,.4,8-1.2,8.8-2.4,6.4-1.2.4-2.4-3.2.4-1.2h-3.2l-3.2,2.4-2.8,10.8,1.6,6.4,3.2-1.6,1.2-2h1.6l-.4,1.6,3.6,1.2-.8-2.8.8-6-2-.4-2.8,2.4-2.8-6,3.2-2,6.8,2.8,2.4,8-3.6,13.2,2.8,5.6v5.2l-1.6,1.2,2.4,4.8-.4,9.6,10.8,2.4,1.6-.8h10l2.8.8,14.4-4.4,4.8-5.2,6.4.4.4-3.6h2.4l.8-4-.8-1.6.4-4.4-2.8-3.2,2.4-2.8v-14.4l.8-2-.4-5.2-2.4-4,1.6-5.6-1.6-4.4-5.2-4,4.4-2.4,3.2-8-5.6-6.4,6-.8-2.8-4.8,2.4-4.4-6.8-1.6,4.4-2.8-3.2-1.2.4-1.2,2.4-.8,3.2-11.6v-2.4l1.6.4,2,2,4.8.4-1.6-12.8-1.6-.8,3.2-2.4-2.4-6.8h-6.4l.8-8-5.2-3.6-2.8-7.2-2.8-2.8.4-5.2h1.6l2,2.8,3.2.4,1.6-3.2,1.2,2.4.4,10-1.6,2.4,4.4,2,2.4,7.2h2.4l3.6-5.6,4.4-1.6-.4-4,.8-3.6-6-2.4-4.8-4-5.6-6.4-3.2,2.8-.8-6-3.2-3.2-4.4-.4-2.8.8-3.2-4,2.8-1.2,4-6.4,7.6,6.4,5.6,2.4,9.2,12,4,2,1.6,2.4,3.2,1.2,6.8,11.6,1.6.8,3.6,4.4.4,6,1.6,2.8v2l-2,2,1.6,6.4.8-.4.4,5.6-1.6,4,4.8,1.2-.8,6-.4,14-1.6,4-.8,7.6.8,11.6-1.6,9.6.4,5.2-.8,3.2,1.6,4-2.4,7.2,1.2,5.2-1.6,6,.8,4.8-2.4,8,2.4,3.6-3.6.4,3.6,2v42.4l-2,.8-26.8,1.6-7.6,2.8-20.4-1.6-4.4-2.4-3.6-.8-4-3.2h0ZM768.79,218v-2.4l-1.2-1.2,1.2-4.4,4.8,3.6.8,2.4v5.6l-6.4,3.2-2-5.6,2.8-1.2h0ZM768.79,205.6l3.6-6-3.6-1.2,1.2-4.4,4.8,1.2v8.4l1.2.4-.8,6-4-4.4h-2.4ZM771.59,187.2l-.8-4,.8-5.2-2.4-1.6,1.6-2.4,4-3.2-3.6-1.6,6-4.4-2.8,16.8,2,2-1.6.8-.4,7.2-3.2-2,.4-2.4h0ZM772.79,137.6l4-.4-3.2-1.6h-2l1.2-6.8,3.6,2,2.4-.4,1.2,3.6-1.2,5.2.4,2-7.6,4,.4-2.4.8-5.2h0ZM795.99,83.6h-12.4l-4.4,2-1.6-6,3.2-.8,12.8,1.6.8,1.2,8.4-.4,4.4,1.2,2.8,2-1.2,1.2h-4l-1.2-1.6-3.6,2-2.4-1.6-1.6-.8h0ZM793.99,273.2l3.6.4.4-3.2-2.4-3.2h-3.2l-.8,4.4,2.4,1.6h0ZM806.39,279.6h1.2v-1.2h-1.2v1.2ZM823.99,295.6l4.8-.8-.4-1.6-5.6-2.4-2.8,2.8,4,2ZM833.59,176.4l2.4,9.2,4.8-4.4,2.8-8.4v-12.4l-6,.4-.8-.8-3.6-.4-2,5.6,2,5.6v3.6l.4,2h0ZM833.59,284.8l1.2.4v-3.6l2.8-.4v-1.6l-4.8-.4-1.2,4,2,1.6ZM832.79,154.4l3.6-2v-5.2l-1.6-.4-2,2.4v5.2ZM836.39,190.8l1.2-1.2v-2.4h-.8l-.4,3.6h0ZM838.79,244.8l1.2-1.2v-2.4l-1.2-1.6-1.6,2,1.6,3.2ZM839.99,215.6h1.6v-1.2h-1.6v1.2ZM841.59,153.6l1.2-.4v-2.4l-1.2,1.6v1.2h0ZM877.19,83.6l-10.8-5.2h-5.6l2.8-3.2h8l1.6,4.4,4-1.6.8,2,5.6,4.4.4,1.2h-3.6l-1.6-2.4-1.6.4h0ZM878.79,282.8v-4.4l-10-.4-.8,3.2h8.4l2.4,1.6h0ZM901.59,177.2h2l-.8-1.6-1.2,1.6ZM908.39,301.6l8.8-.8,2,1.6,3.6-1.2v-3.6l-11.2-2.8-.8,4.4-5.2,2,2.8.4h0ZM913.99,142.4l1.6-1.6h-1.6v1.6ZM915.59,137.2h.8v-1.6h-.8v1.6ZM927.19,180.4l1.2-7.6,2-4-1.6-1.6-.8-4.8.8-5.6-1.2-6,3.6-2,1.6-3.2-4,2.8-3.2.8.8-5.6-2.8-4.4-.8-4.8-2.4.4-1.2,2.4,2,9.6-.4,7.2-2.4,4,3.6,6.4-.4,10.4,2.4-1.2,2.4.4-6,3.2h5.2l1.6,3.2h0ZM918.79,223.6l-.4,2.4,2.8.8,4-.8.4-3.6-3.6-5.6-2-.8-1.2,7.6h0ZM921.59,232.4l2.8-.4-.4-2.4h-2.8l-2.4,1.6,2.8,1.2h0ZM924.39,237.6l-.4-2.8-4.4-.4,4.8,3.2h0ZM926.39,195.2l2.4-6.8-.8-3.6h-7.6v3.6l2.8-.4-2.8,2.4,2.4,2.4v5.2l-1.6.8,5.2,6.8v-10.4h0ZM932.79,263.6l-2.4.4v2.4h1.2l1.2-2.8ZM930.39,288.4h1.2l1.6-2-2.8,2ZM931.59,155.6l1.2-1.2h-1.2v1.2ZM931.59,301.2h1.2v-1.6h-1.2v1.6ZM932.79,291.2l1.2-1.6h-1.2v1.6Z"/><path class="cls-1" d="M397.45,506l-5.6.4-8.8-1.6-3.6.8-15.6-6.8-7.6-1.2-7.6-5.6-.8.4-8-7.6-2.8-6.4.8-5.6-7.2-.4-6.8-8.4-4-9.6-6-4.4v-4l-3.2-6.4,3.6-2,3.6.4-2-1.6-.8-7.6-3.6-1.2,2.8,6.4h-4l-2.4-8-.4-6-4.4-3.2-3.2-17.6,2.8-3.2-2.8-2.8h2.4l-.8-6-3.2-1.2,4.8-2.8-3.2-2-.4-5.6-1.6-2.8,5.6-2.8h-5.2l.8-3.6,2.4-1.2-3.2-1.6.4-16.8,2.8-2.8-1.6-1.2-.4-5.2,3.2-9.2-.4-2,2.8-1.6-3.6-6,3.6-12-1.2-7.2,3.6-15.6v-7.6h1.6l-.4-7.2,1.2-.8,4.4,2.4-4.4-8,1.6-3.6v-8.8l2-.8-2.8-1.6,5.6-8.4,1.2-12,2-2,.4-6.4,1.6-1.6-.8-1.2,8-4.8,7.2-6.4,2.8-1.2h2.8l5.2-2.4,8.8-.4,2.8-4.8,6,1.2,2-.4v3.2l3.2-2.8,1.6,4,4-3.2,4-.4,4.4.8,2.4-.8,3.2,4.8h2.4l-1.6-1.2,6.4-3.2-2,4.4,4.4-.4,15.6,3.2,8.8,6.8v4h2.4l1.2,2,5.6.4,7.2,8,5.2.8,6,3.2,1.2,2.4,4.8,2,3.6,3.2,3.2,5.6,3.6.4-.4,4,2.8,1.6,1.2,3.6,3.2,2.4,1.6,4.4,2.4,2.4-2.4,1.6,4.4,6,.4,7.2,4.4,6-1.6,1.6,1.2,4.4v4.4l1.2,4.4v11.6l-1.2,2.8v9.2l1.6,1.2-.4,8,1.6,3.6-2.4,6.8-2.4,2.4,2.8,7.2-2,3.2-2.8,2,6,.8-3.2,18,1.2,4.8-1.6,2.4,1.2,3.6-2.8,3.6,3.2,6-5.2,10,1.6,4-1.2,4.4-2-5.2-3.2-2.8,1.2-4.8h-2.4l-.8,1.2h-1.6v-3.6l2-3.2-1.2-2.8.8-5.6-2.8-2-2.4-3.2-4.4,4.4-6.4,2-1.6,4,8.4,3.6-3.6,3.6-3.6,2,2,2.4h4.8l1.6,3.2,8-.4v3.6l-5.2-.8-4.8,4,1.6,2.4h4.4l2,2.8h10l.4,2.8-6.4-.4,3.2,7.2-3.2.4-2-3.6-1.6,1.2-6.4-.4-4.8-2.8-1.2-6,1.6-10.4-3.6,1.2-6.4-1.2-1.6,3.2-1.6,1.2,1.6,1.2-.4,1.2,3.6,3.6-4.8,3.6,2.8,3.6,2.4,1.6-1.6,2.8h-1.6l-.4-2.8-1.2-1.2-3.6,3.6,5.6,8,3.2,1.6-1.2.8,2.8,1.6-.8,4-1.2,1.6h-4l3.6,7.6,4.4-4,4.4,5.2,8-.4-1.2,5.6-1.6,2.8-3.2-2.8v4l2,2.4-4,2.4,2.4.4-.4,6-4.4,3.2,4.8-.4-2.4,4-.8,3.6-2,1.2-5.2,6h-2.4l-5.6,6-6.8,1.6-3.2,1.6-2.8,3.2-13.2,2.8h-6l-2-.8-5.2.8-6-1.2-1.6-.8h0ZM306.65,378.4v-2.4h-3.2l-2,1.2,5.2,1.2h0ZM372.65,462.8l2.8.4v-4.4l3.6,1.6,5.2.8,1.2,1.6,3.6-3.6.8.4,3.2-4.8,3.2.4,2.4-1.6,4.4-1.2,3.2-4,1.2-4.4,4.4-5.2.8-3.2,2.8-4.4v-6.4l2.8-2.4-1.2-2.4,3.6-9.6.8-5.6-.4-6,2-7.2.4-7.6,2-4.4-.8-6.4,2.8-20.8,1.6-2.4v-15.6l1.6-15.6-1.6-9.6,1.2-6.4-.8-2.4.4-12-1.2-8v-8l-1.6-7.6.8-4.8-.8-7.2-2-3.6-3.2-13.6-5.6-1.2,1.6-10-8.8-8.8-2,.4-2.4-2.8-12-4.8-4.8-.8-3.6.8-6.4-1.2-6,.4-15.2-.4-5.6,1.6-2.4,1.6-7.2,2.4-2.8,3.2-5.2,1.6-.4,1.6-3.2-.4-2,4,.8,4.4-5.6,4.4-.4,4.8,2,4-1.2,1.6v6.8l-1.6,4.4.8,3.2-3.6.4-.4,3.6h1.2l.4,1.2-2.8,3.2v6.4l-2.4.4-2.8,2.4,1.2,2.4,2-2.8,2.8,2.8-2.8,2.4,3.2,1.2.4,2.4-1.6,14.8v16.8l-2.8,3.2v10.8l-2,3.2.8,1.6-3.6,1.6v1.6l3.2.4-.4,3.2-1.2,2v12.4l-4.4,2,2.8,2.4,1.6,8-1.2,2.4-1.2,6.8,2.4,1.6-2,4,4.8,10.8-1.6,1.6.4,3.6-.8,3.6,1.6,6.8-2.4,2.4,2.8,2.8-.8,4,4,6v3.2h1.6l-1.6,2.8,8,8.4,4.4,12.4,4.8,2.8,5.6,1.6,3.2,7.2-.8-5.2h2.8l4.8,2-1.6.8h1.6l6-2.8,5.2,4.4,1.2-1.2,3.6-.4-.4,2.8h4l2.8,1.2h0ZM307.45,295.6l2.4-1.2-.8-1.6-1.6,2.8h0ZM317.05,410.4l-.8,5.6h-1.6v-2.4l2.4-3.2ZM350.65,408l-5.2-2v-.8h7.6l-.8-4,3.6-.4-.4,3.2,2,1.6,1.6-8.4,4-3.2-3.2-2.4h-6.8l-.4-6.4-1.2-2.8.8-1.2-4.8-1.2-1.2-2,9.2.4,3.2-1.2-1.2-1.6-4,1.2-6-1.6,2.8-3.6-4.8-.4,2-14,1.6,2,1.2,4,2.4.4v-7.2l-3.6-2,2.4-7.2,2.4-1.2-2.4-2.8-.8-9.6,8-2.8v3.6l-2.4,13.2,2.4,4-2.8,4.4,1.2,5.2h4l1.6-2.8,2,1.6,2.8-1.6h5.2v-1.2l-2-1.2,3.2-6.4h1.6v-2.4h-2.8l-4,5.2.4,2h-3.6l-1.2-1.2,4.4-4.8-3.2,1.2-1.2-1.2.8-1.6-.8-7.6,1.2-3.2v-4l.8-1.2,2.4,2.8,2.8-.4v-1.6l-2.4-.4-.4-2.8-1.2-1.2-2,1.2v-1.2h-1.2l-1.6,2.4h-2.4v-2.4l-6.8-.4v2.8l-2.8-3.6-2.4-9.2,2.4-2.8,2-.8-1.2-7.6,2.4-2.4,2,2.8,8-2.8v-1.2l4-4-2.8-2-2,.8-7.2-.4-2.4,2.8-1.6-.4,1.6-9.6-.8-2,.8-9.6,4.8-1.6-2-5.6,2.4-9.6,6.8-.4.4-2,3.2-2.4,2-2.8,10,1.6,2.4,5.6,5.6,5.2v6l.8.4v2l2.4,1.2.4,6.8-1.2.8-.8,4,2.4,3.2-1.6,5.6,1.6,3.6-3.6,1.6-.8,2,3.2,4-2,2.8.4,9.6,2.4,2.8-1.6,1.2.4,3.2-5.2,2.4,5.6,7.2-.4,8.8.8,4.4-1.2,7.6-.8,14.4-2.8,2-3.2,4h3.2l-2.4,2.4v10.8l-4,2-.4,5.6-2.4,4.4.8,4.4-8.4,6.8h-3.2l-6,2.8-10.8-2.4v-6h0ZM348.65,385.2v2h-2.4v-2h2.4ZM347.45,391.2l1.2,1.2-2,3.6-.4-2.8,1.2-2h0ZM350.25,398.8l-1.6,1.2v-1.2h1.6ZM352.65,321.2h.8v-2.8l-.8,1.2v1.6h0ZM358.25,288.8l.4-3.6-3.6,2,3.2,1.6ZM355.45,284.4l2-.4v-3.6l-1.6-1.2-.4,5.2ZM358.65,299.2l1.6,1.2v1.6l-1.6-1.6v-1.2ZM363.05,271.2l.8-2-2.4,1.2,1.6.8ZM362.65,307.2v-1.6h-1.2l1.2,1.6ZM365.45,324.4h.8v-2.4l-2,.4,1.2,2ZM365.85,367.6l2.8-.4v-1.2h-2.4l-.4,1.6ZM366.25,305.6h2l-2-2.4v2.4ZM372.65,343.2l2.8.8v-8.4l5.6-2.4-4-3.6-1.6-3.6-5.2,15.2h-1.6l-2.4,2h6.4ZM368.25,371.2l-1.6-2.8-.4,2.8h2ZM368.25,278.4v2.8l1.2,2.8,2-2-2.4-2,3.6-10.8-1.6-.8-1.2,2.4-2.8,2.4,1.2,5.2h0ZM370.25,289.2l.4-.4-3.2-3.2-.4,1.2,3.2,2.4ZM370.25,362.8l2.4-.4v-1.2h-2.4v1.6ZM371.85,322l5.6.4,1.6-3.6-1.6-1.6-6,2.4,1.2,1.6-.8.8h0ZM384.25,471.6h2.4v-1.6l-2.4,1.6ZM387.45,292h1.6l-1.6-1.6v1.6ZM395.45,470h1.2v-1.2h-2.4l1.2,1.2h0ZM400.25,478h2.4v-1.2h-1.2l-1.2,1.2h0ZM435.85,481.6l2.4-7.6,8.8-1.6-2.4-6.8-1.6-1.6,2.4-2.8,1.2,1.6-.4.8,3.2.4-1.2,4.4,9.6.4.4-3.6-.8-3.2-4.4-.8-.8-2-4.4-.4.4-7.6-6.4.4,2.8-2.8-.8-2.4-2.8-2.4.4-2.8h-3.2l-2.8-1.2,3.6-2.4-.8-6.4h-4l-4-11.2-2.8,8-3.2,3.2v4l-1.6,1.2,4.4,3.6,7.2.8v4.4l1.6,1.2-.4,3.6,1.2.8-3.2,1.6,2.8,4.8-2.4,4.8-.8,5.6-3.2-2.8.8-2.8-2.4-6,.4-2h2.8v-2.4l-4-.4-2-4.8-2.8-3.2-3.2,2.8h-1.2v2l1.6.4-3.2,6.8h6.4l-1.6,1.2,2.4,1.6-2,1.2,4,2.8-.4,16.4,4,1.2,6.4,2h0ZM428.25,444h1.2v-1.2l-1.2,1.2ZM434.25,409.6l6-.8-.4-7.6-2-4-1.6,2-2,6.8-1.6,2,1.6,1.6ZM438.25,456l6-2,1.2,1.2-2.4,6v-2l-4.8-3.2ZM441.45,485.2l2.4-.8-.8-6-2.8-1.6-.4,5.6,1.6,2.8ZM443.05,439.2l2.8,1.6-1.6-6.4-4-.8v4.4l2.8,1.2h0ZM449.85,275.6l.8-2.4,1.6-1.6-2.8-3.2-2.8-6.8-.4-9.6-2-2.8v6.8l-.8,2.8,2.8,10.4-.4,4.8,4,1.6h0ZM445.45,418.8v-1.6h-1.2l1.2,1.6ZM452.25,275.6l2-1.2h-1.2l-.8,1.2ZM457.45,461.2l1.6-1.6,3.2-1.2-3.2-3.6-4.8,3.2,2.8.8.4,2.4h0ZM459.45,385.2v-2l-1.2-.8v.8l1.2,2ZM459.45,342.4h2.8l-2-1.2-.8,1.2ZM470.25,362.8v3.2l3.6-13.6-1.6-2.8v-6.4l-7.2.4-2.8,3.6h-2v2.8l2.8,2.4,1.2,4.8-2,1.2.8,1.6,2.8-.4,4.4,3.2h0ZM473.05,298.4l2.4-1.2-1.2-2,3.6-3.2-4.8-2.8v-8.8l-1.2-2-.4-3.2-1.6-3.2-5.6,1.2-2.8,2.4,2,8,2,2,1.6,4.8,2.4,3.6,3.6,4.4h0ZM468.25,322l3.2-.8-3.2-2v2.8ZM471.85,438.4l4.8-3.2,1.6,4-2.4-.8-1.2,2.4.8,3.6-1.2,3.6h-1.2v-2.8l-1.2-.4-2.4,3.2h-1.2l1.2-3.6v-4.8l2.4-1.2h0ZM469.45,370l.8.4v-3.2h-.8v2.8h0ZM473.05,332l1.2-.8h-1.2v.8ZM475.45,398.8v-2.8l-1.2,1.2,1.2,1.6h0ZM480.25,288.4v-4.4l-1.6,4.4h1.6Z"/><path class="cls-1" d="M500.65,373.6l1.6,1.6-10.4.4.4-6.4-1.2-1.6-3.2-10,.4-4-2-3.2-.4-3.6-4.4-19.6-1.6-2.8,2-4-3.6-4.8-.8-7.2-2-4,.4-4-2.8-10.8-.8-8.8,5.6-1.6-2.4-1.6-2,1.6-2-5.2,5.2-4,7.2-2,14-5.6,6.8-4,4.8.4,3.2-2.8,8.8,1.6h5.6l1.6,2,2.4.8,3.6,5.2.4,2,2,1.6,1.6-2,6.4-1.6,5.2-2.4,2,3.6,3.6-4,4.8-.4,4,2.8,12.8.4,2.8.8h6.4l.4,1.2,2.4-2,4,2-.4,5.6,1.2,8,2.4,8-1.2,6.8-2,4.8,3.6-.4,2.8-5.2,2.4,3.6h4.8l-2.8,2.4,4,2.8v4l-1.6,2-2.4-.8-4-3.2-6.4,7.2-1.2,8.4,2,2.8,2.8-5.2,7.6-2-4,6.4.4,3.6,2.4,2.8-1.6,3.6-3.6-4v-2l-2.4.4-4,6.4-.8-4.8,1.6-.8-1.6-3.2-2.8-1.2v-4l-1.2-1.6.4-3.2-.8-4.4,1.2-8.8-3.6-4,.8-3.6-2.4-8.4-3.6-8.4-2.8-.8h-7.6l-6.8-2-8-.4-2,2,.4,11.2-4,.4,3.2,2-3.2,8.8-1.2.8.4,11.2-1.6,5.6.4,1.6-3.6,14.8-4,11.2h-7.6l-3.2.8-3.2-7.6,2-4.4,1.6-1.6-3.2-1.2,4-10-6.8-2-.8-5.6-2.8-8.8-1.2-8.8-1.6-4.8v-5.6l-1.2-3.2.8-4.4-2-5.2-3.6-1.2-5.2,1.6-4.4-.8-5.2,4-8,2.8,1.2,2-.8,5.2,1.6,10.4-.4,4.4,2.4,3.2-1.6,4.8,2.4,16,2.8,2.8,2-1.6-1.2,6,1.2,5.6,1.2,1.2-1.2,8.8,1.6,4.4,3.2,1.6v6l-3.2,4,3.2,1.6-.4,3.6-.8,5.2h0ZM487.45,342l5.2-1.6-3.2-2.8-2,4.4ZM491.05,336.8l.4-5.6-2.8,2.8,2.4,2.8h0ZM490.65,349.6l4.4-.4-3.2-.8-1.2,1.2h0ZM597.05,500l-2.4-2-5.2.8-4.4-2-3.6-6-2,3.6-6-.4-2,2.4-8.4-.4-4,1.6-5.2-.8-4.4,1.6h-3.6l.4-2-2,1.6h-23.2l-7.2-14.4-9.2-15.2.4-3.2-2.8-4.8-.4-10.8-2.8-7.2.8-16.4-5.2-31.6.8-7.6-1.2-3.2,4.4-5.6,3.6-2.8.4.4-2,2,3.2,2-4,3.6-1.6,3.6,1.6,1.6,2-1.2-.8-2.8,4.8-2.4.8,9.6,3.6,13.6-1.6.4-2-2.4-.8,3.2,6,2.4v7.2l-.8,2.4h2l.8,3.2-.8,1.6,1.6,4.4-3.6,5.6,4.8,2v6.8l-2,2,.8,2.4-1.2,2.8,3.2,7.6,5.2,4.8-2,2.4,8.8-4,6,.8,4-.8,1.2-1.2,5.6-2-2.4-3.2h5.2l-2.8-4,.8-2.8v-8l2.8-2.8-3.2-5.2.4-3.2,4.8-11.6v-4l2.4-4.8-2.4-4.8-.4-2.8,2-6.4.4-6.8,2.8-3.6,6.8-2.8,9.2.8.4,6.4,1.2,2-3.6,8v6l4,8,2,2v2.4l4,2-1.2,6.4.8,3.2,2.4,3.2-4.4.8-.4,2,5.2,4.4,1.6-4,2,8-.8,5.2,2-1.2,1.6,8.4-.4,2.4,4.4,3.2,4,4.4h2l5.2-3.6,8.4-.8,4.4-3.6,2,1.2.4-.8-2.4-2.8,4.8-26.4,2.8,1.2v7.6l2.8-.4-.4-14.4,1.2-1.6-1.6-3.2v-4l2.8-2-2.4-8.8,3.2-2.8,1.6-2.8-.8-7.2.8-4,2-3.6.4-4.8,1.2-3.2.4-4.8.8,1.2,4.8-1.2-2.4-2.4h-2.8l1.6-8.4,9.6-.4.8-2.4,2.4.8,1.2-3.2,1.2-.4.4,6.4h-4v2.4l2.4.4,1.2,5.2-4,12-1.6.8,3.2,5.6,4,.8,2.8,4.4.4-7.6,5.2-5.2.4-2.8-4.8,2,2.4-6.8-2.4-2,2.8-6.4-1.2-2.4,1.6-6.4-3.6-8,4-4.4,4,2.8-2.8,5.2,5.2,1.6-.4,6,2.8-1.2.8-4.8,5.6,6h2.4l-.4,1.6-4.8,5.2v2l5.6,2-4,2,2.4,7.2-2.8,2.4-1.6-5.2-1.2,8,1.6,1.6-.4,2.8,1.6,4.4-1.2,1.6v2l1.2,1.6v3.6l-4.4,5.6,1.6,11.6-1.6,6.4,1.2,2.8-2.8,6.4-1.6,1.2,1.2,1.6-2.4,6.8,2,2.8-4.4,6.4,1.2,1.2v6l-1.2,1.6-1.6,9.6-2.4,4.8.4,10.4-2.8,6-.4,4.4-4,7.6-12,2.4h-4l-2-1.2-1.6,1.6-17.2-.4-2.8-2-6.8.4-2.8-1.2h-2.8l-4.4-1.2h0ZM495.85,361.2l1.2-1.6h-1.2v1.6ZM495.85,371.2h1.2v-1.6l-1.2,1.6ZM503.45,399.2l1.2-6.4-4,.8.4,3.6,2.4,2h0ZM504.65,411.2l1.2-.4-.8-2-.4,2.4ZM525.85,314l1.2-3.6-.8,1.2-.4,2.4ZM532.65,300.8l4-4-5.2-4.4-1.6,3.2,2,.4.8,4.8ZM531.85,464h2v-1.6h-2v1.6ZM533.85,484v-1.2h-2l2,1.2ZM533.85,316.8l1.2.4-1.2-2.8v2.4ZM537.45,288.8l1.2-6-1.6-1.2v4l.4,3.2h0ZM541.85,481.2v-1.2h-.8l.8,1.2ZM558.65,446.4l5.2-.4-1.2-6-2-.8-.8,4.8-1.2,2.4ZM560.65,459.6l2,4.4,2-1.2-1.2-5.6-1.6-1.2-2.4,2.4,1.2,1.2h0ZM568.65,480h1.2v-1.2h-1.2v1.2ZM587.45,298.4l1.2-1.6h-1.2v1.6ZM596.65,324.4h.8v-1.2l-.8,1.2ZM603.45,486.4l3.6,3.2,1.2-1.2-1.2-2,.4-3.6-.8-4-7.2.4-1.2,4.8,5.2,2.4h0ZM599.85,475.2h1.6l1.2-1.6-2.8.4v1.2ZM641.05,342.8l.8-6.8,2.4-5.6-1.2-5.6,4.4-16,.4-8.4,4.8-2.8-1.2-2.8-2.8.8v-2.8l3.6-1.6-1.2-5.6.4-3.6-7.6-1.6-6.4.8-23.6-2v7.6l-2.4,7.6h-3.2l1.6-2.8-.8-2.4-6,4-.8-3.2,3.2-8.8,2.8-2.8-4.4-5.2h2l14.4-5.6,3.6,1.6h7.2l4.4,1.6,4.8-2,3.2.8,3.2-.4,1.6,1.2,7.2.8v3.2l2.8-.8,7.6,1.6,1.2,3.6,2,2.4,1.2,3.6,3.2,2.8.8-4.8,1.2,11.6.8.8,3.2-2,2.8,5.2,8.4-1.2-1.2,6.8.4,3.2-3.2-.4-1.2-1.2-2.4,2.4-5.2-4.8-2.4.8.8-6.4-5.6-.8.8-2-4.8-.8v-2.4h-1.6l-2.4,11.2-5.6,3.2,4,2.4v6l-1.6,6-2.8,2-1.2,6.4-4,3.2,2.4,1.2,2.8,4-1.2,5.2-2.8-2,2.4-3.2-5.6,1.6.4,3.2,4.8,5.2-5.2,2.8-4.8-.4-3.6-2.4v-4.4h0ZM620.25,488.8v-2.4h-1.6l-.8,1.2,2.4,1.2h0ZM635.45,472.8h1.2l5.2-4.8,4,2.8,2.4-2.4-2.4-8,2.8-5.2-1.2-1.2-1.6-5.2,1.6-2.8,1.2-9.2-1.2-16,.8-2.4-1.6-6,1.6-5.6-1.6-8.4-1.2-1.2-.4,6.4-1.6,6.8-1.6,1.2-3.6,14-.4,6-2.4,2.4v2l-2.8,1.2v2.8l-1.6,1.2,3.2,1.2.8,3.6,4.8,8.8-1.2,3.6v4h1.6l1.2-1.2.8,2.4-5.2,2,4,1.6-5.6,4v1.6h0ZM631.45,476.4h2.4v-1.2h-2.4v1.2ZM635.85,492.4l2.4-1.6v-7.6l4-2.8-5.6-4.4-4,2.8v2.4l1.2,1.6.4,7.2,1.6,2.4h0ZM637.85,374.4h.8l-.8-1.2v1.2ZM639.45,364.8l5.6-4-3.2-.8-2.8.4.4,4.4ZM643.05,347.6l4.8-4.4-2.4-4-2.4,2.4v6h0ZM646.65,335.6l3.2-.8-3.2-2.4v3.2h0ZM646.65,389.6l1.2-1.2h-1.2v1.2ZM647.85,396.4l.8-3.2-2,1.2,1.2,2ZM648.65,328.4h1.6v-1.2h-1.6v1.2ZM651.45,324.4h1.2v-1.2l-1.2,1.2ZM655.45,301.6h2.4l1.6-1.6-4,1.6ZM661.45,384.4h1.2v-1.2h-2l.8,1.2ZM660.65,417.2h.8v-1.2l-.8,1.2Z"/><path class="cls-1" d="M735.84,507.2l-3.2-.4-9.6-7.2-7.6-8-1.6,1.2-5.6-8.4v-8.4l-3.2-.4-5.2-6,.8-2.4-3.6,1.6-4.4-9.2-3.2-3.6-8-16.4-1.2-8.8-2.4-5.6.4-19.2-1.2-3.6,1.2-2.8-.8-2.4.8-3.6-2-6-.8-6.8,2.4-8.4-.8-2,.4-2.8-1.2-2v-6.8l1.6-1.6h1.2v1.2l2.4,1.2,1.2-1.6v-4.8l-1.2.4.4-4-4-.4-.8-8.4-2.8-.4,3.6-4.8v-10l1.2-1.2.8,2,6.8.4,4,5.2.8,6.4,1.6,2-3.2,2.8,2.4,1.2-1.6,8,2,4.4v4.4l-.8,1.2,1.2,9.2-3.6,5.2,2.4,3.6-.4,2.8h-2l-.4,4-1.2.8v3.2h1.2l.8,1.2-.8,2.8.4,12,3.2,8,2,1.6.8,8-.8,9.6,5.2,2v4.8l1.2,3.6,2.4.8,4,3.6,12.8,9.2,6.8.8,16,5.2,2.4-1.6,1.2.4,2.8-2,11.6-.8,3.2-1.6h3.6l4.8-5.2,11.2-14.4-1.2-4.4,5.2-9.2-.8-3.6,3.6-6,1.2-5.2-1.6-2.4h-7.6l-1.6,1.2h-4.4l-7.6-3.2-6.8-1.6v3.2l-2.4,2,.8,2.4-.8,2v4.8h-4.8l.4,3.6-3.6,2.4-14.8,2.8-4.4-4-3.2-.4-3.6-2.4-2.4-9.6-2.8-8.4,1.2-14.8,2.8-2-2.8-4v-6.4l6-1.6,1.2-1.2h10l1.2,1.6-1.2,8.4-1.6,3.6.4,4.4-1.2,9.2,2.4,1.6,2.8-4.8,2.8-2.4.8-2.4,1.2-.4v-3.6l-1.6-1.6,2.8-.8,3.6.4,2.4-6.4-6,3.2h-2.4v-3.2l-4.8-2.4,8.8-2,8.4,1.2,4-3.6h3.6l2,3.6,4.4-4,2.8-.4.4-2.8h4.8l5.6-10.8v-8l-2-6.4.4-13.2,3.2-8,2,1.6,1.6-1.6-2.4-4.8.8-5.2-1.2-6-2.8-1.6v3.2h-3.2l.8-6.4-.8-7.6-5.2-5.2v-8.8l1.6-5.2-3.6-2-1.2-3.2,10,4,4.8,4.8v1.2h2.8l1.2,4.8,3.2,1.2,14.4,7.6v2.8l6,1.6,2.4,4.8v2.4l4.8.4v4.8l5.6,2.4v4l3.6,4.8,2.4,6.4-.4,4.8-2,2.4,6,4.4,2.8,12.4-1.6,8.8-2,1.6,3.2,2.8v4l-1.2,3.2,2.8,5.6v2.8h-1.6l1.6,4-1.6.8v2.4l1.6-.4.4,7.2-8,6.4-8.4,2-2.8-1.2-12.8,4.4,4.4,3.6,2.4.8-1.6,9.2,2.4-.4-.4-2.4,3.6-2,3.6,5.6,6.8,6,1.6,2.8,2,12.4-3.2,4.8-.4,3.6-2.4,5.2-.4,4.4-4.4-.4.8,8.4-7.2,4.8,2,1.2-3.2,6.4-8.8,11.2-3.6.8-2.8,2.4-7.2,10.4-4,1.2-1.2-.4-3.6,2-10,2.8-3.2-3.2-.4-4-3.2,5.2-2,1.2-6-.8-3.2,2-7.2,1.2-2.4-1.2-5.2-.4-3.2-1.6-4.4-.4.4-2h0ZM684.64,321.6l-5.6.4v-2.4l.8-.8-.4-4.8,3.6-5.6-1.6-2.8,1.2-1.6,4.4.4v-2.8l-5.6-4.4,3.6-4.8,3.2-7.6,4.4-3.2v1.6l2-1.6.8-4.4,12-6.8,6-2.4,3.2-.4,10.4-5.6,2,4,6.4,1.6-3.2,1.6-2.8-.4-1.6,5.6-.8-.4-10.8,7.6h-7.2l-2.4-1.2-.8,5.2-3.6,6.4-2.8.4-2.8,6-1.6.4v4.4l-.8.8-.4,4.8-6-2v2.4l4.4.4,1.2,6.8-4.4,3.6v3.2l1.2,1.6.4,2.8-5.6-3.2-.4-2.8h0ZM679.84,363.2h1.6l-1.6-.8v.8ZM682.64,319.6l2.4-.4,2.4-5.2-2-2.8-1.6,7.2-1.2,1.2h0ZM683.84,296.8l1.2-1.2h-1.2v1.2ZM686.64,354.4l2.4-1.2h-1.2l-1.2,1.2ZM692.64,293.2h1.2v-1.6l-1.2,1.6ZM699.04,280.4l2.4-1.2h-2.4v1.2ZM721.04,472.8l-.4-2.4-5.6-1.6,6,4ZM728.24,482l-2.8-3.2-2.8-4.8h-.8v2.4l2.8,5.2,3.6.4ZM724.64,341.6l-.8-11.6,4,.4-1.2-2,1.2-2.8,4.8-2.8,1.2-2,2.8,2.4h1.2v1.2l-2,2,2,5.6,4,4.4,3.6-2.4,4,.8,3.6,3.2-3.6,6,.8,4.4-10-2-13.2.4-3.2-3.6.8-1.6h0ZM732.64,488l5.2,3.6,2.8-2-1.6-2-5.6-2-2-2.8h-2.4l.8,2.4,2.8,2.8ZM732.64,474.4l2.4-1.2-3.2-.4.8,1.6ZM733.84,398.4v-8.4h-1.6l.4,7.2,1.2,1.2h0ZM736.64,266.4l4-2.4v-2.8l10,1.6,2-1.2v1.2l2.4,1.6,1.6-2.8,1.2,1.2-1.6,2,2,3.6-2.4,2.8-6.4-2v-3.6l-7.6,3.6.8,1.2-1.2,1.6-2.4-.4v-2l-2.4-3.2h0ZM745.44,496.8l-2.8-2.8.4,3.2,2.4-.4h0ZM752.64,322l-5.2-6.4,4.8-2.8-.4-2.4,1.2-.4,1.6,2,1.6-4,4,1.2.4,2.8h1.2l-.8,6.8-4.4,2.4.8,8.4-4.8-2.4v-5.2h0ZM751.84,396h1.2l6.8-5.6-.4-2.8,2-1.6.8-3.6-2.8-2.8,1.6-3.6-4,3.2-.8,5.2-4.4,4,3.6,1.6v2.4l-2.8-1.2-.4.8-.4,4h0ZM755.44,317.2h4v-2.8l-4-.8v3.6h0ZM769.44,482.8h2.4v-4.8l-.8-.8,4-5.2-.4-5.6h-4.4l-7.2,5.6,3.2,3.2.4,4.8,2.8,2.8ZM794.24,398.4h3.6l2.8-1.2h6l2.8-1.2,15.6-1.6-.4-3.2-4,.4-2.4,2-3.6-.4-1.2-2.4-4.4.4.4-3.2-2.8.4-1.2,1.6-4.8,2.8-7.6.4-4.8-4.4h-2.8l-2,6.4,5.2,2.4,5.6.8h0ZM790.64,462.8h3.2l3.2-4.4-2-3.6.8-3.2-.4-2.8h-1.6l-1.2,2.4-5.2,3.6,2.8,3.6.4,4.4ZM794.64,494h3.6l1.2-6.8-.4-12-2.4-2.4h-2l-1.6,1.2,2.4,4v2l-4-1.6-1.6,1.2,3.2,6.4-.8,3.2,3.2-.4,1.2,1.2-2,1.6v2.4h0ZM798.24,448.8l1.2-.4v-3.2l6.8-2,.4-3.6,2.8-4.4-5.2-6.8-8.4,16.4,2.4,3.2v.8ZM801.84,304.8l2.8-.4-.8-2.8-2,3.2h0ZM803.44,342.8l2.4-6-2.4-1.6-1.6.8,1.6,6.8h0ZM804.64,333.2l.8-1.2-.8-1.6-1.2,1.6,1.2,1.2ZM809.84,320.4l3.2,4,5.6-.4-10.4-14.8-2.4-.8,2.4,8.8,1.6,3.2h0ZM806.64,325.6h1.6v-1.2h-1.6v1.2ZM812.24,448.8h1.2l-1.2-.8v.8ZM819.84,337.2l2.4-6.4-4.8,6.4h2.4,0ZM818.64,367.2l.8,11.2,10.4.4-.4-7.6.8-1.6-4.8-3.6-1.6-10.4,1.6-4.8-2.4-2.8.4-8.4-1.2.4-2.8,4.4v4l.4-.8.8,14.8-1.6,2-.4,2.8ZM823.44,332h1.2v-2.4l-1.2.8v1.6ZM832.24,385.2h1.2l-1.2-2v2Z"/><path class="cls-1" d="M944.64,491.2l-7.2-5.6-4-.4-4.8,5.2-8.8.4-8-1.2-8,.8-4-.8-3.6.8-6.4-.8-1.6-1.6-6-.8-3.6-3.2-4.4-6.4-4.8-4.4-6.4-8.4-2.8-1.6-8.4-9.2-5.6-3.2-.4-8,.8-3.2h-2l-.4-6h-3.6l.4-4h2.4v-2.4l-1.2-1.2,1.2-2.8,3.6-2.4,3.6-.8v5.6l-1.2.8.8,5.6,1.2,1.6-2,4.8,1.6,2-1.6,3.6,9.6,1.6,2.8,4.4,4.8-.8,9.6.4,11.2-2.4,3.2,1.2,2.4-1.2,2.8,1.2v2l-10,.4-.8,1.2,4,2,.8,3.6h4.4l1.2,6.4,1.6-2-.8-5.2-3.2-2.8,6-3.2,4.8,4,4.8,7.2h3.2l-3.2-9.6-3.6-2.8.8-4.4-3.6-4.4,2.4-2.8h4.8l-7.6-7.2-.8-3.6-2-3.2-3.2-1.6,1.2-7.6-2.8-5.2,2.4-4-.8-5.2-2.8-2,2-6.8h2l-.4,2,6.8,2,1.2-1.2-2.8-2.8v-2l1.6.8,1.2-.4v-3.2l-1.2-1.2,2-3.6.8-6-3.2-11.6,1.2-7.2,2.4-4.8-2.4-5.2,1.6-2.8-1.2-11.2,1.6-6.4,6.8,1.6.8-4.4-.4-13.6,1.2-1.2-2.8-1.6v-2l6,2h3.6l.4,4h2l5.6,11.2-4.8,2.8,2.4.4,2.8-1.6.8,17.6v12.8l-2,4.8.4,4.4-2,3.2.4,14-.8,4,.4,8-1.2,8.8-2.4,6.4-1.2.4-2.4-3.2.4-1.2h-3.2l-3.2,2.4-2.8,10.8,1.6,6.4,3.2-1.6,1.2-2h1.6l-.4,1.6,3.6,1.2-.8-2.8.8-6-2-.4-2.8,2.4-2.8-6,3.2-2,6.8,2.8,2.4,8-3.6,13.2,2.8,5.6v5.2l-1.6,1.2,2.4,4.8-.4,9.6,10.8,2.4,1.6-.8h10l2.8.8,14.4-4.4,4.8-5.2,6.4.4.4-3.6h2.4l.8-4-.8-1.6.4-4.4-2.8-3.2,2.4-2.8v-14.4l.8-2-.4-5.2-2.4-4,1.6-5.6-1.6-4.4-5.2-4,4.4-2.4,3.2-8-5.6-6.4,6-.8-2.8-4.8,2.4-4.4-6.8-1.6,4.4-2.8-3.2-1.2.4-1.2,2.4-.8,3.2-11.6v-2.4l1.6.4,2,2,4.8.4-1.6-12.8-1.6-.8,3.2-2.4-2.4-6.8h-6.4l.8-8-5.2-3.6-2.8-7.2-2.8-2.8.4-5.2h1.6l2,2.8,3.2.4,1.6-3.2,1.2,2.4.4,10-1.6,2.4,4.4,2,2.4,7.2h2.4l3.6-5.6,4.4-1.6-.4-4,.8-3.6-6-2.4-4.8-4-5.6-6.4-3.2,2.8-.8-6-3.2-3.2-4.4-.4-2.8.8-3.2-4,2.8-1.2,4-6.4,7.6,6.4,5.6,2.4,9.2,12,4,2,1.6,2.4,3.2,1.2,6.8,11.6,1.6.8,3.6,4.4.4,6,1.6,2.8v2l-2,2,1.6,6.4.8-.4.4,5.6-1.6,4,4.8,1.2-.8,6-.4,14-1.6,4-.8,7.6.8,11.6-1.6,9.6.4,5.2-.8,3.2,1.6,4-2.4,7.2,1.2,5.2-1.6,6,.8,4.8-2.4,8,2.4,3.6-3.6.4,3.6,2v42.4l-2,.8-26.8,1.6-7.6,2.8-20.4-1.6-4.4-2.4-3.6-.8-4-3.2h0ZM845.84,404v-2.4l-1.2-1.2,1.2-4.4,4.8,3.6.8,2.4v5.6l-6.4,3.2-2-5.6,2.8-1.2h0ZM845.84,391.6l3.6-6-3.6-1.2,1.2-4.4,4.8,1.2v8.4l1.2.4-.8,6-4-4.4h-2.4ZM848.64,373.2l-.8-4,.8-5.2-2.4-1.6,1.6-2.4,4-3.2-3.6-1.6,6-4.4-2.8,16.8,2,2-1.6.8-.4,7.2-3.2-2,.4-2.4h0ZM849.84,323.6l4-.4-3.2-1.6h-2l1.2-6.8,3.6,2,2.4-.4,1.2,3.6-1.2,5.2.4,2-7.6,4,.4-2.4.8-5.2h0ZM873.04,269.6h-12.4l-4.4,2-1.6-6,3.2-.8,12.8,1.6.8,1.2,8.4-.4,4.4,1.2,2.8,2-1.2,1.2h-4l-1.2-1.6-3.6,2-2.4-1.6-1.6-.8h0ZM871.04,459.2l3.6.4.4-3.2-2.4-3.2h-3.2l-.8,4.4,2.4,1.6h0ZM883.44,465.6h1.2v-1.2h-1.2v1.2ZM901.04,481.6l4.8-.8-.4-1.6-5.6-2.4-2.8,2.8,4,2h0ZM910.64,362.4l2.4,9.2,4.8-4.4,2.8-8.4v-12.4l-6,.4-.8-.8-3.6-.4-2,5.6,2,5.6v3.6l.4,2h0ZM910.64,470.8l1.2.4v-3.6l2.8-.4v-1.6l-4.8-.4-1.2,4,2,1.6ZM909.84,340.4l3.6-2v-5.2l-1.6-.4-2,2.4v5.2ZM913.44,376.8l1.2-1.2v-2.4h-.8l-.4,3.6ZM915.84,430.8l1.2-1.2v-2.4l-1.2-1.6-1.6,2,1.6,3.2ZM917.04,401.6h1.6v-1.2h-1.6v1.2ZM918.64,339.6l1.2-.4v-2.4l-1.2,1.6v1.2h0ZM954.24,269.6l-10.8-5.2h-5.6l2.8-3.2h8l1.6,4.4,4-1.6.8,2,5.6,4.4.4,1.2h-3.6l-1.6-2.4-1.6.4h0ZM955.84,468.8v-4.4l-10-.4-.8,3.2h8.4l2.4,1.6h0ZM978.64,363.2h2l-.8-1.6-1.2,1.6ZM985.44,487.6l8.8-.8,2,1.6,3.6-1.2v-3.6l-11.2-2.8-.8,4.4-5.2,2,2.8.4h0ZM991.04,328.4l1.6-1.6h-1.6v1.6ZM992.64,323.2h.8v-1.6h-.8v1.6ZM1004.24,366.4l1.2-7.6,2-4-1.6-1.6-.8-4.8.8-5.6-1.2-6,3.6-2,1.6-3.2-4,2.8-3.2.8.8-5.6-2.8-4.4-.8-4.8-2.4.4-1.2,2.4,2,9.6-.4,7.2-2.4,4,3.6,6.4-.4,10.4,2.4-1.2,2.4.4-6,3.2h5.2l1.6,3.2h0ZM995.84,409.6l-.4,2.4,2.8.8,4-.8.4-3.6-3.6-5.6-2-.8-1.2,7.6h0ZM998.64,418.4l2.8-.4-.4-2.4h-2.8l-2.4,1.6,2.8,1.2h0ZM1001.44,423.6l-.4-2.8-4.4-.4,4.8,3.2h0ZM1003.44,381.2l2.4-6.8-.8-3.6h-7.6v3.6l2.8-.4-2.8,2.4,2.4,2.4v5.2l-1.6.8,5.2,6.8v-10.4ZM1009.84,449.6l-2.4.4v2.4h1.2l1.2-2.8h0ZM1007.44,474.4h1.2l1.6-2-2.8,2h0ZM1008.64,341.6l1.2-1.2h-1.2v1.2ZM1008.64,487.2h1.2v-1.6h-1.2v1.6ZM1009.84,477.2l1.2-1.6h-1.2v1.6Z"/><path class="cls-1" d="M1083.84,488l-6.4-6.4-.4-2-7.2-.4-4.4-2.4-4.4.4-7.6-4.4-.8-2-6-4.4-8.4-3.6-12-16.4-3.6-7.2-5.6-20.4,2.4-18.4-.4-5.6,4-4.4,3.2-.8,3.2.4,4.8-.8,10.4-3.6,10.8-1.6-.4-3.6-6.4-7.6-6-9.2-2-.4-4.4-5.6,1.2-.8-1.2-2.8h-2.8v-1.2l2-1.2-4.8-1.2v-2.8l-2.8,1.2-2-3.6-2.4-12.4-4.4-5.6,1.2-5.2-1.2-1.6,1.6-5.2,1.2-9.2,2.4-7.2,4.8-7.6,10-9.6-.4-2.8,6.4-6.8,14.8-9.2h3.2l14.4-6.4,9.2-3.2,10.4,3.6,4.4,3.2h4l2,3.2,4.4,1.2,4.8,3.2-.4,1.2h3.6l7.6,4.8,14,6.4,5.2,4.8v2.4l2.8-.4,6.8,2.8,1.2,4.4,1.6.8,2,4,3.2,18.4,3.2,1.6v1.2l2,1.6v1.2l1.2.4-.4,14.4-2.4,2.8.4,2.8,2.8-1.2-.8,4.8-1.6.4,2.4,4.8-2.4,4-2.4,6.8-6.4,1.6-5.6,3.2-4.8-.8,9.6,12,2,5.2,4,1.6,2.4,4.8-2-.4-2.8-3.2-2.8,6.8,10.8,2-.4,3.6,6,8.8.8,4.4-.8,6,3.6,16.4-4.8,11.2-4.8,4.4-2.4,8.4-5.2,5.2-2.8,6.4-4.8,1.2-.8,2.8-4,.8-10.8,9.2-12,2.4-1.6,1.6-4,.4-8.8,2.4-4.4-.4h-20l-1.2-1.2-3.6-1.6h0ZM1027.44,328.8v-1.2h-1.2l1.2,1.2ZM1067.84,457.2l5.6,2.4h4.4l3.2,1.2,3.2-1.6,21.6-2,1.2-1.6,6.8-3.2,7.6-5.6,3.6-4,2-5.6,3.2-4.4v-7.2l5.2-12.8v-6l1.2-1.2-1.2-1.6,1.2-2.8v-3.2l2.8-1.6-4-2.4-1.6-5.2-2.4-1.2-3.6-5.6-10-9.6-3.6-8.4-3.2-.4-4-4.8-8.4-3.6.4-2.4-7.6-2.4-4.8-4.8.4-3.2-11.2-2-1.6-4-.4-8.8-5.2-.8,1.6-2.8-1.6-1.2v-6.8l4.4-7.2,3.2-1.2,5.2-4,11.2,1.2,6.8,5.2,2.4,4-2.4,7.2.8,7.6,1.6,1.2,2.4-3.2,6.4-.4,13.2-4,2.8-3.2-4.4-4.8-1.2-8,.4-4.4-3.2-12.4-4-7.6-8-4.8h-2.8l-3.2-3.6-.4-3.6-5.2-.8-4.4-2-7.2-.8-5.6-2.8-4.4,2h-5.2l-2.8,2.8-9.6,3.6-7.2,4.4-2.4,6.8-7.6,8.4h-2.4l-3.2,6.4-.4,5.2-1.2,1.2-.8,9.6,2.8,14.8,2.4,2.8v6l-1.6,1.6,4.4,1.2,3.6,6.8,10.8,10.4.8,2.8,6.4,2.4,2.8,4v1.2l6.8,6.4,2.4,6,2.4.8,1.2,2.8,5.2,4.4,4.8,5.6,1.2,6v7.2l-1.6,2.8.4,4-6.4,4-7.6,2.4h-5.2v-.8h-2.4l-3.2-3.6-3.2-1.6-4.4-4.8-2.8-8.8v-5.2l-2,1.2-5.2-.8-13.6,4.4-1.6,15.2.8,4,7.2,14.4,3.2,3.6,7.2,10,4.4,3.2,13.2,6.4h4,0ZM1071.44,402l-.8-3.6-3.6-2-1.6-4.8-1.6-.4-1.6,2.8,1.6,6.4h3.6l1.2,1.2h1.6l1.2.4h0ZM1071.44,408l1.2-1.6-2.4-.8v1.2l1.2,1.2h0ZM1086.64,332.8l.8-1.2h-.8v1.2ZM1100.64,475.6h3.6l-1.6-1.2h-2.4l.4,1.2ZM1142.24,477.6l4.8-7.2,4,.4,1.2-2.8,2.8-2.4,4-8,2-1.6,4.4-8v-7.2l-4.4,3.6-4.4,2-.8,5.2-3.2,1.2-1.2,1.6-4.4.4-.4-4-2.4,9.6-3.6,5.2-5.2,2.4.4,3.6-1.6,3.2,6,.8,2,2h0ZM1140.24,324.8v-.8l-3.2.4,3.2.4ZM1140.24,401.6h1.2v-1.2l-1.2,1.2ZM1142.64,335.6h1.6l-1.6-1.6v1.6ZM1142.64,384h1.6l-1.6-1.2v1.2ZM1146.24,404.8l9.2-6.8-5.6-3.6.4-4-.8-1.2-2,1.2.8,7.2-5.6,4.8,3.6,2.4ZM1142.64,406.8h1.6l-1.6-1.2v1.2ZM1147.44,332.8h2v-1.2h-2v1.2ZM1149.44,340.4l.8.4v-3.2l-.8,1.2v1.6ZM1159.44,340.4l.8.4v-3.2l-.8-1.2v4h0ZM1165.04,400l2.4-1.2-1.6-3.2-1.2,2.4.4,2h0Z"/></svg>