<?xml version="1.0" encoding="UTF-8"?><svg id="Layer_1" xmlns="http://www.w3.org/2000/svg" viewBox="0 0 1336.1 599.42"><defs><style>.cls-1{fill:#fff;}</style></defs><path class="cls-1" d="M179.57,349.86l-5.01,2.17-3.85-.72-2.69.36-3.47-1.09-1.92.36-2.31-1.45-6.55,1.45-3.46-.36-4.62,1.09-3.08-4.71v-2.9l-1.15.72-3.08-7.24-3.85-1.81v-2.9l-3.08-2.17-3.85-8.33-5-2.17-4.24-3.26-1.16-5.07,2.31-4.34-1.15-6.88,1.15-2.17v-2.9l1.54-4.34-1.54-5.07,1.16-2.53-1.54-6.15.38-2.9-.77-2.53,1.15-5.79-.39-7.24-1.54-5.43,1.54-5.07-1.54-3.98,2.31-1.45,1.93-2.9-3.46-1.45-.39-16.29.77-1.81-1.16-9.77-1.15-1.09,1.54-12.31-2.31-2.9,1.93-3.26-2.31-1.45-1.93-2.9,1.93-1.45-1.16-5.43.39-4.34,3.46.36-2.31-2.53v-2.17l-1.54-1.09.39-2.53-.77-.72-.77-7.6-7.7-1.09-1.16-5.07-5.39-2.9-4.62-6.51-8.09-7.24-1.16-2.9-5.01-5.43,1.16-3.98-.38-4.34,1.15-5.43-1.54-5.43v-16.65l.77-3.98,2.31-3.62,3.08.36,3.08-2.17,9.63-.36,2.31,2.53,3.85-2.53,3.08-.36,2.31,2.53h2.7l1.54-1.81,1.16,1.45,2.7-1.45,3.47-.36,2.69-1.81,16.94,1.09,3.85-2.17,4.24-.36-.39-1.81,2.7-1.09,7.32.72.77.72h13.09l5-3.26,3.85.36,6.16,2.17,3.85-3.62,6.16,3.26-1.16,2.17,1.93,2.9,5.78,2.17-1.15,1.45,4.23,5.43,1.54,4.34,1.93.36,1.92-2.53,10.78,10.86v3.62l2.31-1.45,1.15,1.81,6.16,4.34v4.34l-2.7,2.17.39,2.53,1.16.36,1.16-2.9,2.31.72-.77,5.07-4.62,1.45,2.7.36-1.15,1.81,1.54,3.26-8.09,3.62,1.93,2.17h1.16v-2.17l3.85,2.9-4.62,1.81,2.31,9.77h1.15l2.7,2.17-1.16,2.53-4.23-.36-.38,3.26-3.47,2.9-5.01-1.09-7.7.36-.38,1.81-5.39,4.71h-1.54l-1.15,1.81,1.54,1.45-1.54,10.13h-2.31l-3.85,3.98,3.08,3.98v3.98l-1.93,4.71,1.16,1.45h2.69v6.51l1.16,1.45-2.31,1.09v2.17l2.31.72-4.24.36-10.78-2.53.39-3.26-3.85-1.45-3.08,2.53-2.7-1.81v-1.45l-4.23.36-.39-3.62,1.54-.36-.39-2.17h-1.54l-.77-2.9-.77.36-.77,7.6.77,2.17-3.46,4.34,2.69,5.79v5.79l-3.08,2.17,3.46,7.24,3.46-3.62v5.79l2.7-.36-.39,1.09-3.46,2.17-2.7-.72.39,9.77h3.08l1.54-5.79,4.23-1.45-2.31,3.26,4.62,3.98-3.46,1.09,3.08,2.53v2.17h1.16v1.09l-2.7,2.17h1.93l1.93,1.45-3.85,3.62,3.85-.36.39,5.43,3.08-.72,2.7,3.62,2.31-2.9,4.23,1.09,1.16-2.53-6.55-.36-.38-1.09,1.54-2.17-1.54-1.45,2.31-3.62,3.08-2.9-2.7-.36v-3.62l-2.31-1.45-2.69,1.09-4.24.36,1.16-2.53.38-3.98h-1.93v-1.09l1.54-1.09-1.54-5.07-1.93.36-3.08-2.53.77-2.53,5.01-3.98-6.55-5.43-.38-3.26,3.47-1.45.38-3.98,5.78,2.17-5.39,5.07,3.47,1.81,1.93,4.34,2.7-1.81,3.08.36.39-4.71h-2.31v-2.53l1.16-1.81,5,2.9v3.26l3.46,1.81v4.71l-2.69-3.62-1.16.72v2.9h-.77l3.08,4.34h-3.08l.38,7.6,4.23,16.65-3.46,2.17,1.16,2.53,3.08-.36-.77,5.79-7.32,5.43.39,4.71-2.7,1.81-1.54-.72.39-2.9-1.93-1.09.77-3.26-3.46-1.09.38-1.45-3.46,1.45-.39,3.98,3.85,2.17,3.08,3.98-2.31,3.26,1.54-.36,3.08,2.53,5.39-4.71,5.01,7.96-3.46,3.98-1.93.72,1.93,2.53h2.69l-1.15,18.82-3.08,4.34,5.39,2.53-.77,2.9.77,9.41-3.85-1.81v1.09l3.46,4.71.39,6.88h-5.01v2.17l1.16,1.81,2.69-2.9,1.93,1.81-1.93,1.81-1.93,4.34-8.09,4.34h-2.7l-3.08-1.45-5.39.72-2.31-3.26ZM86,105.55l.77-1.09h-.77v1.09ZM178.03,329.59l3.08,1.09v-2.9l-1.93-4.34h1.93v1.09l3.08,2.9,2.31-.72-2.7-4.34v-9.77l3.85-2.9,5.39-1.45-.77-3.98-2.31-2.17-1.54,2.17h-2.31v-2.53l2.7-2.53,3.46.36,1.15-1.45-1.15-9.77-1.16-1.45-4.23.72-1.93,1.45-1.16-.36.77-11.22-3.46-3.98.77-3.26-.77-4.71,2.7-1.09-.38-1.45-3.85.72-.39-3.98,1.15-1.81h-3.46v-4.34l-2.7,2.17-1.93,3.26h-9.62v-7.24l4.23-5.43-1.16-2.53-1.93-.36-.77-9.77,1.93-.72-.39-3.62-1.54-2.53,1.16-3.98-3.08-3.62,3.85-1.09-3.08-6.88v-2.17l1.54-2.17.77-4.34,5.39-2.9h-2.31l-2.31-1.81,1.93-1.81v-2.17l-5.01.36v-1.81l5.78-2.53-1.16-2.53-4.62-2.17,2.31-6.51-3.85-2.53-.39-8.33-2.31-6.51,1.93-2.53,1.54-5.43-2.7-2.53-.77-3.98,1.16-5.43-3.08-10.5,4.62-1.81,1.93-5.07,5.78.72,3.85-.36.38,4.71,3.08-3.98,5.78.36,7.7-.72,5-3.62,1.93-4.34,4.24-6.15-2.7,1.45-5,.72,2.7-3.26,2.31-5.07-1.54-1.45v-1.45l6.16.36-.77-4.71-6.54-1.09-1.16-2.17.39-2.17,3.46-.36v2.53l5.39-1.09,2.31-2.17-5.78.36v-3.62l-6.93,1.09-1.16-.72h-5.39l-6.16,1.09-5.01-.36-.77,1.09-7.32-1.81h-3.85l-8.86,1.81-7.32-1.09-3.85,2.53h-10.78l-1.93-2.17-1.54,2.17-12.71,1.09-5.78-1.09-6.16,1.81h-8.09l-8.09,4.71,2.31,3.98.39,6.51,1.54,3.26-3.85.72v4.34l3.08,3.62,2.7-3.98,5.39,2.9,9.63.72,2.31,2.53,7.32,1.45,1.93-.36,2.7,3.98,1.54,4.71-1.93,1.45,1.54,2.17-1.93,1.45,3.08,1.81-.77,3.98-1.16,1.45v2.17l1.93.36v3.98l-2.31,2.17,1.54,3.98-1.54,5.43.77,3.62,2.31,1.81-2.7,1.09v3.26l3.08,2.9-2.7,3.98,3.08,3.62.38,9.05,1.16,1.45v5.43l-1.16,1.09,1.54,1.09-4.23,2.53,1.54,4.34,1.93-2.9,1.15,2.53-.77,3.26,3.46,7.24-2.31.72-.39,3.62-1.93-.36-2.31,2.53,5.39,3.62,1.54,5.07-.39,1.81,1.93,2.17-3.08,2.53,1.54.36v3.62l1.54,2.53.39,3.62-.77,6.15-.77-.36.77,7.6-.77,2.17-3.08,1.81v2.17l1.16.72-.39.72,1.93,2.9h-2.7l2.7,3.26v3.26l1.93,1.81v4.71l-4.62.72-1.93,5.43,4.62,1.09v1.81l-3.46,1.45-.77,2.17,6.16,7.24,3.46-1.09,7.7.72,5.39-1.09,6.93,1.09.77,2.9h2.7l.38-2.17,2.7-4.34,4.24-2.17-5.39-7.24.38-6.15,1.93-4.34-.77-3.26.38-10.13,3.08-2.9-1.93-3.98.39-1.09,4.23-1.09.77,3.62,3.85,3.26-1.54,2.17,1.15,4.34h-3.08l-1.16,1.09,3.85.72-2.7,3.62v1.09l2.7-1.09,2.7,2.53-.39,11.22,3.08-3.62,1.54.36v2.17l1.54,3.98-4.62,1.09-.77-1.81-5.78,1.45v1.81l1.15,1.45-1.15,1.09-.39,2.17,3.08-.36,2.7,3.26-1.54,2.17v1.81l-1.16,1.09v3.62l-1.93.72,3.08,1.81-.77,1.09-.38,9.41,3.85,2.17ZM94.48,121.47l1.16-1.45-.77-1.09-.38,2.53ZM105.26,135.23l3.46-3.62h-3.08l-.39,3.62ZM124.51,247.43v-1.09h-1.16l1.16,1.09ZM140.29,309.69l1.16-.72h-1.16v.72ZM145.3,322.35l1.15-1.09-1.54-1.09.39,2.17ZM153.39,336.11l1.54-1.09h-1.54v1.09ZM165.71,208.7h1.16l-1.16-1.09v1.09ZM169.56,327.78l2.31-.36-.39-2.9h-5.78v2.17l3.85.36v.72ZM171.48,190.6v-2.17h-1.16v1.09l1.16,1.09ZM170.33,308.96h2.31l-1.15-1.09-1.16,1.09ZM171.1,249.24l3.08-3.98-2.7-.36-.39,4.34ZM173.02,253.22l1.54-2.9,4.62-1.09v-1.45l-3.46-2.17.77,2.9-5.39,2.9,1.93,1.81ZM174.56,177.21l3.47-2.53-1.54-3.98-.77-5.43-1.54-2.9-2.7,5.07.39,9.77h2.69ZM179.57,255.39l3.08-1.81-2.7-2.17-2.7.36,1.93,1.09.39,2.53ZM184.96,229.33l1.15-1.09v-1.45l-1.15.36v2.17ZM186.11,321.27l1.54-1.45h-1.54v1.45ZM188.42,225.71h3.85l-.39-2.17-3.08.36-.39,1.81ZM190.35,181.92l1.93-1.45-1.93-.72,4.24-3.26-4.62-2.9-1.15,3.26v3.62l1.54,1.45ZM189.58,232.95h1.16l-.39-3.98-1.54.72.77,3.26ZM193.43,191.33l.39-5.07-2.7-.36-.77,2.9,3.08,2.53ZM190.73,284.71h9.63v-3.62l-6.93,2.17-2.69,1.45ZM191.12,77.68l2.31-.36-1.15-1.45-1.16,1.81ZM193.04,230.42l1.93-1.81-1.93-2.17v3.98ZM194.58,206.53h1.15v-1.45l-1.15,1.45ZM194.58,240.19h1.15v-.72h-1.15v.72ZM199.2,177.94h1.16v-1.09h-1.16v1.09ZM204.59,117.13l5.01-.72-.39-6.15-3.85-.72-.39-2.53,1.16-3.62-6.16-.36,1.93,6.51,3.08,1.81.77,2.53-5.01,1.81,3.85,1.45ZM204.98,131.97l-3.46,3.26,5.39-.36v-4.34l-1.93,1.45ZM217.3,150.79h3.85l.77-5.43-5.39,1.09.77,4.34ZM230.78,115.68h1.15v-1.09h-1.15v1.09Z"/><path class="cls-1" d="M360.15,365.06l-3.85.72-5.39-1.45-9.24-.72-3.46-2.17-6.16-.36-10.01-8.69v-2.53h-7.7l1.16,4.71-.77,6.51,1.16,1.45-5.39,2.9-2.69,2.53-2.7-2.53-5.78-.36-5-3.62-3.85,1.09-9.24-1.45-11.94-4.34-8.47-5.79-3.85-7.96-3.08-2.53-1.54-3.62-3.85-4.34-3.08-5.43-1.93,3.62-2.31-2.17-.39-2.53-3.08-3.26,1.54-6.88,3.08-4.71h-3.46l1.16-8.33,1.54-2.9v4.34l10.39-3.26-1.54,4.71v3.62l-2.31,1.81,6.55,2.17,9.63,1.81,7.32.36,7.32-1.09-.77-2.17,1.54-4.71-2.31-8.69v-8.32l-1.93-4.71.38-3.62-1.16-2.9,1.54-8.69.39-7.96.77-1.09-.77-5.07,1.16-2.53-.38-3.26,2.69-12.67,1.16-1.09-.77-3.62,1.16-3.62-.77-4.34,2.7-3.26,1.93-3.98-.77-3.26,1.93-11.94,3.46-9.05.39-3.62,4.23-5.07,3.08.36,5,2.53,2.7,2.9,3.46.36,1.93,2.9,5.39,5.07,8.47,15.56-2.31,2.17,2.7,2.53-.38,5.79-2.7,7.96,1.54,1.81-1.15,6.15v8.33l-1.93,8.69-.77-.36v6.51l-1.93,5.43,1.93,4.34v11.58l-1.16.72-.77,3.62-1.16.72,1.93,1.45.39,2.53-1.16,1.45,1.16,3.98v6.51l-2.7,2.53,1.93,7.6,4.62,2.17,4.23-.72v.36l4.62-.36,2.7-2.17,7.32,1.81,3.85-.72,2.31-3.26,2.31,3.62,1.93-16.65-1.15-3.98,1.54-6.88-.39-2.17,1.54-5.43,1.16-13.39-2.7-7.24,2.31-2.53-.77-6.52,1.16-6.88-1.54-6.15.77-5.43,2.31-2.17-2.31-4.71,1.54-13.75-.38-10.13,1.54-1.81-1.16-3.26.38-8.69-.77-3.26,1.54-7.6-2.7-3.62.39-6.88-2.7-4.34-7.32-5.79-3.85-4.71v-5.43l-3.85.36-3.47-2.9-2.69-1.09-2.7-2.53-10.01,3.62-1.16-1.45-2.7,2.17-5.01-1.09-1.54,2.9-7.7,2.53,2.31.36v1.81l-3.08,1.09-1.54,1.81-8.09-2.53-2.31-5.79v-9.41l.77-.36-1.54-5.43.77-7.24,2.69-1.09-1.15-.36,1.15-6.15-.38-2.9.77-22.44,1.54-1.81-2.31-2.9-2.7-.36-3.85-2.17h-7.32l-4.24,2.53-8.47,2.53-3.08-.36-4.62.72-4.62,12.31-3.08,3.62,4.62-1.09,3.08,1.81.77,9.05-1.54,5.79,1.54,5.07v3.26l-2.31-.72-1.15,2.53,2.31,4.34-2.31,1.45,2.31,3.98-2.31,6.15,2.31,1.81-4.24,2.17,4.62.72-1.54,4.71v10.86l-2.69,2.9,3.85,9.05.38,4.34-6.93.36.39,14.12,1.93.72-2.31,2.9h4.24l-3.85,3.26-1.16,3.62,1.16,3.26-6.55-2.9.77-8.32,2.7-3.26-2.7-3.62v-2.17l2.7-2.53v-1.81l3.08-4.71,4.24-1.45-4.24-1.45,2.31-1.45h-6.93v-2.53l-.77-.72-.39-3.98-1.93-3.62,2.31-3.26h3.46l-.77-1.81-3.08-1.09.77-1.45,4.62-.36,2.31-4.34-1.93,1.81-6.16.36-.77-3.98,1.15-14.12,1.16-2.17-.39-1.09,1.54-2.17.38-4.71-1.54-.72v-3.98l-1.16-1.09.77-1.45-1.16-3.26,3.47-6.51-1.93-2.17v-1.09l-1.93-1.81,1.93-1.09-.77-3.98,1.54-4.71-3.08-2.53,1.92-4.71-4.62-1.81,2.31-1.45,5.39-.72-2.7-.72-.39-2.9,2.7-1.81,1.54-2.53,6.16-.72,11.94,1.45,5.39-3.26,1.93,1.45,3.85,1.09,1.93-.72.39-2.17,7.7,1.81,2.31,1.45,4.23.72v2.17l5.39,2.9,8.86,9.77.38,3.26-4.62-1.81-.39,3.98.77,5.43,1.93,1.81,4.23-3.62v-3.26l-1.16-1.09,2.7-2.53,1.93-.72-1.16,5.43,4.24-.72.77,4.71,3.85,3.62-.38,5.07-1.93,1.81.38,1.09-1.54,5.07,2.7-.36-.77,9.41-3.47,2.53,8.47,2.9,5.78-.36,5.39,7.24,1.93-3.26,1.93,1.45-1.54,2.17,4.62.36,2.7,4.71,2.31,2.17-.38,2.53h5l8.86,3.98,2.31,2.53-.38,2.9,3.85,1.09v3.26h-1.16v1.81h5.39l2.7,6.15,3.85,3.62.38,4.34,3.47,5.07-.39,2.17,2.7,3.26-1.16,2.53v6.15l2.7,2.17v6.15l-4.24,4.34,1.15-1.81-.77-5.07-1.54-2.17-.77-10.5h-7.7l-1.16-6.88h.38l-1.92-6.51,1.16-3.98-1.16-5.43h-1.93l-1.16-1.09h-2.31v1.81l-2.31,3.62-.38,2.53,2.69,3.62-1.93,2.9.39,6.15,1.54,1.81-4.23,8.32h1.54l1.15,1.45-1.54,1.81,1.54,1.45,2.7-.36v-2.53l6.54.72.77,4.34,2.69,7.96h-1.93l1.54,4.71-1.54,4.71,1.16,1.81-1.93,1.09-1.93,3.98-3.08-3.98v-1.81l-1.93-2.17-3.08,5.07.39,3.62-1.93,5.43,1.93-.36-3.46,9.41h3.08l3.08-1.45,2.7,2.17-1.93,1.81,1.16,2.17-6.93,6.88.39,1.45-1.54,2.17,1.15,1.09,1.93-.36,1.54,2.17h2.31l-1.15-1.81.38-3.26-1.54-3.98h1.16l2.31,5.07,7.32,2.17,1.54,4.34-.39,4.71,1.15,1.09,2.31-6.15.39-3.98,2.7.72,1.16-4.71v.36l2.31-4.71h1.54l-.77,7.6-1.54,4.71.77,2.53-2.31,3.26,1.93,1.81-2.7,8.32,1.16,1.45-.39,3.62-3.08,1.45,2.31.72.39,2.53,2.7,1.45-1.54,6.51-2.7,3.98v6.88l-1.16,3.26,3.47-2.9,1.54,3.62-1.16,1.81,1.93-.72-.77,15.93,1.54,4.34-1.15,5.07.77,3.98-3.46,2.9,1.16,1.09,3.08.36-3.46,4.71,1.54,3.26v3.26l1.54.36-.77,3.26-11.94-.72-4.62.72-2.7-.72-4.62.72-1.93-2.17ZM245.79,276.39l-3.08.72-1.93-2.53,4.62-1.45-1.54-3.62,1.16-2.53-1.54-1.81.77-7.24h-3.08l4.23-5.79-3.08-1.45-.38-7.6,2.31-4.34,1.54-6.88,1.92,1.81,3.08-3.26.38-2.53-5.78.72,1.16-2.53,4.24-1.45,1.54-2.9-.77.72-2.69-4.71-6.93,3.26,1.54-3.26,10.4-6.15,3.08,3.26-.77,5.43-.39,11.22-1.54,9.77.77,6.15-2.7,2.9-5.01,2.9,3.85,1.09v1.81l1.93,3.98.38,11.58-3.08,11.58-4.62-.36-3.47,1.09.39-5.07,3.08-2.53ZM247.72,145.36l2.7.36v-1.09l-1.93-.72-.77,1.45ZM247.72,168.53l3.08-1.09-3.08-1.09v2.17ZM248.49,176.49v-1.09h-.77l.77,1.09ZM248.49,269.51l1.93-1.09h-1.93v1.09ZM251.18,125.09h1.16v-1.09l-1.16,1.09ZM260.81,334.3h1.54l-2.31-3.62.77,3.62ZM266.97,340.81l-1.15-1.81v1.09l1.15.72ZM271.59,348.41l2.69-.36-.77-1.81-6.16-5.79,1.54,4.34,2.7,3.62ZM275.06,330.68l1.54-2.17h-1.15l-.39,2.17ZM290.46,266.61l.39-8.69-.77.36-1.93,9.05,2.31-.72ZM288.92,271.68h.77v-1.09l-.77,1.09ZM290.46,299.91l2.31-2.9-.38-8.32h-3.08v9.05l1.16,2.17ZM293.15,245.62l-1.93,3.26h3.08l1.93-2.53-1.54-2.9-1.54,2.17ZM302.01,200.02l2.31-1.09h-1.16l-1.15,1.09ZM302.01,333.57v6.51h2.31v-7.24l1.54-5.43-.77-4.71-3.08-.36,1.54,3.62-.77,3.62-.77,3.98ZM308.94,233.31h3.85v-2.17l-3.85,2.17ZM312.79,238.74l1.16-.72h-1.16v.72ZM319.33,346.6l.39-2.17-.77,1.09.38,1.09ZM332.81,337.92l1.16,1.81,2.31-2.53-2.31-1.81.39-3.62-1.54-.36-2.7,2.9,2.7,3.62ZM333.2,344.43l-2.31-3.62-.38,2.17,2.69,1.45ZM333.58,329.59l2.31-1.09h-1.54l-.77,1.09ZM339.74,341.9l.77-1.09-4.23-3.26,3.46,4.34ZM344.36,331.76l3.46-1.81h-2.31l-1.16,1.81ZM354.37,343.71l2.7-2.17-8.47-3.62-3.08-3.62.77,1.45-.77,4.34,5.78,2.17,3.08,1.45ZM345.52,347.69l3.85.72.38-2.9-3.08-.36-1.15,2.53ZM374.78,358.19l2.31-.72-1.15-4.34,2.31-7.6-1.54-.36-1.93,2.53-6.16-6.88-3.85,2.53v-2.17l2.31-5.43-1.16-5.43-3.85-.72-.77-2.53-7.32,5.79-.77,3.26,4.23-.36v2.53l2.7,4.71-2.31,3.26,3.85,2.17-3.46,1.81,2.31,1.81,3.08,6.51,2.7-2.9-.39-4.71-1.54-2.9,2.7-2.9,3.46,3.98-.38,3.26.77,2.17-.77,3.26,4.62.36ZM366.69,306.79l1.93,2.53,1.93.36v-16.65l4.62.36-.77,4.71.38,7.6h3.47l-.38-2.9.77-9.41-5.78-3.26-2.31,1.09-.77-2.53,1.93-2.9-4.62-6.15.77-2.9-.77-6.15-1.93.72-2.31,3.62-4.24,8.69,3.85,1.81-3.46,1.81,3.46,2.9-3.08,3.98,1.54,5.07-.77.72.39,4.34,3.46.72,2.7,1.81ZM358.99,172.87h1.15v-1.81h-1.15v1.81ZM358.99,229.69l1.15-1.09h-1.15v1.09ZM363.61,216.3l.39-1.45-3.08-1.09.38,1.81,2.31.72ZM368.23,225.35l2.69-2.9-5-1.09-1.15-2.17-3.08.36,2.7,5.79h3.85ZM365.15,325.97l-.38-2.17h-.77l1.16,2.17ZM367.08,213.77h1.54l-1.54-1.09h-2.31l2.31,1.09ZM368.62,313.67h1.16v-.72h-1.16v.72ZM371.7,362.53h1.54v-2.53l-1.54,1.45v1.09ZM373.62,313.67l3.08-.72h-2.31l-.77.72ZM374.39,180.83h1.16l-1.16-1.81v1.81ZM374.39,331.76h2.31l.77-6.51-3.08,4.71v1.81ZM375.55,286.52l1.54.36-.39-2.9h-1.15v2.53Z"/><path class="cls-1" d="M455.25,357.46l-3.08-.36-9.24-6.51-7.32-7.24-1.54,1.09-5.39-7.6v-7.6l-3.08-.36-5.01-5.43.77-2.17-3.47,1.45-4.23-8.33-3.08-3.26-7.7-14.84-1.15-7.96-2.31-5.07.39-17.37-1.16-3.26,1.16-2.53-.77-2.17.77-3.26-1.93-5.43-.77-6.15,2.31-7.6-.77-1.81.39-2.53-1.16-1.81v-6.15l1.54-1.45h1.16v1.09l2.31,1.09,1.16-1.45v-4.34l-1.16.36.39-3.62-3.85-.36-.77-7.6-2.7-.36,3.46-4.34v-9.05l1.16-1.09.77,1.81,6.55.36,3.85,4.71.77,5.79,1.54,1.81-3.08,2.53,2.31,1.09-1.54,7.24,1.93,3.98v3.98l-.77,1.09,1.16,8.32-3.47,4.71,2.31,3.26-.39,2.53h-1.93l-.38,3.62-1.16.72v2.9h1.16l.77,1.09-.77,2.53.38,10.86,3.08,7.24,1.93,1.45.77,7.24-.77,8.69,5,1.81v4.34l1.16,3.26,2.31.72,3.85,3.26,12.32,8.33,6.54.72,15.4,4.71,2.31-1.45,1.15.36,2.7-1.81,11.17-.72,3.08-1.45h3.47l4.62-4.71,10.78-13.03-1.15-3.98,5-8.33-.77-3.26,3.46-5.43,1.15-4.71-1.54-2.17h-7.32l-1.54,1.09h-4.24l-7.32-2.9-6.55-1.45v2.9l-2.31,1.81.77,2.17-.77,1.81v4.34h-4.62l.39,3.26-3.46,2.17-14.25,2.53-4.24-3.62-3.08-.36-3.46-2.17-2.31-8.69-2.7-7.6,1.16-13.39,2.7-1.81-2.7-3.62v-5.79l5.78-1.45,1.15-1.09h9.63l1.16,1.45-1.16,7.6-1.54,3.26.39,3.98-1.16,8.32,2.31,1.45,2.7-4.34,2.69-2.17.77-2.17,1.15-.36v-3.26l-1.54-1.45,2.7-.72,3.46.36,2.31-5.79-5.77,2.9h-2.31v-2.9l-4.62-2.17,8.47-1.81,8.09,1.09,3.85-3.26h3.47l1.93,3.26,4.23-3.62,2.7-.36.39-2.53h4.62l5.39-9.77v-7.24l-1.93-5.79.38-11.94,3.08-7.24,1.93,1.45,1.54-1.45-2.31-4.34.77-4.71-1.16-5.43-2.69-1.45v2.9h-3.08l.77-5.79-.77-6.88-5.01-4.71v-7.96l1.54-4.71-3.46-1.81-1.15-2.9,9.62,3.62,4.62,4.34v1.09h2.7l1.15,4.34,3.08,1.09,13.86,6.88v2.53l5.78,1.45,2.31,4.34v2.17l4.62.36v4.34l5.39,2.17v3.62l3.46,4.34,2.31,5.79-.38,4.34-1.93,2.17,5.78,3.98,2.69,11.22-1.54,7.96-1.93,1.45,3.08,2.53v3.62l-1.16,2.9,2.7,5.07v2.53h-1.54l1.54,3.62-1.54.72v2.17l1.54-.36.38,6.51-7.7,5.79-8.09,1.81-2.7-1.09-12.32,3.98,4.23,3.26,2.31.72-1.54,8.33,2.31-.36-.39-2.17,3.46-1.81,3.47,5.07,6.55,5.43,1.54,2.53,1.93,11.22-3.08,4.34-.39,3.26-2.31,4.71-.38,3.98-4.23-.36.77,7.6-6.93,4.34,1.93,1.09-3.08,5.79-8.47,10.13-3.46.72-2.7,2.17-6.93,9.41-3.85,1.09-1.16-.36-3.47,1.81-9.62,2.53-3.08-2.9-.39-3.62-3.08,4.71-1.93,1.09-5.78-.72-3.08,1.81-6.93,1.09-2.31-1.09-5.01-.36-3.08-1.45-4.24-.36.39-1.81ZM405.97,189.52l-5.39.36v-2.17l.77-.72-.38-4.34,3.46-5.07-1.54-2.53,1.16-1.45,4.23.36v-2.53l-5.39-3.98,3.47-4.34,3.08-6.88,4.24-2.9v1.45l1.93-1.45.77-3.98,11.55-6.15,5.78-2.17,3.08-.36,10.01-5.07,1.93,3.62,6.16,1.45-3.08,1.45-2.7-.36-1.54,5.07-.77-.36-10.39,6.88h-6.93l-2.31-1.09-.77,4.71-3.46,5.79-2.7.36-2.69,5.43-1.54.36v3.98l-.77.72-.39,4.34-5.78-1.81v2.17l4.24.36,1.15,6.15-4.23,3.26v2.9l1.16,1.45.39,2.53-5.39-2.9-.38-2.53ZM401.35,227.16h1.54l-1.54-.72v.72ZM404.04,187.71l2.31-.36,2.31-4.71-1.93-2.53-1.54,6.51-1.15,1.09ZM405.2,167.08l1.16-1.09h-1.16v1.09ZM407.89,219.2l2.31-1.09h-1.16l-1.15,1.09ZM413.67,163.82h1.15v-1.45l-1.15,1.45ZM419.83,152.24l2.31-1.09h-2.31v1.09ZM441.01,326.33l-.38-2.17-5.39-1.45,5.78,3.62ZM447.94,334.66l-2.7-2.9-2.7-4.34h-.77v2.17l2.7,4.71,3.46.36ZM444.47,207.62l-.77-10.5,3.85.36-1.16-1.81,1.16-2.53,4.62-2.53,1.16-1.81,2.69,2.17h1.16v1.09l-1.93,1.81,1.93,5.07,3.85,3.98,3.46-2.17,3.85.72,3.46,2.9-3.46,5.43.77,3.98-9.63-1.81-12.71.36-3.08-3.26.77-1.45ZM452.17,340.09l5.01,3.26,2.69-1.81-1.54-1.81-5.39-1.81-1.93-2.53h-2.31l.77,2.17,2.69,2.53ZM452.17,327.78l2.31-1.09-3.08-.36.77,1.45ZM453.33,259.01v-7.6h-1.54l.38,6.51,1.16,1.09ZM456.02,139.57l3.85-2.17v-2.53l9.63,1.45,1.93-1.09v1.09l2.31,1.45,1.54-2.53,1.16,1.09-1.54,1.81,1.92,3.26-2.31,2.53-6.16-1.81v-3.26l-7.32,3.26.77,1.09-1.15,1.45-2.31-.36v-1.81l-2.31-2.9ZM464.49,348.05l-2.7-2.53.39,2.9,2.31-.36ZM471.42,189.88l-5-5.79,4.62-2.53-.38-2.17,1.15-.36,1.54,1.81,1.54-3.62,3.85,1.09.39,2.53h1.16l-.77,6.15-4.24,2.17.77,7.6-4.62-2.17v-4.71ZM470.65,256.84h1.15l6.55-5.07-.38-2.53,1.93-1.45.77-3.26-2.69-2.53,1.54-3.26-3.85,2.9-.77,4.71-4.23,3.62,3.46,1.45v2.17l-2.7-1.09-.38.72-.38,3.62ZM474.12,185.54h3.85v-2.53l-3.85-.72v3.26ZM487.6,335.38h2.31v-4.34l-.77-.72,3.85-4.71-.39-5.07h-4.24l-6.93,5.07,3.08,2.9.39,4.34,2.7,2.53ZM511.47,259.01h3.46l2.7-1.09h5.78l2.69-1.09,15.02-1.45-.38-2.9-3.85.36-2.31,1.81-3.46-.36-1.16-2.17-4.23.36.38-2.9-2.69.36-1.16,1.45-4.62,2.53-7.32.36-4.62-3.98h-2.7l-1.93,5.79,5.01,2.17,5.39.72ZM508,317.29h3.08l3.08-3.98-1.93-3.26.77-2.9-.38-2.53h-1.54l-1.15,2.17-5.01,3.26,2.7,3.26.39,3.98ZM511.85,345.52h3.46l1.16-6.15-.38-10.86-2.31-2.17h-1.93l-1.54,1.09,2.31,3.62v1.81l-3.85-1.45-1.54,1.09,3.08,5.79-.77,2.9,3.08-.36,1.16,1.09-1.93,1.45v2.17ZM515.32,304.62l1.16-.36v-2.9l6.55-1.81.39-3.26,2.69-3.98-5-6.15-8.09,14.84,2.31,2.9v.72ZM518.78,174.32l2.7-.36-.77-2.53-1.93,2.9ZM520.32,208.7l2.31-5.43-2.31-1.45-1.54.72,1.54,6.15ZM521.48,200.02l.77-1.09-.77-1.45-1.16,1.45,1.16,1.09ZM526.48,188.43l3.08,3.62,5.39-.36-10.01-13.39-2.31-.72,2.31,7.96,1.54,2.9ZM523.4,193.14h1.54v-1.09h-1.54v1.09ZM528.79,304.62h1.15l-1.15-.72v.72ZM536.11,203.63l2.31-5.79-4.62,5.79h2.31ZM534.95,230.78l.77,10.13,10.01.36-.39-6.88.77-1.45-4.62-3.26-1.54-9.41,1.54-4.34-2.31-2.53.38-7.6-1.15.36-2.7,3.98v3.62l.39-.72.77,13.39-1.54,1.81-.38,2.53ZM539.57,198.93h1.16v-2.17l-1.16.72v1.45ZM548.05,247.07h1.15l-1.15-1.81v1.81Z"/><path class="cls-1" d="M809.87,363.25l-5-3.62-2.31,1.09-6.93.36-3.08-1.81-4.23-1.09v-3.62l-3.47-8.32-4.23-2.17.38-2.53-3.08-.36-1.93,7.24-4.62,8.32-6.93,1.81-3.46-2.17-11.94,1.09-3.85-1.81-26.18,2.53-10.01-4.71-5.39-11.22.39-3.62h-1.54l-5.39-6.15-2.31-8.33-3.08-2.9v-2.53l-5.39-6.15-5.39-3.62v-2.53l-4.62-2.9.77-8.69-1.15-2.17v-13.75l1.15-1.09-3.46-1.09,1.93-2.53-2.31-4.34-1.54-6.15,1.93-1.09-1.15-1.81.38-1.81-1.16-2.53,2.7-2.9-3.08-3.26v-6.51l.77-.72-1.93-2.53v-8.69l-1.54-1.45.77-.36-2.31-7.24,1.54-2.9-2.31-.72.77-.72.38-3.62-2.69-4.34,4.23-4.34-2.31-2.17-2.7-1.09v-11.94l-2.31-6.88,1.16-6.52-4.24-2.17.39-6.15-.77.72-1.54-10.5-2.7-1.81,3.46-6.51-1.54-2.9-.38-6.15.77-3.26-2.31-3.98-.77-4.34.77-6.51-2.31-5.07-.38-7.24-1.54-4.34-.39-8.32-1.54-4.71.77-4.34,2.31-1.09,1.93-2.9,10.01-.72,1.15,1.81,3.08-1.81,4.23,1.45,3.08-.36,2.69-1.45,7.7.36,1.93-1.09,5.01.72,5.01-.36,1.15,1.09,4.62,1.45,3.08,9.77,5.39,10.13,3.85,5.43v1.81l2.7,5.07,4.62,4.71,3.08-.36,5-2.17v-.72h-1.15l-.77-2.17,1.54-11.22,5.01-1.81-3.08-4.71.39-5.07-.77-5.79,8.47-3.26h31.57l14.25-.72,1.93,3.62,5,2.17,5.01,8.32.77,6.15,5.01,2.9-.77-6.88,2.7-7.24-1.54-7.96,10.01-2.17,1.93-1.09,3.85,2.9,10.78-1.81,2.7,2.53,1.15-1.45,11.17-.72,2.7-1.45,8.09,1.45v1.09l1.93-1.09,6.16-1.09,7.7,1.81,8.86,8.69.77,5.79,1.93,2.53,5.39.72,6.55,6.15,2.7,6.52v4.34l-1.54.72.39,2.53-1.54,2.17v2.17l-1.93,5.07-.77,11.22-1.93,2.17v7.24l1.16,4.34-7.7-2.53-6.93,3.26,2.7-.36v2.53h-4.62v2.9l1.93,2.53-1.16,2.9-3.08-.36,1.54,2.17-.39,2.53,1.16,1.09-1.54,10.86,1.54-2.9.77,1.09-.38,1.09,2.31,2.17,1.54,2.9,3.85-7.24-2.31-3.26v-4.71l-1.54-1.09.39-2.17,6.55-2.53-3.85-2.17-.39-6.15,1.15-2.17,1.93,2.17,1.54-2.9h3.46l-.39,3.62-3.08,3.62,3.08.72-1.54,11.94-1.54,2.9,2.31,3.62-3.08,5.79-10.01.72-.77,1.09h-3.85l-.39,1.45,3.08.36,2.31,2.17,1.93-3.98,3.08,2.17,1.16-1.45,3.85,2.53-1.16,6.88h-3.08l-2.31-1.09-2.31,2.17-.38-5.43-4.62-.72.39,2.9h-7.7l.39,5.79,2.31,1.09v12.31l2.31,7.24,5.78-5.07h1.16v-2.53l-1.16-1.81-.77-5.07,3.85,3.62h3.47l.77,2.53-.77,3.26-5.01,3.62,3.47,3.26-1.93,15.56-1.93,7.6-1.93,2.17v2.9l-1.16,2.53-1.93,1.45-1.93-2.53-1.15,1.45v4.71l5,2.53-1.93,1.45h-3.08l-.77,1.81,5.39,2.17-7.7,5.07,3.47,2.17.77,3.98-2.31,4.71,1.16,5.79-.77,1.45.77,4.34-1.54,2.53-1.16,10.13-3.08,5.79h2.7l.38,3.26-.77,2.53v11.94l-2.7,3.62v3.62l1.54,1.09v9.77l-1.15,3.98-2.7,3.62h-21.95l-2.31-1.45h-3.08l-.77,2.17h-8.09l-1.93.72-3.08,3.62h-5.78l-3.85-3.26ZM793.31,314.39h1.93l1.54-1.09,15.4.72,11.17-2.53-.39-2.53,1.93-4.71v-5.43l6.55-1.45-3.08-3.62-2.31-6.51,1.93-3.26,3.85-14.12-.38-5.43,1.15-4.34,3.46-2.53,1.93-2.53-3.85.36-1.93-1.09,2.7-4.34,3.08-11.58.77-5.79-.77-1.45,1.93-5.43.39-5.43,3.46-12.67v-6.52l1.16-1.09,2.31-6.88-.77-4.34,1.54-5.43.77-11.94,2.31-2.17-1.16-2.17v-12.31l2.31-3.98-.39-3.26,1.54-1.81.39-5.07,2.31-1.81-1.16-1.45v-2.17l1.16-.72v-3.98l-1.93-1.45,1.93-1.81,1.54-11.58.39-13.39,1.93-2.53-.39-3.26,1.54-4.34h-3.85l-8.86-2.53-3.08,1.09-10.4,1.09-.77-1.09-18.48,2.9-2.7,7.24-2.7,4.34,1.15,3.26-1.15,7.24-4.24,7.24,2.7,2.17v9.05l-1.16,2.17.77,2.53-.39,5.07-1.93,2.9.77,2.53-.77,7.6-3.46.36,2.7,3.98v9.41l-2.31,1.81v5.79l-1.54,7.96.39,5.43-4.23,10.5-5.39-2.9-3.85-.36v-7.6l.77-2.9-1.15-10.86-2.31-9.77v-7.6l.77-1.09v-6.15l-2.7-3.98-.39-16.65-2.31-7.24-.77-11.94-2.31-5.43v-6.15l.77-2.17-3.08-3.26-9.63.36-3.46-1.45-1.54.36-18.87.36-1.16.72v6.52l-2.31,4.34-3.85,17.37-.77,8.32-1.15.72v3.98l-1.16,2.53.39,4.71-.77,2.17.38,2.53-2.69,2.53-1.93,9.05.77,10.13-2.7,3.62-.77,6.15.77,1.81-4.24,9.05-1.15,9.41-2.7,6.15,1.16,6.15-3.08,2.53-5.78.72-4.24-4.34v-6.15l-1.54-5.43.39-10.5-3.46-9.77-1.16-7.24.77-3.98-.77-1.81.77-5.43-2.31-5.43.77-6.15-1.16-1.81.77-7.24-3.08-11.22-2.31-13.39v-7.24l-1.16-1.81,1.16-1.09-2.7-10.5-4.23-1.81h-5.01l-2.7,1.09-1.54-1.09-16.94,2.53,1.54,5.79,1.54,17.74,2.31,6.51-.38,2.53,1.93,6.88,1.15,9.41-.77,5.79,1.93,6.88-.38,7.6,3.46,8.33-.39,2.9,1.93,9.05v6.15l3.08,1.81v7.24l1.16,3.62-.39,4.34,1.16,3.62-.39,3.26,1.93,6.88,1.93,15.56,1.16,1.45v13.75l-.77,2.53,2.31,5.79-.39,3.62.77,3.62h-2.7l-2.69,1.81,2.31,1.09,3.08-1.09-1.54,2.9-.39,3.98,3.08,3.62.39,5.07-.77-.36-.38,2.9h3.08l-1.15,3.98,7.7,10.5,4.62,1.45,1.93,1.45,3.85-1.09,2.7,1.81,1.15-1.45,13.09,1.81,6.16-1.45,8.47,1.81,4.62-.72,1.54.72.77-5.43,2.31-3.62-.39-1.81,1.93-4.34-1.54-2.17.77-3.98-.38-3.62,1.54-6.51,1.15-.72-3.08-2.9,1.93-3.98,1.15-8.69,1.54-.72-1.54-1.09h1.93l1.54-1.81.39-5.43,1.54-5.07-1.54,3.26-4.24-6.15,3.08.36-.38-16.29,2.31-11.22,1.54-.72.38-3.62.77-.72-1.93-.72,2.31-8.69,10.01-3.62v2.53l2.69,10.86,2.7,15.2-.39,3.26,2.31,7.96,1.54,2.17.77,4.71-1.16,4.71,2.31,5.07,2.7,3.62.77,10.5,3.46,3.26v13.75l2.31,2.9v5.07l1.16,5.07v6.15l3.08,5.43,1.93,3.62ZM675.88,239.47l2.31-2.17.39-1.45-2.7,2.53v1.09ZM762.9,332.49l.77-3.62-1.16-7.6.39-6.15-3.46-9.77,2.31-5.43-.77-4.71,1.15-2.9v-4.34l-3.46-.36.39,7.96-1.54,4.71,1.54,1.45-1.93,1.45-.39,7.24,3.08,9.77-1.54,1.81v2.9l2.31,7.6h2.31ZM759.05,286.16h1.54l-1.54-1.09v1.09ZM766.36,274.58l1.93-.36.39-8.69-2.7-.36-.77,5.43,1.15,3.98ZM804.09,327.78h5.39l4.62-2.9,3.08-.36,2.31-2.53-3.08-2.17-3.85-.72-4.62,1.81-14.63.36.77,1.81,3.85.36,1.54,1.81,4.62,1.81v.72ZM795.62,141.02l.77,5.79,2.7-9.41-3.46-10.5-.77,10.13.77,3.98ZM826.81,329.59h1.16v-1.81h-1.16v1.81ZM832.97,323.44h7.32l2.31.72v-4.71l-4.24-1.45-4.24,1.09v2.17l-1.15,1.09v1.09ZM842.6,330.32l1.15.36v-5.07l-3.46.36-1.54,1.09h-1.93l-2.7,1.81,7.32.72,1.16.72ZM838.36,334.66l2.7-1.81-2.7-1.81v3.62ZM838.75,312.22h1.54v-1.09l-1.54,1.09ZM854.92,315.84l2.31-.36,1.54-1.81-1.54-3.98v-2.17l2.31-1.09-.39-1.81-3.85,1.09-.39-2.53,3.08-5.07,4.23-4.34-.77-3.62h-3.46l-4.24-3.98-2.7-1.09-.39-1.45h5.01l-3.46-6.51h-2.31l-1.93,3.26-1.54-2.53-5.78,2.9-1.16,9.41,5.39,1.45-3.47,5.79,1.16,3.26-1.16.36,4.23,5.07,4.24,2.17v5.07l2.31.36,2.69,2.17ZM847.6,350.95l5.39-2.53,1.93-2.53v-2.9l1.93-4.34-2.69.36-6.93-2.17-.77-1.81-3.08.36.38,2.53-3.08,1.09,6.16,1.81,3.46,7.24-3.85,1.45,1.15,1.45ZM842.6,274.21l2.7.36,1.93-2.17.38-3.26,2.31-2.17-4.62-8.33-1.54,1.81,1.93,9.41-3.08,2.53v1.81ZM847.22,318.37v-3.98l-.77-1.09-1.16,1.09,1.16,2.53.77,1.45ZM861.08,251.77l5.39-.72.77-6.15,5-.72,3.47-2.53-3.08,1.45-3.08-4.71,3.85-3.98-4.23-4.34-3.46.36.38-.72-4.23-2.53-6.93-.36-1.54-2.17h-1.15l-.39,3.62-4.62,8.69,5.39,5.79,2.31-1.45,2.7,1.45,1.93,2.53,2.31.72-3.08,3.26,2.31,2.53ZM851.07,318.73h1.16l-1.16-1.81-1.16,1.09,1.16.72ZM861.46,267.34h3.46l-.39-5.43-1.93-.36-4.62-3.62,1.93-1.09-.77-3.26-3.08-.36-2.31,2.17,1.93,1.45-2.31,2.17-.39,2.17,5.39-1.09,2.7,1.81.39,5.43ZM854.53,197.12h3.47l2.31-5.43-3.47.36-.38,2.17-1.54,1.45-.38,1.45ZM856.07,272.4l.77-.72h-.77v.72ZM859.54,232.95l-1.54.72v-.72h1.54ZM863,256.48l1.54.36,1.16-2.53h-2.7v2.17ZM863,306.43h1.54l-1.54-1.09v1.09ZM877.63,153.32h3.85l.77-2.17,3.46-2.53,2.31,6.52.39-11.94-1.93-.72-.77-3.62,1.16-2.17,1.54-13.03h1.15l1.54,1.45,2.31-.36v-3.26h-3.85l-1.15-5.79-16.94-15.93-.39,3.62-3.46,1.45v13.39l.77,2.17-1.93,5.79v3.98l-2.31,1.45,3.47,1.45-2.7.36,1.16,12.31.38-5.07,1.16-1.09,1.54-6.52h10.01l3.08,6.15-2.31.72-1.15,3.98,2.69,1.45,3.47-2.17-.38,2.53-5.78,2.53v1.45l.77.36-2.31,2.17.38,1.09ZM866.47,285.07h1.16v-1.45h-1.16v1.45ZM869.16,170.34h1.15v-1.09h-1.15v1.09ZM870.32,139.57l1.16-.72h-1.16v.72ZM893.42,118.94l1.54-1.09-.77-3.62h-2.31v3.98l1.54.72Z"/><path class="cls-1" d="M959.65,347.33l-1.15-1.09-7.7-1.81-1.54,1.09-8.47-2.53-5.39-5.07-5.78-2.53-5.39-4.34-3.46-6.15-9.24-3.62-3.08-2.9-3.46-1.81-.39-2.9-5-1.81-3.85-6.15-3.85-2.9-1.93-3.98-.77-4.71-5-7.96-1.16-4.71-2.31-2.17-5.39-11.94-1.93-2.9,1.16-11.58-.39-3.98-1.54-1.81,1.15-4.71v-11.58l-.77-4.71,1.93-2.9-.77-.36,3.85-3.98.77-7.6-2.7-3.98,3.85-1.45-3.85-4.71,2.7-.36-1.16-1.09v-4.34l-.77-.72.77-4.71,3.85-1.81-2.69-1.81.77-6.52,2.7-5.07v-3.62l1.93-.36-.77-5.43,1.54-.72-1.16-3.26,5.78-5.07,2.31.36,2.69-1.81.39-4.34,6.55-5.07,2.31,1.09.77-2.9,5.78,1.45-1.15-4.34,6.54-.72,7.32-2.53,1.93,1.45,5.01-3.62h5.78l1.93-.72v5.79h-12.32l-3.08,3.26-4.24.36-1.93-1.45v2.9l-2.7,1.09-6.93,5.79-1.93,4.71-3.85,3.98-1.15,2.9-2.7,3.26-.39,4.71-3.46,6.88v5.79l-1.15,1.45.77,1.81-1.54,4.34v4.34l-2.31,10.5-1.54,1.81v1.45l3.08-.36v3.26l-1.93,15.56-1.16,1.81,1.93,1.09-.77,4.34-1.93,3.98-.77,5.43,1.54,7.6,1.16,14.84,3.08,4.71,2.7.72,4.62,15.93,2.31,1.09,5.39,9.05,6.55,4.34,1.93,2.53,6.93,6.15.39,3.98,3.46.72,5.78-.72,1.54,1.45,2.31-1.45,13.48,1.09,1.54-1.09,4.24.36,1.54-2.9,3.85-.36,6.93-2.53,2.7-5.07,5-1.81,6.55-5.79,2.31-8.33,3.08-5.07-.39-2.17,2.7-13.03,2.31-3.26v-5.07h1.54l-1.93-11.22.38-9.77,1.54-1.09-1.54-11.94,1.16-3.62-.77-14.12,1.54-5.43-3.46-15.2v-20.27l-3.46-3.26.39-6.51h2.69v2.17l-1.54,3.26,1.93,2.9,4.62.72,2.69,2.17,1.93,5.07,2.7.36,4.62,5.07,1.93,3.98,8.09,6.88,2.7-1.81,4.62,8.33.77,6.88,4.62,8.69-1.54,6.51,2.7-.36-.39,3.62,3.46,3.62v7.24l-1.15,5.07.39,5.07,2.69,2.9-1.93,4.34-2.31,2.53,3.47,2.17-1.93,2.17-1.16,3.62.39,3.26-1.15,3.26,1.15,5.07v9.05l-1.15,7.24-2.7,10.5v8.69l-4.24,9.41-3.08,10.13-4.62,5.79-1.15,3.26-3.85,1.45-6.16,4.34-5.78-.72-.77-.72-5.78,3.62h-5.39l-3.47,1.45h-3.46l-2.31-1.09-5.78,1.09-2.7-.72-4.62,2.9-5-1.81ZM886.11,183.37h1.15v-.72h-1.15v.72ZM891.12,160.92h.77v-1.09h-.77v1.09ZM907.29,148.26l3.85-.72-3.47-.36-.38,1.09ZM920.38,276.02l-5.39-6.51-.39-7.96,1.93-2.17-1.54-3.26v-4.71l-1.16-2.17-.77-5.79.38-14.12.77-2.53-.77-3.62,1.16.36v-7.24l2.69-1.45-1.15-1.81,1.93-.72-.77-3.98.77-1.45v-5.79l2.7,2.17,1.15,2.17,2.31-3.98,1.93-.36,2.31,6.15-4.24,1.81,1.54,1.45-1.93,4.71,3.85,1.81-1.54,2.9-3.46,2.17,3.08,2.17.39,1.81-3.08-.36v1.09l1.93,1.81,1.93,3.62h2.7v-4.71l-1.15-4.71,1.15-3.26h.77l.39,2.9,1.54-3.26-1.93-2.17,6.16-2.9,1.54.72,1.54-2.9,3.08-2.17-3.85-10.13.39-2.9-2.7.36-1.15-1.81.77-3.62-1.15-3.98-7.7,3.98-1.15-3.26,5,.72-1.93-6.88.77-5.07,1.54-3.26,1.93,2.53,3.08-3.98,5.01.36,4.23,2.17h4.24l1.93,3.26,2.31,1.45.39,4.71.77.36,2.31-2.53,1.93,4.71.39,3.26-1.16,9.41-4.23,1.81,3.08,2.17-.39,1.09,2.31,5.07-.39,5.43,1.54,7.24-1.54,2.17,1.54,8.69-1.15,9.41h-1.15l.77,9.77-1.15,6.51.39,3.62-1.54,3.62-1.15,6.52-6.93,3.98-7.7,2.17-1.54,2.17-18.48-2.53-.77-2.53ZM919.99,218.84h.77v-2.17l-.77,1.09v1.09ZM935.4,184.09l2.31-.72-3.47-.72v.72l1.16.72ZM938.09,273.49l1.93-1.45v-1.09l-2.31,1.09.38,1.45ZM940.01,217.75v-1.09h-.77l.77,1.09ZM941.17,194.59l1.54-2.17-.39-3.26,1.93-1.09-2.31-1.45-1.93,6.88,1.16,1.09ZM942.71,197.12l2.31-1.09,1.15-2.53-1.15-1.81-1.16,3.26-1.54,1.09.39,1.09ZM951.95,335.38l1.54-1.45-4.23-3.26-2.7,1.09.39,2.17,5,1.45ZM968.12,144.28l-5.01-.72-5.78-2.9-1.15,3.26-4.62-3.26,3.08-2.9,10.01,1.45,2.7,2.17,3.85.36,2.7-1.09-2.7,4.71-3.08-1.09ZM958.5,322.72l1.15-2.9h-3.85v2.17l2.7.72ZM957.34,331.76h1.16l-1.16-.72v.72ZM974.67,340.81l4.24-4.34-1.15-.72-2.7.72-6.93-.36,3.08,3.62,3.46,1.09ZM988.92,339l2.69-1.45,3.46.36,4.24-3.98,4.62-1.81,1.93-4.71,3.85-2.53,1.54-2.17-.39-5.79,1.54-3.98,2.31-12.31,1.93-2.17,1.15-5.43-.77-3.62-2.31-4.34,2.7-3.98v-3.62l3.46-3.26-2.7-4.34h-6.54l-1.54,3.62-2.31-2.53-1.93,1.45,2.69,3.26,2.7,9.77,2.31,3.26-2.7-.36-.77,3.26.39,3.26,1.16.72-3.47,2.17h-3.46l-3.08,3.98.77,1.09h-3.08l-1.15-3.62.77-3.62-.77-1.45-2.7,2.17,1.54,3.26-.38,5.07h5l-1.15,2.9,3.46,3.62v1.45l-3.08,3.62,1.54,3.98-.77,1.81-2.7.72-6.16,4.34-6.55,3.26-2.31,3.98-2.69,2.17.38,1.09,5.78.36,1.54,1.09ZM995.85,317.29v-1.09h-1.54l1.54,1.09ZM1000.85,195.31l.39,1.81,4.24-3.98-2.7-1.45h-2.31l.38,3.62ZM1001.62,201.46l1.15-1.81h-1.93l.77,1.81ZM1008.94,242.36l2.31-2.9-3.08-2.17-2.31,5.07h3.08ZM1007.01,201.1l1.54-1.45-1.93,1.09.39.36ZM1006.63,289.05h1.16v-.72l-1.16.72ZM1007.4,230.42h3.08l.77-1.81-.77-.72.39-2.53-3.08,2.17-.39,2.9ZM1008.55,224.27l1.93-.72-1.93-5.79-.77,4.34.77,1.09v1.09ZM1013.56,224.27l1.15-1.09.39-7.24-4.24.36,1.93,2.53.77,5.43ZM1012.4,293.76h-1.15l1.15-1.09v1.09ZM1016.25,232.23h3.85v-3.62l-3.85,3.62ZM1018.18,200.38l1.93-2.17-3.08-1.09,1.15,3.26ZM1029.73,231.14l.77-.72-1.16-2.17.39,2.9Z"/><path class="cls-1" d="M1069,344.43l-1.93-1.81-5.78-8.32-3.08-1.81-3.46-5.07-6.16-6.15-11.55-6.52-2.31-18.1,1.54-4.71.77-13.75-1.16-5.07h5.39l3.47-1.09-7.32-3.26,1.93-3.26v-17.74l4.62-7.6-.77-6.15.77-3.62,1.54-1.09-1.15-3.26,2.31-4.34-1.54-1.81,1.16-11.22-1.16-2.9,5.39-3.62-1.54-3.26-.38-5.79,2.69-16.65,1.54-2.53v-10.86l.77-3.98-1.15-7.6,1.92-2.53v-3.62l1.54-2.53-1.54-1.45.39-4.34,15.79.36,2.31.72,2.69-.36,8.09,1.81,2.31-1.81,3.85.72,11.55-.72,1.54,3.98,2.69-2.53,6.55-1.81,2.7,2.17,5.39-2.17,1.54,1.09,3.85-2.53,13.09-.36,2.31,2.17,1.15,6.51,3.08,7.24,3.46,3.26,3.46-.36,1.54,2.9-.39,1.45,2.7.72,3.85,3.26-.39,3.62,2.7,4.71,5,1.45,1.15,1.81-3.46.36,3.08,7.24,1.54-1.45h1.54v2.17l-2.31,2.53-.39,6.88h-2.31l-2.7,2.17.39.72,3.85-.36,1.93,2.53v7.96l-1.16,3.62h-2.31l-1.54,1.09,1.93,1.09-.38,2.17,1.15.72-.77,2.9,3.08,1.45-2.7,6.52-2.31-1.09-1.15,4.34-5-1.81-4.24-.36-6.16,1.09-1.93-1.09-3.46,2.53-4.62-2.9-2.31,5.79-3.85-.72-4.62,3.98-3.08,1.45-1.93,2.53,2.69-1.81,3.46.36,1.93-3.26h2.7l-1.54,1.81-.77,2.9-8.47,2.53,1.93,1.81v1.81l1.93,2.53-2.31,3.26-1.54.36-.77,11.22-2.31,1.45,2.31,3.26,3.85,2.9-3.46,1.45-.39,2.17,3.46.36,2.31,6.51-3.46,4.71-4.62.72v3.62l-1.54,1.45,2.31,5.07-4.24,1.45-5,.36.77-.72.77-4.34-2.7-.72,3.08-5.79-1.93-1.09.39-3.62-3.08-1.09-1.15-6.51h-.77v18.82l-3.08,1.81,1.93,2.17v1.09l2.69,2.53-3.08,6.15,1.15,3.62,4.62,5.07,4.62-4.34-3.08.36-.77-1.81,4.62-1.09-3.46-1.45v-3.62l-1.93-1.81,3.85-1.81,5.78,1.45-2.31,1.09-.39,2.17-1.93,1.45,2.31,1.09,3.85-.36v3.98l7.7,3.98-5.39,5.79-4.24,2.17,5.01,5.79-2.31,1.09-1.54,5.43h4.23v1.81l2.7,1.81-1.54,1.81,5-1.09-.39,3.98-6.16,5.43-3.08-.72-8.09,1.09h-8.47l-2.7,1.81-8.86-.72-1.93,1.09h-10.01l-5-1.45h-3.85l-3.46-4.71ZM1050.13,270.96l-.39-5.43-5.78-6.15.39-5.43-3.46.36,2.31,4.34v2.9l2.31,2.17-.39,3.62,2.31.36.39,3.26h2.31ZM1048.21,301l-.77-2.9,1.16-4.34-2.7-3.98,4.24-5.07v-2.17l-4.62,3.98-1.54,3.26,1.15,8.33h-1.54l.39,2.53h2.31l1.93.36ZM1050.13,257.56v-4.71h-2.31l.39,1.81,1.93,2.9ZM1047.82,280.01l1.54-3.98-.39-2.53-1.15,1.09v5.43ZM1048.98,239.47h1.54l-.39-2.53-1.16,1.45v1.09ZM1062.84,311.13l1.93,1.45,3.08.36,4.24,2.53,1.93-1.45,9.24.36,5.39-2.17-1.15-3.98,1.15-4.34v-5.79l2.7-.72,1.54-3.62-4.24-1.81.39-12.31,1.16-2.9-.39-1.81,1.54-5.07-1.15-.72-1.54-7.24.39-14.12,1.54-2.9-.38-3.98.77-.72v-6.15l1.54-3.26v-8.69l.77-.72-1.15-1.45,2.69-4.71-1.54-1.09.39-5.07,1.54-2.17,2.31-10.13,8.86-9.05,1.93.36,9.63-4.34,3.46-.36,3.08-3.62,2.31-6.88-.38-5.07,1.15-7.96-1.54-2.53,1.15-4.71-1.15-7.24h-14.25l-1.54,1.09-10.01,10.5-13.09.36-2.31-1.45-.38-3.62-2.31-6.88-9.63-.36-3.85,13.03,1.15,3.98-8.86,2.53.39,1.45,5.39-.36.39,2.17-3.08.72-.77,1.81,3.46-1.09v4.71l-6.16-.36-1.93-1.81-3.08-.72.77,7.6,2.31-.72,6.93,1.45v2.17l-1.16,1.09-1.15-1.09-1.54,1.09,3.85,3.62-2.31,14.84.39,7.96-1.16,1.81v3.62l-2.31,4.34-4.23-1.09v1.45l3.85.36v17.37l-1.16,1.45.39,1.81-1.15,3.62v7.6l-1.93,11.58.77,3.62-2.69,12.31.77,2.17-1.54,1.09.77,7.96-.77,7.96,1.15,3.62-1.15,4.71,3.46,3.26,6.16,1.45ZM1057.45,183.37h1.15v-1.81l-1.15,1.09v.72ZM1057.45,194.22l2.31.36v-2.9l-2.31-.36v2.9ZM1065.15,175.04l-5.01,2.53,1.93-2.53h3.08ZM1060.91,148.26l1.54-1.09h-1.54v1.09ZM1088.64,340.45h1.54v-1.45h-1.54v1.45ZM1092.49,291.59l.77-2.53-1.54.36.77,2.17ZM1109.43,254.67l1.93-1.81,3.08-1.09-1.93-1.45,1.93-3.26,3.08-.72-2.31-2.17.77-5.79-1.15-3.62-.77,2.17-1.93,1.81-2.31-5.79-3.08.72v19.55l2.69,1.45ZM1112.12,340.09l2.31-1.09h-1.93l-.39,1.09ZM1115.2,329.95h1.16l-1.93-1.09.77,1.09ZM1117.51,278.2h1.54l-.38-1.09-2.31-.36,1.15,1.45ZM1121.36,316.2h.77v-.72h-1.93l1.15.72ZM1124.06,195.67l5,1.45,1.93-1.09,1.54,1.09,1.54-1.09-.38-2.53-7.32-2.53-5.01,3.26.77,1.81,1.93-.36ZM1127.53,203.27h1.15v-1.81h-1.15v1.81ZM1148.7,223.9l-.39-5.07,2.31-.72,4.62-3.62.77-1.45,3.08-.36,1.16-3.98h3.08l-.39-.72-4.62,1.09-3.47-1.45-3.08,1.45h-6.93l-6.55-5.79h-1.15l.77,1.45-4.62,3.98,1.15,3.62,1.16.72.77,3.26,4.62,4.71,5.78,1.09,1.93,1.81ZM1147.16,181.92l4.62.72,1.54-1.09-4.23-1.09-1.54-1.81,4.24.72,4.62-1.45-1.54-1.09v-1.45h-3.08l-.39-1.45-2.31-1.45-2.7-4.71-2.31,6.88.39,3.26-1.15,5.43,3.85-1.45ZM1159.87,188.07h1.54l-2.7-1.09,1.16,1.09ZM1162.56,216.66v-2.53h-1.15l1.15,2.53ZM1163.33,183.37l1.15-.72v-1.09h-1.15v1.81ZM1164.87,202.91l1.16-2.9-1.54-1.45-.38,1.81.77,2.53Z"/><path class="cls-1" d="M1210.3,359.27l-6.16-.72-2.7-1.45-3.85-.36-1.54-6.88-1.54-2.17v-1.45l-3.08-5.79-.77-3.98-2.7-1.81,1.54-5.07-3.85-3.26-1.93-3.62-5.78-2.17-5.78-10.13.77-1.45-1.54-3.98.77-27.15.77-1.09-1.54-8.69-1.15-2.17,1.54-7.96-.77-7.96.77-.72-1.54-4.34.77-5.07,3.08-1.45-4.24-3.26,1.15-5.07-1.15-2.9,1.15-4.71-.38-1.81,2.69-5.79-4.62-3.26,1.93-7.96,1.15-1.09-2.31-5.79v-23.53l-1.93-3.26,1.16-3.62v-4.34l1.93-15.56v-7.6l-3.08-12.31,1.54-3.62v-14.12l2.31-13.39-1.15-4.71.39-5.07,1.54-4.34-1.16-5.07,1.54-6.88,1.54-2.53,3.46-1.45,2.31,2.17,6.16,2.17,6.16,5.07,2.7-2.53,6.16,3.62,12.32-2.9h5.78l.39,1.09,3.46-1.09,6.54,7.6,5.78,9.41,4.62,2.53,3.08,3.98,7.7,6.15,1.16,6.51,1.15.72-1.15,3.62,1.93-1.09.38,2.9,5.78,4.34-2.31,5.43-1.93,1.81.77,2.9-1.54,4.34,1.93,2.17.39,1.81,3.85,1.09,4.24-.36,9.62,2.9h5.39l7.7,5.79,7.7,9.41,3.08,5.43,16.17,23.16-.38,5.43-3.08,2.53-1.93,6.88-3.08,4.34-3.46,11.22-5.01,2.17.77,2.17-2.7,6.15-1.15.72-1.93,10.13-5,7.24v3.26l-1.54,1.09,1.93.72-.77,9.41.77,2.53,3.08,1.81,1.15,4.71,2.31,15.2h3.08l3.46,10.86,2.31,1.81,1.93,4.34,1.54,1.09,3.08,5.79,1.54,7.24,3.85,7.6,1.93,6.15,4.62,7.24,1.15,5.43,1.93,2.17v2.9l6.16,3.26-1.93,5.43-2.7,1.09h-4.24l1.93-1.45-3.85-1.81-3.46,2.17-3.08-1.09-3.08,1.45-2.69-.72-3.85.72-1.93-2.9-19.25-.36-1.54,3.26-3.46-.36-1.93-1.81-2.7-1.09-2.69,2.9h-2.31l-5.78-2.17-1.54,1.81-3.08-2.17-.77-2.17h-1.16l-1.54-1.81-1.93,1.81.77,2.53-1.93,4.34v2.9l-3.85-.36-1.16.72-8.47-2.53-4.24,1.81-4.24-2.9-1.15,2.9-3.46-1.09h-10.4l-4.62,1.09ZM1173.34,210.15h.77l-.77-1.81v1.81ZM1188.36,314.39l1.93-2.53h4.24l5.39,1.81,10.01-2.9-.77-7.6,2.7-14.48,1.54-11.94v-14.48l-1.15-5.07.77-3.62-1.54-8.33,3.85-2.9,5,2.17,2.7,5.07,1.93,1.81,2.69,15.93,5.01,8.69,1.54.36-.39,3.62,5.39,10.13,1.54,7.6,3.46,5.79,3.85-1.09,8.47.72,2.31-1.09,1.93.36,3.85,3.26,2.7,1.09,7.32-1.09,3.08-1.45-.39-3.26-4.23-9.77-5.01-2.9-.77-7.24-5.01-3.98-1.93-5.79.77-.72-5.78-7.96.39-3.62-8.09-11.94-5.39-14.12-.39-3.98-2.31-5.07-3.08-11.22,1.93-9.41,1.15-1.81,3.85-2.9,3.46-5.79,1.93-1.45,1.93-3.62.39-3.62,3.46-5.07,5.01-14.48,2.69-2.53,1.16-8.32-5.01-2.17-6.54-.36-7.32-2.17-10.4,1.09v6.51l-3.08,10.5-1.93,1.45-1.54,7.96-2.31,6.51-2.31,14.48-6.16,7.24-8.47-2.9-1.16-7.96,1.16-6.15-.39-8.69,1.15-1.09v-5.43l1.54-2.9,1.16-5.79-.77-6.15,3.08-11.94-.77-4.71v-11.58l1.15-2.17-1.54-6.15.39-2.9-1.15-2.53,1.15-7.6,1.15-20.27.77-3.26-8.86-1.81-3.85-3.98-5.39,3.26-1.16,1.81-2.69-3.98-3.85,1.81-6.16-2.17-5.01,11.94,3.85,3.98-1.15,9.05.77,20.63-2.31,13.75,1.15,1.45.77,7.6-.77,10.13-1.54,2.17v6.52l-1.54,2.53.39,3.26-2.7,5.07,1.54,11.94,4.24,1.09-3.85,2.9,2.7.72-2.7,5.79,1.93,9.05-.39,3.26.77,1.81-3.08,3.62,1.54,1.45,1.15,4.71-3.08,4.71,1.93,1.45v6.15l3.08,14.48-.77,6.52.77,1.09-2.31,6.88,1.54,2.53v19.18l1.16,3.26.77,13.03-.38,5.43,5.39,3.62,1.15,2.17ZM1202.22,348.41l15.4-1.81.39-3.62-8.47-5.43-1.15-1.81-3.47-1.81v-2.9l1.54-1.09-4.62-2.17-.39-2.9-8.47-3.26v5.79l4.62,1.81.77,3.62-1.93,4.71,2.7,2.53-1.54,4.71,4.62,3.62ZM1223.01,88.54l1.15-1.09-1.15-1.09v2.17ZM1229.94,346.6l9.63,1.45-2.69-3.98,1.93-2.53-3.85-1.45-4.62-3.26v-3.26l2.31-1.09-8.47-2.17v5.07h1.93l-.77,1.45,1.54,9.41,3.08.36ZM1253.81,217.39v-1.81l-1.16-1.09,3.08-1.81-.77-.72,1.54-5.43-1.15-.36-1.54,2.17h-.77l-1.15,1.81h-3.08l1.16,5.43,3.85,1.81ZM1253.04,316.92h2.7l-6.93-3.98v4.34l4.24-.36ZM1319.27,349.86h2.31l-.77-5.07-3.85-4.71-1.54-.72-1.54-4.34-.77,2.9-3.46-1.45-1.15,2.17h-1.93l-8.86-5.79-4.24.36-1.16-3.98-1.93-2.53-.38-5.07-1.93-3.62h-3.08l-6.54,2.53-2.31,5.79-5.39,1.45-2.31,3.62,4.24,1.45-1.93,5.07-5.39-.36v-3.62h-2.31l-.77-2.9,6.55-.36-1.93-3.62-.77-5.07-3.46,1.81-2.31-1.09v-3.26h1.54l2.31,2.53,3.85-2.9-10.01-2.53-.77,5.79-1.16-2.9h-2.31l1.93,3.26,4.62,13.75-.39,2.17,3.47,2.17-.77,1.09.39,3.26,6.16-1.45,5,1.81h2.69l1.93,1.81,3.08-1.81,6.54-1.09,12.71,2.53,3.08,2.53,3.08-5.43,1.54,2.53,2.31,1.09,1.16,2.17,4.62-.36,2.31.36ZM1263.05,251.05l.77-2.17-.38-2.53-2.31-.72,1.93,5.43ZM1267.67,188.07l2.31-.36.39-1.45-2.7,1.81ZM1273.06,177.57l1.15-.72,1.54-4.34-1.54-1.09v2.17l-4.24,2.53,3.08,1.45ZM1271.52,212.32l2.31-1.09v-1.09l-1.93-.36-.39,2.53ZM1285.38,174.32l7.7-1.81v-1.81l-2.31-3.26.77-2.17-2.7-1.81-2.31-5.43-5.39-1.81-.77,4.71-4.62-.72-.77,4.71,1.93,1.09-3.08,3.62,5-1.09,5.78,5.43.77.36ZM1273.83,205.81l3.08-2.53-1.54-.72-1.54,3.26ZM1277.68,248.15l-2.7-2.9v4.71l2.7-1.81ZM1284.23,231.14l1.93-4.71h-2.7l-1.54,2.9,2.31,1.81ZM1286.54,217.39h1.54l1.93-2.53-1.93-1.09-1.54,1.09v2.53ZM1286.54,220.28h1.54v-1.09h-1.54v1.09ZM1296.17,301.36l1.16-2.53h-7.32l.38,2.53h5.78ZM1294.24,201.1l1.16.36-.39-3.98h-.77v3.62ZM1296.17,311.13l1.54-3.98-1.16-1.09-1.93,1.45-.39,3.26,1.93.36ZM1295.78,194.59l.77-3.62-1.93,3.26,1.16.36ZM1309.64,328.51l1.54-1.09h-1.54v1.09Z"/><path class="cls-1" d="M103.1,477.27l-5.01,2.17-3.85-.72-2.7.36-3.47-1.09-1.92.36-2.31-1.45-6.55,1.45-3.46-.36-4.62,1.09-3.08-4.7v-2.9l-1.16.72-3.08-7.24-3.85-1.81v-2.9l-3.08-2.17-3.85-8.33-5-2.17-4.24-3.26-1.16-5.07,2.31-4.34-1.16-6.88,1.16-2.17v-2.9l1.54-4.34-1.54-5.07,1.16-2.53-1.54-6.15.39-2.9-.77-2.53,1.16-5.79-.39-7.24-1.54-5.43,1.54-5.07-1.54-3.98,2.31-1.45,1.93-2.9-3.46-1.45-.39-16.29.77-1.81-1.15-9.77-1.16-1.09,1.54-12.31-2.31-2.9,1.93-3.26-2.31-1.45-1.93-2.9,1.93-1.45-1.16-5.43.39-4.34,3.46.36-2.31-2.53v-2.17l-1.54-1.09.39-2.53-.77-.72-.77-7.6-7.7-1.09-1.16-5.07-5.39-2.9-4.62-6.51-8.09-7.24-1.16-2.9-5.01-5.43,1.16-3.98-.38-4.34,1.15-5.43-1.54-5.43v-16.65l.77-3.98,2.31-3.62,3.08.36,3.08-2.17,9.63-.36,2.31,2.53,3.85-2.53,3.08-.36,2.31,2.53h2.7l1.54-1.81,1.16,1.45,2.7-1.45,3.47-.36,2.7-1.81,16.94,1.09,3.85-2.17,4.24-.36-.39-1.81,2.7-1.09,7.32.72.77.72h13.09l5-3.26,3.85.36,6.16,2.17,3.85-3.62,6.16,3.26-1.15,2.17,1.93,2.9,5.77,2.17-1.15,1.45,4.23,5.43,1.54,4.34,1.93.36,1.92-2.53,10.78,10.86v3.62l2.31-1.45,1.15,1.81,6.16,4.34v4.34l-2.7,2.17.38,2.53,1.16.36,1.16-2.9,2.31.72-.77,5.07-4.62,1.45,2.7.36-1.15,1.81,1.54,3.26-8.09,3.62,1.93,2.17h1.16v-2.17l3.85,2.9-4.62,1.81,2.31,9.77h1.15l2.7,2.17-1.16,2.53-4.24-.36-.38,3.26-3.47,2.9-5-1.09-7.7.36-.39,1.81-5.39,4.71h-1.54l-1.15,1.81,1.54,1.45-1.54,10.13h-2.31l-3.85,3.98,3.08,3.98v3.98l-1.93,4.71,1.16,1.45h2.7v6.51l1.16,1.45-2.31,1.09v2.17l2.31.72-4.24.36-10.78-2.53.39-3.26-3.85-1.45-3.08,2.53-2.7-1.81v-1.45l-4.23.36-.39-3.62,1.54-.36-.38-2.17h-1.54l-.77-2.9-.77.36-.77,7.6.77,2.17-3.46,4.34,2.7,5.79v5.79l-3.08,2.17,3.47,7.24,3.46-3.62v5.79l2.7-.36-.39,1.09-3.46,2.17-2.7-.72.39,9.77h3.08l1.54-5.79,4.23-1.45-2.31,3.26,4.62,3.98-3.47,1.09,3.08,2.53v2.17h1.16v1.09l-2.7,2.17h1.93l1.93,1.45-3.85,3.62,3.85-.36.38,5.43,3.08-.72,2.7,3.62,2.31-2.9,4.23,1.09,1.16-2.53-6.55-.36-.39-1.09,1.54-2.17-1.54-1.45,2.31-3.62,3.08-2.9-2.7-.36v-3.62l-2.31-1.45-2.7,1.09-4.24.36,1.16-2.53.39-3.98h-1.93v-1.09l1.54-1.09-1.54-5.07-1.93.36-3.08-2.53.77-2.53,5.01-3.98-6.55-5.43-.39-3.26,3.47-1.45.38-3.98,5.78,2.17-5.39,5.07,3.46,1.81,1.93,4.34,2.7-1.81,3.08.36.39-4.71h-2.31v-2.53l1.16-1.81,5.01,2.9v3.26l3.46,1.81v4.71l-2.7-3.62-1.16.72v2.9h-.77l3.08,4.34h-3.08l.38,7.6,4.24,16.65-3.46,2.17,1.15,2.53,3.08-.36-.77,5.79-7.32,5.43.38,4.71-2.7,1.81-1.54-.72.38-2.9-1.93-1.09.77-3.26-3.46-1.09.39-1.45-3.47,1.45-.38,3.98,3.85,2.17,3.08,3.98-2.31,3.26,1.54-.36,3.08,2.53,5.39-4.71,5.01,7.96-3.46,3.98-1.93.72,1.93,2.53h2.7l-1.16,18.82-3.08,4.34,5.39,2.53-.77,2.9.77,9.41-3.85-1.81v1.09l3.46,4.71.39,6.88h-5.01v2.17l1.16,1.81,2.7-2.9,1.93,1.81-1.93,1.81-1.93,4.34-8.09,4.34h-2.7l-3.08-1.45-5.39.72-2.31-3.26ZM9.54,232.95l.77-1.09h-.77v1.09ZM101.56,457l3.08,1.09v-2.9l-1.93-4.34h1.93v1.09l3.08,2.9,2.31-.72-2.7-4.34v-9.77l3.85-2.9,5.39-1.45-.77-3.98-2.31-2.17-1.54,2.17h-2.31v-2.53l2.7-2.53,3.46.36,1.16-1.45-1.16-9.77-1.16-1.45-4.23.72-1.93,1.45-1.16-.36.77-11.22-3.46-3.98.77-3.26-.77-4.71,2.7-1.09-.38-1.45-3.85.72-.39-3.98,1.16-1.81h-3.47v-4.34l-2.7,2.17-1.93,3.26h-9.62v-7.24l4.23-5.43-1.16-2.53-1.93-.36-.77-9.77,1.93-.72-.39-3.62-1.54-2.53,1.16-3.98-3.08-3.62,3.85-1.09-3.08-6.88v-2.17l1.54-2.17.77-4.34,5.39-2.9h-2.31l-2.31-1.81,1.93-1.81v-2.17l-5.01.36v-1.81l5.78-2.53-1.16-2.53-4.62-2.17,2.31-6.51-3.85-2.53-.39-8.33-2.31-6.51,1.93-2.53,1.54-5.43-2.7-2.53-.77-3.98,1.16-5.43-3.08-10.5,4.62-1.81,1.93-5.07,5.78.72,3.85-.36.38,4.71,3.08-3.98,5.78.36,7.7-.72,5.01-3.62,1.93-4.34,4.23-6.15-2.7,1.45-5.01.72,2.7-3.26,2.31-5.07-1.54-1.45v-1.45l6.16.36-.77-4.71-6.55-1.09-1.16-2.17.39-2.17,3.46-.36v2.53l5.39-1.09,2.31-2.17-5.78.36v-3.62l-6.93,1.09-1.16-.72h-5.39l-6.16,1.09-5.01-.36-.77,1.09-7.32-1.81h-3.85l-8.86,1.81-7.32-1.09-3.85,2.53h-10.78l-1.93-2.17-1.54,2.17-12.71,1.09-5.78-1.09-6.16,1.81h-8.09l-8.09,4.71,2.31,3.98.39,6.51,1.54,3.26-3.85.72v4.34l3.08,3.62,2.7-3.98,5.39,2.9,9.62.72,2.31,2.53,7.32,1.45,1.93-.36,2.7,3.98,1.54,4.71-1.93,1.45,1.54,2.17-1.93,1.45,3.08,1.81-.77,3.98-1.16,1.45v2.17l1.93.36v3.98l-2.31,2.17,1.54,3.98-1.54,5.43.77,3.62,2.31,1.81-2.7,1.09v3.26l3.08,2.9-2.7,3.98,3.08,3.62.39,9.05,1.16,1.45v5.43l-1.16,1.09,1.54,1.09-4.23,2.53,1.54,4.34,1.93-2.9,1.16,2.53-.77,3.26,3.46,7.24-2.31.72-.38,3.62-1.93-.36-2.31,2.53,5.39,3.62,1.54,5.07-.39,1.81,1.93,2.17-3.08,2.53,1.54.36v3.62l1.54,2.53.39,3.62-.77,6.15-.77-.36.77,7.6-.77,2.17-3.08,1.81v2.17l1.16.72-.39.72,1.93,2.9h-2.7l2.7,3.26v3.26l1.93,1.81v4.71l-4.62.72-1.93,5.43,4.62,1.09v1.81l-3.46,1.45-.77,2.17,6.16,7.24,3.46-1.09,7.7.72,5.39-1.09,6.93,1.09.77,2.9h2.7l.38-2.17,2.7-4.34,4.24-2.17-5.39-7.24.38-6.15,1.93-4.34-.77-3.26.38-10.13,3.08-2.9-1.93-3.98.39-1.09,4.23-1.09.77,3.62,3.85,3.26-1.54,2.17,1.16,4.34h-3.08l-1.16,1.09,3.85.72-2.7,3.62v1.09l2.7-1.09,2.7,2.53-.38,11.22,3.08-3.62,1.54.36v2.17l1.54,3.98-4.62,1.09-.77-1.81-5.78,1.45v1.81l1.16,1.45-1.16,1.09-.38,2.17,3.08-.36,2.7,3.26-1.54,2.17v1.81l-1.16,1.09v3.62l-1.93.72,3.08,1.81-.77,1.09-.39,9.41,3.85,2.17ZM18.01,248.88l1.16-1.45-.77-1.09-.39,2.53ZM28.79,262.63l3.46-3.62h-3.08l-.39,3.62ZM48.04,374.83v-1.09h-1.16l1.16,1.09ZM63.83,437.09l1.16-.72h-1.16v.72ZM68.83,449.76l1.16-1.09-1.54-1.09.39,2.17ZM76.92,463.51l1.54-1.09h-1.54v1.09ZM89.24,336.11h1.16l-1.16-1.09v1.09ZM93.09,455.19l2.31-.36-.39-2.9h-5.78v2.17l3.85.36v.72ZM95.01,318.01v-2.17h-1.16v1.09l1.16,1.09ZM93.86,436.37h2.31l-1.16-1.09-1.16,1.09ZM94.63,376.64l3.08-3.98-2.7-.36-.38,4.34ZM96.56,380.63l1.54-2.9,4.62-1.09v-1.45l-3.46-2.17.77,2.9-5.39,2.9,1.93,1.81ZM98.1,304.62l3.46-2.53-1.54-3.98-.77-5.43-1.54-2.9-2.7,5.07.39,9.77h2.7ZM103.1,382.8l3.08-1.81-2.7-2.17-2.7.36,1.93,1.09.39,2.53ZM108.49,356.74l1.16-1.09v-1.45l-1.16.36v2.17ZM109.65,448.67l1.54-1.45h-1.54v1.45ZM111.96,353.12h3.85l-.38-2.17-3.08.36-.39,1.81ZM113.88,309.32l1.93-1.45-1.93-.72,4.24-3.26-4.62-2.9-1.16,3.26v3.62l1.54,1.45ZM113.11,360.36h1.16l-.39-3.98-1.54.72.77,3.26ZM116.96,318.73l.39-5.07-2.7-.36-.77,2.9,3.08,2.53ZM114.27,412.12h9.63v-3.62l-6.93,2.17-2.7,1.45ZM114.65,205.08l2.31-.36-1.16-1.45-1.16,1.81ZM116.58,357.82l1.93-1.81-1.93-2.17v3.98ZM118.12,333.93h1.16v-1.45l-1.16,1.45ZM118.12,367.6h1.16v-.72h-1.16v.72ZM122.74,305.34h1.16v-1.09h-1.16v1.09ZM128.13,244.53l5.01-.72-.39-6.15-3.85-.72-.38-2.53,1.16-3.62-6.16-.36,1.93,6.51,3.08,1.81.77,2.53-5.01,1.81,3.85,1.45ZM128.51,259.37l-3.47,3.26,5.39-.36v-4.34l-1.93,1.45ZM140.83,278.19h3.85l.77-5.43-5.39,1.09.77,4.34ZM154.31,243.09h1.15v-1.09h-1.15v1.09Z"/><path class="cls-1" d="M283.68,492.47l-3.85.72-5.39-1.45-9.24-.72-3.46-2.17-6.16-.36-10.01-8.69v-2.53h-7.7l1.16,4.7-.77,6.52,1.16,1.45-5.39,2.9-2.7,2.53-2.7-2.53-5.77-.36-5.01-3.62-3.85,1.09-9.24-1.45-11.94-4.34-8.47-5.79-3.85-7.96-3.08-2.53-1.54-3.62-3.85-4.34-3.08-5.43-1.93,3.62-2.31-2.17-.39-2.53-3.08-3.26,1.54-6.88,3.08-4.71h-3.47l1.16-8.33,1.54-2.9v4.34l10.4-3.26-1.54,4.71v3.62l-2.31,1.81,6.55,2.17,9.63,1.81,7.32.36,7.32-1.09-.77-2.17,1.54-4.71-2.31-8.69v-8.32l-1.93-4.71.38-3.62-1.15-2.9,1.54-8.69.39-7.96.77-1.09-.77-5.07,1.15-2.53-.38-3.26,2.7-12.67,1.16-1.09-.77-3.62,1.16-3.62-.77-4.34,2.7-3.26,1.93-3.98-.77-3.26,1.93-11.94,3.46-9.05.39-3.62,4.23-5.07,3.08.36,5.01,2.53,2.7,2.9,3.46.36,1.93,2.9,5.39,5.07,8.47,15.56-2.31,2.17,2.7,2.53-.38,5.79-2.7,7.96,1.54,1.81-1.16,6.15v8.33l-1.93,8.69-.77-.36v6.51l-1.93,5.43,1.93,4.34v11.58l-1.16.72-.77,3.62-1.16.72,1.93,1.45.39,2.53-1.16,1.45,1.16,3.98v6.51l-2.7,2.53,1.93,7.6,4.62,2.17,4.23-.72v.36l4.62-.36,2.7-2.17,7.32,1.81,3.85-.72,2.31-3.26,2.31,3.62,1.93-16.65-1.16-3.98,1.54-6.88-.39-2.17,1.54-5.43,1.16-13.39-2.7-7.24,2.31-2.53-.77-6.52,1.16-6.88-1.54-6.15.77-5.43,2.31-2.17-2.31-4.71,1.54-13.75-.38-10.13,1.54-1.81-1.16-3.26.39-8.69-.77-3.26,1.54-7.6-2.7-3.62.38-6.88-2.7-4.34-7.32-5.79-3.85-4.71v-5.43l-3.85.36-3.46-2.9-2.7-1.09-2.7-2.53-10.01,3.62-1.16-1.45-2.7,2.17-5.01-1.09-1.54,2.9-7.7,2.53,2.31.36v1.81l-3.08,1.09-1.54,1.81-8.09-2.53-2.31-5.79v-9.41l.77-.36-1.54-5.43.77-7.24,2.7-1.09-1.16-.36,1.16-6.15-.39-2.9.77-22.44,1.54-1.81-2.31-2.9-2.7-.36-3.85-2.17h-7.32l-4.24,2.53-8.47,2.53-3.08-.36-4.62.72-4.62,12.31-3.08,3.62,4.62-1.09,3.08,1.81.77,9.05-1.54,5.79,1.54,5.07v3.26l-2.31-.72-1.16,2.53,2.31,4.34-2.31,1.45,2.31,3.98-2.31,6.15,2.31,1.81-4.24,2.17,4.62.72-1.54,4.71v10.86l-2.7,2.9,3.85,9.05.38,4.34-6.93.36.38,14.12,1.93.72-2.31,2.9h4.23l-3.85,3.26-1.16,3.62,1.16,3.26-6.55-2.9.77-8.32,2.7-3.26-2.7-3.62v-2.17l2.7-2.53v-1.81l3.08-4.71,4.24-1.45-4.24-1.45,2.31-1.45h-6.93v-2.53l-.77-.72-.39-3.98-1.93-3.62,2.31-3.26h3.46l-.77-1.81-3.08-1.09.77-1.45,4.62-.36,2.31-4.34-1.93,1.81-6.16.36-.77-3.98,1.15-14.12,1.16-2.17-.39-1.09,1.54-2.17.38-4.71-1.54-.72v-3.98l-1.16-1.09.77-1.45-1.15-3.26,3.46-6.51-1.93-2.17v-1.09l-1.93-1.81,1.93-1.09-.77-3.98,1.54-4.71-3.08-2.53,1.92-4.71-4.62-1.81,2.31-1.45,5.39-.72-2.7-.72-.39-2.9,2.7-1.81,1.54-2.53,6.16-.72,11.94,1.45,5.39-3.26,1.93,1.45,3.85,1.09,1.93-.72.39-2.17,7.7,1.81,2.31,1.45,4.24.72v2.17l5.39,2.9,8.86,9.77.38,3.26-4.62-1.81-.38,3.98.77,5.43,1.93,1.81,4.23-3.62v-3.26l-1.16-1.09,2.7-2.53,1.93-.72-1.16,5.43,4.23-.72.77,4.71,3.85,3.62-.38,5.07-1.93,1.81.38,1.09-1.54,5.07,2.7-.36-.77,9.41-3.46,2.53,8.47,2.9,5.78-.36,5.39,7.24,1.93-3.26,1.93,1.45-1.54,2.17,4.62.36,2.7,4.71,2.31,2.17-.38,2.53h5.01l8.86,3.98,2.31,2.53-.39,2.9,3.85,1.09v3.26h-1.16v1.81h5.39l2.7,6.15,3.85,3.62.38,4.34,3.47,5.07-.39,2.17,2.7,3.26-1.16,2.53v6.15l2.7,2.17v6.15l-4.24,4.34,1.16-1.81-.77-5.07-1.54-2.17-.77-10.5h-7.7l-1.16-6.88h.39l-1.93-6.51,1.16-3.98-1.16-5.43h-1.93l-1.16-1.09h-2.31v1.81l-2.31,3.62-.38,2.53,2.7,3.62-1.93,2.9.38,6.15,1.54,1.81-4.24,8.32h1.54l1.15,1.45-1.54,1.81,1.54,1.45,2.7-.36v-2.53l6.55.72.77,4.34,2.7,7.96h-1.93l1.54,4.71-1.54,4.71,1.16,1.81-1.93,1.09-1.93,3.98-3.08-3.98v-1.81l-1.93-2.17-3.08,5.07.39,3.62-1.93,5.43,1.93-.36-3.46,9.41h3.08l3.08-1.45,2.7,2.17-1.93,1.81,1.16,2.17-6.93,6.88.39,1.45-1.54,2.17,1.15,1.09,1.93-.36,1.54,2.17h2.31l-1.15-1.81.38-3.26-1.54-3.98h1.16l2.31,5.07,7.32,2.17,1.54,4.34-.39,4.71,1.16,1.09,2.31-6.15.39-3.98,2.7.72,1.16-4.71v.36l2.31-4.71h1.54l-.77,7.6-1.54,4.71.77,2.53-2.31,3.26,1.93,1.81-2.7,8.32,1.16,1.45-.39,3.62-3.08,1.45,2.31.72.38,2.53,2.7,1.45-1.54,6.51-2.7,3.98v6.88l-1.16,3.26,3.47-2.9,1.54,3.62-1.16,1.81,1.93-.72-.77,15.93,1.54,4.34-1.15,5.07.77,3.98-3.47,2.89,1.16,1.09,3.08.36-3.46,4.7,1.54,3.26v3.26l1.54.36-.77,3.26-11.94-.72-4.62.72-2.7-.72-4.62.72-1.93-2.17ZM169.33,403.79l-3.08.72-1.93-2.53,4.62-1.45-1.54-3.62,1.16-2.53-1.54-1.81.77-7.24h-3.08l4.23-5.79-3.08-1.45-.39-7.6,2.31-4.34,1.54-6.88,1.93,1.81,3.08-3.26.38-2.53-5.78.72,1.16-2.53,4.24-1.45,1.54-2.9-.77.72-2.7-4.71-6.93,3.26,1.54-3.26,10.4-6.15,3.08,3.26-.77,5.43-.39,11.22-1.54,9.77.77,6.15-2.7,2.9-5.01,2.9,3.85,1.09v1.81l1.93,3.98.39,11.58-3.08,11.58-4.62-.36-3.46,1.09.38-5.07,3.08-2.53ZM171.25,272.77l2.7.36v-1.09l-1.93-.72-.77,1.45ZM171.25,295.93l3.08-1.09-3.08-1.09v2.17ZM172.02,303.89v-1.09h-.77l.77,1.09ZM172.02,396.91l1.93-1.09h-1.93v1.09ZM174.72,252.5h1.16v-1.09l-1.16,1.09ZM184.34,461.7h1.54l-2.31-3.62.77,3.62ZM190.5,468.22l-1.16-1.81v1.09l1.16.72ZM195.12,475.82l2.7-.36-.77-1.81-6.16-5.79,1.54,4.34,2.7,3.62ZM198.59,458.08l1.54-2.17h-1.16l-.39,2.17ZM213.99,394.02l.39-8.69-.77.36-1.93,9.05,2.31-.72ZM212.45,399.09h.77v-1.09l-.77,1.09ZM213.99,427.32l2.31-2.9-.38-8.32h-3.08v9.05l1.16,2.17ZM216.69,373.03l-1.93,3.26h3.08l1.93-2.53-1.54-2.9-1.54,2.17ZM225.54,327.42l2.31-1.09h-1.15l-1.16,1.09ZM225.54,460.98v6.51h2.31v-7.24l1.54-5.43-.77-4.71-3.08-.36,1.54,3.62-.77,3.62-.77,3.98ZM232.47,360.72h3.85v-2.17l-3.85,2.17ZM236.32,366.15l1.16-.72h-1.16v.72ZM242.87,474.01l.39-2.17-.77,1.09.38,1.09ZM256.34,465.32l1.16,1.81,2.31-2.53-2.31-1.81.39-3.62-1.54-.36-2.7,2.9,2.7,3.62ZM256.73,471.84l-2.31-3.62-.38,2.17,2.7,1.45ZM257.11,457l2.31-1.09h-1.54l-.77,1.09ZM263.28,469.3l.77-1.09-4.23-3.26,3.46,4.34ZM267.9,459.17l3.46-1.81h-2.31l-1.16,1.81ZM277.91,471.11l2.7-2.17-8.47-3.62-3.08-3.62.77,1.45-.77,4.34,5.78,2.17,3.08,1.45ZM269.05,475.09l3.85.72.38-2.9-3.08-.36-1.16,2.53ZM298.31,485.59l2.31-.72-1.16-4.34,2.31-7.6-1.54-.36-1.93,2.53-6.16-6.88-3.85,2.53v-2.17l2.31-5.43-1.16-5.43-3.85-.72-.77-2.53-7.32,5.79-.77,3.26,4.23-.36v2.53l2.7,4.7-2.31,3.26,3.85,2.17-3.47,1.81,2.31,1.81,3.08,6.52,2.7-2.9-.39-4.71-1.54-2.89,2.7-2.9,3.46,3.98-.38,3.26.77,2.17-.77,3.26,4.62.36ZM290.23,434.19l1.93,2.53,1.93.36v-16.65l4.62.36-.77,4.71.39,7.6h3.46l-.38-2.9.77-9.41-5.78-3.26-2.31,1.09-.77-2.53,1.93-2.9-4.62-6.15.77-2.9-.77-6.15-1.93.72-2.31,3.62-4.24,8.69,3.85,1.81-3.46,1.81,3.46,2.9-3.08,3.98,1.54,5.07-.77.72.39,4.34,3.46.72,2.7,1.81ZM282.53,300.27h1.15v-1.81h-1.15v1.81ZM282.53,357.1l1.15-1.09h-1.15v1.09ZM287.15,343.71l.38-1.45-3.08-1.09.38,1.81,2.31.72ZM291.77,352.76l2.7-2.9-5.01-1.09-1.15-2.17-3.08.36,2.7,5.79h3.85ZM288.69,453.38l-.38-2.17h-.77l1.16,2.17ZM290.61,341.17h1.54l-1.54-1.09h-2.31l2.31,1.09ZM292.15,441.07h1.16v-.72h-1.16v.72ZM295.23,489.93h1.54v-2.53l-1.54,1.45v1.09ZM297.16,441.07l3.08-.72h-2.31l-.77.72ZM297.93,308.24h1.16l-1.16-1.81v1.81ZM297.93,459.17h2.31l.77-6.51-3.08,4.71v1.81ZM299.08,413.93l1.54.36-.39-2.9h-1.16v2.53Z"/><path class="cls-1" d="M378.79,484.87l-3.08-.36-9.24-6.51-7.32-7.24-1.54,1.09-5.39-7.6v-7.6l-3.08-.36-5.01-5.43.77-2.17-3.47,1.45-4.23-8.33-3.08-3.26-7.7-14.84-1.16-7.96-2.31-5.07.38-17.37-1.16-3.26,1.16-2.53-.77-2.17.77-3.26-1.93-5.43-.77-6.15,2.31-7.6-.77-1.81.39-2.53-1.16-1.81v-6.15l1.54-1.45h1.15v1.09l2.31,1.09,1.16-1.45v-4.34l-1.16.36.39-3.62-3.85-.36-.77-7.6-2.7-.36,3.47-4.34v-9.05l1.15-1.09.77,1.81,6.55.36,3.85,4.71.77,5.79,1.54,1.81-3.08,2.53,2.31,1.09-1.54,7.24,1.93,3.98v3.98l-.77,1.09,1.16,8.32-3.46,4.71,2.31,3.26-.38,2.53h-1.93l-.39,3.62-1.15.72v2.9h1.15l.77,1.09-.77,2.53.39,10.86,3.08,7.24,1.93,1.45.77,7.24-.77,8.69,5,1.81v4.34l1.16,3.26,2.31.72,3.85,3.26,12.32,8.33,6.55.72,15.4,4.71,2.31-1.45,1.16.36,2.7-1.81,11.17-.72,3.08-1.45h3.46l4.62-4.71,10.78-13.03-1.16-3.98,5.01-8.33-.77-3.26,3.46-5.43,1.16-4.71-1.54-2.17h-7.32l-1.54,1.09h-4.24l-7.32-2.9-6.55-1.45v2.9l-2.31,1.81.77,2.17-.77,1.81v4.34h-4.62l.39,3.26-3.46,2.17-14.25,2.53-4.24-3.62-3.08-.36-3.46-2.17-2.31-8.69-2.7-7.6,1.16-13.39,2.7-1.81-2.7-3.62v-5.79l5.78-1.45,1.16-1.09h9.63l1.15,1.45-1.15,7.6-1.54,3.26.39,3.98-1.16,8.32,2.31,1.45,2.7-4.34,2.7-2.17.77-2.17,1.16-.36v-3.26l-1.54-1.45,2.7-.72,3.46.36,2.31-5.79-5.77,2.9h-2.31v-2.9l-4.62-2.17,8.47-1.81,8.09,1.09,3.85-3.26h3.47l1.93,3.26,4.23-3.62,2.7-.36.39-2.53h4.62l5.39-9.77v-7.24l-1.93-5.79.39-11.94,3.08-7.24,1.93,1.45,1.54-1.45-2.31-4.34.77-4.71-1.16-5.43-2.7-1.45v2.9h-3.08l.77-5.79-.77-6.88-5.01-4.71v-7.96l1.54-4.71-3.47-1.81-1.15-2.9,9.62,3.62,4.62,4.34v1.09h2.7l1.15,4.34,3.08,1.09,13.86,6.88v2.53l5.78,1.45,2.31,4.34v2.17l4.62.36v4.34l5.39,2.17v3.62l3.46,4.34,2.31,5.79-.38,4.34-1.93,2.17,5.78,3.98,2.7,11.22-1.54,7.96-1.93,1.45,3.08,2.53v3.62l-1.15,2.9,2.7,5.07v2.53h-1.54l1.54,3.62-1.54.72v2.17l1.54-.36.38,6.51-7.7,5.79-8.09,1.81-2.7-1.09-12.32,3.98,4.23,3.26,2.31.72-1.54,8.33,2.31-.36-.39-2.17,3.47-1.81,3.46,5.07,6.55,5.43,1.54,2.53,1.93,11.22-3.08,4.34-.39,3.26-2.31,4.71-.39,3.98-4.23-.36.77,7.6-6.93,4.34,1.93,1.09-3.08,5.79-8.47,10.13-3.46.72-2.7,2.17-6.93,9.41-3.85,1.09-1.16-.36-3.46,1.81-9.63,2.53-3.08-2.9-.38-3.62-3.08,4.71-1.93,1.09-5.78-.72-3.08,1.81-6.93,1.09-2.31-1.09-5.01-.36-3.08-1.45-4.24-.36.39-1.81ZM329.5,316.92l-5.39.36v-2.17l.77-.72-.39-4.34,3.46-5.07-1.54-2.53,1.16-1.45,4.23.36v-2.53l-5.39-3.98,3.46-4.34,3.08-6.88,4.24-2.9v1.45l1.93-1.45.77-3.98,11.55-6.15,5.78-2.17,3.08-.36,10.01-5.07,1.93,3.62,6.16,1.45-3.08,1.45-2.7-.36-1.54,5.07-.77-.36-10.4,6.88h-6.93l-2.31-1.09-.77,4.71-3.46,5.79-2.7.36-2.7,5.43-1.54.36v3.98l-.77.72-.39,4.34-5.77-1.81v2.17l4.23.36,1.16,6.15-4.24,3.26v2.9l1.16,1.45.39,2.53-5.39-2.9-.38-2.53ZM324.88,354.57h1.54l-1.54-.72v.72ZM327.58,315.11l2.31-.36,2.31-4.71-1.93-2.53-1.54,6.51-1.16,1.09ZM328.73,294.48l1.15-1.09h-1.15v1.09ZM331.43,346.6l2.31-1.09h-1.15l-1.16,1.09ZM337.2,291.22h1.15v-1.45l-1.15,1.45ZM343.36,279.64l2.31-1.09h-2.31v1.09ZM364.54,453.74l-.39-2.17-5.39-1.45,5.78,3.62ZM371.47,462.06l-2.7-2.9-2.7-4.34h-.77v2.17l2.7,4.71,3.46.36ZM368.01,335.02l-.77-10.5,3.85.36-1.16-1.81,1.16-2.53,4.62-2.53,1.16-1.81,2.7,2.17h1.16v1.09l-1.93,1.81,1.93,5.07,3.85,3.98,3.46-2.17,3.85.72,3.46,2.9-3.46,5.43.77,3.98-9.63-1.81-12.71.36-3.08-3.26.77-1.45ZM375.71,467.49l5.01,3.26,2.7-1.81-1.54-1.81-5.39-1.81-1.93-2.53h-2.31l.77,2.17,2.7,2.53ZM375.71,455.19l2.31-1.09-3.08-.36.77,1.45ZM376.86,386.42v-7.6h-1.54l.39,6.51,1.16,1.09ZM379.56,266.97l3.85-2.17v-2.53l9.63,1.45,1.93-1.09v1.09l2.31,1.45,1.54-2.53,1.15,1.09-1.54,1.81,1.93,3.26-2.31,2.53-6.16-1.81v-3.26l-7.32,3.26.77,1.09-1.16,1.45-2.31-.36v-1.81l-2.31-2.9ZM388.03,475.46l-2.7-2.53.38,2.9,2.31-.36ZM394.96,317.29l-5.01-5.79,4.62-2.53-.38-2.17,1.15-.36,1.54,1.81,1.54-3.62,3.85,1.09.39,2.53h1.15l-.77,6.15-4.23,2.17.77,7.6-4.62-2.17v-4.71ZM394.19,384.25h1.15l6.55-5.07-.38-2.53,1.93-1.45.77-3.26-2.7-2.53,1.54-3.26-3.85,2.9-.77,4.71-4.23,3.62,3.46,1.45v2.17l-2.7-1.09-.39.72-.38,3.62ZM397.65,312.94h3.85v-2.53l-3.85-.72v3.26ZM411.13,462.79h2.31v-4.34l-.77-.72,3.85-4.71-.39-5.07h-4.23l-6.93,5.07,3.08,2.9.38,4.34,2.7,2.53ZM435,386.42h3.47l2.7-1.09h5.78l2.7-1.09,15.02-1.45-.38-2.9-3.85.36-2.31,1.81-3.46-.36-1.16-2.17-4.24.36.39-2.9-2.7.36-1.16,1.45-4.62,2.53-7.32.36-4.62-3.98h-2.7l-1.93,5.79,5.01,2.17,5.39.72ZM431.54,444.69h3.08l3.08-3.98-1.93-3.26.77-2.9-.39-2.53h-1.54l-1.16,2.17-5.01,3.26,2.7,3.26.38,3.98ZM435.39,472.92h3.46l1.16-6.15-.38-10.86-2.31-2.17h-1.93l-1.54,1.09,2.31,3.62v1.81l-3.85-1.45-1.54,1.09,3.08,5.79-.77,2.9,3.08-.36,1.16,1.09-1.93,1.45v2.17ZM438.85,432.02l1.16-.36v-2.9l6.55-1.81.39-3.26,2.7-3.98-5.01-6.15-8.09,14.84,2.31,2.9v.72ZM442.32,301.72l2.7-.36-.77-2.53-1.93,2.9ZM443.86,336.11l2.31-5.43-2.31-1.45-1.54.72,1.54,6.15ZM445.01,327.42l.77-1.09-.77-1.45-1.16,1.45,1.16,1.09ZM450.02,315.84l3.08,3.62,5.39-.36-10.01-13.39-2.31-.72,2.31,7.96,1.54,2.9ZM446.94,320.54h1.54v-1.09h-1.54v1.09ZM452.33,432.02h1.16l-1.16-.72v.72ZM459.64,331.04l2.31-5.79-4.62,5.79h2.31ZM458.49,358.19l.77,10.13,10.01.36-.38-6.88.77-1.45-4.62-3.26-1.54-9.41,1.54-4.34-2.31-2.53.39-7.6-1.16.36-2.7,3.98v3.62l.38-.72.77,13.39-1.54,1.81-.38,2.53ZM463.11,326.33h1.16v-2.17l-1.16.72v1.45ZM471.58,374.47h1.16l-1.16-1.81v1.81Z"/><path class="cls-1" d="M733.4,490.66l-5.01-3.62-2.31,1.09-6.93.36-3.08-1.81-4.24-1.09v-3.62l-3.46-8.32-4.24-2.17.39-2.53-3.08-.36-1.93,7.24-4.62,8.33-6.93,1.81-3.46-2.17-11.94,1.09-3.85-1.81-26.18,2.53-10.01-4.71-5.39-11.22.38-3.62h-1.54l-5.39-6.15-2.31-8.33-3.08-2.9v-2.53l-5.39-6.15-5.39-3.62v-2.53l-4.62-2.9.77-8.69-1.16-2.17v-13.75l1.16-1.09-3.47-1.09,1.93-2.53-2.31-4.34-1.54-6.15,1.93-1.09-1.15-1.81.38-1.81-1.16-2.53,2.7-2.9-3.08-3.26v-6.51l.77-.72-1.93-2.53v-8.69l-1.54-1.45.77-.36-2.31-7.24,1.54-2.9-2.31-.72.77-.72.39-3.62-2.7-4.34,4.23-4.34-2.31-2.17-2.7-1.09v-11.94l-2.31-6.88,1.16-6.52-4.24-2.17.39-6.15-.77.72-1.54-10.5-2.7-1.81,3.46-6.51-1.54-2.9-.39-6.15.77-3.26-2.31-3.98-.77-4.34.77-6.51-2.31-5.07-.38-7.24-1.54-4.34-.39-8.32-1.54-4.71.77-4.34,2.31-1.09,1.93-2.9,10.01-.72,1.15,1.81,3.08-1.81,4.24,1.45,3.08-.36,2.7-1.45,7.7.36,1.93-1.09,5,.72,5.01-.36,1.16,1.09,4.62,1.45,3.08,9.77,5.39,10.13,3.85,5.43v1.81l2.7,5.07,4.62,4.71,3.08-.36,5.01-2.17v-.72h-1.16l-.77-2.17,1.54-11.22,5.01-1.81-3.08-4.71.39-5.07-.77-5.79,8.47-3.26h31.57l14.25-.72,1.93,3.62,5.01,2.17,5.01,8.32.77,6.15,5,2.9-.77-6.88,2.7-7.24-1.54-7.96,10.01-2.17,1.93-1.09,3.85,2.9,10.78-1.81,2.7,2.53,1.16-1.45,11.17-.72,2.7-1.45,8.09,1.45v1.09l1.93-1.09,6.16-1.09,7.7,1.81,8.86,8.69.77,5.79,1.93,2.53,5.39.72,6.55,6.15,2.7,6.52v4.34l-1.54.72.39,2.53-1.54,2.17v2.17l-1.93,5.07-.77,11.22-1.93,2.17v7.24l1.16,4.34-7.7-2.53-6.93,3.26,2.7-.36v2.53h-4.62v2.9l1.93,2.53-1.15,2.9-3.08-.36,1.54,2.17-.38,2.53,1.15,1.09-1.54,10.86,1.54-2.9.77,1.09-.39,1.09,2.31,2.17,1.54,2.9,3.85-7.24-2.31-3.26v-4.71l-1.54-1.09.39-2.17,6.55-2.53-3.85-2.17-.39-6.15,1.16-2.17,1.93,2.17,1.54-2.9h3.46l-.39,3.62-3.08,3.62,3.08.72-1.54,11.94-1.54,2.9,2.31,3.62-3.08,5.79-10.01.72-.77,1.09h-3.85l-.39,1.45,3.08.36,2.31,2.17,1.93-3.98,3.08,2.17,1.16-1.45,3.85,2.53-1.16,6.88h-3.08l-2.31-1.09-2.31,2.17-.39-5.43-4.62-.72.39,2.9h-7.7l.39,5.79,2.31,1.09v12.31l2.31,7.24,5.78-5.07h1.15v-2.53l-1.15-1.81-.77-5.07,3.85,3.62h3.47l.77,2.53-.77,3.26-5.01,3.62,3.46,3.26-1.93,15.56-1.93,7.6-1.93,2.17v2.9l-1.15,2.53-1.93,1.45-1.93-2.53-1.16,1.45v4.71l5.01,2.53-1.93,1.45h-3.08l-.77,1.81,5.39,2.17-7.7,5.07,3.47,2.17.77,3.98-2.31,4.71,1.16,5.79-.77,1.45.77,4.34-1.54,2.53-1.16,10.13-3.08,5.79h2.7l.39,3.26-.77,2.53v11.94l-2.7,3.62v3.62l1.54,1.09v9.77l-1.16,3.98-2.7,3.62h-21.95l-2.31-1.45h-3.08l-.77,2.17h-8.09l-1.93.72-3.08,3.62h-5.78l-3.85-3.26ZM716.85,441.8h1.93l1.54-1.09,15.4.72,11.17-2.53-.38-2.53,1.93-4.71v-5.43l6.55-1.45-3.08-3.62-2.31-6.51,1.93-3.26,3.85-14.12-.38-5.43,1.16-4.34,3.46-2.53,1.93-2.53-3.85.36-1.93-1.09,2.7-4.34,3.08-11.58.77-5.79-.77-1.45,1.93-5.43.38-5.43,3.47-12.67v-6.52l1.16-1.09,2.31-6.88-.77-4.34,1.54-5.43.77-11.94,2.31-2.17-1.16-2.17v-12.31l2.31-3.98-.39-3.26,1.54-1.81.38-5.07,2.31-1.81-1.16-1.45v-2.17l1.16-.72v-3.98l-1.93-1.45,1.93-1.81,1.54-11.58.39-13.39,1.93-2.53-.39-3.26,1.54-4.34h-3.85l-8.86-2.53-3.08,1.09-10.4,1.09-.77-1.09-18.48,2.9-2.7,7.24-2.7,4.34,1.16,3.26-1.16,7.24-4.23,7.24,2.7,2.17v9.05l-1.16,2.17.77,2.53-.38,5.07-1.93,2.9.77,2.53-.77,7.6-3.47.36,2.7,3.98v9.41l-2.31,1.81v5.79l-1.54,7.96.39,5.43-4.23,10.5-5.39-2.9-3.85-.36v-7.6l.77-2.9-1.15-10.86-2.31-9.77v-7.6l.77-1.09v-6.15l-2.7-3.98-.38-16.65-2.31-7.24-.77-11.94-2.31-5.43v-6.15l.77-2.17-3.08-3.26-9.63.36-3.47-1.45-1.54.36-18.87.36-1.16.72v6.52l-2.31,4.34-3.85,17.37-.77,8.32-1.16.72v3.98l-1.16,2.53.39,4.71-.77,2.17.39,2.53-2.7,2.53-1.93,9.05.77,10.13-2.7,3.62-.77,6.15.77,1.81-4.24,9.05-1.15,9.41-2.7,6.15,1.16,6.15-3.08,2.53-5.77.72-4.24-4.34v-6.15l-1.54-5.43.38-10.5-3.46-9.77-1.16-7.24.77-3.98-.77-1.81.77-5.43-2.31-5.43.77-6.15-1.16-1.81.77-7.24-3.08-11.22-2.31-13.39v-7.24l-1.16-1.81,1.16-1.09-2.7-10.5-4.24-1.81h-5l-2.7,1.09-1.54-1.09-16.94,2.53,1.54,5.79,1.54,17.74,2.31,6.51-.38,2.53,1.93,6.88,1.15,9.41-.77,5.79,1.93,6.88-.38,7.6,3.46,8.33-.39,2.9,1.93,9.05v6.15l3.08,1.81v7.24l1.16,3.62-.39,4.34,1.16,3.62-.39,3.26,1.93,6.88,1.93,15.56,1.16,1.45v13.75l-.77,2.53,2.31,5.79-.39,3.62.77,3.62h-2.7l-2.7,1.81,2.31,1.09,3.08-1.09-1.54,2.9-.39,3.98,3.08,3.62.39,5.07-.77-.36-.38,2.9h3.08l-1.15,3.98,7.7,10.5,4.62,1.45,1.93,1.45,3.85-1.09,2.7,1.81,1.16-1.45,13.09,1.81,6.16-1.45,8.47,1.81,4.62-.72,1.54.72.77-5.43,2.31-3.62-.39-1.81,1.93-4.34-1.54-2.17.77-3.98-.39-3.62,1.54-6.51,1.15-.72-3.08-2.9,1.93-3.98,1.15-8.69,1.54-.72-1.54-1.09h1.93l1.54-1.81.38-5.43,1.54-5.07-1.54,3.26-4.23-6.15,3.08.36-.38-16.29,2.31-11.22,1.54-.72.38-3.62.77-.72-1.93-.72,2.31-8.69,10.01-3.62v2.53l2.7,10.86,2.7,15.2-.39,3.26,2.31,7.96,1.54,2.17.77,4.71-1.15,4.71,2.31,5.07,2.7,3.62.77,10.5,3.46,3.26v13.75l2.31,2.9v5.07l1.16,5.07v6.15l3.08,5.43,1.93,3.62ZM599.41,366.87l2.31-2.17.39-1.45-2.7,2.53v1.09ZM686.43,459.89l.77-3.62-1.16-7.6.39-6.15-3.46-9.77,2.31-5.43-.77-4.71,1.16-2.9v-4.34l-3.46-.36.38,7.96-1.54,4.71,1.54,1.45-1.93,1.45-.38,7.24,3.08,9.77-1.54,1.81v2.9l2.31,7.6h2.31ZM682.58,413.56h1.54l-1.54-1.09v1.09ZM689.89,401.98l1.93-.36.39-8.69-2.7-.36-.77,5.43,1.15,3.98ZM727.63,455.19h5.39l4.62-2.9,3.08-.36,2.31-2.53-3.08-2.17-3.85-.72-4.62,1.81-14.63.36.77,1.81,3.85.36,1.54,1.81,4.62,1.81v.72ZM719.16,268.42l.77,5.79,2.7-9.41-3.46-10.5-.77,10.13.77,3.98ZM750.34,457h1.15v-1.81h-1.15v1.81ZM756.5,450.84h7.32l2.31.72v-4.71l-4.24-1.45-4.23,1.09v2.17l-1.16,1.09v1.09ZM766.13,457.72l1.16.36v-5.07l-3.47.36-1.54,1.09h-1.93l-2.7,1.81,7.32.72,1.16.72ZM761.89,462.06l2.7-1.81-2.7-1.81v3.62ZM762.28,439.62h1.54v-1.09l-1.54,1.09ZM778.45,443.24l2.31-.36,1.54-1.81-1.54-3.98v-2.17l2.31-1.09-.38-1.81-3.85,1.09-.39-2.53,3.08-5.07,4.23-4.34-.77-3.62h-3.46l-4.24-3.98-2.7-1.09-.39-1.45h5.01l-3.46-6.51h-2.31l-1.93,3.26-1.54-2.53-5.78,2.9-1.16,9.41,5.39,1.45-3.47,5.79,1.16,3.26-1.16.36,4.24,5.07,4.23,2.17v5.07l2.31.36,2.7,2.17ZM771.14,478.35l5.39-2.53,1.93-2.53v-2.9l1.93-4.34-2.7.36-6.93-2.17-.77-1.81-3.08.36.39,2.53-3.08,1.09,6.16,1.81,3.46,7.24-3.85,1.45,1.16,1.45ZM766.13,401.62l2.7.36,1.93-2.17.39-3.26,2.31-2.17-4.62-8.33-1.54,1.81,1.93,9.41-3.08,2.53v1.81ZM770.75,445.78v-3.98l-.77-1.09-1.16,1.09,1.16,2.53.77,1.45ZM784.61,379.18l5.39-.72.77-6.15,5.01-.72,3.46-2.53-3.08,1.45-3.08-4.71,3.85-3.98-4.23-4.34-3.46.36.38-.72-4.23-2.53-6.93-.36-1.54-2.17h-1.16l-.39,3.62-4.62,8.69,5.39,5.79,2.31-1.45,2.7,1.45,1.93,2.53,2.31.72-3.08,3.26,2.31,2.53ZM774.6,446.14h1.16l-1.16-1.81-1.16,1.09,1.16.72ZM785,394.74h3.46l-.38-5.43-1.93-.36-4.62-3.62,1.93-1.09-.77-3.26-3.08-.36-2.31,2.17,1.93,1.45-2.31,2.17-.39,2.17,5.39-1.09,2.7,1.81.39,5.43ZM778.07,324.52h3.47l2.31-5.43-3.46.36-.39,2.17-1.54,1.45-.39,1.45ZM779.61,399.81l.77-.72h-.77v.72ZM783.07,360.36l-1.54.72v-.72h1.54ZM786.54,383.88l1.54.36,1.16-2.53h-2.7v2.17ZM786.54,433.83h1.54l-1.54-1.09v1.09ZM801.17,280.73h3.85l.77-2.17,3.47-2.53,2.31,6.52.39-11.94-1.93-.72-.77-3.62,1.16-2.17,1.54-13.03h1.16l1.54,1.45,2.31-.36v-3.26h-3.85l-1.16-5.79-16.94-15.93-.39,3.62-3.46,1.45v13.39l.77,2.17-1.93,5.79v3.98l-2.31,1.45,3.47,1.45-2.7.36,1.16,12.31.39-5.07,1.16-1.09,1.54-6.52h10.01l3.08,6.15-2.31.72-1.16,3.98,2.7,1.45,3.46-2.17-.38,2.53-5.78,2.53v1.45l.77.36-2.31,2.17.39,1.09ZM790,412.48h1.16v-1.45h-1.16v1.45ZM792.7,297.74h1.16v-1.09h-1.16v1.09ZM793.85,266.97l1.16-.72h-1.16v.72ZM816.96,246.34l1.54-1.09-.77-3.62h-2.31v3.98l1.54.72Z"/><path class="cls-1" d="M883.19,474.73l-1.16-1.09-7.7-1.81-1.54,1.09-8.47-2.53-5.39-5.07-5.78-2.53-5.39-4.34-3.46-6.15-9.24-3.62-3.08-2.9-3.47-1.81-.38-2.9-5.01-1.81-3.85-6.15-3.85-2.9-1.93-3.98-.77-4.71-5.01-7.96-1.16-4.71-2.31-2.17-5.39-11.94-1.93-2.9,1.16-11.58-.38-3.98-1.54-1.81,1.16-4.71v-11.58l-.77-4.71,1.93-2.9-.77-.36,3.85-3.98.77-7.6-2.7-3.98,3.85-1.45-3.85-4.71,2.7-.36-1.16-1.09v-4.34l-.77-.72.77-4.71,3.85-1.81-2.7-1.81.77-6.52,2.7-5.07v-3.62l1.93-.36-.77-5.43,1.54-.72-1.16-3.26,5.78-5.07,2.31.36,2.7-1.81.39-4.34,6.55-5.07,2.31,1.09.77-2.9,5.78,1.45-1.16-4.34,6.55-.72,7.32-2.53,1.93,1.45,5.01-3.62h5.78l1.93-.72v5.79h-12.32l-3.08,3.26-4.24.36-1.93-1.45v2.9l-2.7,1.09-6.93,5.79-1.93,4.71-3.85,3.98-1.16,2.9-2.7,3.26-.39,4.71-3.46,6.88v5.79l-1.16,1.45.77,1.81-1.54,4.34v4.34l-2.31,10.5-1.54,1.81v1.45l3.08-.36v3.26l-1.93,15.56-1.16,1.81,1.93,1.09-.77,4.34-1.93,3.98-.77,5.43,1.54,7.6,1.16,14.84,3.08,4.71,2.7.72,4.62,15.93,2.31,1.09,5.39,9.05,6.55,4.34,1.93,2.53,6.93,6.15.39,3.98,3.46.72,5.78-.72,1.54,1.45,2.31-1.45,13.48,1.09,1.54-1.09,4.24.36,1.54-2.9,3.85-.36,6.93-2.53,2.7-5.07,5.01-1.81,6.55-5.79,2.31-8.33,3.08-5.07-.38-2.17,2.7-13.03,2.31-3.26v-5.07h1.54l-1.93-11.22.38-9.77,1.54-1.09-1.54-11.94,1.16-3.62-.77-14.12,1.54-5.43-3.46-15.2v-20.27l-3.46-3.26.38-6.51h2.7v2.17l-1.54,3.26,1.93,2.9,4.62.72,2.7,2.17,1.93,5.07,2.7.36,4.62,5.07,1.93,3.98,8.09,6.88,2.7-1.81,4.62,8.33.77,6.88,4.62,8.69-1.54,6.51,2.7-.36-.38,3.62,3.46,3.62v7.24l-1.16,5.07.39,5.07,2.7,2.9-1.93,4.34-2.31,2.53,3.47,2.17-1.93,2.17-1.16,3.62.39,3.26-1.16,3.26,1.16,5.07v9.05l-1.16,7.24-2.7,10.5v8.69l-4.24,9.41-3.08,10.13-4.62,5.79-1.16,3.26-3.85,1.45-6.16,4.34-5.78-.72-.77-.72-5.78,3.62h-5.39l-3.47,1.45h-3.46l-2.31-1.09-5.78,1.09-2.7-.72-4.62,2.89-5-1.81ZM809.64,310.77h1.16v-.72h-1.16v.72ZM814.65,288.33h.77v-1.09h-.77v1.09ZM830.82,275.66l3.85-.72-3.47-.36-.38,1.09ZM843.91,403.43l-5.39-6.51-.39-7.96,1.93-2.17-1.54-3.26v-4.71l-1.16-2.17-.77-5.79.38-14.12.77-2.53-.77-3.62,1.16.36v-7.24l2.7-1.45-1.16-1.81,1.93-.72-.77-3.98.77-1.45v-5.79l2.7,2.17,1.15,2.17,2.31-3.98,1.93-.36,2.31,6.15-4.24,1.81,1.54,1.45-1.93,4.71,3.85,1.81-1.54,2.9-3.46,2.17,3.08,2.17.39,1.81-3.08-.36v1.09l1.93,1.81,1.93,3.62h2.7v-4.71l-1.15-4.71,1.15-3.26h.77l.39,2.9,1.54-3.26-1.93-2.17,6.16-2.9,1.54.72,1.54-2.9,3.08-2.17-3.85-10.13.38-2.9-2.7.36-1.16-1.81.77-3.62-1.15-3.98-7.7,3.98-1.16-3.26,5.01.72-1.93-6.88.77-5.07,1.54-3.26,1.93,2.53,3.08-3.98,5.01.36,4.23,2.17h4.24l1.93,3.26,2.31,1.45.39,4.71.77.36,2.31-2.53,1.93,4.71.38,3.26-1.16,9.41-4.23,1.81,3.08,2.17-.39,1.09,2.31,5.07-.39,5.43,1.54,7.24-1.54,2.17,1.54,8.69-1.15,9.41h-1.16l.77,9.77-1.16,6.51.39,3.62-1.54,3.62-1.15,6.52-6.93,3.98-7.7,2.17-1.54,2.17-18.48-2.53-.77-2.53ZM843.53,346.24h.77v-2.17l-.77,1.09v1.09ZM858.93,311.49l2.31-.72-3.47-.72v.72l1.16.72ZM861.62,400.9l1.93-1.45v-1.09l-2.31,1.09.38,1.45ZM863.55,345.16v-1.09h-.77l.77,1.09ZM864.7,321.99l1.54-2.17-.38-3.26,1.93-1.09-2.31-1.45-1.93,6.88,1.16,1.09ZM866.24,324.52l2.31-1.09,1.16-2.53-1.16-1.81-1.16,3.26-1.54,1.09.38,1.09ZM875.49,462.79l1.54-1.45-4.23-3.26-2.7,1.09.39,2.17,5.01,1.45ZM891.66,271.68l-5.01-.72-5.78-2.9-1.16,3.26-4.62-3.26,3.08-2.9,10.01,1.45,2.7,2.17,3.85.36,2.7-1.09-2.7,4.71-3.08-1.09ZM882.03,450.12l1.16-2.9h-3.85v2.17l2.7.72ZM880.88,459.17h1.16l-1.16-.72v.72ZM898.2,468.22l4.23-4.34-1.15-.72-2.7.72-6.93-.36,3.08,3.62,3.47,1.09ZM912.45,466.41l2.7-1.45,3.46.36,4.24-3.98,4.62-1.81,1.93-4.71,3.85-2.53,1.54-2.17-.38-5.79,1.54-3.98,2.31-12.31,1.93-2.17,1.16-5.43-.77-3.62-2.31-4.34,2.7-3.98v-3.62l3.46-3.26-2.7-4.34h-6.55l-1.54,3.62-2.31-2.53-1.93,1.45,2.7,3.26,2.7,9.77,2.31,3.26-2.7-.36-.77,3.26.39,3.26,1.16.72-3.47,2.17h-3.46l-3.08,3.98.77,1.09h-3.08l-1.16-3.62.77-3.62-.77-1.45-2.7,2.17,1.54,3.26-.38,5.07h5l-1.15,2.9,3.46,3.62v1.45l-3.08,3.62,1.54,3.98-.77,1.81-2.7.72-6.16,4.34-6.55,3.26-2.31,3.98-2.7,2.17.38,1.09,5.78.36,1.54,1.09ZM919.38,444.69v-1.09h-1.54l1.54,1.09ZM924.38,322.71l.39,1.81,4.23-3.98-2.7-1.45h-2.31l.38,3.62ZM925.15,328.87l1.16-1.81h-1.93l.77,1.81ZM932.47,369.77l2.31-2.9-3.08-2.17-2.31,5.07h3.08ZM930.55,328.51l1.54-1.45-1.93,1.09.39.36ZM930.16,416.46h1.16v-.72l-1.16.72ZM930.93,357.82h3.08l.77-1.81-.77-.72.39-2.53-3.08,2.17-.39,2.9ZM932.08,351.67l1.93-.72-1.93-5.79-.77,4.34.77,1.09v1.09ZM937.09,351.67l1.15-1.09.39-7.24-4.23.36,1.93,2.53.77,5.43ZM935.94,421.16h-1.16l1.16-1.09v1.09ZM939.79,359.63h3.85v-3.62l-3.85,3.62ZM941.71,327.78l1.93-2.17-3.08-1.09,1.16,3.26ZM953.26,358.55l.77-.72-1.16-2.17.39,2.9Z"/><path class="cls-1" d="M992.53,471.84l-1.93-1.81-5.78-8.32-3.08-1.81-3.46-5.07-6.16-6.15-11.55-6.52-2.31-18.1,1.54-4.71.77-13.75-1.16-5.07h5.39l3.47-1.09-7.32-3.26,1.93-3.26v-17.74l4.62-7.6-.77-6.15.77-3.62,1.54-1.09-1.16-3.26,2.31-4.34-1.54-1.81,1.16-11.22-1.16-2.9,5.39-3.62-1.54-3.26-.38-5.79,2.7-16.65,1.54-2.53v-10.86l.77-3.98-1.15-7.6,1.92-2.53v-3.62l1.54-2.53-1.54-1.45.39-4.34,15.79.36,2.31.72,2.7-.36,8.09,1.81,2.31-1.81,3.85.72,11.55-.72,1.54,3.98,2.7-2.53,6.55-1.81,2.7,2.17,5.39-2.17,1.54,1.09,3.85-2.53,13.09-.36,2.31,2.17,1.16,6.51,3.08,7.24,3.46,3.26,3.46-.36,1.54,2.9-.39,1.45,2.7.72,3.85,3.26-.38,3.62,2.7,4.71,5,1.45,1.16,1.81-3.46.36,3.08,7.24,1.54-1.45h1.54v2.17l-2.31,2.53-.39,6.88h-2.31l-2.7,2.17.39.72,3.85-.36,1.93,2.53v7.96l-1.16,3.62h-2.31l-1.54,1.09,1.93,1.09-.38,2.17,1.15.72-.77,2.9,3.08,1.45-2.7,6.52-2.31-1.09-1.16,4.34-5-1.81-4.24-.36-6.16,1.09-1.93-1.09-3.47,2.53-4.62-2.9-2.31,5.79-3.85-.72-4.62,3.98-3.08,1.45-1.93,2.53,2.7-1.81,3.46.36,1.93-3.26h2.7l-1.54,1.81-.77,2.9-8.47,2.53,1.93,1.81v1.81l1.93,2.53-2.31,3.26-1.54.36-.77,11.22-2.31,1.45,2.31,3.26,3.85,2.9-3.47,1.45-.38,2.17,3.46.36,2.31,6.51-3.47,4.71-4.62.72v3.62l-1.54,1.45,2.31,5.07-4.23,1.45-5.01.36.77-.72.77-4.34-2.7-.72,3.08-5.79-1.93-1.09.39-3.62-3.08-1.09-1.16-6.51h-.77v18.82l-3.08,1.81,1.93,2.17v1.09l2.7,2.53-3.08,6.15,1.15,3.62,4.62,5.07,4.62-4.34-3.08.36-.77-1.81,4.62-1.09-3.46-1.45v-3.62l-1.93-1.81,3.85-1.81,5.78,1.45-2.31,1.09-.39,2.17-1.93,1.45,2.31,1.09,3.85-.36v3.98l7.7,3.98-5.39,5.79-4.23,2.17,5.01,5.79-2.31,1.09-1.54,5.43h4.23v1.81l2.7,1.81-1.54,1.81,5.01-1.09-.39,3.98-6.16,5.43-3.08-.72-8.09,1.09h-8.47l-2.7,1.81-8.86-.72-1.93,1.09h-10.01l-5.01-1.45h-3.85l-3.46-4.7ZM973.67,398.36l-.39-5.43-5.78-6.15.39-5.43-3.46.36,2.31,4.34v2.9l2.31,2.17-.39,3.62,2.31.36.38,3.26h2.31ZM971.74,428.4l-.77-2.9,1.16-4.34-2.7-3.98,4.24-5.07v-2.17l-4.62,3.98-1.54,3.26,1.16,8.33h-1.54l.38,2.53h2.31l1.93.36ZM973.67,384.97v-4.71h-2.31l.39,1.81,1.93,2.9ZM971.36,407.41l1.54-3.98-.39-2.53-1.16,1.09v5.43ZM972.51,366.87h1.54l-.39-2.53-1.16,1.45v1.09ZM986.37,438.54l1.92,1.45,3.08.36,4.24,2.53,1.93-1.45,9.24.36,5.39-2.17-1.15-3.98,1.15-4.34v-5.79l2.7-.72,1.54-3.62-4.24-1.81.39-12.31,1.16-2.9-.39-1.81,1.54-5.07-1.15-.72-1.54-7.24.39-14.12,1.54-2.9-.38-3.98.77-.72v-6.15l1.54-3.26v-8.69l.77-.72-1.15-1.45,2.7-4.71-1.54-1.09.39-5.07,1.54-2.17,2.31-10.13,8.86-9.05,1.93.36,9.62-4.34,3.47-.36,3.08-3.62,2.31-6.88-.38-5.07,1.15-7.96-1.54-2.53,1.16-4.71-1.16-7.24h-14.25l-1.54,1.09-10.01,10.5-13.09.36-2.31-1.45-.38-3.62-2.31-6.88-9.63-.36-3.85,13.03,1.16,3.98-8.86,2.53.38,1.45,5.39-.36.39,2.17-3.08.72-.77,1.81,3.46-1.09v4.71l-6.16-.36-1.93-1.81-3.08-.72.77,7.6,2.31-.72,6.93,1.45v2.17l-1.16,1.09-1.16-1.09-1.54,1.09,3.85,3.62-2.31,14.84.39,7.96-1.16,1.81v3.62l-2.31,4.34-4.23-1.09v1.45l3.85.36v17.37l-1.16,1.45.39,1.81-1.16,3.62v7.6l-1.93,11.58.77,3.62-2.7,12.31.77,2.17-1.54,1.09.77,7.96-.77,7.96,1.15,3.62-1.15,4.71,3.46,3.26,6.16,1.45ZM980.98,310.77h1.16v-1.81l-1.16,1.09v.72ZM980.98,321.63l2.31.36v-2.9l-2.31-.36v2.9ZM988.68,302.45l-5.01,2.53,1.93-2.53h3.08ZM984.45,275.66l1.54-1.09h-1.54v1.09ZM1012.17,467.86h1.54v-1.45h-1.54v1.45ZM1016.02,418.99l.77-2.53-1.54.36.77,2.17ZM1032.96,382.07l1.93-1.81,3.08-1.09-1.93-1.45,1.93-3.26,3.08-.72-2.31-2.17.77-5.79-1.15-3.62-.77,2.17-1.92,1.81-2.31-5.79-3.08.72v19.55l2.7,1.45ZM1035.66,467.49l2.31-1.09h-1.93l-.38,1.09ZM1038.74,457.36h1.16l-1.93-1.09.77,1.09ZM1041.05,405.6h1.54l-.38-1.09-2.31-.36,1.16,1.45ZM1044.9,443.6h.77v-.72h-1.93l1.16.72ZM1047.59,323.08l5.01,1.45,1.93-1.09,1.54,1.09,1.54-1.09-.38-2.53-7.32-2.53-5.01,3.26.77,1.81,1.93-.36ZM1051.06,330.68h1.16v-1.81h-1.16v1.81ZM1072.24,351.31l-.39-5.07,2.31-.72,4.62-3.62.77-1.45,3.08-.36,1.16-3.98h3.08l-.38-.72-4.62,1.09-3.47-1.45-3.08,1.45h-6.93l-6.55-5.79h-1.16l.77,1.45-4.62,3.98,1.16,3.62,1.16.72.77,3.26,4.62,4.71,5.78,1.09,1.93,1.81ZM1070.7,309.32l4.62.72,1.54-1.09-4.23-1.09-1.54-1.81,4.24.72,4.62-1.45-1.54-1.09v-1.45h-3.08l-.39-1.45-2.31-1.45-2.7-4.71-2.31,6.88.38,3.26-1.15,5.43,3.85-1.45ZM1083.4,315.48h1.54l-2.7-1.09,1.16,1.09ZM1086.1,344.07v-2.53h-1.15l1.15,2.53ZM1086.87,310.77l1.16-.72v-1.09h-1.16v1.81ZM1088.41,330.32l1.16-2.9-1.54-1.45-.38,1.81.77,2.53Z"/><path class="cls-1" d="M1133.84,486.68l-6.16-.72-2.7-1.45-3.85-.36-1.54-6.88-1.54-2.17v-1.45l-3.08-5.79-.77-3.98-2.7-1.81,1.54-5.07-3.85-3.26-1.93-3.62-5.78-2.17-5.78-10.13.77-1.45-1.54-3.98.77-27.15.77-1.09-1.54-8.69-1.16-2.17,1.54-7.96-.77-7.96.77-.72-1.54-4.34.77-5.07,3.08-1.45-4.24-3.26,1.16-5.07-1.16-2.9,1.16-4.71-.38-1.81,2.7-5.79-4.62-3.26,1.93-7.96,1.15-1.09-2.31-5.79v-23.53l-1.93-3.26,1.16-3.62v-4.34l1.93-15.56v-7.6l-3.08-12.31,1.54-3.62v-14.12l2.31-13.39-1.16-4.71.39-5.07,1.54-4.34-1.16-5.07,1.54-6.88,1.54-2.53,3.46-1.45,2.31,2.17,6.16,2.17,6.16,5.07,2.7-2.53,6.16,3.62,12.32-2.9h5.78l.39,1.09,3.46-1.09,6.55,7.6,5.78,9.41,4.62,2.53,3.08,3.98,7.7,6.15,1.16,6.51,1.16.72-1.16,3.62,1.93-1.09.38,2.9,5.78,4.34-2.31,5.43-1.93,1.81.77,2.9-1.54,4.34,1.93,2.17.38,1.81,3.85,1.09,4.24-.36,9.62,2.9h5.39l7.7,5.79,7.7,9.41,3.08,5.43,16.17,23.16-.38,5.43-3.08,2.53-1.93,6.88-3.08,4.34-3.46,11.22-5.01,2.17.77,2.17-2.7,6.15-1.16.72-1.93,10.13-5,7.24v3.26l-1.54,1.09,1.93.72-.77,9.41.77,2.53,3.08,1.81,1.16,4.71,2.31,15.2h3.08l3.46,10.86,2.31,1.81,1.93,4.34,1.54,1.09,3.08,5.79,1.54,7.24,3.85,7.6,1.93,6.15,4.62,7.24,1.15,5.43,1.93,2.17v2.9l6.16,3.26-1.93,5.43-2.7,1.09h-4.24l1.93-1.45-3.85-1.81-3.46,2.17-3.08-1.09-3.08,1.45-2.7-.72-3.85.72-1.93-2.9-19.25-.36-1.54,3.26-3.46-.36-1.93-1.81-2.7-1.09-2.7,2.9h-2.31l-5.78-2.17-1.54,1.81-3.08-2.17-.77-2.17h-1.16l-1.54-1.81-1.93,1.81.77,2.53-1.93,4.34v2.9l-3.85-.36-1.16.72-8.47-2.53-4.23,1.81-4.24-2.9-1.16,2.9-3.46-1.09h-10.4l-4.62,1.09ZM1096.87,337.55h.77l-.77-1.81v1.81ZM1111.89,441.8l1.93-2.53h4.23l5.39,1.81,10.01-2.9-.77-7.6,2.7-14.48,1.54-11.94v-14.48l-1.15-5.07.77-3.62-1.54-8.33,3.85-2.9,5.01,2.17,2.7,5.07,1.93,1.81,2.7,15.93,5.01,8.69,1.54.36-.39,3.62,5.39,10.13,1.54,7.6,3.46,5.79,3.85-1.09,8.47.72,2.31-1.09,1.92.36,3.85,3.26,2.7,1.09,7.32-1.09,3.08-1.45-.39-3.26-4.23-9.77-5.01-2.9-.77-7.24-5.01-3.98-1.93-5.79.77-.72-5.78-7.96.39-3.62-8.09-11.94-5.39-14.12-.39-3.98-2.31-5.07-3.08-11.22,1.93-9.41,1.16-1.81,3.85-2.9,3.46-5.79,1.93-1.45,1.93-3.62.39-3.62,3.46-5.07,5.01-14.48,2.7-2.53,1.16-8.32-5.01-2.17-6.55-.36-7.32-2.17-10.4,1.09v6.51l-3.08,10.5-1.93,1.45-1.54,7.96-2.31,6.51-2.31,14.48-6.16,7.24-8.47-2.9-1.16-7.96,1.16-6.15-.39-8.69,1.16-1.09v-5.43l1.54-2.9,1.16-5.79-.77-6.15,3.08-11.94-.77-4.71v-11.58l1.16-2.17-1.54-6.15.38-2.9-1.15-2.53,1.15-7.6,1.16-20.27.77-3.26-8.86-1.81-3.85-3.98-5.39,3.26-1.16,1.81-2.7-3.98-3.85,1.81-6.16-2.17-5.01,11.94,3.85,3.98-1.15,9.05.77,20.63-2.31,13.75,1.16,1.45.77,7.6-.77,10.13-1.54,2.17v6.52l-1.54,2.53.39,3.26-2.7,5.07,1.54,11.94,4.24,1.09-3.85,2.9,2.7.72-2.7,5.79,1.93,9.05-.39,3.26.77,1.81-3.08,3.62,1.54,1.45,1.16,4.71-3.08,4.71,1.93,1.45v6.15l3.08,14.48-.77,6.52.77,1.09-2.31,6.88,1.54,2.53v19.18l1.16,3.26.77,13.03-.38,5.43,5.39,3.62,1.16,2.17ZM1125.75,475.82l15.4-1.81.39-3.62-8.47-5.43-1.16-1.81-3.47-1.81v-2.9l1.54-1.09-4.62-2.17-.39-2.9-8.47-3.26v5.79l4.62,1.81.77,3.62-1.93,4.71,2.7,2.53-1.54,4.71,4.62,3.62ZM1146.54,215.94l1.16-1.09-1.16-1.09v2.17ZM1153.47,474.01l9.63,1.45-2.7-3.98,1.93-2.53-3.85-1.45-4.62-3.26v-3.26l2.31-1.09-8.47-2.17v5.07h1.93l-.77,1.45,1.54,9.41,3.08.36ZM1177.35,344.79v-1.81l-1.16-1.09,3.08-1.81-.77-.72,1.54-5.43-1.16-.36-1.54,2.17h-.77l-1.16,1.81h-3.08l1.16,5.43,3.85,1.81ZM1176.58,444.33h2.7l-6.93-3.98v4.34l4.24-.36ZM1242.8,477.27h2.31l-.77-5.07-3.85-4.71-1.54-.72-1.54-4.34-.77,2.9-3.46-1.45-1.16,2.17h-1.93l-8.86-5.79-4.24.36-1.16-3.98-1.93-2.53-.38-5.07-1.93-3.62h-3.08l-6.55,2.53-2.31,5.79-5.39,1.45-2.31,3.62,4.24,1.45-1.93,5.07-5.39-.36v-3.62h-2.31l-.77-2.9,6.55-.36-1.93-3.62-.77-5.07-3.47,1.81-2.31-1.09v-3.26h1.54l2.31,2.53,3.85-2.9-10.01-2.53-.77,5.79-1.16-2.9h-2.31l1.93,3.26,4.62,13.75-.39,2.17,3.47,2.17-.77,1.09.39,3.26,6.16-1.45,5,1.81h2.7l1.93,1.81,3.08-1.81,6.55-1.09,12.71,2.53,3.08,2.53,3.08-5.43,1.54,2.53,2.31,1.09,1.16,2.17,4.62-.36,2.31.36ZM1186.59,378.45l.77-2.17-.38-2.53-2.31-.72,1.93,5.43ZM1191.21,315.48l2.31-.36.38-1.45-2.7,1.81ZM1196.6,304.98l1.15-.72,1.54-4.34-1.54-1.09v2.17l-4.23,2.53,3.08,1.45ZM1195.06,339.73l2.31-1.09v-1.09l-1.93-.36-.39,2.53ZM1208.92,301.72l7.7-1.81v-1.81l-2.31-3.26.77-2.17-2.7-1.81-2.31-5.43-5.39-1.81-.77,4.71-4.62-.72-.77,4.71,1.93,1.09-3.08,3.62,5-1.09,5.78,5.43.77.36ZM1197.37,333.21l3.08-2.53-1.54-.72-1.54,3.26ZM1201.22,375.56l-2.7-2.9v4.71l2.7-1.81ZM1207.76,358.55l1.93-4.71h-2.7l-1.54,2.9,2.31,1.81ZM1210.07,344.79h1.54l1.93-2.53-1.93-1.09-1.54,1.09v2.53ZM1210.07,347.69h1.54v-1.09h-1.54v1.09ZM1219.7,428.76l1.16-2.53h-7.32l.38,2.53h5.78ZM1217.77,328.51l1.16.36-.39-3.98h-.77v3.62ZM1219.7,438.54l1.54-3.98-1.16-1.09-1.93,1.45-.39,3.26,1.93.36ZM1219.31,321.99l.77-3.62-1.93,3.26,1.16.36ZM1233.18,455.91l1.54-1.09h-1.54v1.09Z"/></svg>