<?xml version="1.0" encoding="UTF-8"?><svg id="Layer_1" xmlns="http://www.w3.org/2000/svg" viewBox="0 0 1336.1 599.42"><defs><style>.cls-1{fill:#fff;}</style></defs><path class="cls-1" d="M168,223.33l.8-.2v-.8l.4,4.82-1.81.8.4,1.4.2,6.62-.8,1.4-2.61-.2-.6-.4-3.01.4-4.01-.2h.2l-5.02-.4-1.4.6-.6,2.41.4,2.01,1.2,1.4-.6,1h1.2l.2.6,1.81.6,1.81,2.21,1.41-.8.8,1,1.2,3.41,1.61.4-1,1.81,1.6.4-.2.4,2.61,1.41h2.61v1.2l-.6.8,1.81,1.6,1.4.2-.6,1.81-.4,4.21-1.4,2.81-2.21-.4.6,2.41.8.2.2,3.81-.8,2.61-.2,2.81.4.8-1,3.41-2.81,1.2-1.41-.6-2.81,1.4-2.81-.4-2.81.6-.8.6-2.41.6-1.81,1.2v1.81l-1,1.4.8,4.42,1.2,3.01h2.21l.4.8,3.61.4-.2,1.4,1.61,1.41,2.21.2,1.2,2.81,2.41,2.81,2.21,1,2.41.2v1.81l1.81-.2v1l1.61,2.21,1.4-.8,2.01,1.2v1.2l1,2.21-1,1.6-.4,4.62-.6,1-.2,4.62-.6,1.2.2.6-1.2,3.01.2,2.01-1.61,5.02-1,1.81-2.01-2.21-1.6,1,1.2,1-1.4.4h-10.84l-1.81-.6-2.81.4-3.61-.8-4.01.4-1.2-.8-2.21-.2-1.2.4-3.41-.6-3.41.2-1.4-.4-6.42.6-4.62-1.4-.8-1.41-1,1.2v-1.61l-.8-.4.4-2.41-3.01.6-1-3.41.8-.8-1.81-2.61-2.21-1.41-2.41-5.22-4.42-1.61v-3.41l1.2-3.21-.6-.4,2.21-.6-1.81-3.41.4-1.2-.2-2.61.6-1-1.2-.2,1.61-4.82-.4-3.41,2.01-1.2-.8-.4v-3.41l1.81-1-1-1.2-2.01.2v-1l1.2-1.41-.6-.6v-12.04l2.01,1.2,1.81-.2-1.2,3.41h1.61v2.21l-1.61.2.6,4.62,1.61-.2-.2,2.61-1.6,1.4v1.2l1.41,2.61-.4.2-.2,2.61-3.61,1.4,1.2.4,1.6-.2v1l1.2.8-1.4,1.41,1,1.2-.2.8-1.6-.2,2.21,2.61-1.61,2.21h1.61l.2,6.42h1.6l.6.6,3.41-.8,5.02.6v.4l3.01-.4,5.42.4,3.41,1,1.61-.8,3.21.4,4.82-1,4.41.4,1.41-2.61,2.01-1.2v-4.42l-.8-1.81,1.81-1.4-.8-2.21-.8.2-2.01,2.61-2.81-.4-3.81-1.4-.8.4-2.61-.4-2.81.2-1.2-1-3.81-.8-3.81.2v-2.01l-.8-2.01.2-3.01-1-1.2,2.81-.6-1-1.2-.8-2.21,1.2-.8.4-1.2-1-3.81,1.4-2.01-1,.4-.8-2.21,3.01-.6-.4-.6-1.6-.6,1-1-1.41-3.61.8-4.42-1-1.6,2.01-.2,4.01-2.81,1.6-.2,2.01.4,2.41-.4.6-1.2h3.61l2.21-2.21h1v-1.2l.4-.4.2-2.01.8-.2.6-2.41h-.2l1-2.01-.8-1.61.8-1.2.2-2.61-1.2-1.81.8-2.01-2.01-.2.4-.6-2.41,1.61-1.61-1.4h-.6l-2.01-2.01-3.21,1.81-3.01.4-1.2-2.21-.6,2.41-1.4-.6-3.41.6-3.21-2.01.2-2.61,1.6-.8-.4-4.62.8-1.81-.8-2.41.4-2.01,2.21,1.4-.4-2.01-1.4-1,3.41-1.61-.8-2.41-.6-.6-.8,1.61-2.01-1.81.2-3.01.6-1v-2.61l5.62-1.81,7.02-1,2.21.2,1.61-.6,1,.4,4.21-1.81,3.41-.4.8-1.2-.2-2.41,1.6-2.01-.8-1,.8-1-1.2-1,2.01-1v-1.81l1.4-1.61v-1.4l-.4,1.2-2.61.4-2.41-.4-2.01.2-1.2,1.81h-3.41l-1.4-3.01,1.2-.8,2.01,1,6.82-.6.4-2.01,2.81-.8,1.2.8,2.81-.8-.6,2.21-1.81,1.2,1.61,1.2,1.2,2.61.6,2.61,2.81-.8,1.61,1.2-.2,1.61,2.01,2.01-.2,1.4,1.41,1.4,2.41,1.41h1l3.21,3.01-1.2,5.02-1.61,4.01v-.6l-1.4-.8-.8.6,1.4,1.81ZM102.38,310.42l.8-2.21-.6.8-.2,1.4ZM103.78,266.27l1.2-1.41-1.81-.8.2-.6,1.4-.2,1.41-1.61-.8-.6,1.61-2.21-1.4.8-2.01-1.41,2.61-3.21,1.41-1,1.2,2.01v1.41l.8.6-.8,9.43-1,.6-1.4,2.41-.2,1.4-1.2.4-1.2-4.01v-2.01ZM103.78,248.62l2.01-.6-.6-.8,1.2-.6-1.4-2.61.8-2.41h1.2l.6.8,2.01.6-1.41,2.41.4,1.61-.4,3.41h-.4l-.2-1.81-1.81-.2.4,2.61-1.2-1-1.2-1.4ZM105.79,235.77l1.2-1.2v-.6h-1.2l.4-1-1.41-3.81h1.41l.8,1.2h1.81v4.21l-.6,3.01-1.41-.8-1-1ZM106.19,295.17v-.6h-1l1,.6ZM106.59,198.05l3.41-3.01.8,3.61.6-1.61,2.01-2.01,2.61-.6,1.61,2.01-1.4,3.01-.4-.6-.2,1h-2.21l-1.81-.6-1.61,1-1.81-.4-2.01.4-.8-2.01,1.2-.2ZM107.59,266.68v-1.2l-1.61.2,1.61,1ZM119.03,336.51l1.4-1.61-1.6-3.01v1.81l-.6.6.8,2.21ZM124.45,195.24l2.81-.2v-.6l.6-.4,2.81,3.41h1.61v1l-3.81-.2-.2-1.81h-.6l-1,1.4-1.2.8-1.6-3.21.6-.2ZM124.65,272.5h.6v-.6h-.6v.6ZM125.25,275.31l1.4-.2.2-.4-1.6.6ZM131.68,239.59l1-.4.2-3.81h-2.01l-.2,1.2-1,1.6,2.01,1.41ZM132.28,296.98v-1.2l-1.41-1.2-.6.6-.2,1.6,2.21.2ZM134.08,225.14l1-1-.4-1.81-2.21-.8.2-2.01h-1.2l-1.2,2.01,1.4,2.01,2.41,1.61ZM130.87,331.69l1-.2-.2-1.81-1,.6.2,1.41ZM134.69,278.72h.8l.4-1.2-1.2-2.01h-3.21l.2,1.81h2.21l.8,1.4ZM132.68,242.19v-.6l-1-.6v1.2h1ZM131.68,327.28l.6-.6h-.6v.6ZM132.28,294.57h.4v-.8h-.4v.8ZM133.28,290.56h.8l-.8-.4v.4ZM134.08,220.92h.6v-.8h-.6v.8ZM134.69,282.53h.6v-.6h-.6v.6ZM134.69,293.77h.6v-.6l-.6.6ZM135.29,227.95l.8-.2-.4-1.2-.4,1.41ZM136.69,288.15l.8-.8-.8-1.2-.8.8.8.6v.6ZM135.89,290.16h.8v-.6l-.8.6ZM139.5,338.12v-2.41l-1.81-3.01-1.61,1.6,1.2,1,.6,1.61,1.61,1.2ZM137.09,328.48l.8,2.81,3.01.4-.8-.6h-1.6l-.6-1.81h3.21l-2.81-1-1-2.01-1,1.2.8,1ZM139.7,227.75h2.41l-.6-2.21,1.2-1.6-.4-.6.6-2.41-2.61-3.41-.8.4-2.41-.4-.6.8,2.61,7.02.6.6v1.81ZM136.69,282.53l.6-.6v-.8h-.8l.2,1.4ZM139.5,272.09l.2-1.6-1.4.2.2,1.4h1ZM139.1,294.97l2.21-2.21-.4-2.21,1.4-.8-2.01-2.01-.2,2.61-1.4-.2-.4,3.61.8,1.2ZM139.1,280.72l2.61-2.61-.2-1.2,1.2-1.4h.6l-.2-1.41-2.01,2.01-.2-3.01-.6-.6.2,5.22-.8,1.81-.6,1.2ZM140.3,285.54v-1l-.6.6.6.4ZM142.31,230.35l1-.4,1.4-1.61-2.41.8v1.2ZM143.32,280.52v-.4h-1l1,.4ZM144.72,278.11l.6-.6-.6-1.2-1.4,1.2,1.4.6ZM144.12,327.28l.6-.6v-.8l-1.4.2.8.6v.6ZM146.33,274.1l3.41-1.6-2.21-.6-.6-1.2-3.01-2.41,1.6,4.41.8,1.4ZM144.72,220.92v-.8h-.6l.6.8ZM144.72,223.93h1.2v-.8l-1.81.2.6.6ZM146.73,227.95l.6-.8h-.6v.8ZM147.33,230.35l.4-.8h-1l.6.8ZM147.73,334.1l1.61-1.4-2.61-2.61v1.2l1,2.81ZM157.76,232.36l3.81-.4.4-1.81.8-1.2-1-.6-.4-1.2-1.61.8-.2-.8,2.01-1,3.21-.4-1.81-2.01,1.81-5.02-.6-1-.4-3.21h.4l-1.81-3.61-.6-.2-.6,2.01-1.61.2-.4-2.61.6-1.41-1-.4-1-1.61-.6.4-.6,2.21-.2,5.62h-2.01l-1-.6-3.81.2.2,2.41-1.4,1.4,2.01,1-.6.6.6.8-.6.4-2.61-1.2,1,4.62,1.41,1,1-2.01h1.2l-1.4,2.21,2.21,1.2h4.21v1.2l-4.01.6.6,2.61h2.81l1.61.8ZM153.75,338.72l2.81-2.61-1.2-6.02v-4.21l-1.2-.6-.6-1.2,1.41-1.61-.2-2.21h-1.4l-2.21-1.2-1,2.81-1.81,1.6.4,1.61,1.81.8,1.2,1.2,1.2,3.01-2.01,2.61,2.81,1-1.4.4v2.01l-1.2,1.2,2.61.4v1ZM148.33,329.09h1v-1.4l-1,1.4ZM149.13,338.72l.6-1.41-.6.4v1ZM151.14,335.31h.6l-.6-.6h-1.6l1.6.6ZM150.34,265.47l2.01-.2v-1.2l.6-.4-1.2-1.4-1.61.4-.4,1.4.6,1v.4ZM151.74,254.03l.6.2.4-2.61,1-1-.2-2.21-1,.6-.2,2.01-1,.6-1,1.4,1.4,1ZM152.75,260.86l-.8-2.81-1.41,1.81,2.21,1ZM152.14,270.49l2.21-.6-.2-2.21-1.81,1.4h-1.2l1,1.41ZM153.35,280.72l2.81-1.2v.6h2.81l.6-1.81.8-.6-2.61-4.62,1.61-1.4-1.61.2-.2,1-4.01,1,1.6-.2-.4,1.81-1,.6-2.01,2.41,1.61,2.21ZM153.95,273.3l-1-2.41-1,1.81,2.01.6ZM153.75,331.09l.2.6-1.2.6-.4-.8,1.4-.4ZM153.55,224.53l.6,1.41h-1.4l-.2-1.41h1ZM153.75,312.83l2.81-1-.4-1.81-2.41-1.2-1,3.21,1,.8ZM153.75,321.66v.6l-1-.6h1ZM164.79,328.28l1.81-1.6-1.41-1.41-1.2,1.81-1.61-1,1.2-2.61-1.2-.8,2.41-1.81,1.2.2.4-2.21-1.61-.6-2.01-2.41-2.21-.6-1.41-1.81-4.82,1.61,2.61-.6,2.81,1.2v1.81l3.61,3.81-1.4,1.61-1,4.41,1.6.2-.4,1,2.61-.2ZM155.36,235.97h.8v-1.41h-.8l-.6.8.6.6ZM161.58,274.7l3.81-3.41-2.61-2.21v-1.2l1.2-2.81,1.4,1.2.8-.6-2.61-4.01v-1.61l-1.81-1.4-.6.2-.6-1-3.21-2.21-2.21,2.21,1.61,4.62-2.01,1.4v2.21l1.61.2v-2.21l1.2-.4,1,1.81,2.61,2.41-1.41,1,1.41,1.61h1.2l.4.6-.4,2.01-.6.6-.2,1ZM157.36,325.27l2.81-1-1.61-4.01-2.41.4,1.61,4.01-.4.6ZM156.76,330.29h1.2l-.2-1.6-1-.2v1.81ZM157.16,331.29l2.61.4v-.6h-.8l-1.81.2ZM160.37,339.12l2.41-.4-.4-4.01-1,.4-.8,2.21-1.6,1.41,1.4.4ZM159.17,335.31l.6-.6h-.6v.6ZM162.78,217.11v1.2l-.4-.8.4-.4ZM165.39,215.91l.8-.8h-.8v.8ZM168.8,216.11l1-1h-.6l-.4,1Z"/><path class="cls-1" d="M233.21,343.74l-3.81-.2-2.01-1.81,1-1-2.21,1.2-2.01-1-3.81-3.01-2.21-.6-2.61-1.6-1.81,2.01-1.4.4-.4.6h-1.4l-1-1.2-4.01,2.41-1.2-1.2-4.62.4-.2-.4h-2.21l-6.42-4.01-5.22-2.21-1.81-2.61-3.81-3.41-.4-1.41-2.81-1.81-3.61-3.61-1-3.01-2.01-2.01v-1.2l-3.01-6.82v-1.81l-1.41-2.81-.2-2.21.6-7.42.4-.6-.4-8.83,1.4-.8,1.61-4.82,1.4-2.81,3.81-3.61-4.82-8.63-1.61.2-1.61,3.61-1.81-2.21-1.61-7.83,2.21-7.42,2.41-3.81v-2.01l2.61-4.21h1l1-3.01,1-1.4,2.61-1.81,2.61-3.61,3.61-.8,2.21-2.81h1.61l6.42-1.2.4.6,1.2-1.2,1.6.2,2.61-1,.6-1,1,.6h1.4l-1,1.61,4.21-1,3.81,1.2,2.21,1.2,4.01.8,1,1,2.01.6,2.41,2.01h1.81l1.6,3.01,2.61,2.81-.2,1.81,1.2,1.41.8,2.01,3.81,1.81-.2,4.01,2.21,1,1,1.41-.6,1.61h.6l1.81,2.01-.4.4,1.41.8,1.2,5.22-.4,4.42,1,1-.2,1.81.6,2.61v7.63l.6,1-.8,3.41.4,10.23-2.81,11.44,1,2.41-.2,2.01,2.41-.2,1.4,2.01-.2,1,2.81,2.01,2.21-.4v2.21l.6.6-.8.8h-1.4l-1.2-1.41h-1.4l-2.21,2.41,1.6,2.21,2.41.8v.8l-.6.8v1.41l-2.01-.4-1.81,2.21v3.01l.8,1.4-1,1,1,1.2.6,2.21,1,.2v-1.81l1.81-1.4.2-1.81,1.2-2.21.2-4.82,1.6-.4.8,3.21-.8.6.8.4-1.2,3.21v1.81l-1,4.01-1,2.21.2,1.4-2.01,2.41-1,3.21-1,.4-2.01,2.81-1.2-1-2.21-.8-2.01-.4ZM188.26,321.66l6.22.6,2.21-.4,2.61-1.61,2.21-.6,2.01-3.81,2.01-.8h2.21l1.2-.6,2.21,2.81,3.21,2.01,3.01,1,3.81,2.01,1.41-.4,2.21.6-.2-3.21,1.81-3.21,1.81.4.4-2.41,2.41-5.42-1-.6-.6-3.01-8.83-4.82h-1.81l.6-3.81-.6-8.43.2-6.82-.6-3.61,1.2-2.41-.6-2.21.4-3.41.4-.2,1,1-.4-.6-.6-5.42,1.41.2-1.41-4.21,1-1.2-.2-9.03-1.2-4.01.4-1.2-.2-5.22-1.81-2.21-.6-1.81-4.82-7.42h-1.4l-6.82-3.61-10.84,2.41-7.63,2.41-1.81,2.21-6.42,6.22-5.02,7.42v2.81l-2.41,5.02-1,.2v4.01l6.82-.6,3.21.4,2.61,1.61,5.62-.6,2.81-5.62,1-.8.4-1.81,6.02-1,1.41-1.2,2.41,1.4,2.41.6,1.2,3.21-1.2,6.82-2.61,2.21-5.22,3.01-2.81,3.01-8.83,3.81-4.42,1-1.2,1.4-1.4.8-3.41,6.02-1,1-.2,2.41-.6.8-.6,3.61.4,1-.4,3.41.6.4-.6,3.61v3.81l.8,3.41.8,1.2,1.4,5.22,1.41,1,.6,1.6,3.21,4.62,2.01.6,3.41,2.81,3.21.2ZM204.52,335.51l4.21-.2,1-1.2.6.8.2-1-2.41-3.41-1.41,2.01v1.2l-2.41-.2-2.01.4-4.62-2.21.6-1-3.61-3.41-4.21-.2-3.21-1,1.4,2.41,3.01.8,3.01,1.61,3.01,2.61,2.61.6.8.8,1.41-.2,2.01.8ZM190.07,303.8v-1l-1.2-.6-1-2.61.4-2.41-.4-2.21,2.41-3.61,1.81-3.81,4.62-2.41,1,.2,1.61-1.41,3.61-.2v2.01l1.4,1.2.6,7.43-1.2,1.61-.8,6.22-2.01,1.81-.6,1.2-1.61,1.2-2.81.2-4.01-.8-1.81-2.01ZM195.49,302h1.41l1.4-3.81-3.01-3.21v-1.81l-.6-.6-.4.6.2,2.41-2.01,1v1.81l1.41,2.81,1.6.8ZM195.89,253.43l2.81-.4.2-1.2-3.21.8.2.8ZM205.12,328.89l2.81.2,1.81-1.4.6,1h2.21l-.2-4.21-.6-1.4-.6.4v3.21h-.8l-.6-.6-2.01,2.41-2.61.4ZM205.32,324.67h1.4v-.6l-1.4.6ZM219.37,328.68v-.6h-.6l.6.6ZM228,262.66l.4,3.81,1.41-1.41-1.41-2.01.8-.6.4-1.41,1.2.8.2-1.81-.2-7.02,1.2-2.81-2.01-1.81-3.81-5.82-1.81,2.01.8,3.41,1.6,2.01h.8l2.61,1.61-1,.8v2.01l-1,6.02-.2,2.21ZM225.79,331.69l3.61-1.41.8-2.21,1.81-.8-.2-3.61.6-5.02,1-2.21-1.6.2-1.81,2.61-1.61,5.02-.4-.2-2.01,5.82-.2,1.81ZM228,269.29l.8,1.2.6-3.01-.4-.6-1.61.6.6,1.81ZM230.81,338.52l5.42,1.4,1.81-1.2.2-2.01-.4-1-2.61,1.2-2.01-.2v-.6l-1-.4-2.21.4-.4,1.61,1.2.8ZM230.81,333.7v-.6h-1l1,.6ZM233.21,278.92l1.2-1.4-.2-.8-1.61.2v1.2l.6.8ZM233.82,343.13h.6l-.6-.6v.6ZM240.84,335.51h.4v-.6l-.4.6Z"/><path class="cls-1" d="M282.58,338.32l-3.41-2.21-7.02-3.01-.8-1.2-5.62-3.41-1.4-3.01-6.02-6.22-1.61-2.41-.6-2.41-1.6-3.21.4-.8-1.4-2.01-1.2-7.22-.4-5.02.4-1.2-1.41-4.01v-16.86l.6-1.81-.6-2.41-.2-7.02-1.4-2.21-.4-3.21-2.01-2.01-2.01-4.01-3.01-4.21v-1.4l.8-.8,2.01-10.23.2-5.82,1-2.41v-1l1.6-.4,2.01-1.4,3.21-.8,2.81-1.41-1-2.01.4-1.81v-9.63l.4-1.41-.4-2.41.6.4,3.01-1.4,3.01.2,1.2-1.2h3.21l.4.6h3.21l.8,1,1.61-1,3.81.4,3.01-.2,2.21,1.6h3.01l2.21,2.61v2.01l1.6.4v1.2l.6.8v1.2l2.61,2.21-.4,2.81.6,1.4,1.41.2.6,1.61.2-1.41.8-.4-.8-.6v-.8l-.8-1,1.81-1h1.4l.6,2.21,2.01,2.21v.8l.8.6-.8.6,2.01,3.01,1.4.2,6.02,4.01,2.01.4,2.01,2.41h1.2l3.81,3.81h2.01v5.42l-1.41,2.41-.6,3.61-.2,7.63-1,2.41-4.01,2.01-4.01.4-1.41.8-1-.2-3.81.8-.8,1.6v1.41l-.8,2.21v3.61l.6,2.61-2.81,1.2.2,1.41,1.2,1.81.4,8.03-.4,2.01.8.8-.6,2.41.2,1.61-2.01,5.22.8,2.41,2.61,4.62,1.61,1,3.21,5.82h1.2l.6-1.4,1.41,4.62,2.61,1.2,2.61,2.41-.2,6.22-1,2.01.2,2.01-1.2.6v1l-1,1.4,2.01,1.41-1,.6-2.61,3.41-1.81.2-1.4,2.21-2.61.2-1,.8-3.41,1.2-7.42-.4-5.02-1.81-2.81-.2-1.2-.6ZM276.16,321.86h1.61l.6-.6.4.8,1.61-.2.6-.6,5.42-1.6,4.41-2.61,2.01-4.01-.2-.6.8-2.61,1.4-1.2-5.02-8.43.2-.4-3.21-4.21-3.21,1.2-4.01-1.4-1.4-3.21-1,.8-1.4-3.81-.4-6.82h-1.4l1.2-9.83-.4-1.61.6-.8v-1l1-1.4.6.4,1.4-2.21.8-3.21-2.81,2.01-.4-.8.4-.6v-3.01l-.6-1.81.8-4.42,1.81,1.81.4,1.61-.4,2.21,2.01-.2.2-.8,2.21-.8,2.01-1.4.8.2,1.81-1.41h2.41l-1.4-1.81.8-2.61-1-.8-6.82.8-.8.8,1,1.4-5.02.2-1-2.01.4-2.21,1.6-.8,1.41-1.81,4.41.6,1.81-1.2,1.2,1h1l.8,1,1-1.2-.6-1.41,1.81-1.4-.4-2.01-1.2-2.01,1.41-3.01.4-4.21-.4-8.23-4.42.8-2.81-.6-2.01.2-1.81-.6-3.01-2.01-.2-.6,1.2-9.23-.8-4.21-2.61-.4-4.21-1.4-2.81.4-1.4-.4-1.61.8-1.81,3.81v3.41l-.6,1v4.82l-2.61,2.81,1.81,1.4-1,2.41-1,.4-2.61-.6-4.21.4.2,1.81-.6.6-.4,2.41-1.41.6v.6l1.61,1-1.2,1.81.2.6-.6,1,.2,2.41-1.4,1.4h1.2l-.4.8-1.61,1.2,3.41,1.61,2.41-1,3.41.2,1.4.8,1,1.2-1,1.2.2,8.03-1.41,1,.2,1.41-.4,2.01.2,1.81.8.2-.8,1.61.8.6-.8,1.41.6,3.61-.8,3.41.2,1.4-.8,5.62,1.61-.2-.4,1.2,1.61,4.82-.2,2.21-1,2.41v1.2l-1,.6,1.4,1.41-1.2,1.81.8.6-.6,1,1.2.4v1.2l.6.8-2.01,1.41,3.61,3.81,1,7.63,5.02,5.42,3.21,1.4,2.81,2.41h3.01l.6,1ZM259.5,207.88h.8l-.2-.6h-1.2l.6.6ZM278.97,328.68v-1.2l-1.41-1.2h-1.81l1.61,1.41,1.61,1ZM280.37,291.76h.8l1.4-1.2-1.2-.6-.4,1-.6.8ZM282.38,215.91v.8h1l.6-.6v.6l-.8.4.8,2.01,1-1.41,1.61-.4,1.81-2.61-3.01-1.81-1.4.2v2.41l.6-.2-.6.8v-.6l-1.61.4ZM284.59,278.11l1.4-.4-.6-1.2-.6-.2-.2,1.81ZM288.6,324.67l.6-.8-.8.6.2.2ZM290.4,250.82l1.2-.6h-1.2v.6ZM291.81,256.24v-1l-.8.6.8.4ZM298.23,254.23l1,.2-.2-1.61-3.41-1.81-2.21.2-.8.6,3.01-.2-.4,1,3.01,1.6ZM297.43,248.21l1.4.8.8-2.61.2-3.21-1.6-1.2,1-1.61-2.21-2.01h-2.21l-.8.6,1.2,1.2-1.2,1.61,1.4.6,1.2,2.01-.8,1.81v1.81l1.61.2ZM296.83,236.78l.6-.6-2.01-2.81,1.81-.2,1.6-1.2-1.6-5.02-2.61,1.81,1.6,1.4-1.41,3.41.2,2.81,1.81.4ZM301.04,314.84h.8l-1.4-.4.6.4ZM303.45,325.88l.8-.2-.8-.8v1ZM310.07,239.18l1.61-.4-1.2-1.41-.6.8.2,1ZM311.28,241.19l.2-.4h-1.6l1.41.4ZM309.87,243.2h.6v-.8l-.6.8Z"/><path class="cls-1" d="M339.37,335.71l-1.81-.6-1.81.8-1.2-2.41-2.41-.2-2.61-4.41-3.61-1.81-6.82-7.63-.8-3.21-1.6-1.6.2-6.62.6.4-.6-5.42-.6-.8.8-5.22-.4-1.41.2-2.41v-10.23l.4-1.4-.6-1.81.8-7.63-.4-3.81.6-1.61v-2.81l1-6.42v-19.67l1.2-2.41-.6-6.42.8-.8,1.2-2.81h2.41l3.01,2.01,5.02-.2-3.41-3.21v-3.01l-1.61-.8-.8-2.41-2.21-3.81-2.81-2.21-.4-3.21,2.21-1.81-2.41-.6-.4-2.81-.8-1.61.6-.8,1.61.2v-2.21l-.6-1v-2.01h1.2v1l.8,1.41.6-2.41h.8l-.8,3.01-1,.6,1.2,2.01-2.01,1,2.41,1.2.6,1.61,1.41,1.2.2,1,2.21,1.2,5.82.2,5.02.6,2.01.6.8-2.81v-3.01l1-1.41-1.6-3.21,1.2-2.81-1-3.61.2-2.41-.4-2.01.8-.8-1.6-1-6.62-.2-.6-1.81.4-.6,3.21.4,2.41-.4.8-.6h6.22l.2,1.2,1.41,1.2-.4,1.81,2.41.4-2.21,1.2,1.81,1.81,2.01.2.4,1,1.4.6.2.6,2.61.2.2,2.01,1.4.8v1l1.4,1.61.2,1.61,2.81,3.41,1.2,4.62,1.81,1.6v2.61l-1.2-.4.8,2.81-2.01,4.01v3.21l-1.2,1.81,1.41,1.81-.6,5.42-6.42,1.2-1.61-.6-2.61.4.4,2.41,3.41,4.82.4,1.41,2.21,1.2,2.61,4.01,2.41,1.6,1.2,2.41-.6,3.01.2,4.62-.6,2.01-.4,4.62-1.41,2.21,1.2,2.81v1.41l1,2.81v1.81l-2.01,4.62.4,1.81h1.2l-.2,1.4.4,1.61-.8,1.2v4.42l-1.2,1.2,1.41,2.21-1.81,1.2,1.61,1.2.6,4.21-.8,3.41-1.41,3.21,1.61,3.41v13.04l-.6.6-.2,4.82-2.01,1.4,2.01.4v1.6l.8,1.61-1.2.6-1.6,1.81-7.22-1.6-6.42-.2-1.41.8-1.81-.6h-2.41l-1.4.2ZM322.31,183.8l3.41-.4,4.41,1-.2,2.21-1.41-.2-2.21-1.2-2.61,1.6-.2,1.61-1.6-.6-2.01,1.41.8-4.01,1.61-1.41ZM333.55,313.23l1.2.4,4.41-.4,1.41-2.01.2-3.61.6-.6.6-3.01-1-1-.6-3.61.2-3.61.8-1.2-.2-1.2.8-1.61-.6-5.02v-11.64l.4-.6-.8-1.2.4-2.61-.4-.6.4-4.62,3.21-.6,1.6.6,2.41-.6-.4-1.6-3.01.4-.8-1.4-2.81,2.21-.4-1.2.8-1.41-.6-.8-.6-7.42v-11.24l-.6-1.81.6-2.21v-3.61l-2.61-.6-1.2-.8-5.02.4-2.21-1.2h-1.61l-1-1h-1l-1.61,4.01.8,2.61-.8,2.61-1,1.6,1.41.8v2.81l-1.2,2.01,1.4,1.61-.2,4.82,1,.8-1.6.8.2,2.01-1.6,1.61.8.6-1,.8.6,4.42,1.2,3.81-2.61,2.61,1,1.2.4,2.01-1,1.4.2,3.21.8,2.21-1.41,2.61.4,2.81-.2,3.01,1.2,3.01h-1.41l-.6.4,1.6,4.42-.8,3.41,1.4,8.83,1,.6,5.62,2.01,3.41.2ZM326.12,320.66l2.01,1.4-1.2-2.41-2.01-1.61-1.2-.2,1.2,1.6,1.2,1.2ZM332.74,218.92l3.01,5.02,1,.6.6,2.01,2.01.2,2.01-2.01-3.21-2.41-2.01-5.62-2.21-1.6-3.21.2v1.2l.2-.2,1.81,2.61ZM343.38,189.42v-.6h-.6l.6.6ZM344.18,193.23l1.61-1.41h-.6l-.8,1h-1l.8.4ZM348.8,307.61l1,.8.2-1-1.41-5.02v-1.6l-1-2.41.2-1.4-2.41,1-1.2,1.81,2.81,1.81-1.41,2.81,1.81,2.41,1.4.8ZM347.79,278.72l1.2-.2,1.4-2.01-1.61-1.4v-8.63l-1-.2-1.81,3.21.6,2.21-.4.8,1.41,2.01-3.01,1,3.41,1-.2,2.21ZM348.4,244.8v-.4h-.6l.6.4ZM348.4,256.84l.6-.4.6-2.21-1-1-.8,1.81.6,1v.8ZM348.4,195.24h1l-.6-.8-.4.8ZM349.4,321.06h.8v-.6l-.8.6ZM350.81,280.52v-.4h-.6l.6.4ZM355.82,316.04l1.2.2v-1.6l-1-.4-.8-2.41,1.2-.6.6-1.81,1.6-1-1.6-1.2-.2-3.61-1.61-1.4-1.6-3.21h-.8l-2.01,3.21,1.4,5.22,1.61,1.61.2,1.4-.4,1.41,2.21,2.81v1.4ZM351.41,322.26l.6-.6-.6-.6v1.2ZM353.82,225.94l.6-.6-2.41-.6v1l1.81.2ZM353.41,246.01h.2l-.2-1.61h-1.4l.8.4.6,1.2ZM355.42,329.69l1,.4-.4-2.01,1-3.41-.6-1.2v-1.4l-2.61.6-.4,2.81.2-.2-.4,3.41,2.21,1ZM354.42,211.89l1.81-3.01h-1.81l-.6.6.6.8-.8.8.8.8ZM355.22,250.42l.6,1.4h.8l1-2.41-1.41-2.41-.8-.2-1.81,1.2,1.6,2.41ZM355.62,206.47l.4-2.01h-1.61l1.2,2.01ZM354.42,281.93h.8l.2-.6-.8-.8-.2,1.4ZM355.22,288.35h1l.2-3.21-.6-.6-.6.4-.8,2.61.8.8ZM360.84,262.46l1.2-.6h-.6l-.6.6ZM360.84,289.55l.6-.6h-.6v.6Z"/><path class="cls-1" d="M415.02,336.11l-3.61-2.81-2.01-.2-2.41,2.61-4.42.2-4.01-.6-4.01.4-2.01-.4-1.81.4-3.21-.4-.8-.8-3.01-.4-1.81-1.6-2.21-3.21-2.41-2.21-3.21-4.21-1.4-.8-4.21-4.62-2.81-1.6-.2-4.01.4-1.61h-1l-.2-3.01h-1.81l.2-2.01h1.2v-1.2l-.6-.6.6-1.4,1.81-1.2,1.81-.4v2.81l-.6.4.4,2.81.6.8-1,2.41.8,1-.8,1.81,4.82.8,1.4,2.21,2.41-.4,4.82.2,5.62-1.2,1.6.6,1.2-.6,1.4.6v1l-5.02.2-.4.6,2.01,1,.4,1.81h2.21l.6,3.21.8-1-.4-2.61-1.61-1.41,3.01-1.6,2.41,2.01,2.41,3.61h1.6l-1.6-4.82-1.81-1.41.4-2.21-1.81-2.21,1.2-1.41h2.41l-3.81-3.61-.4-1.81-1-1.61-1.61-.8.6-3.81-1.4-2.61,1.2-2.01-.4-2.61-1.4-1,1-3.41h1l-.2,1,3.41,1,.6-.6-1.41-1.4v-1l.8.4.6-.2v-1.61l-.6-.6,1-1.81.4-3.01-1.61-5.82.6-3.61,1.2-2.41-1.2-2.61.8-1.4-.6-5.62.8-3.21,3.41.8.4-2.21-.2-6.82.6-.6-1.41-.8v-1l3.01,1h1.81l.2,2.01h1l2.81,5.62-2.41,1.4,1.2.2,1.4-.8.4,8.83v6.42l-1,2.41.2,2.21-1,1.6.2,7.02-.4,2.01.2,4.01-.6,4.42-1.2,3.21-.6.2-1.2-1.6.2-.6h-1.61l-1.61,1.2-1.4,5.42.8,3.21,1.6-.8.6-1h.8l-.2.8,1.81.6-.4-1.41.4-3.01-1-.2-1.4,1.2-1.4-3.01,1.61-1,3.41,1.41,1.2,4.01-1.81,6.62,1.4,2.81v2.61l-.8.6,1.2,2.41-.2,4.82,5.42,1.2.8-.4h5.02l1.41.4,7.22-2.21,2.41-2.61,3.21.2.2-1.81h1.2l.4-2.01-.4-.8.2-2.21-1.4-1.6,1.2-1.41v-7.22l.4-1-.2-2.61-1.2-2.01.8-2.81-.8-2.21-2.61-2.01,2.21-1.2,1.61-4.01-2.81-3.21,3.01-.4-1.41-2.41,1.2-2.21-3.41-.8,2.21-1.41-1.6-.6.2-.6,1.2-.4,1.61-5.82v-1.2l.8.2,1,1,2.41.2-.8-6.42-.8-.4,1.6-1.2-1.2-3.41h-3.21l.4-4.01-2.61-1.81-1.41-3.61-1.4-1.4.2-2.61h.8l1,1.4,1.61.2.8-1.61.6,1.2.2,5.02-.8,1.2,2.21,1,1.2,3.61h1.2l1.81-2.81,2.21-.8-.2-2.01.4-1.81-3.01-1.2-2.41-2.01-2.81-3.21-1.61,1.41-.4-3.01-1.61-1.6-2.21-.2-1.41.4-1.6-2.01,1.4-.6,2.01-3.21,3.81,3.21,2.81,1.2,4.62,6.02,2.01,1,.8,1.2,1.61.6,3.41,5.82.8.4,1.81,2.21.2,3.01.8,1.41v1l-1,1,.8,3.21.4-.2.2,2.81-.8,2.01,2.41.6-.4,3.01-.2,7.02-.8,2.01-.4,3.81.4,5.82-.8,4.82.2,2.61-.4,1.6.8,2.01-1.2,3.61.6,2.61-.8,3.01.4,2.41-1.2,4.01,1.2,1.81-1.81.2,1.81,1v21.27l-1,.4-13.44.8-3.81,1.4-10.23-.8-2.21-1.2-1.81-.4-2.01-1.61ZM365.45,292.36v-1.2l-.6-.6.6-2.21,2.41,1.81.4,1.2v2.81l-3.21,1.6-1-2.81,1.4-.6ZM365.45,286.14l1.81-3.01-1.81-.6.6-2.21,2.41.6v4.21l.6.2-.4,3.01-2.01-2.21h-1.2ZM366.86,276.91l-.4-2.01.4-2.61-1.2-.8.8-1.2,2.01-1.61-1.81-.8,3.01-2.21-1.4,8.43,1,1-.8.4-.2,3.61-1.61-1,.2-1.2ZM367.46,252.03l2.01-.2-1.61-.8h-1l.6-3.41,1.81,1,1.2-.2.6,1.81-.6,2.61.2,1-3.81,2.01.2-1.2.4-2.61ZM379.1,224.94h-6.22l-2.21,1-.8-3.01,1.61-.4,6.42.8.4.6,4.21-.2,2.21.6,1.4,1-.6.6h-2.01l-.6-.8-1.81,1-1.2-.8-.8-.4ZM378.1,320.06l1.81.2.2-1.6-1.2-1.61h-1.6l-.4,2.21,1.2.8ZM384.32,323.27h.6v-.6h-.6v.6ZM393.15,331.29l2.41-.4-.2-.8-2.81-1.2-1.4,1.4,2.01,1ZM397.96,271.49l1.2,4.62,2.41-2.21,1.41-4.21v-6.22l-3.01.2-.4-.4-1.81-.2-1,2.81,1,2.81v1.81l.2,1ZM397.96,325.88l.6.2v-1.81l1.41-.2v-.8l-2.41-.2-.6,2.01,1,.8ZM397.56,260.46l1.81-1v-2.61l-.8-.2-1,1.2v2.61ZM399.37,278.72l.6-.6v-1.2h-.4l-.2,1.81ZM400.57,305.81l.6-.6v-1.2l-.6-.8-.8,1,.8,1.61ZM401.17,291.16h.8v-.6h-.8v.6ZM401.98,260.05l.6-.2v-1.2l-.6.8v.6ZM419.84,224.94l-5.42-2.61h-2.81l1.41-1.61h4.01l.8,2.21,2.01-.8.4,1,2.81,2.21.2.6h-1.81l-.8-1.2-.8.2ZM420.64,324.87v-2.21l-5.02-.2-.4,1.61h4.21l1.2.8ZM432.08,271.89h1l-.4-.8-.6.8ZM435.49,334.3l4.41-.4,1,.8,1.81-.6v-1.81l-5.62-1.4-.4,2.21-2.61,1,1.4.2ZM438.3,254.44l.8-.8h-.8v.8ZM439.1,251.83h.4v-.8h-.4v.8ZM444.92,273.5l.6-3.81,1-2.01-.8-.8-.4-2.41.4-2.81-.6-3.01,1.81-1,.8-1.61-2.01,1.41-1.6.4.4-2.81-1.4-2.21-.4-2.41-1.2.2-.6,1.2,1,4.82-.2,3.61-1.2,2.01,1.81,3.21-.2,5.22,1.2-.6,1.2.2-3.01,1.6h2.61l.8,1.61ZM440.71,295.17l-.2,1.2,1.4.4,2.01-.4.2-1.81-1.81-2.81-1-.4-.6,3.81ZM442.11,299.59l1.4-.2-.2-1.2h-1.41l-1.2.8,1.41.6ZM443.52,302.2l-.2-1.4-2.21-.2,2.41,1.61ZM444.52,280.92l1.2-3.41-.4-1.81h-3.81v1.81l1.4-.2-1.4,1.2,1.2,1.2v2.61l-.8.4,2.61,3.41v-5.22ZM447.73,315.24l-1.2.2v1.2h.6l.6-1.41ZM446.53,327.68h.6l.8-1-1.4,1ZM447.13,261.06l.6-.6h-.6v.6ZM447.13,334.1h.6v-.8h-.6v.8ZM447.73,329.09l.6-.8h-.6v.8Z"/><path class="cls-1" d="M479.64,373.84l-2.61-1.6-4.82-.2-6.22-2.01-1.61-1.41-3.21-1-.2-2.21-1.41-.8v-1.4l-1.4-1,1.4-2.01v-2.61l-2.61-3.21-1.81,2.21h.8l.8.6-1.81.6-.8-.8-.2-1-2.41-1.4-1.2-2.21-2.61-2.61-2.21-3.81-.4-1.6.2-1.81-1.41-3.81,1.41-12.64.8-2.41,1.4-1.41v-2.01l1.4-.6,1.41-3.01,2.61-2.01v-.6l2.01-1.41h2.21l-.8-1.4,7.43-4.21-3.21-4.01-2.01-1.41-1-1.6-.6-2.61.2-1.61-1-2.61-.4-3.61.8-4.41.4-.2.6-5.22,2.61-2.01,2.81-3.21-1.2-4.42-1.41-.6-.2-3.01,4.21.2-.4,1.61-1.2,1.2v.6l2.61-.2,1,2.41,3.01.6v2.21l-1.81.8.4,2.21-2.01.4-.4,3.41-1.4,1.2-.4,3.61-1,3.61.2,2.21,1.2,3.01v2.41l1.2,1.6-.8,1.41h1.41l1,1,2.01,1,1,1,3.81,2.21v1.4l-1.81.2-1-.4-1.41,2.01-4.41,1.2-1,1.81-4.21-.8.6,4.21-2.61,1.2-1.2,1.4-3.01-2.01.8,2.21-.6,3.41-.6.8.4,2.41-1.2,1.61.6,3.01-.6,4.21.2,6.82,1.6,1.81,1,2.81,2.61,3.21,5.42,3.01,9.03.6,2.01.8,2.61-.6,5.42-.2,6.42.2,11.04-4.01,3.61-2.81,4.01-2.01,1.2-2.61,4.01-5.62.8-4.21,1.61-3.81v-5.42l-.8-1.61-.4-5.42-2.41-4.82-2.41-2.61-4.01-2.01-2.21-.2-4.01-1.4-2.41.2-2.81-.8-.8.6-6.02-.6-2.41-2.41-2.61-.6-1-2.01h-1l.2-.8-2.61-2.01-.6-2.61,2.01-5.62,5.42-2.61,5.82-.2,1.61-.8,4.01.2,5.62-2.41,2.41-2.61,1.81.2-.6-2.01,3.21-3.81-.2-1,.8-1.81,2.01-.2.6.8,1.4-2.01-1.81-.6.4-1.81-.4-1.81,2.41-2.81-1.61-.2v-.4l2.21-.8-.2-1.81-.8-1.2,1.61-1.41-.6-.2.4-1.4,1.4-.8v-2.01l2.01-2.21v-3.21l-1.2-3.01-.2-2.01-1.61-.2-.2-1.4h1l1-2.41-.2-.8.8-3.41-1.41-1.4h-2.21l-.8,2.01.4,2.21,1.4,1.4-.8,1-1.4-.2,1,1.41-1.81,1.6-3.61-3.01-5.22-3.61,1.41-5.02,2.21-1.6.6.8,1.2-2.01-.8-1,2.61-2.81.2-1.81,1.4-1.41,1.2-.4v-1.4l1.2-.2-.2-3.01-2.81-2.21-2.81-.2-1.41-1.2-5.02,2.21-1.6,2.01v.8h1.2l.4.6-.4.6-1.4.2.4,1.81-1.81.6-1.81-.2,2.21.6v1.61l-3.01,6.02h-6.82l-1.2-1.81.2-1.4-.8-.6,3.41-2.01v1.61l2.81-3.01-.4-3.21,1.2-5.42,2.01.8,2.01-2.01-1.6-1.2,1.6-1.2h1.41l2.21.8h1.81l-.6-1.41h2.61l2.01,1.81,2.81-.4,3.81,2.61,2.41.6,1.4,1,2.81-1,3.01.4-.2,2.41.8,1.61,4.01,3.41-.4.8,1.2,1.81,2.81,1.4.6,1.81,2.41,2.61-.6.6,2.21,2.41.4,2.61-1.4,1.81h-1.2v3.21l-1.4,2.41.4.4-2.01,2.21-.4,1.41-3.21,1.2-1,2.61.2,2.21,1.2.6.6,1.6,1.2-.2,2.01,3.61.8,6.82,1.41,1.2.8,4.01-.6,1.4.2,4.01-2.61,1.2,1.61.2-1,1.6.4.4-.6.6.6,4.01-.4.4.4.6-.6,2.01-1.61,2.21-2.21,2.01.2,4.21-2.01.6-1.2-.2-1.61,3.01-4.01,2.61-.2.6-4.41,2.41.8,4.01,1.81-.4.6,2.81,1-.2,1.81,2.01-.8.6,2.01,1.61,1,2.21,2.81,2.61,1.2,2.41,1.81,1.4.2,1,1.81,2.01v4.21l1,.8.6,6.82-1,3.01.8,2.81-2.21,4.62v1.81l-1.41,4.01-1.2,1.2-2.41-.2-.6.6h1.2l.6,1.4-1,.8-.8-.8-.6,2.61-2.41,1v2.01l-3.41,3.01-3.61,1.4-.4-.4-4.01,2.81-3.01,1-4.01,2.21-4.21-1.41-1.4,1.61-2.61-.2-3.01.4-1.81.8-1.41-.6-3.21.6h-5.02l-1.41.4ZM455.76,256.44l2.01-1.2v-1.2l-.8-1.81.8-1.2-1-.2.2-1.2,1.41-2.41-.8-.8-.8-2.81v-3.41l2.41-.8-.4-3.41,4.21-2.21-.2-1.41-1.41-.4,2.61-2.61.6,1.81h1.41l2.81,1.81-.2,1.6-1.4.4-2.01,3.81-.8.4-.2,4.21h-2.01l-2.61,2.81,2.61,1v5.22l-2.61-1.61-.4.2.4,1.61-.2,1.4,1.61,1-.2,1.2-1.2,1,1.41.8,2.61.6-1.81,3.61,2.01,1.2-5.22,3.61-1.61-5.02-.6-.6-.8-3.01.2-2.01ZM460.57,356.58h4.01l-.2-.4-2.21-.4-1.61.8ZM462.18,239.79v-.4h-.6l.6.4ZM461.57,241.79h.6v-.6h-.6v.6ZM470.2,340.12l-.6-1.81-2.61-2.21-2.21-5.22.6-3.41,1.6-.6,2.61-4.82,2.81-2.61h1.6l2.01-2.21,3.01-.8h2.01l1.6-2.21,2.01.6.6-.2,4.21,1,4.62.4,2.01,1.61.2.6,2.41,1.2v.8h2.41v3.21l.6,1.2-1,4.82-2.41.4.2,1.2-1.2,2.01-1.6,1-.2.8-3.01,3.41-1.61.2-1.61,1.81-5.62,1.6h-3.21l-1-.6-6.62.4-1.2-.6-1.4-1ZM477.43,263.47l-.8-.8-.8-3.21-1.61-2.01.4-.8-1.2-4.01,6.22-4.21-.4-2.41h2.01l.4-1.4,1.2.4.8-.6h5.02l7.02,1.81,2.21,3.81,1,.8-.8,1.81.8,3.21-3.21,3.61v1.4l-3.01.2-4.82,1.81h-3.01l-.8.8.8,1.61-1.61,1.6-2.01.4-2.01-1.81-1.81-2.01ZM480.64,333.1h.4v-1.2l1.6-3.01-1.6.2-2.41,2.21v.6l.4-.2,1.6,1.4ZM483.05,327.48l1.81.2-.2-1.61h-1.6v1.41ZM484.25,250.82l3.81-1.4-1.4-.6h-3.01l.6,2.01ZM483.65,255.84h1l2.61-2.61-.2-1.81-.8-.4-2.21,2.01-.4,2.81ZM484.65,323.07h2.01v-1.2l-.2.2-1.81,1ZM487.26,287.95v-.6h-1l1,.6ZM488.06,292.56v-1.4l-1.4-.2.2,1.4,1.2.2ZM487.26,325.47h.8l.6-.6-.6-.4-.8.4v.6ZM488.67,332.5h1.2l-1.2-.6v.6ZM489.87,356.58l.8-.6-.6-.8-.2,1.4ZM497.7,218.71l1-.8h-1v.8ZM500.51,360.39l1.81.4.8-2.21,2.61.2-.4-1-3.81.8-.2-1.61.8-1.2-2.21-1.4-1.2,2.21.2.4-.8,1.41,1.2,1.2,1.2.8ZM501.71,363.6l1.81-.8-2.21-1.6v2.21l.4.2ZM501.71,366.01h1v-.8h-1v.8ZM504.32,366.01l2.41-2.01-.2-.6h-2.61l.4,2.61ZM505.12,232.96h1l2.01-1.2v1.2h1.2l2.01-3.21-1-.8-1.6,1.2-2.01.6-1.6,2.21ZM507.73,293.37h.4l-.4-.4h-1l1,.4ZM511.34,290.96l1-.2-1.2-2.01.8-1-1.81-1,3.01-1.4-2.21-.8-2.81-2.21-1,3.01,3.01,2.61-.2,1,1.41,2.01ZM507.73,359.59l1-.6v-.6l-.6.2-.4,1ZM509.34,275.31h.8l-.8-.8v.8ZM509.74,299.59l4.42-1.6-.4-2.41h-1.81l-1.4,1.61-.8,2.41ZM512.75,360.99l2.41-1.4v.6l1-.2,1.61-4.82-2.01-4.82-2.21-1.2-2.21,2.21.4.8-.4,1.2.2,3.61,1.2.6-1,1.4-1.41-.8-.2,2.01,1.4.2,1.2.6ZM511.94,282.53l1.2-2.21-.4-.2-1.4.8.6,1.61ZM513.15,348.15h.6v-1.2h-.6v1.2ZM514.55,261.46l.6-.6h-.6v.6ZM518.17,294.77l.6-.8h.6l1.41-1.61,1-2.01,1.6-1.61,1.2-2.41-.4-1.2,1.2-3.81-.2-1.2,1-1.81-6.02-.4-1.4,1.61-.6,3.81-3.21,4.01,1.41,3.41-.6,3.81,2.41.2ZM515.16,281.53h.6v-.6l-.6.6ZM516.96,345.14h2.01l-.2-2.61h3.21l.2,1.4,1,.2.6-3.61.8-.6-.2-1.4,1.41-2.21-.2-2.01.4-2.01-.6-3.01-1-1.6-1.6,2.81.4,1.4-1.2.4-.2,2.61.4,1.81-2.81.4-1.6,7.43-.8.6ZM517.76,220.32h1v-.6l-1,.6ZM518.17,226.14h2.01l.6-1.4,2.81.2-1.2-3.21h-1.81l-.4,1.2-2.01,1.81v1.4ZM523.78,259.05l1.81-1-2.01-2.41-1.4.2,1,.8v1.6l.6.8ZM522.78,339.92l-.6.6v-.6h.6ZM527.8,273.3l.4-3.01-.4-4.62-2.01.2.2,1.2-1.4,1-1.81.2-.2.4,2.21.4,1-.8.4.4-.6,4.41,2.21.2ZM525.79,264.47l.2-3.01-1.4-1.2-.6,4.42,1.81-.2Z"/><path class="cls-1" d="M651.41,342.33l.8-2.01-2.01-1-.8,1.6-2.41.6-1.61,1.6-3.01-.4-2.21,1.2h-1.6l-2.21-.8-5.42.2-5.22-1-1.61.2-1.81-.4-5.02.6-.8-1.81-1-1-4.41-.2-.2-1.41h-5.02l-.8,1-3.41-.6-4.62.8-1.81-.2-2.01,1.4-2.41-.4v-.6l-1.6-.4.4-2.61-1.61-.2.8-1.81-1-1.61-.4-3.41-1.2-1.41.2-.8-1.81-.8v-1h1.61v-1.61l-.6.6-4.01-2.41-.8-2.01-1.2-4.41-.8-.6v-.6l-3.01.4.4-8.03.4-1.61-.4-2.01.2-3.41,1.2-4.62v-4.41l1.41-3.61h-1.41l2.41-6.22-1-2.01.6-2.61-.8-1.4-.2-2.41,1.81-1.4-.4-2.41.4-1.6-.6-1,.2-2.21-.4-2.61.4-3.61,1.4-7.02-.2-2.81,1.6-3.41-1.6-2.21,1-3.01v-1.4l.6-1.4-.2-2.01.4-1.6-.8-2.61,1.4-4.41-1-1.2,2.61-2.41v-4.01h-1.41l.2-1,1.2-1.4-.6-.8,1.81-4.42.8-.6-.8-1.2-.4-5.22,1.61-.4v-1l-1.41-.2,1.41-2.01-.4-4.62-1-.4-.2-2.01h4.82l.4.8h1.2l-.2-1.6,3.01,1.6v.6l3.21-.2,2.01,1.81-.8.8h1.2l.8-3.21,5.42,1,1.61-1.4,1.2,1.4,1.41.8,4.82-.8.8,2.01,1,.8-.6.8v5.22l3.61,2.81.2,1.81-.4,2.21,1.61,1.2-.6.4.8.4-2.61,1.61,2.01.2,1.41-.6,1.81,4.62,1.2.8-.4,2.61,2.61,2.41-2.01,2.21.8,1h1v-1.2l1.4.2.8,2.41,1.41-.6,1.41-1.41,1.2-.2-.4-2.01v-3.61l2.01-5.62h1.2l1.4.8-1.81,1.4,1,1.4-2.01,3.01.8,1,2.41,1.41-1.2,1-.2,5.82h-1.61l-.8-.6-.6,1.81-.2,3.01,1,4.01-.2,2.01-.6,1-.2,3.41-1.2,1,1-.2v2.21l-1,.8.2,2.01-.8,2.61v1.61l-1,1v2.21l-1.2,1.81-.4,1.61-1.81,2.01.4,1.4-2.41,2.81-2.21-.4-2.61.4-.6-3.21-1.2-.8,1.4-3.41-.8-4.41-.6-1.2.4-2.01-.4-2.41.6-1.6-1.61-3.21-.8-7.63-2.01-3.61,1.41-1-1.61-1.61.2-4.21-.4-.8.2-2.41-1.4-1-.8-4.01.6-1-1.2-3.81h-1l-1.2-1.2,1.4-1.2-1.81-2.41-.4-1.81-1-1.81-.6-3.01.2-4.82h-1.81l-.8-.6h-1.2l.4.4-2.61.2.2-2.01h-.6l-2.41,2.81-4.42-.8-.6-.6-1.2.4.4,2.61-1.4,1.81,1.4,2.41-1.2,4.21v3.01l-1.81,8.23,1,.8-1,.6-.8,2.81.6,4.62-2.01,6.42.2,2.81-1.2,2.81,1.4,1.6-1.2,3.21-.4,4.21-2.01,2.21h1.81v1l-1,.8-.4,3.41,1.41.8-1,3.41.4,3.21-.4,3.41h-1l-.6,1,1,1-1,1,.6,1.41-.4,1.4-.2,8.03-1.4,2.41,1,.6.4,6.02-.8,1.81-.6,4.21,1.4.4.2,2.21-.8,2.21.6.8-1,3.21,2.61,1.81,1.6-.2,4.82,1.61,3.81.6,2.21-.4,1.4.4,1.4-3.81-.8-3.41,1.81-.8-1.61-1v-4.01l.8-.6-.2-4.82.6-2.81-.6-2.81v-4.82l.8-1.6.2-3.61-.4-1.4,1.2-5.22,3.21-2.21.8-1.2,3.61.2v3.41l1.6,2.61-.4,1.4.8,1.41-.6.6,1.2.4.6,6.62.6,2.01.6.2v3.41l1,2.81.4,4.42,1.4,1.4.6,4.42.6.6-.2,3.61.6,1-.2,2.01.8,1.81.6.4.4,1.4-.4,2.21,2.61.2,1.41.6,2.41-.4.4-.4,2.81,1,2.41-.6,2.21-2.41,1.81-3.21-.4-2.41.6-1.81.8-.8v-2.61l2.01-1.61-1.61-1.81,1.2-1.81.2-4.41.8-1.4-.6-2.41,1-1.81v-2.61l2.21-4.01.6-5.42,3.61-3.01h2.01l1-1.2,1.81,1.4-.2,4.62.6,3.81-.2,1.81.8,5.22-.2,3.61.6,1.4-1.2,6.42.6.8.2,3.81-.8,2.41.8,3.81,1.41,3.21,3.01.4,3.61-.6,3.21.4.6-2.61-.8-4.41,1.2-2.61.6-3.21-1-2.21-.8-.6,1.81-5.82.2-4.62.6-.8-1-.6.4-2.41.6-.4.2-1.6-.8-2.41.6-2.21.2-5.82-.6-3.01,1.2-2.01-1.41-3.01.6-1.2,1.61-6.82-1.61-1.2.4-2.81-.6-3.41.2-6.42.4-1.2-.6-5.62.4-3.41-.6-3.01.6-2.61-.4-1.2,1.2-1.81-.6-3.21,2.61-5.42,1-.4-3.61-2.81.8-3.01-.8-4.42.6-1-.6-3.41-3.41-1.81-.8.6-2.41-.2-1.61.4-3.41-2.21-3.21.8-1.61-.4-1.81-1.41,1.2-2.01-2.01-1.2-.6,1.81-1.81-1.81,1.81-1.2,2.81-.8h2.61l-.2.8,6.82-.2,5.02,3.41,1.2-2.01,2.81,1.41,7.02-.4.4,2.61,1.2,1.6,2.41,1.61.4,1.41,3.81,5.42,3.61,1.61,1,1.4,2.61,1.81.8,2.01,1.81.8-1.81,3.81v2.01l.6.8-.8,4.42.4,1.2-1,2.81.2,1.61-1.81.8,1.81,1.81-.4,4.01.6.4-.2,6.82-1.2,3.41.4,2.21-1,4.42-3.61-1v-.6l-1.2-1.2.8-1.2.4-2.01-.8-.6v-3.01l-.8.2.2,1.81-1,2.21-1.61-2.01.4-4.01,2.41-.4-.2-1.2-2.01.6-2.21-.2.2-1.81-1.2-2.21.8-1.41h-.8l-1-2.41v-1l-1.61-.2,2.81-2.01-.2-1-1.81-1.41,4.62-1.2-.2,1.41,2.61.6v-4.01l.6-.8v-2.41l.8-.2-.8-2.81-.8.4-2.61-1-.8-3.21-2.21-3.01-2.61-1.41-1.81.6v1.61l.8.6-.6,5.22-2.01.2v.4l1.4.8-.6,1.2,1.2,3.21-.2,2.61.6.4-.8,3.21.8,1.4-.4,4.42.4,2.41-1.2.8,1,1,.2,2.21-.8,1,.4,1.61-1.81,3.01,1.2,1-1.4.8,2.41.6v1.81l-.6.6.2,1.4-1.2,4.42-.8.6.8.4,2.61-1.81,1-1.81,2.41-1.4,1.81,2.01-2.21,1.2h4.62l-.2-3.01,2.61-.8,4.01,1,1,1.61-1,.6.4,2.21-.8,3.21.6,2.21-1,1.4.6,1.61h-.8l-1.4-1.2h-1.2v.6l1.2,1,2.61,1-.6.4v4.62l-.4,1,.4,2.01-2.01.6,2.61,1.41-.4.4-.2,4.62.4.4-1,7.02.6,2.01-.6,2.61-.8.2-.8-1.61-1,1.41.6,1v1.2l2.21.4-.4,5.62-1.2,1.2,1.2.6-1.81,5.22.8,5.02-.8,4.21,1.41,2.81v1.61l-.8.2.2,3.21,1.2,2.81v1.41l-.8.6,1,5.62-.8,2.81-1.41,1.2,1.2.4-1.2.4-.6,1-5.82,1-3.21-1.4-1,1.4-.8-.4-4.21-.2-.4-.6-3.61.2-3.01,1h-6.82l-1.4-.8h-3.41l-1.2-1.6ZM583.18,228.35h.6v-.4h-.6v.4ZM584.59,250.42h.6v-.8h-.6v.8ZM603.85,285.54l.8-.2-.8-1.2-.6,1,.6.4ZM610.88,312.43l1.41-.4-1.61-1,.4-5.22h-2.01l.4,3.01-2.21.8-.2,1.2,2.01-.4,1.81,2.01ZM609.87,303l.8-.8-1-4.42-2.21-.2,1,4.21,1.41,1.2ZM620.91,228.35l2.41-1-.4-2.61-2.01-.2.8,2.01-.8.6.8.8-.8.4ZM621.71,232.96l.6-.8-.6-.8v1.61ZM622.31,325.27l1,.2v-3.21h-1.61l.2.4.4,2.61ZM622.92,234.57l.4-.6-.4-.4v1ZM624.52,330.09l-.2-2.81h-1v.8l1.2,2.01ZM624.32,230.96l.4-1.41h-.4v1.41ZM625.12,237.18l1.61-.6v-1.2l-.8-.2-.8,2.01ZM626.73,240.39l-.2-1.4h-1.2l-.2.8,1.61.6ZM627.33,229.55h1v-1.2h-1v1.2ZM627.33,244l.4-.2.2-1.61-.6-.2v2.01ZM630.94,323.27h.8v-.6l-.8.6ZM632.35,248.62h.6l.4-.6-1,.6ZM637.36,207.88l.6-2.01,4.21.6v2.41l-1.2,1.81-1-1-.6,2.01-1.4-1.6-.6-2.21ZM642.38,338.12l3.61-1.2,1.2.8,1.61-.8-1.61-3.41.6-1.2-1.2-.4-.2-1.81-4.01,3.21-3.01.8-.4,2.81,2.81.4.6.8ZM641.58,200.45l2.61-1.81-3.01-.4-.6-1.61.6-1.61-.2-.8,1.4-1.2h2.61l-1.2,2.41.8-.2,1.6,2.01-2.41,3.61,1.4,2.01h-3.01l-.6-2.41ZM641.18,313.63l.6-.8,3.01-1.61-.8-3.61-1.2.2-.8,4.01-.8,1.81ZM651.41,320.66l2.41,1.81,1.2-1.6-.2-2.01-4.01,1.6.6.2ZM669.47,322.66l.4.2-1.2-3.41-.6,2.01,1.4,1.2ZM668.27,332.3h.6l-.6-.6v.6ZM681.31,288.75v-3.41l2.61-1.2-.2-.6-2.61-1.81.2-1.6-1.61.8-.8-1.81,1-1,3.81-1.2-4.41-3.01,1.4-.8.2-2.61-.6-.4,1-.6-.2-3.01-1.61-1,1.4-.4v-1l-1.4-.2.6-1.2v-2.21h-1.81l.6,1.2h-.8l-1.2-1.2-.2-1.61-1.4-.6-1.2,1.2.8,3.41-1.6.6-2.01,1.6.6.4,1.41-.2,1.2,2.41-2.61,2.41,2.21,2.41-1.61,3.01.8.6-.2,1.6-1.81.4-.4,1,2.41,1-.2,1.4-2.41.2,2.41,2.21,2.01-.8,5.02.6-.6.8-2.61-.6.2,1.81,1.2,1.41,1.6-.2.2,1.81h1.2ZM670.88,216.51h.4v-.6h-.4v.6ZM678.7,313.63h2.21v-1.61l-.6-.8.6-1.61,1.41-.8-1.2-.8,1.4-2.01v-1.41l-1.4-.6-1-2.01-.8-.6-3.41,2.01.2.8-5.02,1.81,1.4,1-1.61,1.81.4.8h.8l1.2,1.2h1.2v-3.21h.8l1,3.41,2.01.2.6.8-.6,1.2.4.4ZM671.28,293.17l1.2.2-1.2-.8v.6ZM673.69,300.39l1-1.4.2-2.81-2.21-1.2-1.41,1,2.01,1.6-.2,1.2.6,1.61ZM672.48,286.94l1,.2-.2-2.01-.8.4v1.4ZM675.29,336.91l3.21.6h3.21l.2-5.02-1-.8-.8,1.6h-2.01l.2-1.2-1.81-2.41-.2-1.41h1.2l.2.8h1.4l-.6-1.81-2.01-.2-.2-1.2,2.61-.2-4.01-1.2-1.4.2-.2,2.61-.4.2,3.01.6-2.01.2-.4,1.2.6,2.61-.8,3.81,2.01,1ZM675.89,313.23h.4v-.6l-.4.6ZM676.3,292.56h2.01l-.2-.4-1.81-.2v.6ZM678.5,290.36h1.61l-1.2-1.61-2.01-.6.2,1.2,1.4,1ZM678.5,308.82l-.2,1.4-1,.2.2-1.6h1ZM678.5,300.19l1.61-3.81,1-1.2-1.2-.6-1,2.41.4,1.2-1.61,2.01h.8ZM680.11,230.96l-.6-1.41v.8l.6.6ZM682.32,263.26l2.21-.6-.4-2.41.4-2.21h-1.2l-.8.6-1.2-.6-1.2.2,1.81,3.41.4,1.61ZM680.11,317.25h1.4l-.2-1.4h-1l-.2,1.4ZM681.91,238.78l2.01-.2.8-1.41h-3.01l.2,1.61ZM681.91,296.18l.6-1h-.6v1ZM684.52,256.04v-.6h-.6l.6.6ZM685.93,301.19v-.8h-1.6l1.6.8ZM684.52,306.21l.6-.4h-.6v.4ZM686.33,279.52v-2.81l-1.2-.4v2.81l1.2.4ZM686.33,233.16l1.2-1.61-.4-.6-1.81.8,1,.4v1ZM686.73,263.06l1.61-.2v-1.61l-1.61-.4v2.21ZM688.74,257.85l.2-.8-1.6.4,1.4.4Z"/><path class="cls-1" d="M701.98,374.24l-5.42.4.2-2.61h-3.21l-3.01-4.01-.6-2.41.6-.2-1.6-1-4.01-5.62h-.6v-1.2l2.61-2.41-.2-1.61.4-1.81-.2-2.81-.6-1.81.8-1.6-1.61-3.21,1.81-3.21-1-.4,1.81-1.81,8.43-.2.2,1,1-1.81,2.81-2.41,1-3.01h1.2v1.2h.4l.2-4.42h2.41l1.4.6,1.41,2.21-2.21,2.21v5.82h-1.2l-1.2,2.01-2.41.2-.4,1.2-8.43.4-2.21,1.81-.6,2.41-1.2.6,1.4,1.2-.2,2.21.8.2v2.81h1l.4.4h1.61l-.6,1.81,1.2.8,4.21-.2,2.21.6,2.01-1.2,1.81.2,3.81-1.2,1.81-2.81,4.21-1.2,2.61-2.61,1.81-4.01.8.6,1.4-1-.2-1.81,1.61-3.41-.2-2.61,3.21.2,1.81-4.21v-3.41l3.21-6.22.4-5.62,1.2-4.41-.4-1.61.8-2.01-.4-2.01,2.61-7.02,1.2-10.64,1-3.01-.4-2.41,1.4-6.62,1.2-3.41,1.61-6.62.2-6.82,1-3.41-.4-1.4.8-5.22.6-.8-.2-3.21.6-4.01,1.4-2.01h1.2l-.8-4.62-2.01.2-1,.6-5.42-.8-2.21-1.61-.8.8-6.22-1.61-1-1.2-1.2.8-.6-.6h-.8l.2,1.41-1.61,2.01-2.01-2.21-.6.8-2.61,1,1,3.61,2.01,2.01-.2,1.41.4,1.4-.8,8.83.2,4.01,1.61-1.4-.4,1.6-1.81.2.8,2.81,1.4,2.61-.6.6-.2,2.01-1,.4-.8-.6-1.61,1.61-.8-1.2-3.21.2-2.01-2.21-1.2-5.62v-4.41l-1.2-4.62-1-1.2-.4-3.61-1-2.61.4-2.41-.8-2.01-.2-3.81-1.81-.2-2.41-1-3.41-2.21-.6,1.2-1.81,1.6h-.8l.2-.6-1.4.6-2.61,2.81-1.2-.2-.6-1.61-2.61-1.6v1.2l.8,1.61-.8.4-.4,2.41.4.6-.4.6v1.81l1.2.2-.4,1.81-2.61-1-.2-2.41.4-1.2-1.4-4.62-1.4-2.61-.2-3.21h2.61l-.2-.2h3.41l1,1.61,2.21.4v-1.4l5.22.6-.2,1.41.8-.4,1.41-2.01.8.8,2.61.6,1.61-.8h1.61l3.21,1.81h1l-.4-1.2,2.41.2,1,1.6,2.01,1.2h1l1,.6,2.61.2-.2-1.4h-.4v-2.01l1-1,1,.2-.2,2.01,2.61-1.81v1.41l1,.4,1.6-.6.4-1.81,3.81,1.81,2.41,3.61,1.61-.8v-1l4.21.2.6.8-.6.6,4.41-.8,1.4,1.41h2.01l1.61-1.2h2.81l1.41,1,3.81.6.6,4.01,3.01.4-.4,2.01.8.8-.2,3.41-1.2,2.21.4,1.4-1.2,2.81,1.41-1.4-.4,1.81-1.6.6-.6,2.81,1.2.2-1.81,3.81.6,1h1.61l-.8,1.41v1.2l-1.2.8-1.2,2.21.6,1.81v2.01l1.2,1.6h1.2l1.2,1.41-2.61,1.2,2.61,1.61,1.4,1.81-2.41,1.81-1,3.81-1.2-1.4-1,1.4.6.8.4,3.01-.4,1.61,2.01-.2-.4,2.21.2,2.01-.8,2.61-1-2.61h-.6l.4,1-1.81,3.81,1.2.2,1.2-1.61.6.2-1,2.81-.6,4.01.6,1-.6.6h-.8l-.4,1,.4,1v3.81l-.6.6.2,2.01-1.4,1v1l-.8,1-.8-.8-.8.6-.2,2.21-1.81-1.2v2.21l-1.2,1.2.6,3.41-.6.4.6,1.4,1.2-.6.4-1,1.61-.8,1,.6-.8.6-.2,3.81-.6.6.2,1-1.2,2.21-1.61-.8h-3.21v.6l1.81,1,.2.8h-2.41l.2,1.61-1,2.41v1.2l-.8.8-.4-.6-2.41.8,1.61.8,1.2,2.61-1.81,2.41-.4,2.01-1.81,3.01-1-.8-1.4,1,1.61,1.2-.2,2.01.8-.8.6.2-.4,1.81-1.6.4.8,3.01-.8,3.01-.6.4-.4-1.4-1,1.81.8,1.61-1.2-.2-1.2-1.81-.8.8v1.81l-1.81,1.6-1.81-1.6h-1l.2,1.4-.8,2.01,1.61,1.41-2.21.6-1.61-1-.8,4.21-4.42.8-.8,1.41-2.41-.2-.8-.6-1,1.6-.2-1.4-1.2,1.2h-3.01l-.6-1.4-4.21,2.21-.8-.8-1.2-.4ZM689.34,340.52h.6l-.6-.8v.8ZM692.35,366.21l1.4-.6v.6l.6-.2v-1.61l1-1-3.01-.8.6,1.2-1.2.6,1.2.8-.6,1ZM705.79,310.22v-.6h-1.81l-1.2-7.02.4-.8-2.01-4.62.4-2.81,1.2,1.4-.2-1.6-2.41-.6-1-4.01-1.6-2.81-.8-4.41,2.01-3.21-1-.2-1.4,1,.4-1.6,1.61-.2-1.61-2.01h-1v-1l1.2-.2-.6-2.61-.6,1.4-.8-.6.2-2.61h1.2l.4-.4-1.2-2.21-2.81-1.2.6-2.41,1.2,1.81.6-2.41h1.61l1.4,2.01-1.4,1.2-.4,1.61,2.41,1-.4,1,.6,3.21,2.01.4-1.4,3.41,3.21,5.02.4,6.42,3.01-1-.2,2.81-.8.6.2,3.01,1.2,1.4-.2,1.2.4,1.2,1.61,1-.8,1.4,1.2,1-.2.4,1.2,1.6-3.01,2.21v.8l1.2-.2,1-1.2,1.2.4-1.2,1.61,2.41,1.2.4,1.81-.4.6-.6-.6.2-1.61-4.21.4-.2,1.81,2.21.8-2.61.4-.6,1.4-1.41-2.21,1.61-1ZM694.96,362h.8v-.8h-.8v.8ZM705.79,305.21l1.2-.8-1.81.2.6.6ZM710.81,368.42l-.2,1,3.81-.8.8-1.2,4.42-1.2.8-.8,2.21-.4,2.41-2.41,1.61.2-.6-2.01,2.01-1.81-3.81-.8-2.81.6-1-.4-2.61,1.4-4.01.4.6,1.4-2.61,4.62-.8.2-.2,2.01ZM717.23,241.59l.6-.6-.2-1-.4,1.61ZM717.83,243.6h.4v-1l-.6-.4.2,1.41ZM720.84,232.16l1.4-.6-.8-.8-.8.2.2,1.2ZM728.47,352.36l-.4,4.62,1.4-1.6-.4-1.81.8-.6,1.41-2.41-3.01.8.2,1ZM728.07,360.99l2.21-.4v-1.4l-.4-.4-.8,1.61-1,.6ZM731.68,350.16l1.4-.2,1.2-1.2-1.41-1.2h-1.2v2.61ZM733.08,325.27l1.81,1.41-.2-2.21.6-1.81-2.81,1.81.6.8ZM732.88,354.17h.4v-.4h-.4v.4ZM734.09,357.98l1.2-1.2-.8-.4-.4,1.6ZM737.5,343.74l-.2-1.4-.6.8.8.6ZM737.3,312.63h.6v-.6h-.6v.6ZM737.3,338.12l.6-.8h-.6v.8ZM739.3,336.11l.8.2.2-2.21-.6-.4-.2,1.2-1.2.6,1,.6ZM740.11,321.26l.2,2.21.8.4,1-4.82h-1.4l-1,1.2.4,1ZM739.71,329.69l.6-1h-.6v1ZM740.91,332.3l1.2-.4-1.2-.2v.6ZM741.71,314.64h.8l2.01-1.2h-1.61l-1.2,1.2ZM741.71,317.65h.6v-1l-.6.6v.4ZM744.32,326.08h.4v-.8l-.6-.6.2,1.4ZM744.52,246.41l.8-1.2-1-.8.2,2.01ZM744.32,249.62h.4v-1l-.4.4v.6ZM744.52,255.44h2.81l.4-.8-3.21.8ZM746.53,248.01l-1,2.61h2.81l-1.81-3.81v1.2ZM746.13,311.63h.6v-.8h-.6v.8ZM746.13,326.68l.6-.6.2-1.4-.8,1.4v.6ZM749.34,249.62l.4-.6h-.4v.6ZM749.34,258.05l.6.2-.2-1.6-.4.6v.8ZM749.74,252.23h.6l-.6-.6v.6ZM752.95,261.06v-.6h-.6l.6.6Z"/><path class="cls-1" d="M894.22,347.35l-2.61-2.01-1.2.6-3.61.2-1.61-1-2.21-.6v-2.01l-1.81-4.62-2.21-1.2.2-1.41-1.6-.2-1,4.01-2.41,4.62-3.61,1-1.81-1.2-6.22.6-2.01-1-13.64,1.41-5.22-2.61-2.81-6.22.2-2.01h-.8l-2.81-3.41-1.2-4.62-1.61-1.61v-1.4l-2.81-3.41-2.81-2.01v-1.4l-2.41-1.61.4-4.82-.6-1.2v-7.63l.6-.6-1.81-.6,1-1.4-1.2-2.41-.8-3.41,1-.6-.6-1,.2-1-.6-1.4,1.4-1.61-1.61-1.81v-3.61l.4-.4-1-1.4v-4.82l-.8-.8.4-.2-1.2-4.01.8-1.61-1.2-.4.4-.4.2-2.01-1.4-2.41,2.21-2.41-1.2-1.2-1.4-.6v-6.62l-1.2-3.81.6-3.61-2.21-1.2.2-3.41-.4.4-.8-5.82-1.4-1,1.81-3.61-.8-1.61-.2-3.41.4-1.81-1.2-2.21-.4-2.41.4-3.61-1.2-2.81-.2-4.01-.8-2.41-.2-4.62-.8-2.61.4-2.41,1.2-.6,1-1.61,5.22-.4.6,1,1.6-1,2.21.8,1.61-.2,1.4-.8,4.01.2,1-.6,2.61.4,2.61-.2.6.6,2.41.8,1.61,5.42,2.81,5.62,2.01,3.01v1l1.4,2.81,2.41,2.61,1.61-.2,2.61-1.2v-.4h-.6l-.4-1.2.8-6.22,2.61-1-1.61-2.61.2-2.81-.4-3.21,4.41-1.81h16.45l7.43-.4,1,2.01,2.61,1.2,2.61,4.62.4,3.41,2.61,1.61-.4-3.81,1.4-4.01-.8-4.41,5.22-1.2,1-.6,2.01,1.6,5.62-1,1.41,1.41.6-.8,5.82-.4,1.4-.8,4.21.8v.6l1-.6,3.21-.6,4.01,1,4.62,4.82.4,3.21,1,1.41,2.81.4,3.41,3.41,1.4,3.61v2.41l-.8.4.2,1.4-.8,1.2v1.2l-1,2.81-.4,6.22-1,1.2v4.01l.6,2.41-4.01-1.41-3.61,1.81,1.4-.2v1.4h-2.41v1.61l1,1.4-.6,1.61-1.61-.2.8,1.2-.2,1.4.6.6-.8,6.02.8-1.61.4.6-.2.6,1.2,1.2.8,1.61,2.01-4.01-1.2-1.81v-2.61l-.8-.6.2-1.2,3.41-1.4-2.01-1.2-.2-3.41.6-1.2,1,1.2.8-1.61h1.81l-.2,2.01-1.61,2.01,1.61.4-.8,6.62-.8,1.6,1.2,2.01-1.6,3.21-5.22.4-.4.6h-2.01l-.2.8,1.61.2,1.2,1.2,1-2.21,1.6,1.2.6-.8,2.01,1.4-.6,3.81h-1.6l-1.2-.6-1.2,1.2-.2-3.01-2.41-.4.2,1.61h-4.01l.2,3.21,1.2.6v6.82l1.2,4.01,3.01-2.81h.6v-1.4l-.6-1-.4-2.81,2.01,2.01h1.81l.4,1.4-.4,1.81-2.61,2.01,1.81,1.81-1,8.63-1,4.21-1,1.2v1.61l-.6,1.4-1,.8-1-1.4-.6.8v2.61l2.61,1.4-1,.8h-1.61l-.4,1,2.81,1.2-4.01,2.81,1.81,1.2.4,2.21-1.2,2.61.6,3.21-.4.8.4,2.41-.8,1.4-.6,5.62-1.61,3.21h1.4l.2,1.81-.4,1.4v6.62l-1.4,2.01v2.01l.8.6v5.42l-.6,2.21-1.4,2.01h-11.44l-1.2-.8h-1.61l-.4,1.2h-4.21l-1,.4-1.6,2.01h-3.01l-2.01-1.81ZM885.59,320.26h1l.8-.6,8.03.4,5.82-1.4-.2-1.41,1-2.61v-3.01l3.41-.8-1.61-2.01-1.2-3.61,1-1.81,2.01-7.83-.2-3.01.6-2.41,1.81-1.41,1-1.4-2.01.2-1-.6,1.41-2.41,1.6-6.42.4-3.21-.4-.8,1-3.01.2-3.01,1.81-7.02v-3.61l.6-.6,1.2-3.81-.4-2.41.8-3.01.4-6.62,1.2-1.2-.6-1.2v-6.82l1.2-2.21-.2-1.81.8-1,.2-2.81,1.2-1-.6-.8v-1.2l.6-.4v-2.21l-1-.8,1-1,.8-6.42.2-7.43,1-1.4-.2-1.81.8-2.41h-2.01l-4.62-1.4-1.61.6-5.42.6-.4-.6-9.63,1.6-1.41,4.01-1.4,2.41.6,1.81-.6,4.01-2.21,4.01,1.4,1.2v5.02l-.6,1.2.4,1.41-.2,2.81-1,1.6.4,1.41-.4,4.21-1.81.2,1.4,2.21v5.22l-1.2,1v3.21l-.8,4.41.2,3.01-2.21,5.82-2.81-1.6-2.01-.2v-4.21l.4-1.6-.6-6.02-1.2-5.42v-4.21l.4-.6v-3.41l-1.4-2.21-.2-9.23-1.2-4.01-.4-6.62-1.2-3.01v-3.41l.4-1.2-1.61-1.81-5.02.2-1.81-.8-.8.2-9.83.2-.6.4v3.61l-1.2,2.41-2.01,9.63-.4,4.62-.6.4v2.21l-.6,1.41.2,2.61-.4,1.2.2,1.41-1.4,1.4-1,5.02.4,5.62-1.4,2.01-.4,3.41.4,1-2.21,5.02-.6,5.22-1.4,3.41.6,3.41-1.6,1.4-3.01.4-2.21-2.41v-3.41l-.8-3.01.2-5.82-1.81-5.42-.6-4.01.4-2.21-.4-1,.4-3.01-1.2-3.01.4-3.41-.6-1,.4-4.01-1.61-6.22-1.2-7.42v-4.01l-.6-1,.6-.6-1.41-5.82-2.21-1h-2.61l-1.4.6-.8-.6-8.83,1.4.8,3.21.8,9.83,1.2,3.61-.2,1.41,1,3.81.6,5.22-.4,3.21,1,3.81-.2,4.21,1.81,4.62-.2,1.6,1,5.02v3.41l1.6,1v4.01l.6,2.01-.2,2.41.6,2.01-.2,1.81,1,3.81,1,8.63.6.8v7.63l-.4,1.41,1.2,3.21-.2,2.01.4,2.01h-1.41l-1.4,1,1.2.6,1.61-.6-.8,1.61-.2,2.21,1.6,2.01.2,2.81-.4-.2-.2,1.6h1.61l-.6,2.21,4.01,5.82,2.41.8,1,.8,2.01-.6,1.4,1,.6-.8,6.82,1,3.21-.8,4.41,1,2.41-.4.8.4.4-3.01,1.2-2.01-.2-1,1-2.41-.8-1.2.4-2.21-.2-2.01.8-3.61.6-.4-1.61-1.61,1-2.21.6-4.82.8-.4-.8-.6h1l.8-1,.2-3.01.8-2.81-.8,1.81-2.21-3.41,1.6.2-.2-9.03,1.2-6.22.8-.4.2-2.01.4-.4-1-.4,1.2-4.82,5.22-2.01v1.41l1.4,6.02,1.4,8.43-.2,1.81,1.2,4.42.8,1.2.4,2.61-.6,2.61,1.2,2.81,1.4,2.01.4,5.82,1.81,1.81v7.63l1.2,1.61v2.81l.6,2.81v3.41l1.61,3.01,1,2.01ZM824.39,278.72l1.2-1.2.2-.8-1.4,1.41v.6ZM869.74,330.29l.4-2.01-.6-4.21.2-3.41-1.81-5.42,1.2-3.01-.4-2.61.6-1.6v-2.41l-1.81-.2.2,4.42-.8,2.61.8.8-1,.8-.2,4.01,1.6,5.42-.8,1v1.61l1.2,4.21h1.2ZM867.73,304.6h.8l-.8-.6v.6ZM871.54,298.18l1-.2.2-4.82-1.4-.2-.4,3.01.6,2.21ZM891.21,327.68h2.81l2.41-1.61,1.61-.2,1.2-1.41-1.61-1.2-2.01-.4-2.41,1-7.63.2.4,1,2.01.2.8,1,2.41,1v.4ZM886.8,224.13l.4,3.21,1.4-5.22-1.81-5.82-.4,5.62.4,2.21ZM903.05,328.68h.6v-1h-.6v1ZM906.26,325.27h3.81l1.2.4v-2.61l-2.21-.8-2.21.6v1.2l-.6.6v.6ZM911.28,329.09l.6.2v-2.81l-1.81.2-.8.6h-1l-1.41,1,3.81.4.6.4ZM909.07,331.49l1.4-1-1.4-1v2.01ZM909.27,319.05h.8v-.6l-.8.6ZM917.7,321.06l1.2-.2.8-1-.8-2.21v-1.2l1.2-.6-.2-1-2.01.6-.2-1.4,1.61-2.81,2.21-2.41-.4-2.01h-1.81l-2.21-2.21-1.4-.6-.2-.8h2.61l-1.81-3.61h-1.2l-1,1.81-.8-1.4-3.01,1.6-.6,5.22,2.81.8-1.81,3.21.6,1.81-.6.2,2.21,2.81,2.21,1.2v2.81l1.2.2,1.4,1.2ZM913.89,340.52l2.81-1.41,1-1.4v-1.61l1-2.41-1.4.2-3.61-1.2-.4-1-1.61.2.2,1.4-1.6.6,3.21,1,1.81,4.01-2.01.8.6.8ZM911.28,297.98l1.4.2,1-1.2.2-1.81,1.2-1.2-2.41-4.62-.8,1,1,5.22-1.61,1.41v1ZM913.69,322.46v-2.21l-.4-.6-.6.6.6,1.41.4.8ZM920.91,285.54l2.81-.4.4-3.41,2.61-.4,1.81-1.41-1.6.8-1.61-2.61,2.01-2.21-2.21-2.41-1.81.2.2-.4-2.21-1.41-3.61-.2-.8-1.2h-.6l-.2,2.01-2.41,4.82,2.81,3.21,1.2-.8,1.4.8,1,1.4,1.2.4-1.61,1.81,1.2,1.4ZM915.69,322.66h.6l-.6-1-.6.6.6.4ZM921.11,294.17h1.81l-.2-3.01-1-.2-2.41-2.01,1-.6-.4-1.81-1.61-.2-1.2,1.2,1,.8-1.2,1.2-.2,1.2,2.81-.6,1.41,1,.2,3.01ZM917.5,255.24h1.81l1.2-3.01-1.81.2-.2,1.2-.8.8-.2.8ZM918.3,296.98l.4-.4h-.4v.4ZM920.11,275.1l-.8.4v-.4h.8ZM921.91,288.15l.8.2.6-1.41h-1.4v1.2ZM921.91,315.84h.8l-.8-.6v.6ZM929.54,230.96h2.01l.4-1.2,1.81-1.41,1.2,3.61.2-6.62-1-.4-.4-2.01.6-1.2.8-7.22h.6l.8.8,1.2-.2v-1.81h-2.01l-.6-3.21-8.83-8.83-.2,2.01-1.81.8v7.42l.4,1.2-1,3.21v2.21l-1.2.8,1.81.8-1.4.2.6,6.82.2-2.81.6-.6.8-3.61h5.22l1.61,3.41-1.2.4-.6,2.21,1.4.8,1.81-1.2-.2,1.41-3.01,1.4v.8l.4.2-1.2,1.2.2.6ZM923.72,304h.6v-.8h-.6v.8ZM925.12,240.39h.6v-.6h-.6v.6ZM925.73,223.33l.6-.4h-.6v.4ZM937.77,211.89l.8-.6-.4-2.01h-1.2v2.21l.8.4Z"/><path class="cls-1" d="M972.28,338.52l-.6-.6-4.01-1-.8.6-4.42-1.41-2.81-2.81-3.01-1.4-2.81-2.41-1.81-3.41-4.82-2.01-1.61-1.61-1.81-1-.2-1.6-2.61-1-2.01-3.41-2.01-1.6-1-2.21-.4-2.61-2.61-4.42-.6-2.61-1.2-1.2-2.81-6.62-1-1.61.6-6.42-.2-2.21-.8-1,.6-2.61v-6.42l-.4-2.61,1-1.61-.4-.2,2.01-2.21.4-4.21-1.41-2.21,2.01-.8-2.01-2.61,1.41-.2-.6-.6v-2.41l-.4-.4.4-2.61,2.01-1-1.4-1,.4-3.61,1.4-2.81v-2.01l1-.2-.4-3.01.8-.4-.6-1.81,3.01-2.81,1.2.2,1.4-1,.2-2.41,3.41-2.81,1.2.6.4-1.61,3.01.8-.6-2.41,3.41-.4,3.81-1.4,1,.8,2.61-2.01h3.01l1-.4v3.21h-6.42l-1.6,1.81-2.21.2-1-.8v1.6l-1.4.6-3.61,3.21-1,2.61-2.01,2.21-.6,1.61-1.4,1.81-.2,2.61-1.81,3.81v3.21l-.6.8.4,1-.8,2.41v2.41l-1.2,5.82-.8,1v.8l1.61-.2v1.81l-1,8.63-.6,1,1,.6-.4,2.41-1,2.21-.4,3.01.8,4.21.6,8.23,1.6,2.61,1.41.4,2.41,8.83,1.2.6,2.81,5.02,3.41,2.41,1,1.41,3.61,3.41.2,2.21,1.81.4,3.01-.4.8.8,1.2-.8,7.02.6.8-.6,2.21.2.8-1.6,2.01-.2,3.61-1.41,1.41-2.81,2.61-1,3.41-3.21,1.2-4.62,1.61-2.81-.2-1.2,1.41-7.22,1.2-1.81v-2.81h.8l-1-6.22.2-5.42.8-.6-.8-6.62.6-2.01-.4-7.83.8-3.01-1.81-8.43v-11.24l-1.81-1.81.2-3.61h1.4v1.2l-.8,1.81,1,1.61,2.41.4,1.4,1.2,1,2.81,1.41.2,2.41,2.81,1,2.21,4.21,3.81,1.41-1,2.41,4.62.4,3.81,2.41,4.82-.8,3.61,1.4-.2-.2,2.01,1.81,2.01v4.01l-.6,2.81.2,2.81,1.4,1.6-1,2.41-1.2,1.4,1.81,1.2-1,1.2-.6,2.01.2,1.81-.6,1.81.6,2.81v5.02l-.6,4.01-1.41,5.82v4.82l-2.21,5.22-1.61,5.62-2.41,3.21-.6,1.81-2.01.8-3.21,2.41-3.01-.4-.4-.4-3.01,2.01h-2.81l-1.81.8h-1.81l-1.2-.6-3.01.6-1.4-.4-2.41,1.61-2.61-1ZM933.95,247.61h.6v-.4h-.6v.4ZM936.56,235.17h.4v-.6h-.4v.6ZM944.99,228.15l2.01-.4-1.81-.2-.2.6ZM951.82,298.98l-2.81-3.61-.2-4.41,1-1.2-.8-1.81v-2.61l-.6-1.2-.4-3.21.2-7.83.4-1.4-.4-2.01.6.2v-4.01l1.4-.8-.6-1,1-.4-.4-2.21.4-.8v-3.21l1.4,1.2.6,1.2,1.2-2.21,1-.2,1.2,3.41-2.21,1,.8.8-1,2.61,2.01,1-.8,1.6-1.81,1.2,1.61,1.2.2,1-1.61-.2v.6l1,1,1,2.01h1.4v-2.61l-.6-2.61.6-1.81h.4l.2,1.61.8-1.81-1-1.2,3.21-1.61.8.4.8-1.6,1.61-1.2-2.01-5.62.2-1.61-1.4.2-.6-1,.4-2.01-.6-2.21-4.01,2.21-.6-1.81,2.61.4-1-3.81.4-2.81.8-1.81,1,1.41,1.61-2.21,2.61.2,2.21,1.2h2.21l1,1.81,1.2.8.2,2.61.4.2,1.2-1.4,1,2.61.2,1.81-.6,5.22-2.21,1,1.61,1.2-.2.6,1.2,2.81-.2,3.01.8,4.01-.8,1.2.8,4.82-.6,5.22h-.6l.4,5.42-.6,3.61.2,2.01-.8,2.01-.6,3.61-3.61,2.21-4.01,1.2-.8,1.2-9.63-1.41-.4-1.4ZM951.61,267.28h.4v-1.2l-.4.6v.6ZM959.64,248.01l1.2-.4-1.81-.4v.4l.6.4ZM961.05,297.58l1-.8v-.6l-1.2.6.2.8ZM962.05,266.68v-.6h-.4l.4.6ZM962.65,253.83l.8-1.2-.2-1.81,1-.6-1.2-.8-1,3.81.6.6ZM963.45,255.24l1.2-.6.6-1.41-.6-1-.6,1.81-.8.6.2.6ZM968.27,331.9l.8-.8-2.21-1.81-1.4.6.2,1.2,2.61.8ZM976.7,225.94l-2.61-.4-3.01-1.6-.6,1.81-2.41-1.81,1.61-1.61,5.22.8,1.4,1.2,2.01.2,1.4-.6-1.4,2.61-1.61-.6ZM971.68,324.87l.6-1.61h-2.01v1.2l1.4.4ZM971.08,329.89h.6l-.6-.4v.4ZM980.11,334.91l2.21-2.41-.6-.4-1.4.4-3.61-.2,1.61,2.01,1.81.6ZM987.54,333.9l1.4-.8,1.81.2,2.21-2.21,2.41-1,1-2.61,2.01-1.41.8-1.2-.2-3.21.8-2.21,1.2-6.82,1-1.2.6-3.01-.4-2.01-1.2-2.41,1.4-2.21v-2.01l1.81-1.81-1.41-2.41h-3.41l-.8,2.01-1.2-1.4-1,.8,1.4,1.81,1.41,5.42,1.2,1.81-1.4-.2-.4,1.81.2,1.81.6.4-1.81,1.2h-1.81l-1.6,2.21.4.6h-1.61l-.6-2.01.4-2.01-.4-.8-1.4,1.2.8,1.81-.2,2.81h2.61l-.6,1.6,1.81,2.01v.8l-1.61,2.01.8,2.21-.4,1-1.41.4-3.21,2.41-3.41,1.81-1.2,2.21-1.4,1.2.2.6,3.01.2.8.6ZM991.15,321.86v-.6h-.8l.8.6ZM993.76,254.23l.2,1,2.21-2.21-1.41-.8h-1.2l.2,2.01ZM994.16,257.65l.6-1h-1l.4,1ZM997.97,280.32l1.2-1.61-1.61-1.2-1.2,2.81h1.61ZM996.97,257.45l.8-.8-1,.6.2.2ZM996.77,306.21h.6v-.4l-.6.4ZM997.17,273.7h1.6l.4-1-.4-.4.2-1.41-1.61,1.2-.2,1.61ZM997.77,270.29l1-.4-1-3.21-.4,2.41.4.6v.6ZM1000.38,270.29l.6-.6.2-4.01-2.21.2,1,1.41.4,3.01ZM999.78,308.82h-.6l.6-.6v.6ZM1001.78,274.7h2.01v-2.01l-2.01,2.01ZM1002.79,257.04l1-1.2-1.6-.6.6,1.81ZM1008.81,274.1l.4-.4-.6-1.2.2,1.6Z"/><path class="cls-1" d="M1029.27,336.91l-1-1-3.01-4.62-1.61-1-1.81-2.81-3.21-3.41-6.02-3.61-1.2-10.03.8-2.61.4-7.63-.6-2.81h2.81l1.81-.6-3.81-1.81,1-1.81v-9.83l2.41-4.21-.4-3.41.4-2.01.8-.6-.6-1.81,1.2-2.41-.8-1,.6-6.22-.6-1.61,2.81-2.01-.8-1.81-.2-3.21,1.4-9.23.8-1.41v-6.02l.4-2.21-.6-4.21,1-1.41v-2.01l.8-1.4-.8-.8.2-2.41,8.23.2,1.2.4,1.4-.2,4.21,1,1.2-1,2.01.4,6.02-.4.8,2.21,1.4-1.4,3.41-1,1.4,1.2,2.81-1.2.8.6,2.01-1.4,6.82-.2,1.2,1.2.6,3.61,1.61,4.01,1.81,1.81,1.81-.2.8,1.61-.2.8,1.41.4,2.01,1.81-.2,2.01,1.4,2.61,2.61.8.6,1-1.81.2,1.6,4.01.8-.8h.8v1.2l-1.2,1.41-.2,3.81h-1.2l-1.4,1.2.2.4,2.01-.2,1,1.4v4.42l-.6,2.01h-1.2l-.8.6,1,.6-.2,1.2.6.4-.4,1.6,1.61.8-1.4,3.61-1.2-.6-.6,2.41-2.61-1-2.21-.2-3.21.6-1-.6-1.81,1.41-2.41-1.61-1.2,3.21-2.01-.4-2.41,2.21-1.61.8-1,1.41,1.4-1,1.81.2,1-1.81h1.41l-.8,1-.4,1.61-4.41,1.4,1,1v1l1,1.4-1.2,1.81-.8.2-.4,6.22-1.2.8,1.2,1.81,2.01,1.61-1.81.8-.2,1.2,1.81.2,1.2,3.61-1.81,2.61-2.41.4v2.01l-.8.8,1.2,2.81-2.21.8-2.61.2.4-.4.4-2.41-1.4-.4,1.61-3.21-1-.6.2-2.01-1.61-.6-.6-3.61h-.4v10.44l-1.6,1,1,1.2v.6l1.4,1.4-1.61,3.41.6,2.01,2.41,2.81,2.41-2.41-1.6.2-.4-1,2.41-.6-1.81-.8v-2.01l-1-1,2.01-1,3.01.8-1.2.6-.2,1.2-1,.8,1.2.6,2.01-.2v2.21l4.01,2.21-2.81,3.21-2.21,1.2,2.61,3.21-1.2.6-.8,3.01h2.21v1l1.4,1-.8,1,2.61-.6-.2,2.21-3.21,3.01-1.6-.4-4.21.6h-4.41l-1.41,1-4.61-.4-1,.6h-5.22l-2.61-.8h-2.01l-1.81-2.61ZM1019.44,296.18l-.2-3.01-3.01-3.41.2-3.01-1.81.2,1.2,2.41v1.61l1.2,1.2-.2,2.01,1.2.2.2,1.81h1.2ZM1018.44,312.83l-.4-1.61.6-2.41-1.4-2.21,2.21-2.81v-1.2l-2.41,2.21-.8,1.81.6,4.62h-.8l.2,1.4h1.2l1,.2ZM1019.44,288.75v-2.61h-1.2l.2,1,1,1.6ZM1018.24,301.19l.8-2.21-.2-1.41-.6.6v3.01ZM1018.84,278.72h.8l-.2-1.4-.6.8v.6ZM1026.06,318.45l1,.8,1.61.2,2.21,1.41,1-.8,4.82.2,2.81-1.2-.6-2.21.6-2.41v-3.21l1.41-.4.8-2.01-2.21-1,.2-6.82.6-1.61-.2-1,.8-2.81-.6-.4-.8-4.01.2-7.83.8-1.61-.2-2.21.4-.4v-3.41l.8-1.81v-4.82l.4-.4-.6-.8,1.4-2.61-.8-.6.2-2.81.8-1.2,1.2-5.62,4.62-5.02,1,.2,5.02-2.41,1.81-.2,1.6-2.01,1.2-3.81-.2-2.81.6-4.42-.8-1.4.6-2.61-.6-4.01h-7.42l-.8.6-5.22,5.82-6.82.2-1.2-.8-.2-2.01-1.2-3.81-5.02-.2-2.01,7.22.6,2.21-4.62,1.4.2.8,2.81-.2.2,1.2-1.61.4-.4,1,1.81-.6v2.61l-3.21-.2-1-1-1.6-.4.4,4.21,1.2-.4,3.61.8v1.2l-.6.6-.6-.6-.8.6,2.01,2.01-1.2,8.23.2,4.41-.6,1v2.01l-1.2,2.41-2.21-.6v.8l2.01.2v9.63l-.6.8.2,1-.6,2.01v4.21l-1,6.42.4,2.01-1.4,6.82.4,1.2-.8.6.4,4.42-.4,4.41.6,2.01-.6,2.61,1.81,1.81,3.21.8ZM1023.25,247.61h.6v-1l-.6.6v.4ZM1023.25,253.63l1.2.2v-1.61l-1.2-.2v1.61ZM1027.27,243l-2.61,1.4,1-1.4h1.61ZM1025.06,228.15l.8-.6h-.8v.6ZM1039.51,334.7h.8v-.8h-.8v.8ZM1041.51,307.61l.4-1.4-.8.2.4,1.2ZM1050.34,287.15l1-1,1.61-.6-1-.8,1-1.81,1.61-.4-1.2-1.2.4-3.21-.6-2.01-.4,1.2-1,1-1.2-3.21-1.61.4v10.84l1.4.8ZM1051.75,334.5l1.2-.6h-1l-.2.6ZM1053.35,328.89h.6l-1-.6.4.6ZM1054.56,300.19h.8l-.2-.6-1.2-.2.6.8ZM1056.56,321.26h.4v-.4h-1l.6.4ZM1057.97,254.44l2.61.8,1-.6.8.6.8-.6-.2-1.41-3.81-1.4-2.61,1.81.4,1,1-.2ZM1059.77,258.65h.6v-1h-.6v1ZM1070.81,270.09l-.2-2.81,1.2-.4,2.41-2.01.4-.8,1.61-.2.6-2.21h1.61l-.2-.4-2.41.6-1.81-.8-1.61.8h-3.61l-3.41-3.21h-.6l.4.8-2.41,2.21.6,2.01.6.4.4,1.81,2.41,2.61,3.01.6,1,1ZM1070.01,246.81l2.41.4.8-.6-2.21-.6-.8-1,2.21.4,2.41-.8-.8-.6v-.8h-1.61l-.2-.8-1.2-.8-1.4-2.61-1.2,3.81.2,1.81-.6,3.01,2.01-.8ZM1076.63,250.22h.8l-1.4-.6.6.6ZM1078.04,266.07v-1.4h-.6l.6,1.4ZM1078.44,247.61l.6-.4v-.6h-.6v1ZM1079.24,258.45l.6-1.61-.8-.8-.2,1,.4,1.41Z"/><path class="cls-1" d="M1128,345.94l-1.81-.8-2.61-3.81-1.4-.8-2.41-2.41-5.02.6-3.21,1.2-4.62-1-2.01.2-4.01-2.21-.8-1-1.2.2-.2-1.2h-3.21l-1.2-.8-1.81-.4-2.21-1.61-2.01-3.41-1.2-.4-.6-1.4-1.81-.2v-2.01l-3.81-4.21v-3.01l-1.41-7.63.8-.4-.4-1,.6-3.41.8-1.61-3.01-2.21-.2-6.02,1-1.41-.8-.8.6-3.21-.8-3.61.4-5.42,1.61-1.4-1.81-2.01-.2-1.81,2.01-.6,1,2.21.2,1.6-1,1.81v2.01l2.21,1-1,1,.8,2.41,1.61-1.2v1.61l1.2,1.4-2.41-.8-1.4,3.21,2.61.4,1.81,1.61.2,2.41-1,1.2-.2,1.81.6,1.2-.4,1,1.81,1.81-1.2,2.01,1,1.2-.2,2.21-.4.4.4,3.41-.6.4,1.61,1.2.4,2.41,4.21,5.82,5.82,1,4.82.2,3.41-2.21,6.82-2.41,1-1,2.61-1.4.2-.6,4.01-2.21,3.21-.6,3.01,1-.2,3.01.4,4.82,1.2,2.21,1-.4,1.4.4,2.61-.6,1.4.6.2-5.02,2.21-.4-2.01-.8-.4-2.61.8-1.61v-5.42l1.4-3.61.6-3.01-.6-4.62.8-6.62-.2-5.02h1l-.2.6,1.61.2v-4.21l-2.01.4.2-1.4,2.61-1.61-2.01-.6-.8-1.81.6-1-.2-.4,1.2-1.6-1-.8v-1.41l1.61-2.21-1.4-2.01-.6-6.82.2-4.21,1.2-1.61.2-1.6-1.2-1.41v-1h1l.4-2.21,2.01-.4v1.2h1l.2-2.61,1-.4-.6,2.01,1.41,1.61v.8l1.6,1.41-1,1-1.2.4-1,1.61,1,.2,1.81-1,3.81,1.2,1.81,2.21-1.2,1.41-2.01-2.41-.8.6-.4-1.2-1.61,2.21v2.01l-.8,1.2-.4,1.81v4.62l-1.2,1.4,1.81,1.2-.4,2.01-1.61.4-.2,1.6,2.01-.2.4,1-2.21,1,.2,3.21-.8,1.2.6.4v1.81l2.61,1,4.21-.2,3.21-1-.2-.8-1.81.2-1.2.8v-2.21l.8.2,1.2-.6-1.61-1.4,3.41.6,1.2-.8,1.6,1-.6-2.81.2-1.81,1.4-2.01-.8-.4,1.4-1.61-.6-6.62.8-2.61-1.4-.6,1.2-1.4-.6-4.42,1-2.41-.4-1.81.8-2.01-.6-1.81.2-2.01-.4-1.4,1.4-.4.2-5.62-1.2-.8.2-1,1.2-.6-2.81-1.61-2.41,1.41-.2-4.62,1-2.81v-1.81l2.01.4.6-1.4,2.21-1,.6-1,.2-1.6h-2.81l.2-5.62-.4-6.22-1.2-1.2.6-1-1.2-.8-.6,1.2-3.21-.8-1.4-4.41-.8-.6-.8-2.41h-1.4v1.2l-1,.6-3.61-.8-1-1,.6-.2-1-2.61-1.61-1v-1.81l.6.8,1.81-.4,2.41.4,1.81-.2,3.61.8,1.2,5.22,1.2-.8,1.2,2.41.2,2.81h1l.2-3.01,1.2,1.61.6,2.81,3.61,1.4.8,2.01.8.6,1,3.41-2.61-1.81-.2,1.41,2.01,1.2.4,1.81.2,6.42-1,1.81-2.61,2.41-2.41.8v1.2l-1.2,1.4v1.61l1.81-.4.4-1.81,1.2-1.81.8,2.41h2.01l.4,1-3.01.6.2.8h1.61l1.2,1.41-2.01,1.81,2.41.8-.2,2.21-1.2,1.4v.6l1.6.4-.4.4-2.01.2.8.6-1.41,1.61.6,1,2.01.2v1h1.2l.2,2.41-4.01.2.2,2.41h1.2l.6-1,.8,2.81-.8,1.41v1.4h.6v.8l-1.2,1.6.8.6.4,1.61-.8,3.21.2,2.01-.4.8.4,6.02-1.2,4.21.8,1,.4,9.03-.2,6.62h-1.2l-.6.8,1.61,1-.4,1.81.2,2.01,1,1.81-.2,2.21-1,1.81,1,4.82v2.41l-.8,1.2v7.02l-1,2.61,1.2,1.2-1.61,3.01,1.2,1.61-.6,2.41v3.41l-.8.8.8.8v3.41l-1.4,3.41-5.22,3.21-5.02-.2-1.4,1-3.01.6-1.61-.4-1-1.4-1.2,1.4-1.81-.2-1,1.2-3.61-1.2-.6.6-1.41-.6-3.01.6-1.81-1.61ZM1080.24,253.23v1.2l1,.2.8-1,.4,2.21,2.81,2.41v1.2l-1.4,1.4h-1.41v-2.41l-1.81-.4.4,2.61.8,1.81,1.4.8.6,2.61-.6.6h-2.81l-.8,1.2-.6-.6-1-3.01,1.81-1-1.61-3.01,1.4-4.01-1.2-.6,1.81-7.02,2.41-.2-1.4.6,1.4,1.4.8-.2,2.61,1.81.4,2.01-3.21,1.61,1-3.01-1.61-.8-.6,1.4h.4l-.4.6v-.6l-1.81.2ZM1080.24,287.35v-.8l-.6-.6v.6l.6.8ZM1080.84,299.59l1.4.2v-.8l-1-.6-.4.6v.6ZM1081.04,294.77h1.61v-2.01l-1.4.4-.2,1.6ZM1084.66,240.19l1.61-.8-.4-2.61,1.4-1,.4,3.41-.4.6,2.41,1.4-.6,1.41-3.21,1.2v-.8l-1.2-2.81ZM1101.51,330.49h1.2l.4-1.2,1.2-1,3.81-1.4,2.81-.4,1.61-1.41-1.41-1-5.02,2.41-2.81-.4-2.01.8h-5.02l-.4.4,1.61,1.41,1.81.4,2.21,1.41ZM1101.31,304.6l1.4-1.81-1.81-1.61-2.21-.4-1.81-2.81.6-2.81-.2-1.61.4-7.02-.8-.6.8-3.61.8-.6v-2.21l-1-1.2.2-6.02,1-4.01.2-4.82.8-2.01v-1.2l1-2.21,2.61-.8-.8-1.2,1.2-.4,1.81-2.61,2.41-2.01,5.22-1,3.41.6,2.21,4.01,1.61,6.62v3.41l.6,2.81-1,5.02.4,2.81,1.2,2.61-1.4,2.01v4.82l-1.61,6.02.4,2.41-1.2.2,1.2,1.61-2.41,4.82-.8.6-1.2,2.21-4.42,3.61h-2.61l-1.61-1-5.02,1-.6-1,1-.6ZM1100.31,277.91l.8-.6v-2.01l-.8-1.61-1.61,1,1.61,3.21ZM1103.92,225.74h1.4l1-.8,2.61.2.2,1.81,1,1-1.2.8-.6-.6-4.41.8-2.21-2.61,2.21-.6ZM1103.32,258.25l1.4-.6h-.8l-.6.6ZM1107.93,290.76l-.2-3.41-1.2,2.21,1.4,1.2ZM1119.17,235.37l-4.01-.8-.2-2.81-2.61-1.61h-1.4v-3.61l2.61-1,1,1.41,2.81-.2,1.2.4,3.81,4.21v2.21l-1.81,2.41-1.61.8-.8-.8,1-.6ZM1115.36,230.76h.6v-.6h-1.2l.6.6ZM1121.78,193.03l-.2-.8-1.2.2-1.2-1.41,3.81-.6,1.2-1.41,2.41,3.01-2.21,3.01h-2.41l-.2-2.01ZM1136.03,331.9l.8-.6.4-1.81-3.41.6,2.21,1.81ZM1138.44,243.2l1-.4-2.21-.8.8-6.62,4.01.4v-1.81l-1.61.2-.6-2.41.8-.6-.2-2.01,1.61-.4-.4-3.21,2.81-.4,2.01,1.2-1.2,5.42.6,2.21-2.41,5.42v1.41l-1.2.6.8,2.01.8-.8,1.4,1-3.41,2.41-3.41.8-.4-.8.4-2.81ZM1140.44,254.44l1.41-.6h-.8l-.6.6ZM1144.46,319.86l3.01-1.2-1.81-.6-.2-2.21,1.41-.4v-3.21l-2.41.2-1-.4,2.01,1.2-3.41,2.01,1.2,2.41,1,1,.2,1.2ZM1146.87,306.41l2.61.6.4-3.81-1.2-2.01-2.21-.8.6-3.01-.2-3.81-3.21.2,1,2.21-1.4,1.2,1.2.8v.4l-1,.2-1,1.81,2.41,2.01h2.01l1,3.21-1,.8ZM1145.46,291.36l-.8-2.41h-1.2l-.2,2.81,2.21-.4ZM1143.45,259.45h1v-.6h-1v.6ZM1143.45,287.95h1v-1.41h-.8l-.2,1.41ZM1144.46,199.25h.4l-.4-1.2v1.2ZM1145.66,342.93l5.42-.6,1.4-1.2.2-.8,1.81.8-1.2-4.01-4.82.6-1.81,3.01-1,2.21ZM1148.47,333.9l1.41-1.81,2.01-.2,3.01-1.4-.8-3.01-1.81,2.01h-.8l1-2.01,1.81-.2.8-3.61-.8-1.81.8-3.61-1.61-1.4h-1l.2-2.01-2.01.2-1.2-1.4,3.01-.6.4-1.61-1.2.2,2.81-1.81-1.2.2,1-2.21,1.61-.4-1.2-3.01-1.61,1.61.2.4-1.2,3.01-2.41,1.81-.8-1.81-2.01,2.01,1.6,1-.4.6.4.4v2.01l1,.6.4,1.61,3.01,1.6-3.01.6v2.41l2.61,1.61-.2,1.81-2.41-.2-1.61-.8-1.4.4v3.01l1.2.2,1-.6-1.2,1.81.4,2.01-.6,1.4.8,1ZM1149.47,274.7l-1.6-.8,1.6-.6-.4-1.2.6-2.21,1.4.8,1.81.2.2,1.81-1-.4-1.2,1,1.2.8.2,1.61,2.21,1.61-5.02.6v-3.21ZM1149.88,213.1l-.4-.8.8-.8-.8-.8v-1l2.41-.4,1.6-.8,1.41,2.21-2.01.8-1.81,2.21v2.21l-1.2-1.61v-1.2ZM1152.68,303.4l2.41-.6-.4-1.81,1.4-4.42.8.2.6-1-2.41-1.6-.2,1.81-.4-.6h-1.4v2.01l-.4.6-.8-1.41-.8-.2-.4,1.61,2.81,1.4h-2.41l2.61,1.2-1.2,2.41.2.4ZM1151.08,290.36l.8-.2-.8-1v1.2ZM1154.49,280.92h.4v-.6l-.4.6ZM1155.49,283.33v-1h-.8l.8,1ZM1155.49,285.34h.6l-.6-.6v.6ZM1159.91,264.67h.6l-.4-1.61-.2,1.61ZM1160.31,218.71h1.61l.6-.6-1.4-1.41-.8-.2v2.21Z"/><path class="cls-1" d="M1196.63,334.5l-3.21-3.21-.2-1-3.61-.2-2.21-1.2-2.21.2-3.81-2.21-.4-1-3.01-2.21-4.21-1.81-6.02-8.23-1.81-3.61-2.81-10.23,1.2-9.23-.2-2.81,2.01-2.21,1.6-.4,1.61.2,2.41-.4,5.22-1.81,5.42-.8-.2-1.81-3.21-3.81-3.01-4.62-1-.2-2.21-2.81.6-.4-.6-1.4h-1.4v-.6l1-.6-2.41-.6v-1.41l-1.4.6-1-1.81-1.2-6.22-2.21-2.81.6-2.61-.6-.8.8-2.61.6-4.62,1.2-3.61,2.41-3.81,5.02-4.82-.2-1.41,3.21-3.41,7.42-4.62h1.61l7.22-3.21,4.62-1.61,5.22,1.81,2.21,1.61h2.01l1,1.6,2.21.6,2.41,1.61-.2.6h1.81l3.81,2.41,7.02,3.21,2.61,2.41v1.2l1.41-.2,3.41,1.41.6,2.21.8.4,1,2.01,1.61,9.23,1.61.8v.6l1,.8v.6l.6.2-.2,7.22-1.2,1.41.2,1.4,1.4-.6-.4,2.41-.8.2,1.2,2.41-1.2,2.01-1.2,3.41-3.21.8-2.81,1.6-2.41-.4,4.82,6.02,1,2.61,2.01.8,1.2,2.41-1-.2-1.41-1.61-1.4,3.41,5.42,1-.2,1.81,3.01,4.41.4,2.21-.4,3.01,1.81,8.23-2.41,5.62-2.41,2.21-1.2,4.21-2.61,2.61-1.4,3.21-2.41.6-.4,1.41-2.01.4-5.42,4.62-6.02,1.2-.8.8-2.01.2-4.41,1.2-2.21-.2h-10.03l-.6-.6-1.81-.8ZM1168.34,254.64v-.6h-.6l.6.6ZM1188.6,319.05l2.81,1.2h2.21l1.61.6,1.61-.8,10.84-1,.6-.8,3.41-1.6,3.81-2.81,1.81-2.01,1-2.81,1.61-2.21v-3.61l2.61-6.42v-3.01l.6-.6-.6-.8.6-1.4v-1.61l1.41-.8-2.01-1.2-.8-2.61-1.2-.6-1.81-2.81-5.02-4.82-1.81-4.21-1.61-.2-2.01-2.41-4.21-1.81.2-1.2-3.81-1.2-2.41-2.41.2-1.6-5.62-1-.8-2.01-.2-4.42-2.61-.4.8-1.41-.8-.6v-3.41l2.21-3.61,1.61-.6,2.61-2.01,5.62.6,3.41,2.61,1.2,2.01-1.2,3.61.4,3.81.8.6,1.2-1.6,3.21-.2,6.62-2.01,1.4-1.61-2.21-2.41-.6-4.01.2-2.21-1.61-6.22-2.01-3.81-4.01-2.41h-1.41l-1.6-1.81-.2-1.81-2.61-.4-2.21-1-3.61-.4-2.81-1.4-2.21,1h-2.61l-1.4,1.4-4.82,1.81-3.61,2.21-1.2,3.41-3.81,4.21h-1.2l-1.61,3.21-.2,2.61-.6.6-.4,4.82,1.41,7.43,1.2,1.4v3.01l-.8.8,2.21.6,1.81,3.41,5.42,5.22.4,1.41,3.21,1.2,1.4,2.01v.6l3.41,3.21,1.2,3.01,1.2.4.6,1.41,2.61,2.21,2.41,2.81.6,3.01v3.61l-.8,1.4.2,2.01-3.21,2.01-3.81,1.2h-2.61v-.4h-1.2l-1.61-1.81-1.61-.8-2.21-2.41-1.41-4.42v-2.61l-1,.6-2.61-.4-6.82,2.21-.8,7.63.4,2.01,3.61,7.22,1.61,1.81,3.61,5.02,2.21,1.61,6.62,3.21h2.01ZM1190.41,291.36l-.4-1.81-1.81-1-.8-2.41-.8-.2-.8,1.41.8,3.21h1.81l.6.6h.8l.6.2ZM1190.41,294.37l.6-.8-1.2-.4v.6l.6.6ZM1198.04,256.64l.4-.6h-.4v.6ZM1205.06,328.28h1.81l-.8-.6h-1.2l.2.6ZM1225.93,329.29l2.41-3.61,2.01.2.6-1.41,1.4-1.2,2.01-4.01,1-.8,2.21-4.01v-3.61l-2.21,1.81-2.21,1-.4,2.61-1.61.6-.6.8-2.21.2-.2-2.01-1.2,4.82-1.81,2.61-2.61,1.2.2,1.81-.8,1.61,3.01.4,1,1ZM1224.93,252.63v-.4l-1.61.2,1.61.2ZM1224.93,291.16h.6v-.6l-.6.6ZM1226.13,258.05h.8l-.8-.8v.8ZM1226.13,282.33h.8l-.8-.6v.6ZM1227.94,292.76l4.62-3.41-2.81-1.81.2-2.01-.4-.6-1,.6.4,3.61-2.81,2.41,1.81,1.2ZM1226.13,293.77h.8l-.8-.6v.6ZM1228.54,256.64h1v-.6h-1v.6ZM1229.54,260.46l.4.2v-1.61l-.4.6v.8ZM1234.56,260.46l.4.2v-1.61l-.4-.6v2.01ZM1237.37,290.36l1.2-.6-.8-1.6-.6,1.2.2,1Z"/></svg>